<svg xmlns="http://www.w3.org/2000/svg" viewBox="0 0 800 1120"><defs><style>.cls-1,.cls-2,.cls-3,.cls-4{fill:none;stroke:#231f20;stroke-linecap:round;stroke-linejoin:round;}.cls-1{stroke-width:0.6px;}.cls-2{stroke-width:0.18px;}.cls-3{stroke-width:0.3px;}.cls-4{stroke-width:0.75px;}</style></defs><g id="Wall"><rect class="cls-1" x="332.06" y="533.67" width="3.13" height="3.13"/><rect class="cls-1" x="435.38" y="563.1" width="3.13" height="3.13"/><rect class="cls-1" x="332.06" y="509.25" width="3.13" height="3.13"/><rect class="cls-1" x="332.06" y="484.2" width="3.13" height="3.13"/><rect class="cls-1" x="332.06" y="459.15" width="3.13" height="3.13"/><rect class="cls-1" x="332.06" y="434.11" width="3.13" height="3.13"/><rect class="cls-1" x="360.86" y="430.35" width="3.13" height="3.13"/><rect class="cls-1" x="385.91" y="430.35" width="3.13" height="3.13"/><rect class="cls-1" x="410.96" y="430.35" width="3.13" height="3.13"/><rect class="cls-1" x="436.01" y="430.35" width="3.13" height="3.13"/><rect class="cls-1" x="461.05" y="430.35" width="3.13" height="3.13"/><rect class="cls-1" x="335.82" y="430.35" width="3.13" height="3.13"/><rect class="cls-1" x="464.81" y="534.3" width="3.13" height="3.13"/><rect class="cls-1" x="464.81" y="509.25" width="3.13" height="3.13"/><rect class="cls-1" x="464.81" y="484.2" width="3.13" height="3.13"/><rect class="cls-1" x="464.81" y="459.15" width="3.13" height="3.13"/><rect class="cls-1" x="464.81" y="434.11" width="3.13" height="3.13"/><rect class="cls-1" x="360.86" y="563.1" width="3.13" height="3.13"/><rect class="cls-1" x="385.91" y="563.1" width="3.13" height="3.13"/><rect class="cls-1" x="461.05" y="563.1" width="3.13" height="3.13"/><rect class="cls-1" x="464.81" y="559.34" width="3.13" height="3.13"/><rect class="cls-1" x="335.82" y="563.1" width="3.13" height="3.13"/><rect class="cls-1" x="332.06" y="559.34" width="3.13" height="3.13"/><rect class="cls-1" x="410.96" y="563.1" width="3.13" height="3.13"/><line class="cls-1" x1="335.19" y1="562.47" x2="335.19" y2="559.34"/></g><g id="Window_Door_Stairs" data-name="Window/Door/Stairs"><rect class="cls-2" x="418.79" y="503.61" width="6.26" height="9.39"/><polyline class="cls-2" points="403.13 487.96 403.13 478.56 396.87 478.56 396.87 487.96"/><polyline class="cls-2" points="410.33 513 410.33 503.61 389.67 503.61 389.67 513"/><path class="cls-2" d="M385.28,448.82a10.3,10.3,0,0,0-.72-3.8,10.24,10.24,0,0,0-2.3-3.5,10.37,10.37,0,0,0-3.5-2.31,10.38,10.38,0,0,0-7.61,0,10.39,10.39,0,0,0-5.8,5.81,9.83,9.83,0,0,0-.56,1.92,10.48,10.48,0,0,0,0,3.76,9.83,9.83,0,0,0,.56,1.92,10.31,10.31,0,0,0,5.8,5.81,10.54,10.54,0,0,0,1.92.55,10.48,10.48,0,0,0,3.76,0,10.88,10.88,0,0,0,1.93-.55,10.31,10.31,0,0,0,5.8-5.81,10.3,10.3,0,0,0,.72-3.8Z"/><path class="cls-2" d="M400.63,511.71a.59.59,0,0,0-.05-.23.64.64,0,0,0-.14-.22.6.6,0,0,0-.21-.14.68.68,0,0,0-.46,0,.6.6,0,0,0-.21.14.64.64,0,0,0-.14.22.59.59,0,0,0-.05.23.68.68,0,0,0,.05.23.64.64,0,0,0,.35.35.68.68,0,0,0,.46,0,.64.64,0,0,0,.35-.35A.68.68,0,0,0,400.63,511.71Z"/><path class="cls-2" d="M455.42,503a5.23,5.23,0,0,0-.09-1,4.89,4.89,0,0,0-.29-1,5.3,5.3,0,0,0-1.18-1.81,5.45,5.45,0,0,0-1.81-1.18,5.62,5.62,0,0,0-1-.29,5.22,5.22,0,0,0-1.93,0,5.62,5.62,0,0,0-1,.29,5.45,5.45,0,0,0-1.81,1.18,5.3,5.3,0,0,0-1.18,1.81,4.89,4.89,0,0,0-.29,1,5.23,5.23,0,0,0-.09,1,5.12,5.12,0,0,0,.09,1,5,5,0,0,0,.29,1,5.26,5.26,0,0,0,1.18,1.8,5.48,5.48,0,0,0,1.81,1.19,5.6,5.6,0,0,0,1,.28,5.22,5.22,0,0,0,1.93,0,5.6,5.6,0,0,0,1-.28,5.48,5.48,0,0,0,1.81-1.19A5.26,5.26,0,0,0,455,505a5,5,0,0,0,.29-1A5.12,5.12,0,0,0,455.42,503Z"/><path class="cls-2" d="M340.83,491.09h41.64a3.14,3.14,0,0,1,3.13,3.13v12.52a3.12,3.12,0,0,1-3.13,3.13H340.83a3.12,3.12,0,0,1-3.14-3.13V494.22a3.14,3.14,0,0,1,3.14-3.13Z"/><line class="cls-2" x1="459.8" y1="566.23" x2="439.76" y2="566.23"/><line class="cls-2" x1="459.8" y1="561.85" x2="439.76" y2="561.85"/><line class="cls-2" x1="336.44" y1="538.05" x2="439.14" y2="538.05"/><line class="cls-2" x1="431.31" y1="513.01" x2="463.56" y2="513.01"/><line class="cls-2" x1="396.56" y1="487.96" x2="463.56" y2="487.96"/><line class="cls-2" x1="336.44" y1="462.91" x2="463.56" y2="462.91"/><line class="cls-2" x1="336.44" y1="487.96" x2="396.56" y2="487.96"/><line class="cls-2" x1="336.44" y1="513.01" x2="418.79" y2="513.01"/><rect class="cls-2" x="439.14" y="528.66" width="6.89" height="9.39"/><rect class="cls-2" x="452.91" y="528.66" width="6.89" height="9.39"/><polyline class="cls-2" points="452.91 528.66 446.02 528.66 446.02 538.05 452.91 538.05"/><polyline class="cls-2" points="446.02 528.66 439.14 528.66 439.14 538.05 446.02 538.05"/><polyline class="cls-2" points="435.38 566.23 332.06 566.23 332.06 430.35 467.94 430.35 467.94 566.23 464.18 566.23"/><polyline class="cls-2" points="425.05 513 431.31 513 431.31 503.61 425.05 503.61"/><line class="cls-2" x1="459.8" y1="538.05" x2="463.56" y2="538.05"/></g><g id="Accessory"><polyline class="cls-3" points="461.05 566.23 459.8 566.23 459.8 561.85 463.56 561.85 463.56 434.73"/><polyline class="cls-3" points="438.51 566.23 439.76 566.23 439.76 561.85 336.44 561.85 336.44 558.09 332.06 558.09 332.06 559.34 335.19 559.34"/><polyline class="cls-3" points="435.38 563.1 335.19 563.1 335.19 562.47"/><line class="cls-3" x1="335.19" y1="536.8" x2="335.19" y2="434.11"/><polyline class="cls-3" points="336.44 538.05 332.06 538.05 332.06 536.8"/><line class="cls-3" x1="336.44" y1="434.73" x2="336.44" y2="538.05"/><line class="cls-3" x1="463.56" y1="434.73" x2="336.44" y2="434.73"/><polyline class="cls-3" points="464.81 562.47 464.81 563.1 461.05 563.1"/><line class="cls-3" x1="464.81" y1="434.11" x2="464.81" y2="559.34"/><polyline class="cls-3" points="335.19 434.11 335.19 433.48 464.81 433.48 464.81 434.11"/></g><g id="TEXT"><path d="M31.17,1024.55H26.49v-.9h1.88v-6.92l-1.78.89v-1l1.93-1h.89v8h1.76Z"/><path d="M62.5,1016.63a4.67,4.67,0,0,0-1.5-.27,2.24,2.24,0,0,0-1.32.37,1.23,1.23,0,0,0-.51,1c0,.54.45,1,1.33,1.42.66.3,1.09.51,1.31.63a3,3,0,0,1,.64.49,2.29,2.29,0,0,1,.53.73,2.2,2.2,0,0,1,.2.94,2.44,2.44,0,0,1-.87,2,3.15,3.15,0,0,1-2.06.72,4.33,4.33,0,0,1-2-.45l.22-.89a4.55,4.55,0,0,0,1.77.46,2.14,2.14,0,0,0,1.42-.46,1.57,1.57,0,0,0,.53-1.26,1.5,1.5,0,0,0-.35-1,3.64,3.64,0,0,0-1.28-.85c-.64-.29-1-.49-1.24-.6a3,3,0,0,1-.55-.44,2.06,2.06,0,0,1-.43-.64,1.8,1.8,0,0,1-.16-.77,2.05,2.05,0,0,1,.8-1.72,3.19,3.19,0,0,1,2-.62,6,6,0,0,1,1.77.27Z"/><path d="M70.43,1024.55H67.74v-8H66v-.85h2.7v8.05h1.71Z"/><path d="M78.85,1021.29H74.34a2.69,2.69,0,0,0,.65,1.85,2.05,2.05,0,0,0,1.59.72,5.84,5.84,0,0,0,1.84-.32l.17.79a4.9,4.9,0,0,1-2,.39,3.11,3.11,0,0,1-2.36-.94,3.56,3.56,0,0,1-.89-2.54,3.7,3.7,0,0,1,.8-2.49,2.63,2.63,0,0,1,2.08-.93,2.45,2.45,0,0,1,1.9.86,3.37,3.37,0,0,1,.76,2.31Zm-1.07-.8a1.84,1.84,0,0,0-.48-1.29,1.44,1.44,0,0,0-1.07-.53,1.72,1.72,0,0,0-1.27.51,1.94,1.94,0,0,0-.55,1.31Z"/><path d="M86.61,1021.29H82.09a2.69,2.69,0,0,0,.65,1.85,2.05,2.05,0,0,0,1.59.72,6,6,0,0,0,1.85-.32l.17.79a4.93,4.93,0,0,1-2,.39,3.08,3.08,0,0,1-2.36-.94,3.52,3.52,0,0,1-.9-2.54,3.66,3.66,0,0,1,.81-2.49,2.59,2.59,0,0,1,2.07-.93,2.45,2.45,0,0,1,1.9.86,3.37,3.37,0,0,1,.77,2.31Zm-1.08-.8a1.84,1.84,0,0,0-.48-1.29,1.42,1.42,0,0,0-1.07-.53,1.68,1.68,0,0,0-1.26.51,2,2,0,0,0-.56,1.31Z"/><path d="M90.08,1018.83a2.31,2.31,0,0,1,.89-.73,2.52,2.52,0,0,1,1.17-.28,2,2,0,0,1,1.78.94,4.11,4.11,0,0,1,.65,2.43,4.35,4.35,0,0,1-.68,2.52,2.1,2.1,0,0,1-1.82,1,2.23,2.23,0,0,1-1.15-.31,2.33,2.33,0,0,1-.84-.81v3.55h-1V1018h1Zm0,1v2.73a2.71,2.71,0,0,0,.75.92,1.57,1.57,0,0,0,1,.38,1.42,1.42,0,0,0,1.26-.75,3.32,3.32,0,0,0,.47-1.85,3.54,3.54,0,0,0-.44-1.85,1.41,1.41,0,0,0-1.25-.72A2.08,2.08,0,0,0,90.08,1019.81Z"/><path d="M30.93,1043.62H26v-.75c1.24-1.38,2-2.31,2.41-2.78a7.66,7.66,0,0,0,.91-1.48,3.81,3.81,0,0,0,.34-1.55,1.52,1.52,0,0,0-.45-1.17,1.74,1.74,0,0,0-1.26-.43,5.36,5.36,0,0,0-1.68.38l-.15-.89a5.07,5.07,0,0,1,2-.4,2.72,2.72,0,0,1,1.92.67,2.36,2.36,0,0,1,.73,1.8,3.71,3.71,0,0,1-.38,1.59,7.67,7.67,0,0,1-1,1.51c-.39.48-1.15,1.35-2.28,2.6h3.74Z"/><path d="M64.14,1043.62h-1.3l-2.61-4H59.09v4h-1v-8.9h2.52a3,3,0,0,1,2,.61,2.29,2.29,0,0,1,.2,3.16,2.72,2.72,0,0,1-1.48.87Zm-5-4.95h1.3a1.93,1.93,0,0,0,1.33-.44,1.43,1.43,0,0,0,.51-1.12c0-1-.6-1.49-1.81-1.49H59.09Z"/><path d="M71.1,1040.37H66.59a2.69,2.69,0,0,0,.65,1.84,2,2,0,0,0,1.58.72,5.59,5.59,0,0,0,1.85-.32l.17.79a4.9,4.9,0,0,1-2,.39,3.11,3.11,0,0,1-2.36-.94,3.56,3.56,0,0,1-.89-2.54,3.7,3.7,0,0,1,.8-2.49,2.63,2.63,0,0,1,2.08-.93,2.45,2.45,0,0,1,1.9.86,3.37,3.37,0,0,1,.76,2.31Zm-1.07-.81a1.84,1.84,0,0,0-.48-1.29,1.44,1.44,0,0,0-1.07-.53,1.72,1.72,0,0,0-1.27.51,2,2,0,0,0-.56,1.31Z"/><path d="M78.18,1043.62H75.49v-8H73.78v-.85h2.7v8h1.7Z"/><path d="M86.57,1043.62h-1a3.77,3.77,0,0,1-.12-1.06,2.63,2.63,0,0,1-2.29,1.23,1.85,1.85,0,0,1-1.29-.52,1.76,1.76,0,0,1-.56-1.34,1.85,1.85,0,0,1,.2-.86,1.71,1.71,0,0,1,.57-.63,3.18,3.18,0,0,1,.93-.4,7,7,0,0,1,1.28-.21l1.11-.08v-.32c0-1.13-.53-1.69-1.58-1.69a3.47,3.47,0,0,0-.94.16,5.86,5.86,0,0,0-1,.38l-.25-.7a5.46,5.46,0,0,1,2.49-.69c1.5,0,2.25.79,2.25,2.38v2.82A6.42,6.42,0,0,0,86.57,1043.62Zm-1.14-1.95v-1.19c-.89.08-1.5.15-1.83.22a2.06,2.06,0,0,0-.86.39.93.93,0,0,0-.36.77.89.89,0,0,0,.31.71,1.15,1.15,0,0,0,.79.27,2,2,0,0,0,1-.31A3.08,3.08,0,0,0,85.43,1041.67Z"/><path d="M94.4,1043.62H93.29l-1.76-2.57-1.83,2.57h-1l2.34-3.29-2.34-3.28h1.12l1.77,2.55,1.8-2.55H94.4l-2.33,3.24Z"/><path d="M29.17,1057.91a2.54,2.54,0,0,1,1.31.83,2.06,2.06,0,0,1,.49,1.35,2.51,2.51,0,0,1-.91,2,3.19,3.19,0,0,1-2.16.8,3.85,3.85,0,0,1-1.9-.47l.2-.85a4,4,0,0,0,1.74.41,2,2,0,0,0,1.37-.5,1.63,1.63,0,0,0,.57-1.29,1.52,1.52,0,0,0-.61-1.26,2.52,2.52,0,0,0-1.62-.49h-.27v-.85h.08a2.63,2.63,0,0,0,1.6-.46,1.43,1.43,0,0,0,.63-1.23,1.2,1.2,0,0,0-.45-1,2,2,0,0,0-1.25-.35,3.83,3.83,0,0,0-1.54.37l-.14-.89a4.14,4.14,0,0,1,1.73-.39,3,3,0,0,1,2,.63,2,2,0,0,1,.3,2.88,2,2,0,0,1-1.13.74Z"/><path d="M63.49,1062.14a4.19,4.19,0,0,1-2.43.72,3.08,3.08,0,0,1-2.63-1.19,5.59,5.59,0,0,1-.9-3.43,5.76,5.76,0,0,1,.87-3.39,3,3,0,0,1,2.66-1.23,5,5,0,0,1,1.27.16,3.23,3.23,0,0,1,1,.44L63,1055a3.93,3.93,0,0,0-1.95-.5,2.06,2.06,0,0,0-1.83.89,5.19,5.19,0,0,0-.6,2.82c0,2.48.81,3.71,2.43,3.71a4.17,4.17,0,0,0,2.11-.63Z"/><path d="M70.43,1062.69H67.74v-8H66v-.85h2.7v8h1.71Z"/><path d="M78.85,1059.44H74.34a2.69,2.69,0,0,0,.65,1.84,2.05,2.05,0,0,0,1.59.72,5.57,5.57,0,0,0,1.84-.32l.17.79a4.9,4.9,0,0,1-2,.39,3.11,3.11,0,0,1-2.36-.94,3.56,3.56,0,0,1-.89-2.54,3.7,3.7,0,0,1,.8-2.49,2.63,2.63,0,0,1,2.08-.93,2.45,2.45,0,0,1,1.9.86,3.37,3.37,0,0,1,.76,2.31Zm-1.07-.81a1.84,1.84,0,0,0-.48-1.29,1.44,1.44,0,0,0-1.07-.53,1.72,1.72,0,0,0-1.27.51,1.94,1.94,0,0,0-.55,1.31Z"/><path d="M86.57,1062.69h-1a3.77,3.77,0,0,1-.12-1.06,2.63,2.63,0,0,1-2.29,1.23,1.85,1.85,0,0,1-1.29-.52,1.76,1.76,0,0,1-.56-1.34,1.85,1.85,0,0,1,.2-.86,1.71,1.71,0,0,1,.57-.63,3.18,3.18,0,0,1,.93-.4,6.26,6.26,0,0,1,1.28-.2l1.11-.09v-.32c0-1.13-.53-1.69-1.58-1.69a3.91,3.91,0,0,0-.94.16,5.86,5.86,0,0,0-1,.38l-.25-.7a5.46,5.46,0,0,1,2.49-.69c1.5,0,2.25.79,2.25,2.38v2.82A6.42,6.42,0,0,0,86.57,1062.69Zm-1.14-2v-1.19c-.89.08-1.5.15-1.83.22a2.06,2.06,0,0,0-.86.39.93.93,0,0,0-.36.77.89.89,0,0,0,.31.71,1.15,1.15,0,0,0,.79.27,2,2,0,0,0,1-.31A3.08,3.08,0,0,0,85.43,1060.74Z"/><path d="M94.16,1062.69h-1v-4.21a2.27,2.27,0,0,0-.28-1.27,1,1,0,0,0-.88-.4,2.86,2.86,0,0,0-1.94,1.12v4.76h-1v-6.57h1v1a3.07,3.07,0,0,1,2.23-1.12c1.24,0,1.85.74,1.85,2.23Z"/><path d="M31.51,1079.7H30.42v2.06h-1v-2.06H25.51v-.78l3.51-6.06h1.4v5.94h1.09Zm-2.13-.9v-4.92l-2.83,4.92Z"/><path d="M63,1081.76H58.35v-8.9H63v.9H59.38v2.76h3.44v.9H59.38v3.44H63Z"/><path d="M71.07,1081.76h-1a3.77,3.77,0,0,1-.12-1.06,2.62,2.62,0,0,1-2.28,1.23,1.81,1.81,0,0,1-1.29-.52,1.76,1.76,0,0,1-.56-1.34,1.85,1.85,0,0,1,.2-.86,1.71,1.71,0,0,1,.57-.63,3.12,3.12,0,0,1,.92-.4,6.25,6.25,0,0,1,1.29-.2l1.1-.09v-.32c0-1.12-.52-1.69-1.58-1.69a4,4,0,0,0-.94.16,5.43,5.43,0,0,0-1,.38l-.26-.7a5.53,5.53,0,0,1,2.5-.69c1.5,0,2.25.79,2.25,2.38v2.82A6.36,6.36,0,0,0,71.07,1081.76Zm-1.15-2v-1.19c-.89.08-1.49.15-1.82.22a2.06,2.06,0,0,0-.86.39.93.93,0,0,0-.36.77.91.91,0,0,0,.3.71,1.17,1.17,0,0,0,.79.28,2,2,0,0,0,1-.32A3,3,0,0,0,69.92,1079.81Z"/><path d="M78.72,1081.46a4.55,4.55,0,0,1-2,.46c-1.17,0-1.76-.62-1.76-1.86v-4H73.75v-.85H75v-1.8h1v1.8H78.2v.85H76v3.76a1.43,1.43,0,0,0,.27.93.86.86,0,0,0,.72.33,3.83,3.83,0,0,0,1.59-.36Z"/><path d="M27.48,1095.52a3.13,3.13,0,0,1,.84-.11,2.58,2.58,0,0,1,2,.77,2.69,2.69,0,0,1,.74,1.93,2.78,2.78,0,0,1-.86,2.05,2.83,2.83,0,0,1-2.07.84,4.42,4.42,0,0,1-2-.39l.21-.88a4.52,4.52,0,0,0,1.77.36,1.73,1.73,0,0,0,1.32-.52,2.05,2.05,0,0,0,.5-1.46,1.88,1.88,0,0,0-.47-1.37,1.64,1.64,0,0,0-1.22-.48,2.87,2.87,0,0,0-1.07.21l-.62-.29v-4.25h4.07v.9H27.48Z"/><path d="M64.21,1091.93l-1.13,8.9h-1l-1.51-5-1.51,5h-1l-1.11-8.9h1l.75,7.24,1.31-4.38h1l1.32,4.39.76-7.25Z"/><path d="M68.36,1094.1a2.67,2.67,0,0,1,2.15,1,3.69,3.69,0,0,1,.81,2.49,3.75,3.75,0,0,1-.81,2.51,2.92,2.92,0,0,1-4.31,0,4.32,4.32,0,0,1,0-5A2.67,2.67,0,0,1,68.36,1094.1Zm0,6a1.63,1.63,0,0,0,1.41-.75,3.16,3.16,0,0,0,.52-1.84,3.2,3.2,0,0,0-.51-1.87,1.66,1.66,0,0,0-1.42-.73,1.63,1.63,0,0,0-1.42.72,3.66,3.66,0,0,0,0,3.73A1.66,1.66,0,0,0,68.36,1100.14Z"/><path d="M78.76,1094.43l-.4,1a2.86,2.86,0,0,0-1.12-.28,1.58,1.58,0,0,0-.85.25,2.56,2.56,0,0,0-.77.71,2.7,2.7,0,0,0-.35.52v4.25h-1v-6.57h1v1.33a2.34,2.34,0,0,1,2-1.49A3.37,3.37,0,0,1,78.76,1094.43Z"/><path d="M87.05,1100.83H85.76L83,1097.56l-.64.56v2.71h-1v-8.9h1v5.1l3.08-2.77h1.26l-3,2.69Z"/><path d="M439.49,455.75h-4.68v-.9h1.89v-6.92l-1.78.89v-1l1.92-1h.89v8.05h1.76Z"/><path d="M439.26,479.86h-4.9v-.75c1.24-1.39,2.05-2.31,2.42-2.78a7,7,0,0,0,.9-1.49,3.75,3.75,0,0,0,.35-1.54,1.56,1.56,0,0,0-.45-1.18,1.82,1.82,0,0,0-1.27-.42,5.14,5.14,0,0,0-1.68.38l-.14-.89a5,5,0,0,1,2-.4,2.69,2.69,0,0,1,1.92.67,2.32,2.32,0,0,1,.73,1.79,3.64,3.64,0,0,1-.38,1.59,7.73,7.73,0,0,1-1,1.52c-.39.48-1.15,1.35-2.28,2.6h3.75Z"/><path d="M363,502.89a2.6,2.6,0,0,1,1.31.83,2.16,2.16,0,0,1,.49,1.36,2.52,2.52,0,0,1-.92,2,3.18,3.18,0,0,1-2.15.8,3.85,3.85,0,0,1-1.9-.47l.2-.85a4.09,4.09,0,0,0,1.73.41,2,2,0,0,0,1.38-.5,1.66,1.66,0,0,0,.57-1.29,1.55,1.55,0,0,0-.61-1.27,2.56,2.56,0,0,0-1.62-.48h-.27v-.85h.07a2.65,2.65,0,0,0,1.61-.46,1.44,1.44,0,0,0,.63-1.23,1.18,1.18,0,0,0-.46-1,2,2,0,0,0-1.25-.36,3.93,3.93,0,0,0-1.54.38l-.13-.89a4.1,4.1,0,0,1,1.72-.39,3,3,0,0,1,2,.62,2.1,2.1,0,0,1-.83,3.63Z"/><path d="M402.89,530.4h-1.1v2.06h-1V530.4h-3.87v-.79l3.51-6.05h1.39v5.94h1.1Zm-2.13-.9v-4.92l-2.83,4.92Z"/><path d="M361.29,527.15a3.1,3.1,0,0,1,.84-.12,2.6,2.6,0,0,1,2,.78,2.66,2.66,0,0,1,.73,1.92,2.79,2.79,0,0,1-.85,2.06,2.85,2.85,0,0,1-2.07.84,4.42,4.42,0,0,1-2-.39l.21-.88a4.52,4.52,0,0,0,1.77.36,1.76,1.76,0,0,0,1.32-.52,2.06,2.06,0,0,0,.5-1.47,1.9,1.9,0,0,0-.47-1.37,1.66,1.66,0,0,0-1.22-.48,2.87,2.87,0,0,0-1.07.21l-.62-.28v-4.25h4.07v.9h-3.17Z"/><circle class="cls-4" cx="765.53" cy="1024.02" r="11.44"/></g></svg>