<?xml version="1.0" encoding="UTF-8"?><svg xmlns="http://www.w3.org/2000/svg" viewBox="0 0 800 1120"><defs><style>.cls-1{stroke-width:.75px;}.cls-1,.cls-2,.cls-3,.cls-4{fill:none;stroke:#231f20;stroke-linecap:round;stroke-linejoin:round;}.cls-2{stroke-width:1.2px;}.cls-3{stroke-width:.24px;}.cls-4{stroke-width:.36px;}</style></defs><g id="Wall"><rect class="cls-2" x="395.3" y="349.57" width="9.39" height="4.7"/><polygon class="cls-2" points="326.42 619.59 321.73 619.59 321.73 647.01 481.4 647.01 481.4 349.57 445.4 349.57 445.4 354.27 476.71 354.27 476.71 642.31 326.42 642.31 326.42 619.59"/><polygon class="cls-2" points="326.42 519.27 321.73 519.27 321.73 349.57 354.6 349.57 354.6 354.27 326.42 354.27 326.42 519.27"/></g><g id="Accessory"><line class="cls-4" x1="476.71" y1="623.53" x2="326.42" y2="623.53"/><line class="cls-3" x1="395.3" y1="354.27" x2="354.6" y2="354.27"/><line class="cls-3" x1="354.6" y1="349.57" x2="395.3" y2="349.57"/><line class="cls-3" x1="404.7" y1="354.27" x2="445.4" y2="354.27"/><line class="cls-3" x1="445.4" y1="349.57" x2="404.7" y2="349.57"/><line class="cls-3" x1="321.73" y1="519.27" x2="321.73" y2="619.59"/><line class="cls-3" x1="326.42" y1="619.59" x2="326.42" y2="519.27"/><line class="cls-4" x1="448.53" y1="576.25" x2="476.71" y2="576.25"/><line class="cls-4" x1="448.53" y1="568.11" x2="476.71" y2="568.11"/><line class="cls-4" x1="448.53" y1="559.97" x2="476.71" y2="559.97"/><line class="cls-4" x1="448.53" y1="551.83" x2="476.71" y2="551.83"/><line class="cls-4" x1="448.53" y1="543.69" x2="476.71" y2="543.69"/><line class="cls-4" x1="448.53" y1="535.55" x2="476.71" y2="535.55"/><line class="cls-4" x1="448.53" y1="527.41" x2="476.71" y2="527.41"/><line class="cls-4" x1="476.71" y1="519.27" x2="450.02" y2="519.27"/><line class="cls-4" x1="464.11" y1="511.13" x2="476.71" y2="511.13"/><line class="cls-4" x1="448.53" y1="520.13" x2="476.71" y2="503.85"/><path class="cls-4" d="M400,346.1c.29,0,.57-.03,.85-.08,.3-.06,.59-.14,.87-.25,.6-.24,1.14-.59,1.59-1.05s.81-1,1.05-1.59c.11-.28,.2-.58,.25-.87,.05-.28,.08-.57,.08-.85s-.03-.57-.08-.85c-.06-.3-.14-.59-.25-.87-.24-.6-.59-1.14-1.05-1.59s-1-.81-1.59-1.05c-.28-.11-.58-.2-.87-.25-.28-.05-.57-.08-.85-.08s-.57,.03-.85,.08c-.3,.06-.59,.14-.87,.25-.6,.24-1.14,.59-1.59,1.05s-.81,1-1.05,1.59c-.11,.28-.2,.58-.25,.87-.05,.28-.08,.57-.08,.85s.03,.57,.08,.85c.06,.3,.14,.59,.25,.87,.24,.6,.59,1.14,1.05,1.59s1,.81,1.59,1.05c.28,.11,.58,.2,.87,.25,.28,.05,.57,.08,.85,.08Z"/><line class="cls-4" x1="448.53" y1="502.99" x2="326.42" y2="502.99"/><path class="cls-4" d="M468.04,411.39c.19-.02,.38-.07,.56-.12,.19-.06,.38-.14,.56-.24,.37-.21,.7-.49,.96-.83,.26-.34,.45-.73,.56-1.14,.05-.2,.08-.4,.09-.6,.01-.19,0-.38-.02-.57-.02-.19-.07-.38-.12-.56-.06-.19-.14-.38-.24-.56-.21-.37-.49-.7-.83-.96s-.73-.45-1.14-.56c-.2-.05-.4-.08-.6-.09-.19-.01-.38,0-.57,.02-.19,.02-.38,.07-.56,.12-.19,.06-.38,.14-.56,.24-.37,.21-.7,.49-.96,.83-.26,.34-.45,.73-.56,1.14-.05,.2-.08,.4-.09,.6-.01,.19,0,.38,.02,.57s.07,.38,.12,.56c.06,.19,.14,.38,.24,.56,.21,.37,.49,.7,.83,.96,.34,.26,.73,.45,1.14,.56,.2,.05,.4,.08,.6,.09,.19,.01,.38,0,.57-.02Z"/><line class="cls-4" x1="448.53" y1="576.25" x2="448.53" y2="502.99"/><polyline class="cls-4" points="448.53 576.25 445.4 576.25 445.4 506.12 326.42 506.12"/></g><g id="TEXT"><g><path d="M31.17,1024.55h-4.68v-.9h1.89v-6.91l-1.78,.89v-1.04l1.92-.99h.89v8.05h1.76v.9Z"/><path d="M61.68,1019.67c.59,.14,1.06,.41,1.39,.81s.5,.88,.5,1.43c0,.81-.29,1.45-.88,1.93-.59,.48-1.29,.72-2.12,.72h-2.53v-8.9h2.47c.86,0,1.53,.19,2.01,.56,.48,.38,.73,.91,.73,1.59,0,.42-.14,.79-.42,1.12-.28,.33-.67,.57-1.16,.71v.02Zm-2.59-.48h1.21c1.27,0,1.9-.45,1.9-1.36,0-.41-.16-.73-.47-.95-.31-.22-.77-.33-1.37-.33h-1.27v2.64Zm0,4.46h1.17c.69,0,1.23-.16,1.63-.47,.4-.31,.6-.74,.6-1.28,0-.58-.2-1.02-.59-1.34-.4-.32-.97-.47-1.72-.47h-1.1v3.56Z"/><path d="M71.1,1021.29h-4.51c0,.74,.22,1.36,.65,1.84s.96,.73,1.59,.73,1.21-.11,1.85-.32l.17,.79c-.58,.26-1.26,.39-2.03,.39-.98,0-1.76-.31-2.36-.94-.6-.63-.9-1.47-.9-2.54s.27-1.87,.8-2.49,1.23-.93,2.08-.93c.76,0,1.39,.29,1.9,.86s.76,1.34,.76,2.3v.31Zm-1.07-.8c0-.51-.16-.95-.48-1.3-.32-.35-.68-.53-1.07-.53-.51,0-.93,.17-1.26,.5-.33,.34-.52,.78-.56,1.32h3.37Z"/><path d="M78.63,1024.55h-.98v-.95c-.2,.32-.49,.59-.87,.8-.38,.21-.77,.32-1.19,.32-.75,0-1.35-.33-1.79-1.01-.44-.67-.66-1.52-.66-2.55,0-.96,.23-1.76,.68-2.39,.46-.63,1.06-.95,1.81-.95,.83,0,1.5,.34,2,1.01v-3.18h.98v8.9Zm-.98-2.01v-2.73c-.47-.76-1.04-1.14-1.7-1.14-.54,0-.97,.24-1.29,.72-.32,.48-.47,1.09-.47,1.83s.15,1.38,.44,1.88c.3,.49,.7,.74,1.22,.74,.25,0,.5-.07,.75-.2,.25-.13,.49-.34,.71-.61,.22-.27,.33-.43,.33-.49Z"/><path d="M30.93,1043.62h-4.9v-.75c1.24-1.38,2.05-2.31,2.42-2.78s.67-.96,.9-1.48c.23-.52,.35-1.03,.35-1.55s-.15-.89-.45-1.17c-.3-.29-.72-.43-1.26-.43-.42,0-.98,.13-1.68,.38l-.15-.89c.63-.27,1.3-.4,1.99-.4,.79,0,1.44,.22,1.92,.67,.49,.45,.73,1.05,.73,1.79,0,.53-.13,1.06-.38,1.59s-.57,1.03-.96,1.51-1.15,1.35-2.28,2.6h3.75v.9Z"/><path d="M64.12,1034.72l-2.9,8.9h-1.24l-2.91-8.9h1.08l2.44,7.7,2.45-7.7h1.07Z"/><path d="M68.36,1036.89c.9,0,1.62,.32,2.16,.95s.8,1.46,.8,2.49-.27,1.88-.8,2.51-1.25,.95-2.16,.95-1.63-.32-2.16-.95c-.53-.63-.8-1.47-.8-2.51s.27-1.87,.8-2.49c.53-.63,1.25-.94,2.16-.94Zm0,6.04c.6,0,1.07-.25,1.41-.76s.52-1.12,.52-1.84c0-.76-.17-1.38-.51-1.87-.34-.49-.81-.73-1.42-.73s-1.08,.24-1.42,.72c-.34,.48-.5,1.11-.5,1.88s.17,1.35,.51,1.85c.34,.5,.81,.75,1.41,.75Z"/><path d="M77.02,1043.62h-.98v-5.72h-1.94v-.85h2.92v6.57Zm-.48-9.06c.18,0,.34,.07,.47,.2s.2,.29,.2,.48-.06,.36-.19,.49c-.13,.13-.29,.2-.48,.2-.17,0-.33-.07-.46-.21s-.2-.29-.2-.48,.07-.34,.2-.47,.28-.2,.46-.2Z"/><path d="M86.39,1043.62h-.98v-.95c-.2,.32-.49,.59-.87,.8-.38,.21-.77,.32-1.19,.32-.75,0-1.35-.33-1.79-1.01-.44-.67-.66-1.52-.66-2.55,0-.96,.23-1.76,.68-2.39,.46-.63,1.06-.95,1.81-.95,.83,0,1.5,.34,2,1.01v-3.18h.98v8.9Zm-.98-2.01v-2.73c-.47-.76-1.04-1.14-1.7-1.14-.54,0-.97,.24-1.29,.72-.32,.48-.47,1.09-.47,1.83s.15,1.38,.44,1.88c.3,.49,.7,.74,1.22,.74,.25,0,.5-.07,.75-.2,.25-.13,.49-.34,.71-.61,.22-.27,.33-.43,.33-.49Z"/></g><circle class="cls-1" cx="765.53" cy="1024.02" r="11.44"/><line class="cls-1" x1="760.45" y1="1013.76" x2="765.53" y2="1024.02"/><path d="M385.06,568.9h-4.68v-.9h1.89v-6.91l-1.78,.89v-1.04l1.92-.99h.89v8.05h1.76v.9Z"/><path d="M402.31,434.94h-4.9v-.75c1.24-1.38,2.05-2.31,2.42-2.78s.67-.96,.9-1.48c.23-.52,.35-1.03,.35-1.55s-.15-.89-.45-1.17c-.3-.29-.72-.43-1.26-.43-.42,0-.98,.13-1.68,.38l-.15-.89c.63-.27,1.3-.4,1.99-.4,.79,0,1.44,.22,1.92,.67,.49,.45,.73,1.05,.73,1.79,0,.53-.13,1.06-.38,1.59s-.57,1.03-.96,1.51-1.15,1.35-2.28,2.6h3.75v.9Z"/></g></svg>