<?xml version="1.0" encoding="UTF-8"?><svg xmlns="http://www.w3.org/2000/svg" viewBox="0 0 800 1120"><defs><style>.cls-1{stroke-width:.75px;}.cls-1,.cls-2,.cls-3,.cls-4{fill:none;stroke:#231f20;stroke-linecap:round;stroke-linejoin:round;}.cls-2{stroke-width:1.2px;}.cls-3{stroke-width:.24px;}.cls-4{stroke-width:.36px;}</style></defs><g id="Wall"><line class="cls-2" x1="476.71" y1="382.45" x2="481.4" y2="382.45"/><line class="cls-2" x1="476.71" y1="354.27" x2="481.4" y2="354.27"/><line class="cls-2" x1="326.42" y1="519.27" x2="321.73" y2="519.27"/><line class="cls-2" x1="326.42" y1="619.59" x2="321.73" y2="619.59"/><line class="cls-2" x1="326.42" y1="462.28" x2="326.42" y2="519.27"/><polyline class="cls-2" points="326.42 349.57 321.73 349.57 321.73 387.14"/><line class="cls-2" x1="321.73" y1="462.28" x2="321.73" y2="519.27"/><polyline class="cls-2" points="395.3 642.31 395.3 564.67 418.79 564.67"/><polyline class="cls-2" points="398.43 642.31 398.43 567.8 418.79 567.8"/><polyline class="cls-2" points="445.4 567.8 448.53 567.8 448.53 543.69 476.71 543.69"/><line class="cls-2" x1="326.42" y1="387.14" x2="321.73" y2="387.14"/><line class="cls-2" x1="326.42" y1="462.28" x2="321.73" y2="462.28"/><line class="cls-2" x1="326.42" y1="387.14" x2="326.42" y2="349.57"/><line class="cls-2" x1="354.6" y1="354.27" x2="354.6" y2="349.57"/><line class="cls-2" x1="476.71" y1="588.15" x2="481.4" y2="588.15"/><line class="cls-2" x1="476.71" y1="567.8" x2="481.4" y2="567.8"/><polyline class="cls-2" points="326.42 619.59 326.42 642.31 390.29 642.31"/><line class="cls-2" x1="390.29" y1="642.31" x2="395.3" y2="642.31"/><line class="cls-2" x1="398.43" y1="642.31" x2="476.71" y2="642.31"/><line class="cls-2" x1="476.71" y1="434.11" x2="476.71" y2="382.45"/><polyline class="cls-2" points="321.73 619.59 321.73 647.01 390.29 647.01"/><polyline class="cls-2" points="390.29 647.01 481.4 647.01 481.4 588.15"/><line class="cls-2" x1="481.4" y1="567.8" x2="481.4" y2="462.28"/><line class="cls-2" x1="481.4" y1="434.11" x2="481.4" y2="382.45"/><line class="cls-2" x1="476.71" y1="349.57" x2="476.71" y2="354.27"/><line class="cls-2" x1="445.4" y1="354.27" x2="445.4" y2="349.57"/><line class="cls-2" x1="445.4" y1="354.27" x2="354.6" y2="354.27"/><polyline class="cls-2" points="481.4 354.27 481.4 349.57 476.71 349.57"/><line class="cls-2" x1="445.4" y1="349.57" x2="354.6" y2="349.57"/><line class="cls-2" x1="445.4" y1="567.8" x2="445.4" y2="564.67"/><line class="cls-2" x1="418.79" y1="564.67" x2="418.79" y2="567.8"/><line class="cls-2" x1="476.71" y1="462.28" x2="481.4" y2="462.28"/><line class="cls-2" x1="476.71" y1="434.11" x2="481.4" y2="434.11"/><line class="cls-2" x1="476.71" y1="588.15" x2="476.71" y2="642.31"/><polyline class="cls-2" points="445.4 564.67 445.4 519.27 448.53 519.27 448.53 540.56 476.71 540.56"/><line class="cls-2" x1="476.71" y1="567.8" x2="476.71" y2="543.69"/><line class="cls-2" x1="476.71" y1="540.56" x2="476.71" y2="462.28"/></g><g id="Window_Door_Stairs"><line class="cls-3" x1="481.4" y1="382.45" x2="481.4" y2="354.27"/><line class="cls-3" x1="326.42" y1="619.59" x2="326.42" y2="519.27"/><line class="cls-3" x1="321.73" y1="519.27" x2="321.73" y2="619.59"/><polyline class="cls-3" points="476.71 462.28 445.4 462.28 445.4 470.42 476.71 470.42"/><polyline class="cls-3" points="445.4 470.42 445.4 478.57 476.71 478.57"/><polyline class="cls-3" points="445.4 478.57 445.4 486.71 476.71 486.71"/><polyline class="cls-3" points="445.4 486.71 445.4 494.85 476.71 494.85"/><polyline class="cls-3" points="445.4 494.85 445.4 502.99 476.71 502.99"/><polyline class="cls-3" points="445.4 502.99 445.4 511.13 476.71 511.13"/><line class="cls-3" x1="448.53" y1="535.55" x2="476.71" y2="535.55"/><line class="cls-3" x1="476.71" y1="535.55" x2="448.53" y2="535.55"/><line class="cls-3" x1="354.6" y1="349.57" x2="326.42" y2="349.57"/><line class="cls-3" x1="321.73" y1="462.28" x2="321.73" y2="387.14"/><line class="cls-3" x1="326.42" y1="462.28" x2="326.42" y2="387.14"/><line class="cls-3" x1="481.4" y1="588.15" x2="481.4" y2="567.8"/><line class="cls-3" x1="476.71" y1="567.8" x2="476.71" y2="588.15"/><line class="cls-3" x1="476.71" y1="349.57" x2="445.4" y2="349.57"/><line class="cls-3" x1="326.42" y1="354.27" x2="354.6" y2="354.27"/><line class="cls-3" x1="445.4" y1="354.27" x2="476.71" y2="354.27"/><line class="cls-3" x1="481.4" y1="462.28" x2="481.4" y2="434.11"/><line class="cls-3" x1="476.71" y1="462.28" x2="476.71" y2="434.11"/><polyline class="cls-3" points="321.73 387.14 284.16 387.14 284.16 619.59 321.73 619.59"/><line class="cls-3" x1="476.71" y1="527.41" x2="448.53" y2="527.41"/><polyline class="cls-3" points="445.4 511.13 445.4 519.27 459.4 519.27 476.71 519.27"/><line class="cls-3" x1="476.71" y1="382.45" x2="476.71" y2="354.27"/><polyline class="cls-3" points="445.4 368.36 445.4 434.11 476.71 434.11"/></g><g id="Accessory"><path class="cls-4" d="M400,346.1c.29,0,.57-.03,.85-.08,.3-.06,.59-.14,.87-.25,.6-.24,1.14-.59,1.59-1.05s.81-1,1.05-1.59c.11-.28,.2-.58,.25-.87,.05-.28,.08-.57,.08-.85s-.03-.57-.08-.85c-.06-.3-.14-.59-.25-.87-.24-.6-.59-1.14-1.05-1.59s-1-.81-1.59-1.05c-.28-.11-.58-.2-.87-.25-.28-.05-.57-.08-.85-.08s-.57,.03-.85,.08c-.3,.06-.59,.14-.87,.25-.6,.24-1.14,.59-1.59,1.05s-.81,1-1.05,1.59c-.11,.28-.2,.58-.25,.87-.05,.28-.08,.57-.08,.85s.03,.57,.08,.85c.06,.3,.14,.59,.25,.87,.24,.6,.59,1.14,1.05,1.59,.45,.45,1,.81,1.59,1.05,.28,.11,.58,.2,.87,.25,.28,.05,.57,.08,.85,.08Z"/><line class="cls-4" x1="376.52" y1="614.29" x2="376.52" y2="564.67"/><line class="cls-4" x1="376.52" y1="642.31" x2="376.52" y2="614.29"/><line class="cls-4" x1="476.71" y1="368.36" x2="326.42" y2="368.36"/><line class="cls-4" x1="395.3" y1="564.67" x2="376.52" y2="564.67"/><line class="cls-4" x1="345.21" y1="619.59" x2="326.42" y2="619.59"/><polyline class="cls-4" points="345.21 619.59 345.21 519.27 326.42 519.27"/><line class="cls-4" x1="418.79" y1="642.31" x2="418.79" y2="567.8"/></g><g id="TEXT"><g><path d="M31.17,1024.55h-4.68v-.9h1.89v-6.91l-1.78,.89v-1.04l1.92-.99h.89v8.05h1.76v.9Z"/><path d="M64.34,1024.55h-1.31l-3.01-4.37-.94,1.02v3.34h-1.03v-8.9h1.03v4.26l3.95-4.26h1.19l-3.48,3.76,3.59,5.14Z"/><path d="M69.27,1024.55h-.98v-5.72h-1.94v-.85h2.92v6.57Zm-.48-9.06c.18,0,.34,.07,.47,.2s.2,.29,.2,.48-.06,.36-.19,.49c-.13,.13-.29,.2-.48,.2-.17,0-.33-.07-.46-.21s-.2-.29-.2-.48,.07-.34,.2-.47,.28-.2,.46-.2Z"/><path d="M78.72,1024.25c-.66,.3-1.31,.45-1.95,.45-1.17,0-1.76-.62-1.76-1.86v-4.02h-1.26v-.85h1.26v-1.8h.96v1.8h2.23v.85h-2.23v3.76c0,.4,.09,.71,.26,.93,.18,.22,.42,.33,.72,.33,.54,0,1.07-.12,1.6-.36l.17,.76Z"/><path d="M86.39,1024.33c-.57,.26-1.2,.39-1.89,.39-1.03,0-1.86-.31-2.48-.94s-.92-1.46-.92-2.51,.31-1.88,.93-2.51c.62-.63,1.44-.94,2.44-.94,.66,0,1.29,.12,1.89,.35l-.26,.81c-.6-.21-1.14-.31-1.61-.31-.72,0-1.3,.23-1.72,.7-.42,.47-.63,1.1-.63,1.9,0,.73,.22,1.35,.66,1.85,.44,.5,1.01,.75,1.71,.75,.56,0,1.13-.11,1.72-.32l.17,.79Z"/><path d="M94.16,1024.55h-.98v-4.21c0-.58-.09-1.01-.28-1.27s-.48-.39-.88-.39c-.6,0-1.25,.37-1.94,1.12v4.76h-.98v-8.9h.98v3.29c.71-.75,1.45-1.12,2.23-1.12,1.23,0,1.85,.74,1.85,2.23v4.5Z"/><path d="M102.11,1021.29h-4.51c0,.74,.22,1.36,.65,1.84s.96,.73,1.59,.73,1.21-.11,1.85-.32l.17,.79c-.58,.26-1.26,.39-2.03,.39-.98,0-1.76-.31-2.36-.94-.6-.63-.9-1.47-.9-2.54s.27-1.87,.8-2.49,1.23-.93,2.08-.93c.76,0,1.39,.29,1.9,.86s.76,1.34,.76,2.3v.31Zm-1.07-.8c0-.51-.16-.95-.48-1.3-.32-.35-.68-.53-1.07-.53-.51,0-.93,.17-1.26,.5-.33,.34-.52,.78-.56,1.32h3.37Z"/><path d="M109.67,1024.55h-.98v-4.21c0-.58-.09-1.01-.28-1.27s-.48-.39-.88-.39c-.6,0-1.25,.37-1.94,1.12v4.76h-.98v-6.57h.98v.97c.71-.75,1.45-1.12,2.23-1.12,1.23,0,1.85,.74,1.85,2.23v4.5Z"/><path d="M30.93,1043.62h-4.9v-.75c1.24-1.38,2.05-2.31,2.42-2.78s.67-.96,.9-1.48c.23-.52,.35-1.03,.35-1.55s-.15-.89-.45-1.17c-.3-.29-.72-.43-1.26-.43-.42,0-.98,.13-1.68,.38l-.15-.89c.63-.27,1.3-.4,1.99-.4,.79,0,1.44,.22,1.92,.67,.49,.45,.73,1.05,.73,1.79,0,.53-.13,1.06-.38,1.59s-.57,1.03-.96,1.51-1.15,1.35-2.28,2.6h3.75v.9Z"/><path d="M63.19,1043.62h-4.84v-8.9h1.03v8h3.81v.9Z"/><path d="M69.27,1043.62h-.98v-5.72h-1.94v-.85h2.92v6.57Zm-.48-9.06c.18,0,.34,.07,.47,.2s.2,.29,.2,.48-.06,.36-.19,.49c-.13,.13-.29,.2-.48,.2-.17,0-.33-.07-.46-.21s-.2-.29-.2-.48,.07-.34,.2-.47,.28-.2,.46-.2Z"/><path d="M78.96,1037.05l-2.49,6.57h-.9l-2.48-6.57h1.07l1.86,5.23,1.86-5.23h1.07Z"/><path d="M84.77,1043.62h-.98v-5.72h-1.94v-.85h2.92v6.57Zm-.48-9.06c.18,0,.34,.07,.47,.2s.2,.29,.2,.48-.06,.36-.19,.49c-.13,.13-.29,.2-.48,.2-.17,0-.33-.07-.46-.21s-.2-.29-.2-.48,.07-.34,.2-.47,.28-.2,.46-.2Z"/><path d="M94.16,1043.62h-.98v-4.21c0-.58-.09-1.01-.28-1.27s-.48-.39-.88-.39c-.6,0-1.25,.37-1.94,1.12v4.76h-.98v-6.57h.98v.97c.71-.75,1.45-1.12,2.23-1.12,1.23,0,1.85,.74,1.85,2.23v4.5Z"/><path d="M98.67,1041.14c-.61,.3-.92,.56-.92,.79,0,.12,.07,.22,.21,.31,.14,.08,.33,.13,.58,.13l2.21-.06c.53,0,.93,.13,1.23,.38,.29,.26,.44,.62,.44,1.09,0,.75-.33,1.34-1,1.78-.66,.44-1.44,.66-2.33,.66-.73,0-1.32-.15-1.79-.46-.46-.3-.69-.7-.69-1.18,0-.53,.36-.97,1.07-1.33-.59-.28-.89-.62-.89-1.02,0-.46,.38-.89,1.15-1.29-.35-.21-.62-.49-.81-.83-.19-.34-.28-.7-.28-1.08,0-.62,.21-1.13,.63-1.52s.95-.6,1.58-.6c.45,0,.86,.09,1.23,.28l1.95-.3v.96h-1.26c.19,.33,.28,.72,.28,1.17,0,.6-.21,1.1-.62,1.51-.42,.41-.94,.62-1.58,.62-.13,0-.26,0-.38-.01Zm.42,4.32c.65,0,1.2-.14,1.66-.43,.46-.29,.68-.64,.68-1.07s-.32-.66-.97-.66c-.21,0-.58,.01-1.11,.04-.33,.02-.59,.03-.78,.03-.09,0-.24,.08-.43,.23-.2,.15-.34,.3-.45,.46s-.15,.31-.15,.48c0,.26,.14,.48,.43,.66,.29,.18,.66,.27,1.13,.27Zm-.04-5.07c.36,0,.66-.12,.89-.38,.23-.25,.34-.58,.34-.98,0-.42-.11-.76-.33-1-.22-.24-.52-.36-.9-.36-.35,0-.64,.13-.88,.38-.24,.25-.36,.58-.36,.98s.12,.72,.36,.97c.24,.25,.53,.38,.88,.38Z"/><path d="M29.17,1057.91c.54,.15,.98,.43,1.31,.83,.33,.4,.49,.85,.49,1.35,0,.78-.31,1.44-.92,1.97-.61,.53-1.33,.8-2.16,.8-.71,0-1.34-.16-1.9-.47l.2-.85c.58,.27,1.16,.41,1.73,.41,.54,0,1-.17,1.38-.5,.38-.33,.57-.76,.57-1.29s-.2-.94-.61-1.26c-.41-.32-.95-.49-1.62-.49h-.27v-.85h.08c.65,0,1.18-.15,1.6-.46,.42-.3,.63-.72,.63-1.23,0-.42-.15-.75-.45-.99-.3-.24-.72-.36-1.25-.36-.46,0-.97,.12-1.54,.37l-.14-.89c.57-.26,1.15-.39,1.73-.39,.79,0,1.45,.21,1.96,.63,.52,.42,.77,.96,.77,1.61,0,.45-.16,.88-.47,1.27-.31,.39-.69,.64-1.13,.74v.04Z"/><path d="M61.68,1057.81c.59,.14,1.06,.41,1.39,.81s.5,.88,.5,1.43c0,.81-.29,1.45-.88,1.93-.59,.48-1.29,.72-2.12,.72h-2.53v-8.9h2.47c.86,0,1.53,.19,2.01,.56,.48,.38,.73,.91,.73,1.59,0,.42-.14,.79-.42,1.12-.28,.33-.67,.57-1.16,.71v.02Zm-2.59-.48h1.21c1.27,0,1.9-.45,1.9-1.36,0-.41-.16-.73-.47-.95-.31-.22-.77-.33-1.37-.33h-1.27v2.64Zm0,4.46h1.17c.69,0,1.23-.16,1.63-.47,.4-.31,.6-.74,.6-1.28,0-.58-.2-1.02-.59-1.34-.4-.32-.97-.47-1.72-.47h-1.1v3.56Z"/><path d="M71.07,1062.69h-.98c-.08-.26-.12-.62-.12-1.06-.56,.82-1.32,1.23-2.28,1.23-.49,0-.92-.17-1.29-.52-.37-.35-.56-.79-.56-1.34,0-.32,.06-.61,.2-.86,.13-.25,.32-.46,.57-.63,.25-.17,.56-.3,.92-.4,.36-.1,.79-.17,1.29-.21l1.1-.09v-.32c0-1.13-.53-1.69-1.58-1.69-.25,0-.56,.05-.94,.16-.38,.11-.71,.23-.98,.38l-.26-.71c.9-.46,1.73-.69,2.5-.69,1.5,0,2.25,.79,2.25,2.38v2.83c0,.57,.05,1.08,.16,1.53Zm-1.15-1.95v-1.19c-.89,.08-1.5,.16-1.83,.22s-.62,.2-.86,.39-.36,.45-.36,.77c0,.29,.1,.53,.31,.71s.47,.27,.79,.27c.35,0,.7-.1,1.04-.31,.34-.21,.65-.5,.91-.86Z"/><path d="M78.72,1062.39c-.66,.3-1.31,.45-1.95,.45-1.17,0-1.76-.62-1.76-1.86v-4.02h-1.26v-.85h1.26v-1.8h.96v1.8h2.23v.85h-2.23v3.76c0,.4,.09,.71,.26,.93,.18,.22,.42,.33,.72,.33,.54,0,1.07-.12,1.6-.36l.17,.76Z"/><path d="M86.41,1062.69h-.98v-4.21c0-.58-.09-1.01-.28-1.27s-.48-.39-.88-.39c-.6,0-1.25,.37-1.94,1.12v4.76h-.98v-8.9h.98v3.29c.71-.75,1.45-1.12,2.23-1.12,1.23,0,1.85,.74,1.85,2.23v4.5Z"/><path d="M94.27,1056.29l-.4,.95c-.43-.19-.81-.28-1.12-.28-.29,0-.57,.08-.85,.25-.28,.17-.53,.4-.77,.71-.23,.31-.35,.48-.35,.52v4.25h-.98v-6.57h.98v1.33c.53-.99,1.21-1.49,2.04-1.49,.5,0,.98,.11,1.44,.33Z"/><path d="M99.37,1055.96c.9,0,1.62,.32,2.16,.95s.8,1.46,.8,2.49-.27,1.88-.8,2.51-1.25,.95-2.16,.95-1.63-.32-2.16-.95c-.53-.63-.8-1.47-.8-2.51s.27-1.87,.8-2.49c.53-.63,1.25-.94,2.16-.94Zm0,6.04c.6,0,1.07-.25,1.41-.76s.52-1.12,.52-1.84c0-.76-.17-1.38-.51-1.87-.34-.49-.81-.73-1.42-.73s-1.08,.24-1.42,.72c-.34,.48-.5,1.11-.5,1.88s.17,1.35,.51,1.85c.34,.5,.81,.75,1.41,.75Z"/><path d="M107.12,1055.96c.9,0,1.62,.32,2.16,.95s.8,1.46,.8,2.49-.27,1.88-.8,2.51-1.25,.95-2.16,.95-1.63-.32-2.16-.95c-.53-.63-.8-1.47-.8-2.51s.27-1.87,.8-2.49c.53-.63,1.25-.94,2.16-.94Zm0,6.04c.6,0,1.07-.25,1.41-.76s.52-1.12,.52-1.84c0-.76-.17-1.38-.51-1.87-.34-.49-.81-.73-1.42-.73s-1.08,.24-1.42,.72c-.34,.48-.5,1.11-.5,1.88s.17,1.35,.51,1.85c.34,.5,.81,.75,1.41,.75Z"/><path d="M117.94,1062.69h-.98v-4.31c0-1.04-.19-1.56-.58-1.56-.2,0-.42,.18-.65,.54-.24,.36-.36,.56-.36,.6v4.74h-.98v-4.31c0-1.04-.2-1.56-.59-1.56-.19,0-.41,.18-.65,.54-.24,.36-.36,.56-.36,.6v4.74h-.98v-6.57h.95v.99c.19-.35,.4-.63,.66-.84,.25-.21,.51-.31,.76-.31,.27,0,.5,.1,.71,.31,.21,.21,.35,.49,.44,.84,.19-.35,.41-.63,.66-.84,.26-.21,.51-.31,.76-.31,.79,0,1.19,.71,1.19,2.13v4.6Z"/><path d="M31.51,1079.7h-1.1v2.06h-1.03v-2.06h-3.87v-.79l3.51-6.06h1.39v5.94h1.1v.9Zm-2.13-.9v-4.92l-2.83,4.92h2.83Z"/><path d="M58.05,1072.86h1.75c1.17,0,2.1,.4,2.8,1.19,.7,.79,1.05,1.88,1.05,3.26s-.36,2.51-1.07,3.28c-.71,.78-1.63,1.16-2.74,1.16h-1.8v-8.9Zm1.03,8h.73c.85,0,1.51-.31,2.01-.94,.49-.63,.74-1.5,.74-2.61s-.25-1.97-.74-2.6-1.16-.95-2-.95h-.73v7.1Z"/><path d="M71.1,1078.51h-4.51c0,.74,.22,1.36,.65,1.84s.96,.73,1.59,.73,1.21-.11,1.85-.32l.17,.79c-.58,.26-1.26,.39-2.03,.39-.98,0-1.76-.31-2.36-.94-.6-.63-.9-1.47-.9-2.54s.27-1.87,.8-2.49,1.23-.93,2.08-.93c.76,0,1.39,.29,1.9,.86s.76,1.34,.76,2.3v.31Zm-1.07-.8c0-.51-.16-.95-.48-1.3-.32-.35-.68-.53-1.07-.53-.51,0-.93,.17-1.26,.5-.33,.34-.52,.78-.56,1.32h3.37Z"/><path d="M78.63,1081.54c-.57,.26-1.2,.39-1.89,.39-1.03,0-1.86-.31-2.48-.94s-.92-1.46-.92-2.51,.31-1.88,.93-2.51c.62-.63,1.44-.94,2.44-.94,.66,0,1.29,.12,1.89,.35l-.26,.81c-.6-.21-1.14-.31-1.61-.31-.72,0-1.3,.23-1.72,.7-.42,.47-.63,1.1-.63,1.9,0,.73,.22,1.35,.66,1.85,.44,.5,1.01,.75,1.71,.75,.56,0,1.13-.11,1.72-.32l.17,.79Z"/><path d="M87.06,1081.76h-1.29l-2.79-3.27-.64,.55v2.71h-.98v-8.9h.98v5.1l3.08-2.78h1.26l-3,2.69,3.38,3.89Z"/></g><circle class="cls-1" cx="765.53" cy="1024.02" r="11.44"/><line class="cls-1" x1="760.45" y1="1013.76" x2="765.53" y2="1024.02"/><path d="M363.41,600.09h-4.68v-.9h1.89v-6.91l-1.78,.89v-1.04l1.92-.99h.89v8.05h1.76v.9Z"/><path d="M392.61,450.65h-4.9v-.75c1.24-1.38,2.05-2.31,2.42-2.78s.67-.96,.9-1.48c.23-.52,.35-1.03,.35-1.55s-.15-.89-.45-1.17c-.3-.29-.72-.43-1.26-.43-.42,0-.98,.13-1.68,.38l-.15-.89c.63-.27,1.3-.4,1.99-.4,.79,0,1.44,.22,1.92,.67,.49,.45,.73,1.05,.73,1.79,0,.53-.13,1.06-.38,1.59s-.57,1.03-.96,1.51-1.15,1.35-2.28,2.6h3.75v.9Z"/><path d="M305.83,513.81h-1.1v2.06h-1.03v-2.06h-3.87v-.79l3.51-6.06h1.39v5.94h1.1v.9Zm-2.13-.9v-4.92l-2.83,4.92h2.83Z"/><path d="M448.3,595.31c.54,.15,.98,.43,1.31,.83,.33,.4,.49,.85,.49,1.35,0,.78-.31,1.44-.92,1.97-.61,.53-1.33,.8-2.16,.8-.71,0-1.34-.16-1.9-.47l.2-.85c.58,.27,1.16,.41,1.73,.41,.54,0,1-.17,1.38-.5,.38-.33,.57-.76,.57-1.29s-.2-.94-.61-1.26c-.41-.32-.95-.49-1.62-.49h-.27v-.85h.08c.65,0,1.18-.15,1.6-.46,.42-.3,.63-.72,.63-1.23,0-.42-.15-.75-.45-.99-.3-.24-.72-.36-1.25-.36-.46,0-.97,.12-1.54,.37l-.14-.89c.57-.26,1.15-.39,1.73-.39,.79,0,1.45,.21,1.96,.63,.52,.42,.77,.96,.77,1.61,0,.45-.16,.88-.47,1.27-.31,.39-.69,.64-1.13,.74v.04Z"/></g></svg>