<?xml version="1.0" encoding="UTF-8"?><svg xmlns="http://www.w3.org/2000/svg" viewBox="0 0 800 1120"><defs><style>.cls-1{stroke-width:.18px;}.cls-1,.cls-2,.cls-3{fill:none;stroke:#231f20;stroke-linecap:round;stroke-linejoin:round;}.cls-2{stroke-width:.75px;}.cls-3{stroke-width:.8px;}</style></defs><g id="Wall"><line class="cls-3" x1="357.25" y1="519.56" x2="357.25" y2="521.33"/><line class="cls-3" x1="357.25" y1="541.02" x2="357.25" y2="542.79"/><line class="cls-3" x1="420.57" y1="563.47" x2="422.34" y2="563.47"/><line class="cls-3" x1="377.66" y1="563.47" x2="379.43" y2="563.47"/><line class="cls-3" x1="442.75" y1="434.5" x2="442.75" y2="435.22"/><line class="cls-3" x1="442.75" y1="434.5" x2="442.03" y2="434.5"/><line class="cls-3" x1="357.25" y1="434.5" x2="357.25" y2="435.22"/><line class="cls-3" x1="357.25" y1="434.5" x2="357.97" y2="434.5"/><line class="cls-3" x1="442.75" y1="563.47" x2="442.03" y2="563.47"/><line class="cls-3" x1="442.75" y1="563.47" x2="442.75" y2="562.75"/><line class="cls-3" x1="357.25" y1="563.47" x2="357.25" y2="562.75"/><line class="cls-3" x1="357.25" y1="563.47" x2="357.97" y2="563.47"/><line class="cls-3" x1="421.46" y1="432.31" x2="421.46" y2="434.5"/><line class="cls-3" x1="378.54" y1="432.31" x2="378.54" y2="434.5"/><line class="cls-3" x1="355.06" y1="432.31" x2="357.25" y2="434.5"/><line class="cls-3" x1="444.94" y1="432.31" x2="442.75" y2="434.5"/><line class="cls-3" x1="444.94" y1="456.07" x2="442.75" y2="456.07"/><line class="cls-3" x1="444.94" y1="498.99" x2="442.75" y2="498.99"/><line class="cls-3" x1="444.94" y1="477.53" x2="442.75" y2="477.53"/><line class="cls-3" x1="444.94" y1="520.44" x2="442.75" y2="520.44"/><line class="cls-3" x1="444.94" y1="541.9" x2="442.75" y2="541.9"/><line class="cls-3" x1="444.94" y1="565.66" x2="442.75" y2="563.47"/><line class="cls-3" x1="421.46" y1="565.66" x2="421.46" y2="563.47"/><line class="cls-3" x1="378.54" y1="565.66" x2="378.54" y2="563.47"/><line class="cls-3" x1="355.06" y1="565.66" x2="357.25" y2="563.47"/><line class="cls-3" x1="355.06" y1="541.9" x2="357.25" y2="541.9"/><line class="cls-3" x1="355.06" y1="498.99" x2="357.25" y2="498.99"/><line class="cls-3" x1="355.06" y1="520.44" x2="357.25" y2="520.44"/><line class="cls-3" x1="355.06" y1="456.07" x2="357.25" y2="456.07"/><line class="cls-3" x1="355.06" y1="477.53" x2="357.25" y2="477.53"/><line class="cls-3" x1="420.57" y1="434.5" x2="422.34" y2="434.5"/><line class="cls-3" x1="377.66" y1="434.5" x2="379.43" y2="434.5"/><line class="cls-3" x1="442.75" y1="541.02" x2="442.75" y2="542.79"/><line class="cls-3" x1="442.75" y1="519.56" x2="442.75" y2="521.33"/><line class="cls-3" x1="442.75" y1="498.1" x2="442.75" y2="499.87"/><line class="cls-3" x1="442.75" y1="476.64" x2="442.75" y2="478.41"/><line class="cls-3" x1="442.75" y1="455.18" x2="442.75" y2="456.95"/><line class="cls-3" x1="357.25" y1="455.18" x2="357.25" y2="456.95"/><line class="cls-3" x1="357.25" y1="476.64" x2="357.25" y2="478.41"/><line class="cls-3" x1="357.25" y1="498.1" x2="357.25" y2="499.87"/></g><g id="Window_Door_Stairs"><line class="cls-1" x1="420.57" y1="563.47" x2="379.43" y2="563.47"/><line class="cls-1" x1="357.25" y1="456.95" x2="357.25" y2="476.64"/><line class="cls-1" x1="357.25" y1="542.79" x2="357.25" y2="562.75"/><line class="cls-1" x1="357.25" y1="521.33" x2="357.25" y2="541.02"/><line class="cls-1" x1="357.25" y1="499.87" x2="357.25" y2="519.56"/><line class="cls-1" x1="357.25" y1="478.41" x2="357.25" y2="498.1"/><line class="cls-1" x1="357.25" y1="435.22" x2="357.25" y2="455.18"/><line class="cls-1" x1="442.75" y1="542.79" x2="442.75" y2="562.75"/><line class="cls-1" x1="442.75" y1="521.33" x2="442.75" y2="541.02"/><line class="cls-1" x1="442.75" y1="499.87" x2="442.75" y2="519.56"/><line class="cls-1" x1="442.75" y1="478.41" x2="442.75" y2="498.1"/><line class="cls-1" x1="442.75" y1="456.95" x2="442.75" y2="476.64"/><line class="cls-1" x1="442.75" y1="435.22" x2="442.75" y2="455.18"/><line class="cls-1" x1="442.03" y1="434.5" x2="422.34" y2="434.5"/><line class="cls-1" x1="442.03" y1="563.47" x2="422.34" y2="563.47"/><line class="cls-1" x1="377.66" y1="434.5" x2="357.97" y2="434.5"/><line class="cls-1" x1="420.57" y1="434.5" x2="379.43" y2="434.5"/><line class="cls-1" x1="377.66" y1="563.47" x2="357.97" y2="563.47"/><polyline class="cls-1" points="378.54 565.66 355.06 565.66 355.06 432.31 378.54 432.31"/><polyline class="cls-1" points="421.46 432.31 444.94 432.31 444.94 565.66 421.46 565.66"/></g><g id="TEXT"><g><path d="M31.17,1024.55h-4.68v-.9h1.89v-6.91l-1.78,.89v-1.04l1.92-.99h.89v8.05h1.76v.9Z"/><path d="M62.51,1016.63c-.53-.18-1.03-.27-1.51-.27-.54,0-.98,.12-1.32,.37-.34,.25-.51,.6-.51,1.05,0,.54,.44,1.01,1.33,1.42,.66,.3,1.09,.51,1.3,.63,.21,.12,.43,.28,.65,.49s.39,.45,.53,.73,.2,.59,.2,.94c0,.87-.29,1.54-.87,2.01-.58,.48-1.27,.72-2.06,.72s-1.44-.15-2.01-.45l.21-.89c.68,.31,1.27,.46,1.77,.46,.59,0,1.06-.15,1.42-.46s.53-.72,.53-1.26c0-.4-.12-.73-.35-1.01-.23-.28-.66-.56-1.28-.84-.64-.29-1.05-.5-1.24-.6s-.37-.26-.56-.45c-.19-.19-.33-.4-.43-.64-.1-.24-.15-.49-.15-.77,0-.74,.26-1.31,.79-1.72s1.2-.62,2.01-.62c.59,0,1.18,.09,1.77,.27l-.23,.88Z"/><path d="M70.97,1024.25c-.66,.3-1.31,.45-1.95,.45-1.17,0-1.76-.62-1.76-1.86v-4.02h-1.26v-.85h1.26v-1.8h.96v1.8h2.23v.85h-2.23v3.76c0,.4,.09,.71,.26,.93,.18,.22,.42,.33,.72,.33,.54,0,1.07-.12,1.6-.36l.17,.76Z"/><path d="M76.11,1017.82c.9,0,1.62,.32,2.16,.95s.8,1.46,.8,2.49-.27,1.88-.8,2.51-1.25,.95-2.16,.95-1.63-.32-2.16-.95c-.53-.63-.8-1.47-.8-2.51s.27-1.87,.8-2.49c.53-.63,1.25-.94,2.16-.94Zm0,6.04c.6,0,1.07-.25,1.41-.76s.52-1.12,.52-1.84c0-.76-.17-1.38-.51-1.87-.34-.49-.81-.73-1.42-.73s-1.08,.24-1.42,.72c-.34,.48-.5,1.11-.5,1.88s.17,1.35,.51,1.85c.34,.5,.81,.75,1.41,.75Z"/><path d="M86.51,1018.15l-.4,.95c-.43-.19-.81-.28-1.12-.28-.29,0-.57,.08-.85,.25-.28,.17-.53,.4-.77,.71-.23,.31-.35,.48-.35,.52v4.25h-.98v-6.57h.98v1.33c.53-.99,1.21-1.49,2.04-1.49,.5,0,.98,.11,1.44,.33Z"/><path d="M94.33,1024.55h-.98c-.08-.26-.12-.62-.12-1.06-.56,.82-1.32,1.23-2.28,1.23-.49,0-.92-.17-1.29-.52-.37-.35-.56-.79-.56-1.34,0-.32,.06-.61,.2-.86,.13-.25,.32-.46,.57-.63,.25-.17,.56-.3,.92-.4,.36-.1,.79-.17,1.29-.21l1.1-.09v-.32c0-1.13-.53-1.69-1.58-1.69-.25,0-.56,.05-.94,.16-.38,.11-.71,.23-.98,.38l-.26-.71c.9-.46,1.73-.69,2.5-.69,1.5,0,2.25,.79,2.25,2.38v2.83c0,.57,.05,1.08,.16,1.53Zm-1.15-1.95v-1.19c-.89,.08-1.5,.16-1.83,.22s-.62,.2-.86,.39-.36,.45-.36,.77c0,.29,.1,.53,.31,.71s.47,.27,.79,.27c.35,0,.7-.1,1.04-.31,.34-.21,.65-.5,.91-.86Z"/><path d="M98.67,1022.07c-.61,.3-.92,.56-.92,.79,0,.12,.07,.22,.21,.31,.14,.08,.33,.13,.58,.13l2.21-.06c.53,0,.93,.13,1.23,.38,.29,.26,.44,.62,.44,1.09,0,.75-.33,1.34-1,1.78-.66,.44-1.44,.66-2.33,.66-.73,0-1.32-.15-1.79-.46-.46-.3-.69-.7-.69-1.18,0-.53,.36-.97,1.07-1.33-.59-.28-.89-.62-.89-1.02,0-.46,.38-.89,1.15-1.29-.35-.21-.62-.49-.81-.83-.19-.34-.28-.7-.28-1.08,0-.62,.21-1.13,.63-1.52s.95-.6,1.58-.6c.45,0,.86,.09,1.23,.28l1.95-.3v.96h-1.26c.19,.33,.28,.72,.28,1.17,0,.6-.21,1.1-.62,1.51-.42,.41-.94,.62-1.58,.62-.13,0-.26,0-.38-.01Zm.42,4.32c.65,0,1.2-.14,1.66-.43,.46-.29,.68-.64,.68-1.07s-.32-.66-.97-.66c-.21,0-.58,.01-1.11,.04-.33,.02-.59,.03-.78,.03-.09,0-.24,.08-.43,.23-.2,.15-.34,.3-.45,.46s-.15,.31-.15,.48c0,.26,.14,.48,.43,.66,.29,.18,.66,.27,1.13,.27Zm-.04-5.07c.36,0,.66-.12,.89-.38,.23-.25,.34-.58,.34-.98,0-.42-.11-.76-.33-1-.22-.24-.52-.36-.9-.36-.35,0-.64,.13-.88,.38-.24,.25-.36,.58-.36,.98s.12,.72,.36,.97c.24,.25,.53,.38,.88,.38Z"/><path d="M109.87,1021.29h-4.51c0,.74,.22,1.36,.65,1.84s.96,.73,1.59,.73,1.21-.11,1.85-.32l.17,.79c-.58,.26-1.26,.39-2.03,.39-.98,0-1.76-.31-2.36-.94-.6-.63-.9-1.47-.9-2.54s.27-1.87,.8-2.49,1.23-.93,2.08-.93c.76,0,1.39,.29,1.9,.86s.76,1.34,.76,2.3v.31Zm-1.07-.8c0-.51-.16-.95-.48-1.3-.32-.35-.68-.53-1.07-.53-.51,0-.93,.17-1.26,.5-.33,.34-.52,.78-.56,1.32h3.37Z"/></g><path d="M402.55,503.98h-4.68v-.9h1.89v-6.91l-1.78,.89v-1.04l1.92-.99h.89v8.05h1.76v.9Z"/><circle class="cls-2" cx="765.53" cy="1024.02" r="11.44"/></g></svg>