<?xml version="1.0" encoding="UTF-8"?><svg xmlns="http://www.w3.org/2000/svg" viewBox="0 0 800 1120"><defs><style>.cls-1{stroke-width:.75px;}.cls-1,.cls-2,.cls-3,.cls-4,.cls-5{fill:none;stroke:#231f20;stroke-linecap:round;stroke-linejoin:round;}.cls-2{stroke-width:1.2px;}.cls-3{stroke-dasharray:0 2;}.cls-3,.cls-4{stroke-width:.24px;}.cls-5{stroke-width:.36px;}</style></defs><g id="Wall"><polygon class="cls-2" points="436.09 471.08 436.09 454 363.91 454 363.91 546.32 436.09 546.32 436.09 495.82 432.26 495.82 432.26 542.49 367.74 542.49 367.74 457.82 432.26 457.82 432.26 471.08 436.09 471.08"/></g><g id="Window_Door_Stairs"><path class="cls-4" d="M417.22,498.07c.13-.33,.31-.64,.53-.91,.06-.07,.11-.14,.17-.2,.06-.06,.12-.13,.19-.19,.13-.12,.27-.23,.42-.33,.59-.4,1.29-.61,2-.61h7.9"/><line class="cls-4" x1="383.04" y1="497.55" x2="383.04" y2="465.47"/><path class="cls-3" d="M411.48,511.76c0-.7-.06-1.4-.19-2.09-.14-.73-.34-1.45-.61-2.14-.58-1.46-1.45-2.78-2.56-3.89-1.11-1.11-2.43-1.98-3.89-2.56-.69-.27-1.41-.48-2.14-.61-.69-.13-1.39-.19-2.09-.19s-1.4,.06-2.09,.19c-.73,.14-1.45,.34-2.14,.61-1.46,.58-2.78,1.45-3.89,2.56s-1.98,2.43-2.56,3.89c-.27,.69-.48,1.41-.61,2.14-.13,.69-.19,1.39-.19,2.09s.06,1.4,.19,2.09c.14,.73,.34,1.45,.61,2.14,.58,1.46,1.45,2.78,2.56,3.89,1.11,1.11,2.43,1.98,3.89,2.56,.69,.27,1.41,.48,2.14,.61,.69,.13,1.39,.19,2.09,.19s1.4-.06,2.09-.19c.73-.14,1.45-.34,2.14-.61,1.46-.58,2.78-1.45,3.89-2.56,1.11-1.11,1.98-2.43,2.56-3.89,.27-.69,.48-1.41,.61-2.14,.13-.69,.19-1.39,.19-2.09Z"/><path class="cls-5" d="M417.47,499.39v24.74c0,.95-.38,1.86-1.05,2.52-.67,.67-1.58,1.05-2.52,1.05h-27.8c-.95,0-1.86-.38-2.52-1.05-.67-.67-1.05-1.58-1.05-2.52v-24.74c0-.95,.38-1.86,1.05-2.52,.67-.67,1.58-1.05,2.52-1.05h27.8c.95,0,1.86,.38,2.52,1.05,.67,.67,1.05,1.58,1.05,2.52Z"/></g><g id="Accessory"><path class="cls-5" d="M432.26,465.47h-60.7v58.66c0,1.91,.38,3.8,1.11,5.56,.73,1.76,1.8,3.37,3.15,4.72s2.95,2.42,4.72,3.15c1.76,.73,3.65,1.11,5.56,1.11h27.8c1.91,0,3.8-.38,5.56-1.11,1.76-.73,3.37-1.8,4.72-3.15,1.35-1.35,2.42-2.95,3.15-4.72,.73-1.76,1.11-3.65,1.11-5.56v-28.31h3.83"/></g><g id="TEXT"><g><path d="M31.17,1024.55h-4.68v-.9h1.89v-6.91l-1.78,.89v-1.04l1.92-.99h.89v8.05h1.76v.9Z"/><path d="M58.35,1015.65h2.26c.85,0,1.54,.21,2.05,.64,.51,.43,.77,1.02,.77,1.77s-.25,1.36-.77,1.81c-.51,.45-1.18,.68-2.01,.68h-1.27v3.99h-1.03v-8.9Zm1.03,4.01h1.12c1.21,0,1.82-.51,1.82-1.53,0-.47-.17-.85-.5-1.14s-.76-.43-1.28-.43h-1.17v3.1Z"/><path d="M71.1,1021.3h-4.51c0,.74,.22,1.36,.65,1.84,.43,.48,.96,.73,1.59,.73s1.21-.11,1.85-.32l.17,.79c-.58,.26-1.26,.39-2.03,.39-.98,0-1.76-.31-2.36-.94-.6-.63-.9-1.47-.9-2.54s.27-1.87,.8-2.49,1.23-.93,2.08-.93c.76,0,1.39,.29,1.9,.86s.76,1.34,.76,2.3v.31Zm-1.07-.8c0-.51-.16-.95-.48-1.3-.32-.35-.68-.53-1.07-.53-.51,0-.93,.17-1.26,.5-.33,.34-.52,.78-.56,1.32h3.38Z"/><path d="M78.76,1018.15l-.4,.95c-.43-.19-.81-.28-1.12-.28-.29,0-.57,.08-.85,.25s-.53,.4-.77,.71c-.23,.31-.35,.48-.35,.52v4.25h-.98v-6.57h.98v1.33c.53-.99,1.21-1.49,2.04-1.49,.5,0,.98,.11,1.44,.33Z"/><path d="M86.47,1015.75l-.26,.8c-.47-.13-.88-.2-1.25-.2s-.6,.1-.73,.3c-.13,.2-.2,.6-.2,1.21v.12h2.21v.85h-2.21v5.72h-.98v-5.72h-1.65v-.85h1.65v-.22c0-.84,.14-1.42,.43-1.76,.29-.34,.78-.5,1.48-.5,.45,0,.96,.09,1.51,.26Z"/><path d="M91.61,1017.82c.9,0,1.62,.32,2.16,.95s.8,1.46,.8,2.49-.27,1.88-.8,2.51-1.25,.95-2.16,.95-1.63-.32-2.16-.95c-.53-.63-.8-1.47-.8-2.51s.27-1.87,.8-2.49c.53-.63,1.25-.94,2.16-.94Zm0,6.04c.6,0,1.07-.25,1.41-.76s.52-1.12,.52-1.84c0-.76-.17-1.38-.51-1.87-.34-.49-.81-.73-1.42-.73s-1.08,.24-1.42,.72c-.34,.48-.5,1.11-.5,1.88s.17,1.35,.51,1.85c.34,.5,.81,.75,1.41,.75Z"/><path d="M102.02,1018.15l-.4,.95c-.43-.19-.81-.28-1.12-.28-.29,0-.57,.08-.85,.25s-.53,.4-.77,.71c-.23,.31-.35,.48-.35,.52v4.25h-.98v-6.57h.98v1.33c.53-.99,1.21-1.49,2.04-1.49,.5,0,.98,.11,1.44,.33Z"/><path d="M110.18,1024.55h-.98v-4.31c0-1.04-.19-1.56-.58-1.56-.2,0-.42,.18-.65,.54-.24,.36-.36,.56-.36,.6v4.74h-.98v-4.31c0-1.04-.2-1.56-.59-1.56-.19,0-.41,.18-.65,.54s-.36,.56-.36,.6v4.74h-.98v-6.57h.95v.99c.19-.35,.41-.63,.66-.84,.25-.21,.51-.31,.76-.31,.27,0,.5,.1,.71,.31,.21,.21,.36,.49,.44,.84,.19-.35,.41-.63,.66-.84,.26-.21,.51-.31,.76-.31,.79,0,1.19,.71,1.19,2.13v4.6Z"/><path d="M117.58,1024.55h-.98c-.08-.26-.12-.62-.12-1.06-.56,.82-1.32,1.23-2.28,1.23-.49,0-.92-.17-1.29-.52-.37-.35-.56-.79-.56-1.34,0-.32,.06-.61,.2-.86,.13-.25,.32-.46,.57-.63,.25-.17,.56-.3,.92-.4,.36-.1,.79-.17,1.29-.21l1.1-.09v-.32c0-1.13-.53-1.69-1.58-1.69-.25,0-.56,.05-.94,.16-.38,.11-.71,.23-.98,.38l-.26-.71c.9-.46,1.73-.69,2.5-.69,1.5,0,2.25,.79,2.25,2.38v2.83c0,.57,.05,1.08,.16,1.53Zm-1.15-1.95v-1.19c-.89,.08-1.5,.16-1.83,.22s-.62,.2-.86,.39c-.24,.19-.36,.45-.36,.77,0,.29,.1,.53,.31,.71s.47,.27,.79,.27c.35,0,.7-.1,1.04-.31s.65-.5,.91-.86Z"/><path d="M125.17,1024.55h-.98v-4.21c0-.58-.09-1.01-.28-1.27-.19-.26-.48-.39-.88-.39-.6,0-1.25,.37-1.94,1.12v4.76h-.98v-6.57h.98v.97c.71-.75,1.45-1.12,2.23-1.12,1.23,0,1.85,.74,1.85,2.23v4.5Z"/><path d="M132.9,1024.33c-.57,.26-1.2,.39-1.89,.39-1.03,0-1.86-.31-2.48-.94s-.92-1.46-.92-2.51,.31-1.88,.93-2.51c.62-.63,1.43-.94,2.44-.94,.66,0,1.29,.12,1.89,.35l-.26,.81c-.6-.21-1.14-.31-1.62-.31-.72,0-1.3,.23-1.72,.7-.42,.47-.63,1.1-.63,1.9,0,.73,.22,1.35,.66,1.85,.44,.5,1.01,.75,1.71,.75,.56,0,1.13-.11,1.72-.32l.17,.79Z"/><path d="M140.87,1021.3h-4.51c0,.74,.22,1.36,.65,1.84,.43,.48,.96,.73,1.59,.73s1.21-.11,1.85-.32l.17,.79c-.58,.26-1.26,.39-2.03,.39-.98,0-1.76-.31-2.36-.94-.6-.63-.9-1.47-.9-2.54s.27-1.87,.8-2.49,1.23-.93,2.08-.93c.76,0,1.39,.29,1.9,.86s.76,1.34,.76,2.3v.31Zm-1.07-.8c0-.51-.16-.95-.48-1.3-.32-.35-.68-.53-1.07-.53-.51,0-.93,.17-1.26,.5-.33,.34-.52,.78-.56,1.32h3.38Z"/><path d="M30.93,1043.62h-4.9v-.75c1.24-1.38,2.05-2.31,2.42-2.78s.67-.96,.9-1.48,.35-1.03,.35-1.55-.15-.89-.45-1.17-.72-.43-1.26-.43c-.42,0-.98,.13-1.68,.38l-.15-.89c.64-.27,1.3-.4,1.99-.4,.79,0,1.44,.22,1.92,.67,.49,.45,.73,1.05,.73,1.79,0,.53-.12,1.06-.38,1.59s-.57,1.03-.96,1.51c-.39,.48-1.15,1.35-2.28,2.6h3.75v.9Z"/><path d="M58.05,1034.72h1.75c1.16,0,2.1,.4,2.8,1.19,.7,.79,1.05,1.88,1.05,3.26s-.36,2.51-1.07,3.28c-.71,.78-1.63,1.16-2.74,1.16h-1.8v-8.9Zm1.03,8h.73c.84,0,1.51-.31,2.01-.94,.49-.63,.74-1.5,.74-2.61s-.25-1.97-.74-2.6-1.16-.95-2-.95h-.73v7.1Z"/><path d="M69.27,1043.62h-.98v-5.72h-1.94v-.85h2.92v6.57Zm-.48-9.06c.19,0,.34,.07,.47,.2,.13,.13,.2,.29,.2,.48s-.06,.36-.19,.49-.29,.2-.48,.2c-.17,0-.32-.07-.46-.21s-.2-.29-.2-.48,.07-.34,.2-.47,.29-.2,.46-.2Z"/><path d="M78.66,1043.62h-.98v-4.21c0-.58-.09-1.01-.28-1.27-.19-.26-.48-.39-.88-.39-.6,0-1.25,.37-1.94,1.12v4.76h-.98v-6.57h.98v.97c.71-.75,1.45-1.12,2.23-1.12,1.23,0,1.85,.74,1.85,2.23v4.5Z"/><path d="M84.77,1043.62h-.98v-5.72h-1.94v-.85h2.92v6.57Zm-.48-9.06c.19,0,.34,.07,.47,.2,.13,.13,.2,.29,.2,.48s-.06,.36-.19,.49-.29,.2-.48,.2c-.17,0-.32-.07-.46-.21s-.2-.29-.2-.48,.07-.34,.2-.47,.29-.2,.46-.2Z"/><path d="M94.16,1043.62h-.98v-4.21c0-.58-.09-1.01-.28-1.27-.19-.26-.48-.39-.88-.39-.6,0-1.25,.37-1.94,1.12v4.76h-.98v-6.57h.98v.97c.71-.75,1.45-1.12,2.23-1.12,1.23,0,1.85,.74,1.85,2.23v4.5Z"/><path d="M98.67,1041.14c-.61,.3-.92,.56-.92,.79,0,.12,.07,.22,.21,.31,.14,.08,.33,.13,.58,.13l2.21-.06c.53,0,.93,.13,1.23,.38,.29,.26,.44,.62,.44,1.09,0,.75-.33,1.34-1,1.78-.67,.44-1.44,.66-2.33,.66-.73,0-1.32-.15-1.79-.46-.46-.3-.69-.7-.69-1.18,0-.53,.36-.97,1.07-1.33-.59-.28-.89-.62-.89-1.02,0-.46,.38-.89,1.15-1.29-.35-.21-.62-.49-.81-.83-.19-.34-.28-.7-.28-1.08,0-.62,.21-1.13,.63-1.52,.42-.4,.95-.6,1.58-.6,.45,0,.86,.09,1.23,.28l1.95-.3v.96h-1.25c.19,.33,.28,.72,.28,1.17,0,.6-.21,1.1-.62,1.51-.42,.41-.94,.62-1.58,.62-.13,0-.26,0-.39-.01Zm.42,4.32c.65,0,1.2-.14,1.66-.43s.68-.64,.68-1.07-.32-.66-.97-.66c-.21,0-.58,.01-1.11,.04-.33,.02-.59,.03-.78,.03-.09,0-.24,.08-.43,.23-.2,.15-.34,.3-.45,.46-.1,.15-.15,.31-.15,.48,0,.26,.14,.48,.43,.66,.29,.18,.66,.27,1.13,.27Zm-.04-5.07c.36,0,.66-.12,.89-.38,.23-.25,.34-.58,.34-.98,0-.42-.11-.76-.33-1-.22-.24-.52-.36-.9-.36-.35,0-.64,.13-.88,.38-.24,.25-.36,.58-.36,.98s.12,.72,.36,.97c.24,.25,.53,.38,.88,.38Z"/></g><circle class="cls-1" cx="765.53" cy="1024.02" r="11.44"/><line class="cls-1" x1="776.94" y1="1023.11" x2="765.53" y2="1024.02"/><path d="M402.33,479.99h-4.68v-.9h1.89v-6.91l-1.78,.89v-1.04l1.92-.99h.89v8.05h1.76v.9Z"/><path d="M402.09,515.65h-4.9v-.75c1.24-1.38,2.05-2.31,2.42-2.78s.67-.96,.9-1.48,.35-1.03,.35-1.55-.15-.89-.45-1.17-.72-.43-1.26-.43c-.42,0-.98,.13-1.68,.38l-.15-.89c.64-.27,1.3-.4,1.99-.4,.79,0,1.44,.22,1.92,.67,.49,.45,.73,1.05,.73,1.79,0,.53-.12,1.06-.38,1.59s-.57,1.03-.96,1.51c-.39,.48-1.15,1.35-2.28,2.6h3.75v.9Z"/></g></svg>