<?xml version="1.0" encoding="UTF-8"?><svg xmlns="http://www.w3.org/2000/svg" viewBox="0 0 800 1120"><defs><style>.cls-1{stroke-width:.18px;}.cls-1,.cls-2,.cls-3,.cls-4{fill:none;stroke:#231f20;stroke-linecap:round;stroke-linejoin:round;}.cls-2{stroke-width:.75px;}.cls-3{stroke-width:.3px;}.cls-4{stroke-width:.8px;}</style></defs><g id="Wall"><rect class="cls-4" x="332.06" y="459.15" width="3.13" height="3.13"/><rect class="cls-4" x="332.06" y="559.34" width="3.13" height="3.13"/><rect class="cls-4" x="335.82" y="563.1" width="3.13" height="3.13"/><rect class="cls-4" x="464.81" y="559.34" width="3.13" height="3.13"/><rect class="cls-4" x="461.05" y="563.1" width="3.13" height="3.13"/><rect class="cls-4" x="385.91" y="563.1" width="3.13" height="3.13"/><rect class="cls-4" x="360.86" y="563.1" width="3.13" height="3.13"/><rect class="cls-4" x="410.95" y="508.62" width="3.13" height="3.13"/><rect class="cls-4" x="436" y="459.15" width="3.13" height="3.13"/><rect class="cls-4" x="410.95" y="459.15" width="3.13" height="3.13"/><rect class="cls-4" x="385.9" y="459.15" width="3.13" height="3.13"/><rect class="cls-4" x="360.85" y="459.15" width="3.13" height="3.13"/><rect class="cls-4" x="385.9" y="508.62" width="3.13" height="3.13"/><rect class="cls-4" x="336.44" y="459.15" width="3.13" height="3.13"/><rect class="cls-4" x="336.44" y="434.73" width="3.13" height="3.13"/><rect class="cls-4" x="460.43" y="434.73" width="3.13" height="3.13"/><rect class="cls-4" x="436.01" y="434.73" width="3.13" height="3.13"/><rect class="cls-4" x="410.96" y="434.73" width="3.13" height="3.13"/><rect class="cls-4" x="385.91" y="434.73" width="3.13" height="3.13"/><rect class="cls-4" x="360.86" y="434.73" width="3.13" height="3.13"/><rect class="cls-4" x="460.43" y="459.15" width="3.13" height="3.13"/><rect class="cls-4" x="360.85" y="508.62" width="3.13" height="3.13"/><rect class="cls-4" x="436" y="484.2" width="3.13" height="3.13"/><rect class="cls-4" x="410.95" y="484.2" width="3.13" height="3.13"/><rect class="cls-4" x="385.9" y="484.2" width="3.13" height="3.13"/><rect class="cls-4" x="360.85" y="484.2" width="3.13" height="3.13"/><rect class="cls-4" x="336.44" y="484.2" width="3.13" height="3.13"/><rect class="cls-4" x="460.43" y="484.2" width="3.13" height="3.13"/><rect class="cls-4" x="336.44" y="508.62" width="3.13" height="3.13"/><rect class="cls-4" x="435.38" y="563.1" width="3.13" height="3.13"/><rect class="cls-4" x="464.81" y="509.87" width="3.13" height="3.13"/><rect class="cls-4" x="332.06" y="509.87" width="3.13" height="3.13"/><rect class="cls-4" x="332.06" y="533.67" width="3.13" height="3.13"/><rect class="cls-4" x="460.43" y="508.62" width="3.13" height="3.13"/><line class="cls-4" x1="335.19" y1="562.47" x2="335.19" y2="559.34"/><rect class="cls-4" x="436" y="508.62" width="3.13" height="3.13"/><rect class="cls-4" x="410.96" y="563.1" width="3.13" height="3.13"/><rect class="cls-4" x="464.81" y="434.11" width="3.13" height="3.13"/><rect class="cls-4" x="464.81" y="459.15" width="3.13" height="3.13"/><rect class="cls-4" x="464.81" y="484.2" width="3.13" height="3.13"/><rect class="cls-4" x="464.81" y="534.3" width="3.13" height="3.13"/><rect class="cls-4" x="335.82" y="430.35" width="3.13" height="3.13"/><rect class="cls-4" x="461.05" y="430.35" width="3.13" height="3.13"/><rect class="cls-4" x="436.01" y="430.35" width="3.13" height="3.13"/><rect class="cls-4" x="410.96" y="430.35" width="3.13" height="3.13"/><rect class="cls-4" x="385.91" y="430.35" width="3.13" height="3.13"/><rect class="cls-4" x="360.86" y="430.35" width="3.13" height="3.13"/><rect class="cls-4" x="332.06" y="434.11" width="3.13" height="3.13"/><rect class="cls-4" x="332.06" y="484.2" width="3.13" height="3.13"/></g><g id="Window_Door_Stairs"><line class="cls-1" x1="389.03" y1="460.72" x2="410.95" y2="460.72"/><rect class="cls-1" x="439.14" y="528.66" width="6.89" height="9.39"/><rect class="cls-1" x="446.02" y="528.66" width="6.89" height="9.39"/><rect class="cls-1" x="452.91" y="528.66" width="6.89" height="9.39"/><rect class="cls-1" x="439.14" y="528.66" width="6.89" height="9.39"/><line class="cls-1" x1="336.44" y1="538.05" x2="463.56" y2="538.05"/><polyline class="cls-1" points="435.38 566.23 332.06 566.23 332.06 430.35 467.94 430.35 467.94 566.23 464.18 566.23"/><path class="cls-1" d="M340.83,489.84h41.64c.83,0,1.63,.33,2.21,.92s.92,1.38,.92,2.21v12.52c0,.83-.33,1.63-.92,2.21s-1.38,.92-2.21,.92h-41.64c-.83,0-1.63-.33-2.21-.92s-.92-1.38-.92-2.21v-12.52c0-.83,.33-1.63,.92-2.21s1.38-.92,2.21-.92Z"/><path class="cls-1" d="M455.42,502.99c0-.32-.03-.65-.09-.97-.06-.34-.16-.67-.28-.99-.27-.68-.67-1.29-1.19-1.8-.51-.51-1.13-.92-1.8-1.19-.32-.13-.65-.22-.99-.28-.32-.06-.64-.09-.97-.09s-.65,.03-.97,.09c-.34,.06-.67,.16-.99,.28-.68,.27-1.29,.67-1.8,1.19s-.92,1.13-1.19,1.8c-.13,.32-.22,.65-.28,.99-.06,.32-.09,.64-.09,.97s.03,.65,.09,.97c.06,.34,.16,.67,.28,.99,.27,.68,.67,1.29,1.19,1.8,.51,.51,1.13,.92,1.8,1.19,.32,.13,.65,.22,.99,.28,.32,.06,.64,.09,.97,.09s.65-.03,.97-.09c.34-.06,.67-.16,.99-.28,.68-.27,1.29-.67,1.8-1.19s.92-1.13,1.19-1.8c.13-.32,.22-.65,.28-.99,.06-.32,.09-.64,.09-.97Z"/><rect class="cls-1" x="418.79" y="503.61" width="6.26" height="9.39"/><rect class="cls-1" x="425.05" y="503.61" width="6.26" height="9.39"/><line class="cls-1" x1="439.13" y1="460.72" x2="460.43" y2="460.72"/><line class="cls-1" x1="414.08" y1="460.72" x2="436" y2="460.72"/><line class="cls-1" x1="363.98" y1="460.72" x2="385.9" y2="460.72"/><line class="cls-1" x1="339.57" y1="460.72" x2="360.85" y2="460.72"/><line class="cls-1" x1="461.05" y1="566.23" x2="438.51" y2="566.23"/></g><g id="Accessory"><line class="cls-3" x1="336.44" y1="434.73" x2="336.44" y2="487.33"/><line class="cls-3" x1="336.44" y1="513.01" x2="336.44" y2="538.05"/><line class="cls-3" x1="336.44" y1="488.58" x2="336.44" y2="511.75"/><line class="cls-3" x1="463.56" y1="457.9" x2="467.94" y2="457.9"/><line class="cls-3" x1="463.56" y1="487.33" x2="463.56" y2="457.9"/><polyline class="cls-3" points="463.56 434.73 463.56 438.49 467.94 438.49"/><line class="cls-3" x1="464.81" y1="434.11" x2="464.81" y2="437.24"/><line class="cls-3" x1="467.94" y1="437.24" x2="464.81" y2="437.24"/><line class="cls-3" x1="467.94" y1="437.24" x2="467.94" y2="438.49"/><line class="cls-3" x1="464.81" y1="459.15" x2="464.81" y2="559.34"/><line class="cls-3" x1="467.94" y1="457.9" x2="467.94" y2="459.15"/><line class="cls-3" x1="464.81" y1="459.15" x2="467.94" y2="459.15"/><polyline class="cls-3" points="417.53 511.75 417.53 502.35 432.56 502.36 432.56 511.75 463.56 511.75"/><line class="cls-3" x1="336.44" y1="487.33" x2="463.56" y2="487.33"/><polyline class="cls-3" points="336.44 538.05 332.06 538.05 332.06 536.8"/><line class="cls-3" x1="336.44" y1="488.58" x2="463.56" y2="488.58"/><line class="cls-3" x1="463.56" y1="434.73" x2="336.44" y2="434.73"/><polyline class="cls-3" points="335.19 434.11 335.19 433.48 464.81 433.48 464.81 434.11"/><polyline class="cls-3" points="464.81 562.47 464.81 563.1 461.05 563.1"/><polyline class="cls-3" points="336.44 511.75 389.03 511.75 389.03 502.36 410.95 502.36 410.95 511.75 417.53 511.75"/><polyline class="cls-3" points="336.44 513.01 390.28 513.01 390.28 503.61 409.7 503.61 409.7 513.01 418.79 513.01 418.79 503.61 431.31 503.61 431.31 513.01 463.56 513.01"/><line class="cls-3" x1="463.56" y1="511.75" x2="463.56" y2="488.58"/><polyline class="cls-3" points="459.8 561.85 463.56 561.85 463.56 513.01"/><polyline class="cls-3" points="459.8 561.85 336.44 561.85 336.44 558.09 332.06 558.09 332.06 559.34 335.19 559.34"/><line class="cls-3" x1="335.19" y1="536.8" x2="335.19" y2="434.11"/><polyline class="cls-3" points="461.05 563.1 335.19 563.1 335.19 562.47"/></g><g id="TEXT"><g><path d="M31.17,1024.55h-4.68v-.9h1.89v-6.91l-1.78,.89v-1.04l1.92-.99h.89v8.05h1.76v.9Z"/><path d="M62.5,1016.63c-.53-.18-1.03-.27-1.51-.27-.54,0-.98,.12-1.31,.37-.34,.25-.51,.6-.51,1.05,0,.54,.44,1.01,1.33,1.42,.66,.3,1.09,.51,1.3,.63,.21,.12,.43,.28,.65,.49,.22,.21,.39,.45,.53,.73s.2,.59,.2,.94c0,.87-.29,1.54-.87,2.01-.58,.48-1.27,.72-2.06,.72s-1.44-.15-2.01-.45l.21-.89c.68,.31,1.27,.46,1.77,.46,.59,0,1.06-.15,1.42-.46s.53-.72,.53-1.26c0-.4-.12-.73-.35-1.01-.23-.28-.66-.56-1.28-.84-.64-.29-1.05-.5-1.24-.6-.19-.11-.37-.26-.56-.45-.19-.19-.33-.4-.43-.64-.1-.24-.15-.49-.15-.77,0-.74,.27-1.31,.79-1.72,.53-.41,1.2-.62,2.01-.62,.59,0,1.18,.09,1.77,.27l-.23,.88Z"/><path d="M70.91,1024.55h-.98v-4.21c0-.58-.09-1.01-.28-1.27-.19-.26-.48-.39-.88-.39-.6,0-1.25,.37-1.94,1.12v4.76h-.98v-8.9h.98v3.29c.71-.75,1.45-1.12,2.23-1.12,1.23,0,1.85,.74,1.85,2.23v4.5Z"/><path d="M78.85,1021.29h-4.51c0,.74,.22,1.36,.65,1.84,.43,.48,.96,.73,1.59,.73s1.21-.11,1.85-.32l.17,.79c-.58,.26-1.26,.39-2.03,.39-.98,0-1.76-.31-2.36-.94-.6-.63-.9-1.47-.9-2.54s.27-1.87,.8-2.49,1.23-.93,2.08-.93c.76,0,1.39,.29,1.9,.86s.76,1.34,.76,2.3v.31Zm-1.07-.8c0-.51-.16-.95-.48-1.3-.32-.35-.68-.53-1.07-.53-.51,0-.93,.17-1.26,.5-.33,.34-.52,.78-.56,1.32h3.38Z"/><path d="M86.38,1024.55h-.98v-.95c-.2,.32-.49,.59-.87,.8-.38,.21-.77,.32-1.19,.32-.75,0-1.35-.33-1.79-1.01s-.66-1.52-.66-2.55c0-.96,.23-1.76,.68-2.39,.46-.63,1.06-.95,1.81-.95,.83,0,1.5,.34,2,1.01v-3.18h.98v8.9Zm-.98-2.01v-2.73c-.47-.76-1.04-1.14-1.7-1.14-.54,0-.97,.24-1.29,.72-.32,.48-.47,1.09-.47,1.83s.15,1.38,.44,1.88c.3,.49,.7,.74,1.22,.74,.25,0,.5-.07,.75-.2,.25-.13,.49-.34,.71-.61,.22-.27,.33-.43,.33-.49Z"/><path d="M30.93,1043.62h-4.9v-.75c1.24-1.38,2.05-2.31,2.42-2.78s.67-.96,.9-1.48,.35-1.03,.35-1.55-.15-.89-.45-1.17-.72-.43-1.26-.43c-.42,0-.98,.13-1.68,.38l-.15-.89c.64-.27,1.3-.4,1.99-.4,.79,0,1.44,.22,1.92,.67,.49,.45,.73,1.05,.73,1.79,0,.53-.12,1.06-.38,1.59s-.57,1.03-.96,1.51c-.39,.48-1.15,1.35-2.28,2.6h3.75v.9Z"/><path d="M61.68,1038.74c.59,.14,1.06,.41,1.39,.81,.34,.4,.5,.88,.5,1.43,0,.81-.29,1.45-.88,1.93-.59,.48-1.29,.72-2.12,.72h-2.53v-8.9h2.47c.86,0,1.53,.19,2.01,.56s.73,.91,.73,1.59c0,.42-.14,.79-.42,1.12-.28,.33-.67,.57-1.16,.71v.02Zm-2.59-.48h1.21c1.27,0,1.9-.45,1.9-1.36,0-.41-.16-.73-.47-.95-.31-.22-.77-.33-1.37-.33h-1.27v2.64Zm0,4.46h1.17c.69,0,1.23-.16,1.63-.47,.4-.31,.6-.74,.6-1.28,0-.58-.2-1.02-.59-1.34s-.97-.47-1.72-.47h-1.1v3.56Z"/><path d="M71.1,1040.37h-4.51c0,.74,.22,1.36,.65,1.84,.43,.48,.96,.73,1.59,.73s1.21-.11,1.85-.32l.17,.79c-.58,.26-1.26,.39-2.03,.39-.98,0-1.76-.31-2.36-.94-.6-.63-.9-1.47-.9-2.54s.27-1.87,.8-2.49,1.23-.93,2.08-.93c.76,0,1.39,.29,1.9,.86s.76,1.34,.76,2.3v.31Zm-1.07-.8c0-.51-.16-.95-.48-1.3-.32-.35-.68-.53-1.07-.53-.51,0-.93,.17-1.26,.5-.33,.34-.52,.78-.56,1.32h3.38Z"/><path d="M78.66,1043.62h-.98v-4.21c0-.58-.09-1.01-.28-1.27-.19-.26-.48-.39-.88-.39-.6,0-1.25,.37-1.94,1.12v4.76h-.98v-6.57h.98v.97c.71-.75,1.45-1.12,2.23-1.12,1.23,0,1.85,.74,1.85,2.23v4.5Z"/><path d="M86.38,1043.4c-.57,.26-1.2,.39-1.89,.39-1.03,0-1.86-.31-2.48-.94s-.92-1.46-.92-2.51,.31-1.88,.93-2.51c.62-.63,1.43-.94,2.44-.94,.66,0,1.29,.12,1.89,.35l-.26,.81c-.6-.21-1.14-.31-1.62-.31-.72,0-1.3,.23-1.72,.7-.42,.47-.63,1.1-.63,1.9,0,.73,.22,1.35,.66,1.85,.44,.5,1.01,.75,1.71,.75,.56,0,1.13-.11,1.72-.32l.17,.79Z"/><path d="M94.16,1043.62h-.98v-4.21c0-.58-.09-1.01-.28-1.27-.19-.26-.48-.39-.88-.39-.6,0-1.25,.37-1.94,1.12v4.76h-.98v-8.9h.98v3.29c.71-.75,1.45-1.12,2.23-1.12,1.23,0,1.85,.74,1.85,2.23v4.5Z"/></g><path d="M402.53,455.75h-4.68v-.9h1.89v-6.91l-1.78,.89v-1.04l1.92-.99h.89v8.05h1.76v.9Z"/><path d="M402.3,479.86h-4.9v-.75c1.24-1.38,2.05-2.31,2.42-2.78s.67-.96,.9-1.48,.35-1.03,.35-1.55-.15-.89-.45-1.17-.72-.43-1.26-.43c-.42,0-.98,.13-1.68,.38l-.15-.89c.64-.27,1.3-.4,1.99-.4,.79,0,1.44,.22,1.92,.67,.49,.45,.73,1.05,.73,1.79,0,.53-.12,1.06-.38,1.59s-.57,1.03-.96,1.51c-.39,.48-1.15,1.35-2.28,2.6h3.75v.9Z"/><circle class="cls-2" cx="765.53" cy="1024.02" r="11.44"/></g></svg>