<?xml version="1.0" encoding="UTF-8"?><svg xmlns="http://www.w3.org/2000/svg" viewBox="0 0 800 1120"><defs><style>.cls-1{stroke-width:.75px;}.cls-1,.cls-2,.cls-3,.cls-4,.cls-5{fill:none;stroke:#231f20;stroke-linecap:round;stroke-linejoin:round;}.cls-2{stroke-width:.9px;}.cls-3{stroke-dasharray:0 2;}.cls-3,.cls-4{stroke-width:.24px;}.cls-5{stroke-width:.36px;}</style></defs><g id="Accessory"><polygon class="cls-2" points="402.24 405.93 406.58 404.35 490.55 404.35 490.55 417.53 485.94 417.53 485.94 408.97 403.35 408.97 402.24 405.93"/><polygon class="cls-2" points="395.1 372.81 396.68 377.15 314.38 407.11 379.36 585.64 404.33 576.55 374.19 493.72 377.08 492.66 411.4 586.95 450.95 586.94 450.96 591.56 376.6 591.56 308.46 404.35 395.1 372.81"/><line class="cls-2" x1="335.63" y1="479.02" x2="321.59" y2="440.43"/><polygon class="cls-2" points="485.94 452.23 485.94 496.42 403.35 496.42 403.35 499.49 485.94 499.49 485.93 591.56 490.55 591.56 490.55 452.23 485.94 452.23"/><line class="cls-4" x1="406.58" y1="404.35" x2="396.68" y2="377.15"/><line class="cls-4" x1="485.94" y1="452.23" x2="485.94" y2="417.53"/><line class="cls-4" x1="490.55" y1="417.53" x2="490.55" y2="452.23"/><line class="cls-4" x1="341.45" y1="481.51" x2="366.44" y2="472.42"/><line class="cls-4" x1="344.04" y1="488.61" x2="369.02" y2="479.52"/><line class="cls-4" x1="346.62" y1="495.71" x2="371.6" y2="486.62"/><line class="cls-4" x1="349.21" y1="502.81" x2="374.19" y2="493.72"/><line class="cls-4" x1="351.79" y1="509.91" x2="376.77" y2="500.82"/><line class="cls-4" x1="354.37" y1="517.01" x2="379.36" y2="507.92"/><line class="cls-4" x1="356.96" y1="524.11" x2="381.94" y2="515.02"/><line class="cls-4" x1="359.54" y1="531.21" x2="384.52" y2="522.12"/><line class="cls-4" x1="362.13" y1="538.31" x2="387.11" y2="529.21"/><line class="cls-4" x1="364.71" y1="545.41" x2="389.69" y2="536.31"/><line class="cls-4" x1="367.3" y1="552.51" x2="392.28" y2="543.41"/><line class="cls-4" x1="369.78" y1="559.34" x2="394.76" y2="550.25"/><line class="cls-4" x1="379.36" y1="585.64" x2="394.76" y2="550.25"/><polyline class="cls-3" points="340.59 397.57 350.15 423.84 323.94 433.38"/><line class="cls-4" x1="374.19" y1="493.72" x2="366.44" y2="472.42"/><line class="cls-4" x1="450.96" y1="591.56" x2="485.93" y2="591.56"/><line class="cls-4" x1="450.95" y1="586.94" x2="485.93" y2="586.94"/><line class="cls-4" x1="402.24" y1="405.93" x2="392.34" y2="378.73"/><path class="cls-5" d="M325.84,465.53c0-.43-.04-.85-.12-1.27-.08-.45-.21-.88-.37-1.3-.35-.89-.88-1.7-1.56-2.37s-1.48-1.21-2.37-1.56c-.42-.17-.86-.29-1.3-.37-.42-.08-.85-.12-1.27-.12s-.85,.04-1.27,.12c-.45,.08-.88,.21-1.3,.37-.89,.35-1.7,.88-2.37,1.56-.68,.68-1.21,1.48-1.56,2.37-.17,.42-.29,.86-.37,1.3-.08,.42-.12,.85-.12,1.27s.04,.85,.12,1.27c.08,.45,.21,.88,.37,1.3,.35,.89,.88,1.7,1.56,2.37,.68,.68,1.48,1.21,2.37,1.56,.42,.17,.86,.29,1.3,.37,.42,.08,.85,.12,1.27,.12s.85-.04,1.27-.12c.45-.08,.88-.21,1.3-.37,.89-.35,1.7-.88,2.37-1.56,.68-.68,1.21-1.48,1.56-2.37,.17-.42,.29-.86,.37-1.3,.08-.42,.12-.85,.12-1.27Z"/></g><g id="TEXT"><g><path d="M31.17,1024.55h-4.68v-.9h1.89v-6.91l-1.78,.89v-1.04l1.92-.99h.89v8.05h1.76v.9Z"/><path d="M61.68,1019.67c.59,.14,1.06,.41,1.39,.81,.34,.4,.5,.88,.5,1.43,0,.81-.29,1.45-.88,1.93-.59,.48-1.29,.72-2.12,.72h-2.53v-8.9h2.47c.86,0,1.53,.19,2.01,.56s.73,.91,.73,1.59c0,.42-.14,.79-.42,1.12-.28,.33-.67,.57-1.16,.71v.02Zm-2.59-.48h1.21c1.27,0,1.9-.45,1.9-1.36,0-.41-.16-.73-.47-.95-.31-.22-.77-.33-1.37-.33h-1.27v2.64Zm0,4.46h1.17c.69,0,1.23-.16,1.63-.47,.4-.31,.6-.74,.6-1.28,0-.58-.2-1.02-.59-1.34s-.97-.47-1.72-.47h-1.1v3.56Z"/><path d="M71.1,1021.3h-4.51c0,.74,.22,1.36,.65,1.84,.43,.48,.96,.73,1.59,.73s1.21-.11,1.85-.32l.17,.79c-.58,.26-1.26,.39-2.03,.39-.98,0-1.76-.31-2.36-.94-.6-.63-.9-1.47-.9-2.54s.27-1.87,.8-2.49,1.23-.93,2.08-.93c.76,0,1.39,.29,1.9,.86s.76,1.34,.76,2.3v.31Zm-1.07-.8c0-.51-.16-.95-.48-1.3-.32-.35-.68-.53-1.07-.53-.51,0-.93,.17-1.26,.5-.33,.34-.52,.78-.56,1.32h3.38Z"/><path d="M78.63,1024.55h-.98v-.95c-.2,.32-.49,.59-.87,.8-.38,.21-.77,.32-1.19,.32-.75,0-1.35-.33-1.79-1.01s-.66-1.52-.66-2.55c0-.96,.23-1.76,.68-2.39,.46-.63,1.06-.95,1.81-.95,.83,0,1.5,.34,2,1.01v-3.18h.98v8.9Zm-.98-2.01v-2.73c-.47-.76-1.04-1.14-1.7-1.14-.54,0-.97,.24-1.29,.72-.32,.48-.47,1.09-.47,1.83s.15,1.38,.44,1.88c.3,.49,.7,.74,1.22,.74,.25,0,.5-.07,.75-.2,.25-.13,.49-.34,.71-.61,.22-.27,.33-.43,.33-.49Z"/><path d="M30.93,1043.62h-4.9v-.75c1.24-1.38,2.05-2.31,2.42-2.78s.67-.96,.9-1.48,.35-1.03,.35-1.55-.15-.89-.45-1.17-.72-.43-1.26-.43c-.42,0-.98,.13-1.68,.38l-.15-.89c.64-.27,1.3-.4,1.99-.4,.79,0,1.44,.22,1.92,.67,.49,.45,.73,1.05,.73,1.79,0,.53-.12,1.06-.38,1.59s-.57,1.03-.96,1.51c-.39,.48-1.15,1.35-2.28,2.6h3.75v.9Z"/><path d="M62.5,1035.7c-.53-.18-1.03-.27-1.51-.27-.54,0-.98,.12-1.31,.37-.34,.25-.51,.6-.51,1.05,0,.54,.44,1.01,1.33,1.42,.66,.3,1.09,.51,1.3,.63,.21,.12,.43,.28,.65,.49,.22,.21,.39,.45,.53,.73s.2,.59,.2,.94c0,.87-.29,1.54-.87,2.01-.58,.48-1.27,.72-2.06,.72s-1.44-.15-2.01-.45l.21-.89c.68,.31,1.27,.46,1.77,.46,.59,0,1.06-.15,1.42-.46s.53-.72,.53-1.26c0-.4-.12-.73-.35-1.01-.23-.28-.66-.56-1.28-.84-.64-.29-1.05-.5-1.24-.6-.19-.11-.37-.26-.56-.45-.19-.19-.33-.4-.43-.64-.1-.24-.15-.49-.15-.77,0-.74,.27-1.31,.79-1.72,.53-.41,1.2-.62,2.01-.62,.59,0,1.18,.09,1.77,.27l-.23,.88Z"/><path d="M70.97,1043.32c-.66,.3-1.31,.45-1.95,.45-1.17,0-1.76-.62-1.76-1.86v-4.02h-1.26v-.85h1.26v-1.8h.96v1.8h2.23v.85h-2.23v3.76c0,.4,.09,.71,.26,.93s.42,.33,.72,.33c.54,0,1.07-.12,1.6-.36l.17,.76Z"/><path d="M78.65,1043.62h-.98v-.97c-.71,.75-1.45,1.13-2.23,1.13-1.23,0-1.85-.75-1.85-2.24v-4.49h.98v4.21c0,.56,.09,.98,.27,1.25s.47,.41,.9,.41c.6,0,1.25-.37,1.94-1.12v-4.75h.98v6.57Z"/><path d="M86.39,1043.62h-.98v-.95c-.2,.32-.49,.59-.87,.8-.38,.21-.77,.32-1.19,.32-.75,0-1.35-.33-1.79-1.01s-.66-1.52-.66-2.55c0-.96,.23-1.76,.68-2.39,.46-.63,1.06-.95,1.81-.95,.83,0,1.5,.34,2,1.01v-3.18h.98v8.9Zm-.98-2.01v-2.73c-.47-.76-1.04-1.14-1.7-1.14-.54,0-.97,.24-1.29,.72-.32,.48-.47,1.09-.47,1.83s.15,1.38,.44,1.88c.3,.49,.7,.74,1.22,.74,.25,0,.5-.07,.75-.2,.25-.13,.49-.34,.71-.61,.22-.27,.33-.43,.33-.49Z"/><path d="M94.46,1037.05l-2.49,6.57c-.36,.97-.72,1.64-1.08,2.02-.36,.38-.76,.57-1.21,.57-.4,0-.8-.07-1.2-.22l.16-.79c.32,.1,.61,.15,.86,.15,.35,0,.64-.14,.87-.41,.23-.27,.46-.72,.69-1.34l-2.47-6.56h1.07l1.86,5.24,1.86-5.24h1.07Z"/></g><circle class="cls-1" cx="765.53" cy="1024.02" r="11.44"/><path d="M436.02,457.48h-4.68v-.9h1.89v-6.91l-1.78,.89v-1.04l1.92-.99h.89v8.05h1.76v.9Z"/><path d="M364.44,412.07h-4.9v-.75c1.24-1.38,2.05-2.31,2.42-2.78s.67-.96,.9-1.48,.35-1.03,.35-1.55-.15-.89-.45-1.17-.72-.43-1.26-.43c-.42,0-.98,.13-1.68,.38l-.15-.89c.64-.27,1.3-.4,1.99-.4,.79,0,1.44,.22,1.92,.67,.49,.45,.73,1.05,.73,1.79,0,.53-.12,1.06-.38,1.59s-.57,1.03-.96,1.51c-.39,.48-1.15,1.35-2.28,2.6h3.75v.9Z"/><path d="M438.57,550.33h-4.68v-.9h1.89v-6.91l-1.78,.89v-1.04l1.92-.99h.89v8.05h1.76v.9Z"/><line class="cls-1" x1="765.53" y1="1012.57" x2="765.53" y2="1024.02"/><line class="cls-3" x1="335.63" y1="465.53" x2="485.93" y2="465.53"/></g></svg>