<?xml version="1.0" encoding="UTF-8"?><svg xmlns="http://www.w3.org/2000/svg" viewBox="0 0 800 1120"><defs><style>.cls-1{stroke-width:.75px;}.cls-1,.cls-2,.cls-3{stroke:#231f20;}.cls-1,.cls-2,.cls-3,.cls-4{fill:none;stroke-linecap:round;stroke-linejoin:round;}.cls-2{stroke-width:1.2px;}.cls-3{stroke-dasharray:0 2;stroke-width:.24px;}.cls-4{stroke:#5b5b5b;stroke-width:.2px;}</style></defs><g id="Below"><g><line class="cls-3" x1="544.72" y1="716.21" x2="544.72" y2="379.19"/><polyline class="cls-3" points="255.18 372.55 255.18 92.96 544.67 92.96"/><polyline class="cls-3" points="255.26 460.09 255.18 373.2 255.18 372.55"/><line class="cls-3" x1="253.69" y1="460.09" x2="253.62" y2="379.19"/><path class="cls-3" d="M255.26,783.72c0-2.9,0-5.79,.01-8.67,.01-3.54,.04-7.07,.1-10.59,.05-3.14,.14-6.28,.26-9.41,.11-2.85,.25-5.68,.44-8.51,.18-2.84,.41-5.66,.69-8.48,.23-2.27,.49-4.55,.79-6.81,.3-2.27,.63-4.52,1.01-6.77s.81-4.49,1.27-6.72c.47-2.22,.99-4.44,1.55-6.64,.28-1.08,.57-2.16,.87-3.24,.25-.9,.51-1.8,.78-2.69,.26-.89,.54-1.78,.83-2.67,.28-.89,.58-1.78,.88-2.67s.6-1.77,.92-2.66c.6-1.71,1.23-3.41,1.87-5.12,.65-1.7,1.31-3.4,1.98-5.1,1.34-3.4,2.73-6.8,4.11-10.22,1.13-2.78,2.25-5.58,3.36-8.39,1.1-2.82,2.18-5.65,3.2-8.52,.65-1.8,1.28-3.62,1.88-5.45s1.18-3.68,1.72-5.54c.49-1.7,.95-3.42,1.38-5.15,.39-1.6,.76-3.21,1.08-4.84,.33-1.63,.62-3.27,.87-4.92,.21-1.39,.38-2.79,.52-4.19,.15-1.4,.25-2.81,.32-4.22,.03-.65,.05-1.3,.07-1.95,.01-.44,.02-.88,.02-1.33s0-.89-.01-1.34c0-.44-.01-.89-.03-1.34-.03-1.05-.09-2.1-.16-3.14-.08-1.05-.17-2.09-.29-3.13-.11-1.04-.24-2.08-.39-3.11-.24-1.64-.52-3.27-.84-4.89s-.68-3.22-1.07-4.82c-.39-1.59-.81-3.17-1.25-4.75-.45-1.57-.92-3.13-1.41-4.68-.5-1.55-1.01-3.09-1.54-4.63-.53-1.53-1.08-3.05-1.63-4.57-.56-1.51-1.13-3.02-1.71-4.52s-1.17-3-1.76-4.49c-1.19-2.97-2.39-5.92-3.58-8.86-.82-2.04-1.64-4.07-2.45-6.1-.8-2.02-1.59-4.05-2.36-6.08-.77-2.04-1.52-4.07-2.23-6.11-.49-1.42-.97-2.84-1.43-4.26-.28-.89-.56-1.78-.83-2.68-.27-.89-.53-1.79-.78-2.69-.26-.9-.5-1.8-.74-2.7-.56-2.16-1.07-4.33-1.54-6.51s-.9-4.37-1.28-6.58c-.39-2.2-.73-4.41-1.04-6.63-.36-2.64-.67-5.29-.93-7.96-.27-2.66-.49-5.33-.67-8.01-.18-2.67-.32-5.35-.43-8.04s-.19-5.38-.25-8.08c-.06-2.69-.09-5.39-.12-8.1-.02-2.7-.03-5.41-.03-8.12v-5.24"/><path class="cls-3" d="M253.69,783.72c0-2.9,0-5.79,.01-8.68,.01-3.5,.04-7,.1-10.5,.06-3.5,.16-6.99,.3-10.48s.34-6.98,.6-10.45c.22-2.79,.47-5.57,.78-8.35,.31-2.77,.67-5.54,1.1-8.3,.21-1.39,.44-2.77,.68-4.15,.25-1.36,.51-2.72,.78-4.08,.55-2.73,1.17-5.44,1.86-8.14,.26-1.01,.53-2.02,.81-3.03,.26-.92,.52-1.83,.79-2.74,.21-.7,.43-1.39,.64-2.08,.22-.69,.44-1.38,.67-2.07s.46-1.38,.7-2.07c.72-2.09,1.47-4.17,2.25-6.25s1.58-4.15,2.4-6.22,1.65-4.14,2.49-6.21c.83-2.07,1.68-4.14,2.51-6.22,.87-2.16,1.74-4.33,2.59-6.51s1.68-4.37,2.49-6.57c.8-2.2,1.58-4.42,2.31-6.66,.6-1.8,1.16-3.62,1.69-5.44,.53-1.83,1.03-3.67,1.48-5.53,.45-1.85,.86-3.72,1.22-5.6,.1-.54,.2-1.08,.29-1.63,.23-1.35,.44-2.7,.61-4.06,.2-1.57,.35-3.16,.46-4.75s.17-3.18,.17-4.78c0-.51,0-1.01-.01-1.52-.01-.5-.02-1.01-.04-1.51-.05-1.44-.15-2.87-.28-4.3-.14-1.43-.31-2.86-.51-4.28-.21-1.42-.44-2.83-.71-4.23-.27-1.41-.56-2.81-.89-4.2-.32-1.39-.67-2.77-1.03-4.14-.37-1.38-.77-2.75-1.17-4.11-.41-1.36-.84-2.71-1.28-4.06-.45-1.35-.91-2.69-1.38-4.02-.73-2.09-1.49-4.15-2.28-6.21-.78-2.06-1.58-4.11-2.39-6.15s-1.64-4.08-2.46-6.11c-1-2.46-1.99-4.92-2.98-7.37-.98-2.46-1.95-4.92-2.88-7.39-.7-1.83-1.37-3.66-2.02-5.5s-1.28-3.68-1.87-5.53c-.27-.85-.53-1.69-.78-2.54-.26-.84-.5-1.69-.74-2.55-.24-.85-.47-1.7-.69-2.56-.45-1.71-.87-3.43-1.26-5.16-.54-2.4-1.03-4.82-1.47-7.26-.44-2.43-.83-4.87-1.17-7.32s-.63-4.91-.89-7.37c-.08-.82-.16-1.65-.23-2.48-.16-1.64-.3-3.28-.42-4.92-.18-2.48-.32-4.96-.44-7.44s-.21-4.96-.28-7.44c-.07-2.49-.12-4.98-.15-7.47-.06-4.24-.07-8.5-.08-12.76v-4.18"/><line class="cls-3" x1="544.72" y1="935.51" x2="544.72" y2="718.07"/><polyline class="cls-3" points="546.36 937.08 546.36 903.81 546.36 858.41 546.36 813.01 546.36 767.61 546.36 722.21 546.36 678.69 546.36 635.17 546.36 591.65 546.36 548.13 546.36 504.61 546.36 461.09 546.36 417.57 546.36 374.05 546.36 91.14 253.62 91.14 253.62 374.05 253.62 379.19"/><polyline class="cls-3" points="255.26 935.51 353.39 935.51 362.78 935.51 544.72 935.51"/><polyline class="cls-3" points="253.69 937.08 290.16 937.08 334.76 937.08 379.37 937.08 423.97 937.08 468.57 937.08 513.17 937.08 546.36 937.08"/><polyline class="cls-3" points="255.26 769.62 255.26 783.72 255.26 935.51"/><polyline class="cls-3" points="253.69 769.62 253.69 783.72 253.69 813.01 253.69 858.41 253.69 903.81 253.69 937.08"/><line class="cls-3" x1="544.72" y1="93.1" x2="544.72" y2="379.12"/><line class="cls-3" x1="548.24" y1="417.57" x2="546.36" y2="417.57"/><line class="cls-3" x1="548.24" y1="461.09" x2="546.36" y2="461.09"/><line class="cls-3" x1="548.24" y1="504.61" x2="546.36" y2="504.61"/><line class="cls-3" x1="548.24" y1="548.13" x2="546.36" y2="548.13"/><line class="cls-3" x1="548.24" y1="591.65" x2="546.36" y2="591.65"/><line class="cls-3" x1="548.24" y1="635.17" x2="546.36" y2="635.17"/><line class="cls-3" x1="548.24" y1="678.69" x2="546.36" y2="678.69"/><line class="cls-3" x1="548.24" y1="722.21" x2="546.36" y2="722.21"/><line class="cls-3" x1="548.24" y1="767.61" x2="546.36" y2="767.61"/><line class="cls-3" x1="548.24" y1="813.01" x2="546.36" y2="813.01"/><line class="cls-3" x1="548.24" y1="858.41" x2="546.36" y2="858.41"/><line class="cls-3" x1="548.24" y1="903.81" x2="546.36" y2="903.81"/><line class="cls-3" x1="513.17" y1="938.87" x2="513.17" y2="937.08"/><line class="cls-3" x1="468.57" y1="938.87" x2="468.57" y2="937.08"/><line class="cls-3" x1="423.97" y1="938.87" x2="423.97" y2="937.08"/><polyline class="cls-3" points="379.37 938.86 379.37 937.08 379.37 937.07"/><line class="cls-3" x1="334.76" y1="938.87" x2="334.76" y2="937.08"/><line class="cls-3" x1="290.16" y1="938.87" x2="290.16" y2="937.08"/><line class="cls-3" x1="253.19" y1="504.47" x2="255.06" y2="504.3"/><line class="cls-3" x1="262.34" y1="547.61" x2="264.11" y2="546.99"/><line class="cls-3" x1="278.99" y1="591.17" x2="280.78" y2="590.59"/><line class="cls-3" x1="283.38" y1="635.44" x2="285.23" y2="635.76"/><line class="cls-3" x1="268.85" y1="679.28" x2="270.6" y2="679.98"/><line class="cls-3" x1="255.41" y1="722.49" x2="257.26" y2="722.81"/><line class="cls-3" x1="251.81" y1="903.81" x2="253.69" y2="903.81"/><line class="cls-3" x1="251.81" y1="858.41" x2="253.69" y2="858.41"/><line class="cls-3" x1="251.81" y1="813.01" x2="253.69" y2="813.01"/><line class="cls-3" x1="251.81" y1="767.61" x2="253.69" y2="767.61"/><line class="cls-3" x1="251.81" y1="461.09" x2="253.68" y2="461.09"/><line class="cls-3" x1="251.74" y1="417.57" x2="253.62" y2="417.57"/><line class="cls-3" x1="548.24" y1="374.05" x2="546.36" y2="374.05"/><line class="cls-3" x1="251.74" y1="374.05" x2="253.62" y2="374.05"/></g></g><g id="Wall"><g><path class="cls-2" d="M250.15,187.67c-.2,0-.39,.04-.58,.11-.2,.08-.38,.2-.53,.35-.15,.15-.27,.33-.35,.53-.07,.18-.11,.38-.11,.58s.04,.39,.11,.58c.08,.2,.2,.38,.35,.53,.15,.15,.33,.27,.53,.35,.18,.07,.38,.11,.58,.11s.39-.04,.58-.11c.2-.08,.38-.2,.53-.35,.15-.15,.27-.33,.35-.53,.07-.18,.11-.38,.11-.58s-.04-.39-.11-.58c-.08-.2-.2-.38-.35-.53-.15-.15-.33-.27-.53-.35-.18-.07-.38-.11-.58-.11Z"/><path class="cls-2" d="M250.15,280.1c-.2,0-.39,.04-.58,.11-.2,.08-.38,.2-.53,.35s-.27,.33-.35,.53c-.07,.18-.11,.38-.11,.58s.04,.39,.11,.58c.08,.2,.2,.38,.35,.53s.33,.27,.53,.35c.18,.07,.38,.11,.58,.11s.39-.04,.58-.11c.2-.08,.38-.2,.53-.35s.27-.33,.35-.53c.07-.18,.11-.38,.11-.58s-.04-.39-.11-.58c-.08-.2-.2-.38-.35-.53s-.33-.27-.53-.35c-.18-.07-.38-.11-.58-.11Z"/><path class="cls-2" d="M250.15,326.31c-.2,0-.39,.04-.58,.11-.2,.08-.38,.2-.53,.35s-.27,.33-.35,.53c-.07,.18-.11,.38-.11,.58s.04,.39,.11,.58c.08,.2,.2,.38,.35,.53s.33,.27,.53,.35c.18,.07,.38,.11,.58,.11s.39-.04,.58-.11c.2-.08,.38-.2,.53-.35s.27-.33,.35-.53c.07-.18,.11-.38,.11-.58s-.04-.39-.11-.58c-.08-.2-.2-.38-.35-.53s-.33-.27-.53-.35c-.18-.07-.38-.11-.58-.11Z"/><path class="cls-2" d="M250.15,372.52c-.2,0-.39,.04-.58,.11-.2,.08-.38,.2-.53,.35-.15,.15-.27,.33-.35,.53-.07,.18-.11,.38-.11,.58s.04,.39,.11,.58c.08,.2,.2,.38,.35,.53,.15,.15,.33,.27,.53,.35,.18,.07,.38,.11,.58,.11s.39-.04,.58-.11c.2-.08,.38-.2,.53-.35,.15-.15,.27-.33,.35-.53,.07-.18,.11-.38,.11-.58s-.04-.39-.11-.58c-.08-.2-.2-.38-.35-.53-.15-.15-.33-.27-.53-.35-.18-.07-.38-.11-.58-.11Z"/><path class="cls-2" d="M250.15,416.04c-.2,0-.39,.04-.58,.11-.2,.08-.38,.2-.53,.35-.15,.15-.27,.33-.35,.53-.07,.18-.11,.38-.11,.58s.04,.39,.11,.58c.08,.2,.2,.38,.35,.53,.15,.15,.33,.27,.53,.35,.18,.07,.38,.11,.58,.11s.39-.04,.58-.11c.2-.08,.38-.2,.53-.35,.15-.15,.27-.33,.35-.53,.07-.18,.11-.38,.11-.58s-.04-.39-.11-.58c-.08-.2-.2-.38-.35-.53-.15-.15-.33-.27-.53-.35-.18-.07-.38-.11-.58-.11Z"/><path class="cls-2" d="M250.21,459.56c-.2,0-.39,.04-.58,.11-.2,.08-.38,.2-.53,.35s-.27,.33-.35,.53c-.07,.18-.11,.38-.11,.58s.04,.39,.11,.58c.08,.2,.2,.38,.35,.53s.33,.27,.53,.35c.18,.07,.38,.11,.58,.11s.39-.04,.58-.11c.2-.08,.38-.2,.53-.35s.27-.33,.35-.53c.07-.18,.11-.38,.11-.58s-.04-.39-.11-.58c-.08-.2-.2-.38-.35-.53s-.33-.27-.53-.35c-.18-.07-.38-.11-.58-.11Z"/><path class="cls-2" d="M251.6,503.08c-.2,0-.39,.04-.58,.11-.2,.08-.38,.2-.53,.35-.15,.15-.27,.33-.35,.53-.07,.18-.11,.38-.11,.58s.04,.39,.11,.58c.08,.2,.2,.38,.35,.53s.33,.27,.53,.35c.18,.07,.38,.11,.58,.11s.39-.04,.58-.11c.2-.08,.38-.2,.53-.35,.15-.15,.27-.33,.35-.53,.07-.18,.11-.38,.11-.58s-.04-.39-.11-.58c-.08-.2-.2-.38-.35-.53s-.33-.27-.53-.35c-.18-.07-.38-.11-.58-.11Z"/><path class="cls-2" d="M260.83,546.6c-.2,0-.39,.04-.58,.11-.2,.08-.38,.2-.53,.35-.15,.15-.27,.33-.35,.53-.07,.18-.11,.38-.11,.58s.04,.39,.11,.58c.08,.2,.2,.38,.35,.53s.33,.27,.53,.35c.18,.07,.38,.11,.58,.11s.39-.04,.58-.11c.2-.08,.38-.2,.53-.35s.27-.33,.35-.53c.07-.18,.11-.38,.11-.58s-.04-.39-.11-.58c-.08-.2-.2-.38-.35-.53-.15-.15-.33-.27-.53-.35-.18-.07-.38-.11-.58-.11Z"/><path class="cls-2" d="M277.48,590.12c-.2,0-.39,.04-.58,.11-.2,.08-.38,.2-.53,.35-.15,.15-.27,.33-.35,.53-.07,.18-.11,.38-.11,.58s.04,.39,.11,.58c.08,.2,.2,.38,.35,.53s.33,.27,.53,.35c.18,.07,.38,.11,.58,.11s.39-.04,.58-.11c.2-.08,.38-.2,.53-.35,.15-.15,.27-.33,.35-.53,.07-.18,.11-.38,.11-.58s-.04-.39-.11-.58c-.08-.2-.2-.38-.35-.53s-.33-.27-.53-.35c-.18-.07-.38-.11-.58-.11Z"/><path class="cls-2" d="M281.81,633.64c-.2,0-.39,.04-.58,.11-.2,.08-.38,.2-.53,.35-.15,.15-.27,.33-.35,.53-.07,.18-.11,.38-.11,.58s.04,.39,.11,.58c.08,.2,.2,.38,.35,.53,.15,.15,.33,.27,.53,.35,.18,.07,.38,.11,.58,.11s.39-.04,.58-.11c.2-.08,.38-.2,.53-.35,.15-.15,.27-.33,.35-.53,.07-.18,.11-.38,.11-.58s-.04-.39-.11-.58c-.08-.2-.2-.38-.35-.53-.15-.15-.33-.27-.53-.35-.18-.07-.38-.11-.58-.11Z"/><path class="cls-2" d="M267.38,677.16c-.2,0-.39,.04-.58,.11-.2,.08-.38,.2-.53,.35s-.27,.33-.35,.53c-.07,.18-.11,.38-.11,.58s.04,.39,.11,.58c.08,.2,.2,.38,.35,.53,.15,.15,.33,.27,.53,.35,.18,.07,.38,.11,.58,.11s.39-.04,.58-.11c.2-.08,.38-.2,.53-.35s.27-.33,.35-.53c.07-.18,.11-.38,.11-.58s-.04-.39-.11-.58c-.08-.2-.2-.38-.35-.53-.15-.15-.33-.27-.53-.35-.18-.07-.38-.11-.58-.11Z"/><path class="cls-2" d="M250.22,902.28c-.2,0-.39,.04-.58,.11-.2,.08-.38,.2-.53,.35-.15,.15-.27,.33-.35,.53-.07,.18-.11,.38-.11,.58s.04,.39,.11,.58c.08,.2,.2,.38,.35,.53,.15,.15,.33,.27,.53,.35,.18,.07,.38,.11,.58,.11s.39-.04,.58-.11c.2-.08,.38-.2,.53-.35,.15-.15,.27-.33,.35-.53,.07-.18,.11-.38,.11-.58s-.04-.39-.11-.58c-.08-.2-.2-.38-.35-.53-.15-.15-.33-.27-.53-.35-.18-.07-.38-.11-.58-.11Z"/><path class="cls-2" d="M250.22,856.88c-.2,0-.39,.04-.58,.11-.2,.08-.38,.2-.53,.35s-.27,.33-.35,.53c-.07,.18-.11,.38-.11,.58s.04,.39,.11,.58c.08,.2,.2,.38,.35,.53,.15,.15,.33,.27,.53,.35,.18,.07,.38,.11,.58,.11s.39-.04,.58-.11c.2-.08,.38-.2,.53-.35s.27-.33,.35-.53c.07-.18,.11-.38,.11-.58s-.04-.39-.11-.58c-.08-.2-.2-.38-.35-.53-.15-.15-.33-.27-.53-.35-.18-.07-.38-.11-.58-.11Z"/><path class="cls-2" d="M250.22,811.48c-.2,0-.39,.04-.58,.11-.2,.08-.38,.2-.53,.35-.15,.15-.27,.33-.35,.53-.07,.18-.11,.38-.11,.58s.04,.39,.11,.58c.08,.2,.2,.38,.35,.53s.33,.27,.53,.35c.18,.07,.38,.11,.58,.11s.39-.04,.58-.11c.2-.08,.38-.2,.53-.35,.15-.15,.27-.33,.35-.53,.07-.18,.11-.38,.11-.58s-.04-.39-.11-.58c-.08-.2-.2-.38-.35-.53s-.33-.27-.53-.35c-.18-.07-.38-.11-.58-.11Z"/><path class="cls-2" d="M250.22,766.08c-.2,0-.39,.04-.58,.11-.2,.08-.38,.2-.53,.35s-.27,.33-.35,.53c-.07,.18-.11,.38-.11,.58s.04,.39,.11,.58c.08,.2,.2,.38,.35,.53,.15,.15,.33,.27,.53,.35,.18,.07,.38,.11,.58,.11s.39-.04,.58-.11c.2-.08,.38-.2,.53-.35s.27-.33,.35-.53c.07-.18,.11-.38,.11-.58s-.04-.39-.11-.58c-.08-.2-.2-.38-.35-.53-.15-.15-.33-.27-.53-.35-.18-.07-.38-.11-.58-.11Z"/><path class="cls-2" d="M253.84,720.68c-.2,0-.39,.04-.58,.11-.2,.08-.38,.2-.53,.35s-.27,.33-.35,.53c-.07,.18-.11,.38-.11,.58s.04,.39,.11,.58c.08,.2,.2,.38,.35,.53,.15,.15,.33,.27,.53,.35,.18,.07,.38,.11,.58,.11s.39-.04,.58-.11c.2-.08,.38-.2,.53-.35s.27-.33,.35-.53c.07-.18,.11-.38,.11-.58s-.04-.39-.11-.58c-.08-.2-.2-.38-.35-.53-.15-.15-.33-.27-.53-.35-.18-.07-.38-.11-.58-.11Z"/><path class="cls-2" d="M549.78,95.25c-.2,0-.39,.04-.58,.11-.2,.08-.38,.2-.53,.35-.15,.15-.27,.33-.35,.53-.07,.18-.11,.38-.11,.58s.04,.39,.11,.58c.08,.2,.2,.38,.35,.53,.15,.15,.33,.27,.53,.35,.18,.07,.38,.11,.58,.11s.39-.04,.58-.11c.2-.08,.38-.2,.53-.35,.15-.15,.27-.33,.35-.53,.07-.18,.11-.38,.11-.58s-.04-.39-.11-.58c-.08-.2-.2-.38-.35-.53-.15-.15-.33-.27-.53-.35-.18-.07-.38-.11-.58-.11Z"/><path class="cls-2" d="M549.78,141.46c-.2,0-.39,.04-.58,.11-.2,.08-.38,.2-.53,.35s-.27,.33-.35,.53c-.07,.18-.11,.38-.11,.58s.04,.39,.11,.58c.08,.2,.2,.38,.35,.53s.33,.27,.53,.35c.18,.07,.38,.11,.58,.11s.39-.04,.58-.11c.2-.08,.38-.2,.53-.35s.27-.33,.35-.53c.07-.18,.11-.38,.11-.58s-.04-.39-.11-.58c-.08-.2-.2-.38-.35-.53s-.33-.27-.53-.35c-.18-.07-.38-.11-.58-.11Z"/><path class="cls-2" d="M549.78,187.67c-.2,0-.39,.04-.58,.11-.2,.08-.38,.2-.53,.35-.15,.15-.27,.33-.35,.53-.07,.18-.11,.38-.11,.58s.04,.39,.11,.58c.08,.2,.2,.38,.35,.53,.15,.15,.33,.27,.53,.35,.18,.07,.38,.11,.58,.11s.39-.04,.58-.11c.2-.08,.38-.2,.53-.35,.15-.15,.27-.33,.35-.53,.07-.18,.11-.38,.11-.58s-.04-.39-.11-.58c-.08-.2-.2-.38-.35-.53-.15-.15-.33-.27-.53-.35-.18-.07-.38-.11-.58-.11Z"/><path class="cls-2" d="M549.78,233.88c-.2,0-.39,.04-.58,.11-.2,.08-.38,.2-.53,.35-.15,.15-.27,.33-.35,.53-.07,.18-.11,.38-.11,.58s.04,.39,.11,.58c.08,.2,.2,.38,.35,.53,.15,.15,.33,.27,.53,.35,.18,.07,.38,.11,.58,.11s.39-.04,.58-.11c.2-.08,.38-.2,.53-.35,.15-.15,.27-.33,.35-.53,.07-.18,.11-.38,.11-.58s-.04-.39-.11-.58c-.08-.2-.2-.38-.35-.53-.15-.15-.33-.27-.53-.35-.18-.07-.38-.11-.58-.11Z"/><path class="cls-2" d="M549.78,280.1c-.2,0-.39,.04-.58,.11-.2,.08-.38,.2-.53,.35s-.27,.33-.35,.53c-.07,.18-.11,.38-.11,.58s.04,.39,.11,.58c.08,.2,.2,.38,.35,.53s.33,.27,.53,.35c.18,.07,.38,.11,.58,.11s.39-.04,.58-.11c.2-.08,.38-.2,.53-.35s.27-.33,.35-.53c.07-.18,.11-.38,.11-.58s-.04-.39-.11-.58c-.08-.2-.2-.38-.35-.53s-.33-.27-.53-.35c-.18-.07-.38-.11-.58-.11Z"/><path class="cls-2" d="M549.78,326.31c-.2,0-.39,.04-.58,.11-.2,.08-.38,.2-.53,.35s-.27,.33-.35,.53c-.07,.18-.11,.38-.11,.58s.04,.39,.11,.58c.08,.2,.2,.38,.35,.53s.33,.27,.53,.35c.18,.07,.38,.11,.58,.11s.39-.04,.58-.11c.2-.08,.38-.2,.53-.35s.27-.33,.35-.53c.07-.18,.11-.38,.11-.58s-.04-.39-.11-.58c-.08-.2-.2-.38-.35-.53s-.33-.27-.53-.35c-.18-.07-.38-.11-.58-.11Z"/><path class="cls-2" d="M549.78,372.52c-.2,0-.39,.04-.58,.11-.2,.08-.38,.2-.53,.35-.15,.15-.27,.33-.35,.53-.07,.18-.11,.38-.11,.58s.04,.39,.11,.58c.08,.2,.2,.38,.35,.53,.15,.15,.33,.27,.53,.35,.18,.07,.38,.11,.58,.11s.39-.04,.58-.11c.2-.08,.38-.2,.53-.35,.15-.15,.27-.33,.35-.53,.07-.18,.11-.38,.11-.58s-.04-.39-.11-.58c-.08-.2-.2-.38-.35-.53-.15-.15-.33-.27-.53-.35-.18-.07-.38-.11-.58-.11Z"/><path class="cls-2" d="M549.78,416.04c-.2,0-.39,.04-.58,.11-.2,.08-.38,.2-.53,.35-.15,.15-.27,.33-.35,.53-.07,.18-.11,.38-.11,.58s.04,.39,.11,.58c.08,.2,.2,.38,.35,.53,.15,.15,.33,.27,.53,.35,.18,.07,.38,.11,.58,.11s.39-.04,.58-.11c.2-.08,.38-.2,.53-.35,.15-.15,.27-.33,.35-.53,.07-.18,.11-.38,.11-.58s-.04-.39-.11-.58c-.08-.2-.2-.38-.35-.53-.15-.15-.33-.27-.53-.35-.18-.07-.38-.11-.58-.11Z"/><path class="cls-2" d="M549.78,459.56c-.2,0-.39,.04-.58,.11-.2,.08-.38,.2-.53,.35s-.27,.33-.35,.53c-.07,.18-.11,.38-.11,.58s.04,.39,.11,.58c.08,.2,.2,.38,.35,.53s.33,.27,.53,.35c.18,.07,.38,.11,.58,.11s.39-.04,.58-.11c.2-.08,.38-.2,.53-.35s.27-.33,.35-.53c.07-.18,.11-.38,.11-.58s-.04-.39-.11-.58c-.08-.2-.2-.38-.35-.53s-.33-.27-.53-.35c-.18-.07-.38-.11-.58-.11Z"/><path class="cls-2" d="M549.78,503.08c-.2,0-.39,.04-.58,.11-.2,.08-.38,.2-.53,.35-.15,.15-.27,.33-.35,.53-.07,.18-.11,.38-.11,.58s.04,.39,.11,.58c.08,.2,.2,.38,.35,.53s.33,.27,.53,.35c.18,.07,.38,.11,.58,.11s.39-.04,.58-.11c.2-.08,.38-.2,.53-.35,.15-.15,.27-.33,.35-.53,.07-.18,.11-.38,.11-.58s-.04-.39-.11-.58c-.08-.2-.2-.38-.35-.53s-.33-.27-.53-.35c-.18-.07-.38-.11-.58-.11Z"/><path class="cls-2" d="M549.78,546.6c-.2,0-.39,.04-.58,.11-.2,.08-.38,.2-.53,.35-.15,.15-.27,.33-.35,.53-.07,.18-.11,.38-.11,.58s.04,.39,.11,.58c.08,.2,.2,.38,.35,.53,.15,.15,.33,.27,.53,.35,.18,.07,.38,.11,.58,.11s.39-.04,.58-.11c.2-.08,.38-.2,.53-.35,.15-.15,.27-.33,.35-.53,.07-.18,.11-.38,.11-.58s-.04-.39-.11-.58c-.08-.2-.2-.38-.35-.53-.15-.15-.33-.27-.53-.35-.18-.07-.38-.11-.58-.11Z"/><path class="cls-2" d="M549.78,590.12c-.2,0-.39,.04-.58,.11-.2,.08-.38,.2-.53,.35-.15,.15-.27,.33-.35,.53-.07,.18-.11,.38-.11,.58s.04,.39,.11,.58c.08,.2,.2,.38,.35,.53,.15,.15,.33,.27,.53,.35,.18,.07,.38,.11,.58,.11s.39-.04,.58-.11c.2-.08,.38-.2,.53-.35,.15-.15,.27-.33,.35-.53,.07-.18,.11-.38,.11-.58s-.04-.39-.11-.58c-.08-.2-.2-.38-.35-.53-.15-.15-.33-.27-.53-.35-.18-.07-.38-.11-.58-.11Z"/><path class="cls-2" d="M549.78,633.64c-.2,0-.39,.04-.58,.11-.2,.08-.38,.2-.53,.35s-.27,.33-.35,.53c-.07,.18-.11,.38-.11,.58s.04,.39,.11,.58c.08,.2,.2,.38,.35,.53s.33,.27,.53,.35c.18,.07,.38,.11,.58,.11s.39-.04,.58-.11c.2-.08,.38-.2,.53-.35s.27-.33,.35-.53c.07-.18,.11-.38,.11-.58s-.04-.39-.11-.58c-.08-.2-.2-.38-.35-.53s-.33-.27-.53-.35c-.18-.07-.38-.11-.58-.11Z"/><path class="cls-2" d="M549.78,677.16c-.2,0-.39,.04-.58,.11-.2,.08-.38,.2-.53,.35-.15,.15-.27,.33-.35,.53-.07,.18-.11,.38-.11,.58s.04,.39,.11,.58c.08,.2,.2,.38,.35,.53s.33,.27,.53,.35c.18,.07,.38,.11,.58,.11s.39-.04,.58-.11c.2-.08,.38-.2,.53-.35,.15-.15,.27-.33,.35-.53,.07-.18,.11-.38,.11-.58s-.04-.39-.11-.58c-.08-.2-.2-.38-.35-.53s-.33-.27-.53-.35c-.18-.07-.38-.11-.58-.11Z"/><path class="cls-2" d="M549.78,902.28c-.2,0-.39,.04-.58,.11-.2,.08-.38,.2-.53,.35s-.27,.33-.35,.53c-.07,.18-.11,.38-.11,.58s.04,.39,.11,.58c.08,.2,.2,.38,.35,.53s.33,.27,.53,.35c.18,.07,.38,.11,.58,.11s.39-.04,.58-.11c.2-.08,.38-.2,.53-.35s.27-.33,.35-.53c.07-.18,.11-.38,.11-.58s-.04-.39-.11-.58c-.08-.2-.2-.38-.35-.53s-.33-.27-.53-.35c-.18-.07-.38-.11-.58-.11Z"/><path class="cls-2" d="M549.78,856.88c-.2,0-.39,.04-.58,.11-.2,.08-.38,.2-.53,.35-.15,.15-.27,.33-.35,.53-.07,.18-.11,.38-.11,.58s.04,.39,.11,.58c.08,.2,.2,.38,.35,.53,.15,.15,.33,.27,.53,.35,.18,.07,.38,.11,.58,.11s.39-.04,.58-.11c.2-.08,.38-.2,.53-.35,.15-.15,.27-.33,.35-.53,.07-.18,.11-.38,.11-.58s-.04-.39-.11-.58c-.08-.2-.2-.38-.35-.53-.15-.15-.33-.27-.53-.35-.18-.07-.38-.11-.58-.11Z"/><path class="cls-2" d="M549.78,811.48c-.2,0-.39,.04-.58,.11-.2,.08-.38,.2-.53,.35-.15,.15-.27,.33-.35,.53-.07,.18-.11,.38-.11,.58s.04,.39,.11,.58c.08,.2,.2,.38,.35,.53,.15,.15,.33,.27,.53,.35,.18,.07,.38,.11,.58,.11s.39-.04,.58-.11c.2-.08,.38-.2,.53-.35,.15-.15,.27-.33,.35-.53,.07-.18,.11-.38,.11-.58s-.04-.39-.11-.58c-.08-.2-.2-.38-.35-.53-.15-.15-.33-.27-.53-.35-.18-.07-.38-.11-.58-.11Z"/><path class="cls-2" d="M549.78,766.08c-.2,0-.39,.04-.58,.11-.2,.08-.38,.2-.53,.35-.15,.15-.27,.33-.35,.53-.07,.18-.11,.38-.11,.58s.04,.39,.11,.58c.08,.2,.2,.38,.35,.53s.33,.27,.53,.35c.18,.07,.38,.11,.58,.11s.39-.04,.58-.11c.2-.08,.38-.2,.53-.35,.15-.15,.27-.33,.35-.53,.07-.18,.11-.38,.11-.58s-.04-.39-.11-.58c-.08-.2-.2-.38-.35-.53s-.33-.27-.53-.35c-.18-.07-.38-.11-.58-.11Z"/><path class="cls-2" d="M549.78,720.68c-.2,0-.39,.04-.58,.11-.2,.08-.38,.2-.53,.35-.15,.15-.27,.33-.35,.53-.07,.18-.11,.38-.11,.58s.04,.39,.11,.58c.08,.2,.2,.38,.35,.53,.15,.15,.33,.27,.53,.35,.18,.07,.38,.11,.58,.11s.39-.04,.58-.11c.2-.08,.38-.2,.53-.35,.15-.15,.27-.33,.35-.53,.07-.18,.11-.38,.11-.58s-.04-.39-.11-.58c-.08-.2-.2-.38-.35-.53-.15-.15-.33-.27-.53-.35-.18-.07-.38-.11-.58-.11Z"/><path class="cls-2" d="M468.55,938.91c-.18,0-.36,.03-.53,.1-.18,.07-.35,.18-.49,.32-.14,.14-.25,.31-.32,.49-.07,.17-.1,.35-.1,.53s.03,.36,.1,.53c.07,.18,.18,.35,.32,.49s.31,.25,.49,.32c.17,.07,.35,.1,.53,.1s.36-.03,.53-.1c.18-.07,.35-.18,.49-.32,.14-.14,.25-.31,.32-.49,.07-.17,.1-.35,.1-.53s-.03-.36-.1-.53c-.07-.18-.18-.35-.32-.49s-.31-.25-.49-.32c-.17-.07-.35-.1-.53-.1Z"/><path class="cls-2" d="M259.23,86.13c-.2,0-.39,.04-.58,.11-.2,.08-.38,.2-.53,.35-.15,.15-.27,.33-.35,.53-.07,.18-.11,.38-.11,.58s.04,.39,.11,.58c.08,.2,.2,.38,.35,.53,.15,.15,.33,.27,.53,.35,.18,.07,.38,.11,.58,.11s.39-.04,.58-.11c.2-.08,.38-.2,.53-.35,.15-.15,.27-.33,.35-.53,.07-.18,.11-.38,.11-.58s-.04-.39-.11-.58c-.08-.2-.2-.38-.35-.53-.15-.15-.33-.27-.53-.35-.18-.07-.38-.11-.58-.11Z"/><path class="cls-2" d="M298.68,86.13c-.2,0-.39,.04-.58,.11-.2,.08-.38,.2-.53,.35s-.27,.33-.35,.53c-.07,.18-.11,.38-.11,.58s.04,.39,.11,.58c.08,.2,.2,.38,.35,.53s.33,.27,.53,.35c.18,.07,.38,.11,.58,.11s.39-.04,.58-.11c.2-.08,.38-.2,.53-.35s.27-.33,.35-.53c.07-.18,.11-.38,.11-.58s-.04-.39-.11-.58c-.08-.2-.2-.38-.35-.53s-.33-.27-.53-.35c-.18-.07-.38-.11-.58-.11Z"/><path class="cls-2" d="M339.19,86.13c-.2,0-.39,.04-.58,.11-.2,.08-.38,.2-.53,.35-.15,.15-.27,.33-.35,.53-.07,.18-.11,.38-.11,.58s.04,.39,.11,.58c.08,.2,.2,.38,.35,.53,.15,.15,.33,.27,.53,.35,.18,.07,.38,.11,.58,.11s.39-.04,.58-.11c.2-.08,.38-.2,.53-.35,.15-.15,.27-.33,.35-.53,.07-.18,.11-.38,.11-.58s-.04-.39-.11-.58c-.08-.2-.2-.38-.35-.53-.15-.15-.33-.27-.53-.35-.18-.07-.38-.11-.58-.11Z"/><path class="cls-2" d="M379.71,86.13c-.2,0-.39,.04-.58,.11-.2,.08-.38,.2-.53,.35-.15,.15-.27,.33-.35,.53-.07,.18-.11,.38-.11,.58s.04,.39,.11,.58c.08,.2,.2,.38,.35,.53,.15,.15,.33,.27,.53,.35,.18,.07,.38,.11,.58,.11s.39-.04,.58-.11c.2-.08,.38-.2,.53-.35,.15-.15,.27-.33,.35-.53,.07-.18,.11-.38,.11-.58s-.04-.39-.11-.58c-.08-.2-.2-.38-.35-.53-.15-.15-.33-.27-.53-.35-.18-.07-.38-.11-.58-.11Z"/><path class="cls-2" d="M420.22,86.13c-.2,0-.39,.04-.58,.11-.2,.08-.38,.2-.53,.35-.15,.15-.27,.33-.35,.53-.07,.18-.11,.38-.11,.58s.04,.39,.11,.58c.08,.2,.2,.38,.35,.53,.15,.15,.33,.27,.53,.35,.18,.07,.38,.11,.58,.11s.39-.04,.58-.11c.2-.08,.38-.2,.53-.35,.15-.15,.27-.33,.35-.53,.07-.18,.11-.38,.11-.58s-.04-.39-.11-.58c-.08-.2-.2-.38-.35-.53-.15-.15-.33-.27-.53-.35-.18-.07-.38-.11-.58-.11Z"/><path class="cls-2" d="M460.73,86.13c-.2,0-.39,.04-.58,.11-.2,.08-.38,.2-.53,.35-.15,.15-.27,.33-.35,.53-.07,.18-.11,.38-.11,.58s.04,.39,.11,.58c.08,.2,.2,.38,.35,.53,.15,.15,.33,.27,.53,.35,.18,.07,.38,.11,.58,.11s.39-.04,.58-.11c.2-.08,.38-.2,.53-.35,.15-.15,.27-.33,.35-.53,.07-.18,.11-.38,.11-.58s-.04-.39-.11-.58c-.08-.2-.2-.38-.35-.53-.15-.15-.33-.27-.53-.35-.18-.07-.38-.11-.58-.11Z"/><path class="cls-2" d="M501.25,86.13c-.2,0-.39,.04-.58,.11-.2,.08-.38,.2-.53,.35s-.27,.33-.35,.53c-.07,.18-.11,.38-.11,.58s.04,.39,.11,.58c.08,.2,.2,.38,.35,.53s.33,.27,.53,.35c.18,.07,.38,.11,.58,.11s.39-.04,.58-.11c.2-.08,.38-.2,.53-.35s.27-.33,.35-.53c.07-.18,.11-.38,.11-.58s-.04-.39-.11-.58c-.08-.2-.2-.38-.35-.53s-.33-.27-.53-.35c-.18-.07-.38-.11-.58-.11Z"/><path class="cls-2" d="M540.7,86.13c-.2,0-.39,.04-.58,.11-.2,.08-.38,.2-.53,.35-.15,.15-.27,.33-.35,.53-.07,.18-.11,.38-.11,.58s.04,.39,.11,.58c.08,.2,.2,.38,.35,.53,.15,.15,.33,.27,.53,.35,.18,.07,.38,.11,.58,.11s.39-.04,.58-.11c.2-.08,.38-.2,.53-.35,.15-.15,.27-.33,.35-.53,.07-.18,.11-.38,.11-.58s-.04-.39-.11-.58c-.08-.2-.2-.38-.35-.53-.15-.15-.33-.27-.53-.35-.18-.07-.38-.11-.58-.11Z"/><path class="cls-2" d="M334.74,938.91c-.18,0-.36,.03-.53,.1-.18,.07-.35,.18-.49,.32-.14,.14-.25,.31-.32,.49-.07,.17-.1,.35-.1,.53s.03,.36,.1,.53c.07,.18,.18,.35,.32,.49,.14,.14,.31,.25,.49,.32,.17,.07,.35,.1,.53,.1s.36-.03,.53-.1c.18-.07,.35-.18,.49-.32s.25-.31,.32-.49c.07-.17,.1-.35,.1-.53s-.03-.36-.1-.53c-.07-.18-.18-.35-.32-.49s-.31-.25-.49-.32c-.17-.07-.35-.1-.53-.1Z"/><path class="cls-2" d="M423.94,938.91c-.18,0-.36,.03-.53,.1-.18,.07-.35,.18-.49,.32-.14,.14-.25,.31-.32,.49-.07,.17-.1,.35-.1,.53s.03,.36,.1,.53c.07,.18,.18,.35,.32,.49,.14,.14,.31,.25,.49,.32,.17,.07,.35,.1,.53,.1s.36-.03,.53-.1c.18-.07,.35-.18,.49-.32,.14-.14,.25-.31,.32-.49,.07-.17,.1-.35,.1-.53s-.03-.36-.1-.53c-.07-.18-.18-.35-.32-.49s-.31-.25-.49-.32c-.17-.07-.35-.1-.53-.1Z"/><path class="cls-2" d="M513.15,938.91c-.2,0-.39,.04-.58,.11-.2,.08-.38,.2-.53,.35s-.27,.33-.35,.53c-.07,.18-.11,.38-.11,.58s.04,.39,.11,.58c.08,.2,.2,.38,.35,.53s.33,.27,.53,.35c.18,.07,.38,.11,.58,.11s.39-.04,.58-.11c.2-.08,.38-.2,.53-.35s.27-.33,.35-.53c.07-.18,.11-.38,.11-.58s-.04-.39-.11-.58c-.08-.2-.2-.38-.35-.53s-.33-.27-.53-.35c-.18-.07-.38-.11-.58-.11Z"/><path class="cls-2" d="M290.13,938.91c-.18,0-.36,.03-.53,.1-.18,.07-.35,.18-.49,.32-.14,.14-.25,.31-.32,.49-.07,.17-.1,.35-.1,.53s.03,.36,.1,.53c.07,.18,.18,.35,.32,.49,.14,.14,.31,.25,.49,.32,.17,.07,.35,.1,.53,.1s.36-.03,.53-.1c.18-.07,.35-.18,.49-.32s.25-.31,.32-.49c.07-.17,.1-.35,.1-.53s-.03-.36-.1-.53c-.07-.18-.18-.35-.32-.49-.14-.14-.31-.25-.49-.32-.17-.07-.35-.1-.53-.1Z"/><path class="cls-2" d="M379.34,938.91c-.18,0-.36,.03-.53,.1-.18,.07-.35,.18-.49,.32-.14,.14-.25,.31-.32,.49-.07,.17-.1,.35-.1,.53s.03,.36,.1,.53c.07,.18,.18,.35,.32,.49,.14,.14,.31,.25,.49,.32,.17,.07,.35,.1,.53,.1s.36-.03,.53-.1c.18-.07,.35-.18,.49-.32,.14-.14,.25-.31,.32-.49,.07-.17,.1-.35,.1-.53s-.03-.36-.1-.53c-.07-.18-.18-.35-.32-.49s-.31-.25-.49-.32c-.17-.07-.35-.1-.53-.1Z"/><path class="cls-2" d="M250.15,95.25c-.2,0-.39,.04-.58,.11-.2,.08-.38,.2-.53,.35-.15,.15-.27,.33-.35,.53-.07,.18-.11,.38-.11,.58s.04,.39,.11,.58c.08,.2,.2,.38,.35,.53,.15,.15,.33,.27,.53,.35,.18,.07,.38,.11,.58,.11s.39-.04,.58-.11c.2-.08,.38-.2,.53-.35,.15-.15,.27-.33,.35-.53,.07-.18,.11-.38,.11-.58s-.04-.39-.11-.58c-.08-.2-.2-.38-.35-.53-.15-.15-.33-.27-.53-.35-.18-.07-.38-.11-.58-.11Z"/><path class="cls-2" d="M250.15,141.46c-.2,0-.39,.04-.58,.11-.2,.08-.38,.2-.53,.35s-.27,.33-.35,.53c-.07,.18-.11,.38-.11,.58s.04,.39,.11,.58c.08,.2,.2,.38,.35,.53s.33,.27,.53,.35c.18,.07,.38,.11,.58,.11s.39-.04,.58-.11c.2-.08,.38-.2,.53-.35s.27-.33,.35-.53c.07-.18,.11-.38,.11-.58s-.04-.39-.11-.58c-.08-.2-.2-.38-.35-.53s-.33-.27-.53-.35c-.18-.07-.38-.11-.58-.11Z"/><path class="cls-2" d="M250.15,233.88c-.2,0-.39,.04-.58,.11-.2,.08-.38,.2-.53,.35-.15,.15-.27,.33-.35,.53-.07,.18-.11,.38-.11,.58s.04,.39,.11,.58c.08,.2,.2,.38,.35,.53,.15,.15,.33,.27,.53,.35,.18,.07,.38,.11,.58,.11s.39-.04,.58-.11c.2-.08,.38-.2,.53-.35,.15-.15,.27-.33,.35-.53,.07-.18,.11-.38,.11-.58s-.04-.39-.11-.58c-.08-.2-.2-.38-.35-.53-.15-.15-.33-.27-.53-.35-.18-.07-.38-.11-.58-.11Z"/></g></g><g id="TEXT"><g><path d="M31.16,1024.55h-4.68v-.9h1.89v-6.91l-1.78,.89v-1.04l1.92-.99h.89v8.05h1.76v.9Z"/><path d="M59.47,1019.24c.29-.08,.57-.11,.84-.11,.84,0,1.51,.26,1.99,.77,.49,.52,.73,1.16,.73,1.93s-.28,1.49-.85,2.05c-.57,.56-1.26,.84-2.08,.84s-1.43-.13-1.96-.39l.21-.88c.57,.24,1.16,.36,1.77,.36,.54,0,.98-.17,1.32-.52,.33-.35,.5-.84,.5-1.46,0-.59-.16-1.05-.47-1.37s-.72-.48-1.22-.48c-.36,0-.72,.07-1.07,.21l-.62-.28v-4.25h4.07v.9h-3.17v2.69Z"/><path d="M70.67,1024.55h-4.89v-.75c1.24-1.38,2.05-2.31,2.42-2.78s.67-.96,.9-1.48c.23-.52,.35-1.03,.35-1.55s-.15-.89-.45-1.17c-.3-.29-.72-.43-1.26-.43-.42,0-.98,.13-1.68,.38l-.14-.89c.63-.27,1.3-.4,1.99-.4,.79,0,1.44,.22,1.92,.67,.48,.45,.73,1.05,.73,1.79,0,.53-.13,1.06-.38,1.59s-.57,1.03-.96,1.51-1.15,1.35-2.28,2.6h3.75v.9Z"/><path d="M81.6,1015.65h2.26c.85,0,1.54,.21,2.05,.64,.51,.43,.77,1.02,.77,1.77s-.26,1.36-.77,1.81c-.51,.45-1.18,.68-2.01,.68h-1.27v3.99h-1.04v-8.9Zm1.04,4.01h1.12c1.21,0,1.82-.51,1.82-1.53,0-.47-.16-.85-.49-1.14s-.76-.43-1.28-.43h-1.17v3.1Z"/><path d="M91.61,1017.82c.9,0,1.62,.32,2.16,.95,.54,.63,.8,1.46,.8,2.49s-.27,1.88-.8,2.51c-.53,.63-1.25,.95-2.16,.95s-1.63-.32-2.16-.95-.8-1.47-.8-2.51,.27-1.87,.8-2.49c.54-.63,1.25-.94,2.16-.94Zm0,6.04c.6,0,1.07-.25,1.41-.76,.35-.5,.52-1.12,.52-1.84,0-.76-.17-1.38-.51-1.87-.34-.49-.81-.73-1.42-.73s-1.08,.24-1.42,.72c-.34,.48-.5,1.11-.5,1.88s.17,1.35,.51,1.85c.34,.5,.81,.75,1.41,.75Z"/><path d="M101.23,1018.92c-.55-.18-1.07-.27-1.56-.27-.53,0-.96,.09-1.27,.27-.31,.18-.47,.42-.47,.72,0,.19,.07,.35,.21,.5,.14,.14,.43,.27,.86,.39l.94,.27c.43,.12,.79,.27,1.06,.44,.27,.17,.48,.38,.61,.62,.14,.24,.21,.52,.21,.84,0,.63-.26,1.12-.79,1.49-.53,.36-1.2,.54-2.01,.54s-1.47-.12-2-.37l.19-.85c.55,.26,1.14,.39,1.77,.39,.55,0,.99-.1,1.33-.31s.51-.47,.51-.81c0-.23-.09-.43-.26-.61s-.57-.37-1.2-.56c-.51-.16-.88-.27-1.12-.35-.24-.08-.46-.19-.67-.34s-.36-.33-.47-.54-.16-.45-.16-.71c0-.57,.25-1.02,.74-1.35,.5-.33,1.16-.5,1.97-.5,.53,0,1.12,.09,1.77,.27l-.22,.83Z"/><path d="M109.73,1024.25c-.66,.3-1.31,.45-1.95,.45-1.17,0-1.76-.62-1.76-1.86v-4.02h-1.26v-.85h1.26v-1.8h.96v1.8h2.23v.85h-2.23v3.76c0,.4,.09,.71,.27,.93,.18,.22,.42,.33,.72,.33,.54,0,1.07-.12,1.6-.36l.17,.76Z"/><path d="M116.73,1018.92c-.55-.18-1.07-.27-1.56-.27-.53,0-.96,.09-1.27,.27-.31,.18-.47,.42-.47,.72,0,.19,.07,.35,.21,.5s.43,.27,.86,.39l.94,.27c.43,.12,.79,.27,1.06,.44,.27,.17,.48,.38,.62,.62,.14,.24,.21,.52,.21,.84,0,.63-.26,1.12-.79,1.49-.53,.36-1.19,.54-2.01,.54s-1.47-.12-2-.37l.19-.85c.55,.26,1.14,.39,1.77,.39,.55,0,.99-.1,1.33-.31s.51-.47,.51-.81c0-.23-.08-.43-.25-.61s-.57-.37-1.2-.56c-.51-.16-.88-.27-1.12-.35-.24-.08-.46-.19-.67-.34s-.36-.33-.47-.54c-.11-.21-.16-.45-.16-.71,0-.57,.25-1.02,.74-1.35s1.15-.5,1.97-.5c.53,0,1.12,.09,1.77,.27l-.22,.83Z"/></g><circle class="cls-1" cx="765.53" cy="1024.02" r="11.44"/><line class="cls-1" x1="765.53" y1="1024.02" x2="765.53" y2="1035.46"/><path d="M395.57,515.47h-4.68v-.9h1.89v-6.91l-1.78,.89v-1.04l1.92-.99h.89v8.05h1.76v.9Z"/></g><g id="Isolation_Mode"><line class="cls-4" x1="548.24" y1="327.88" x2="546.36" y2="327.88"/><line class="cls-4" x1="548.24" y1="281.7" x2="546.36" y2="281.7"/><line class="cls-4" x1="548.24" y1="235.59" x2="546.36" y2="235.59"/><line class="cls-4" x1="548.24" y1="189.22" x2="546.36" y2="189.22"/><line class="cls-4" x1="548.24" y1="143.05" x2="546.36" y2="143.05"/><line class="cls-4" x1="548.24" y1="96.78" x2="546.36" y2="96.78"/><line class="cls-4" x1="540.68" y1="91.11" x2="540.68" y2="89.23"/><line class="cls-4" x1="501.26" y1="91.11" x2="501.26" y2="89.23"/><line class="cls-4" x1="460.72" y1="91.11" x2="460.72" y2="89.23"/><line class="cls-4" x1="420.17" y1="91.11" x2="420.17" y2="89.23"/><line class="cls-4" x1="379.63" y1="91.11" x2="379.63" y2="89.23"/><line class="cls-4" x1="339.15" y1="91.11" x2="339.15" y2="89.23"/><line class="cls-4" x1="298.68" y1="91.11" x2="298.68" y2="89.23"/><line class="cls-4" x1="259.19" y1="91.11" x2="259.19" y2="89.23"/><line class="cls-4" x1="253.61" y1="327.88" x2="251.73" y2="327.88"/><line class="cls-4" x1="253.61" y1="281.7" x2="251.73" y2="281.7"/><line class="cls-4" x1="253.61" y1="235.59" x2="251.73" y2="235.59"/><line class="cls-4" x1="253.61" y1="189.22" x2="251.73" y2="189.22"/><line class="cls-4" x1="253.61" y1="143.05" x2="251.73" y2="143.05"/><line class="cls-4" x1="253.61" y1="96.78" x2="251.73" y2="96.78"/></g></svg>