<?xml version="1.0" encoding="UTF-8"?><svg xmlns="http://www.w3.org/2000/svg" viewBox="0 0 800 1120"><defs><style>.cls-1{stroke-width:.75px;}.cls-1,.cls-2,.cls-3,.cls-4{fill:none;stroke:#231f20;stroke-linecap:round;stroke-linejoin:round;}.cls-2{stroke-width:1.2px;}.cls-3{stroke-width:.24px;}.cls-4{stroke-width:.36px;}</style></defs><g id="Wall"><line class="cls-2" x1="412.96" y1="331.47" x2="409.2" y2="331.47"/><path class="cls-2" d="M304.97,504.17c1.74,.47,3.52,.82,5.31,1.03"/><polyline class="cls-2" points="376.14 145.65 388.85 145.65 388.85 149.41 376.14 149.41 376.14 205.45 390.73 205.45 409.2 205.45"/><line class="cls-2" x1="259.54" y1="91.18" x2="253.59" y2="91.18"/><line class="cls-2" x1="546.33" y1="91.18" x2="540.39" y2="91.18"/><line class="cls-2" x1="359.15" y1="664.27" x2="407.94" y2="680.33"/><line class="cls-2" x1="381.72" y1="856.14" x2="376.49" y2="872.05"/><line class="cls-2" x1="407.94" y1="680.33" x2="410.59" y2="672.3"/><line class="cls-2" x1="410.59" y1="672.3" x2="367.76" y2="658.21"/><line class="cls-2" x1="329.8" y1="883.7" x2="258.58" y2="860.25"/><line class="cls-2" x1="253.67" y1="864.59" x2="328.04" y2="889.05"/><line class="cls-2" x1="307.71" y1="760.08" x2="312.4" y2="745.81"/><rect class="cls-2" x="416.81" y="858.31" width="5.63" height="115.84" transform="translate(-581.87 1028.36) rotate(-71.78)"/><rect class="cls-2" x="298.68" y="91.18" width="82.59" height="5.95"/><line class="cls-2" x1="418.65" y1="97.12" x2="418.65" y2="91.18"/><path class="cls-2" d="M359.15,664.27c31.63-93.97,48.82-192.19,50.99-291.31"/><line class="cls-2" x1="376.49" y1="872.05" x2="373.22" y2="870.97"/><path class="cls-2" d="M367.76,658.21c29.35-89.31,45.68-182.39,48.49-276.35"/><line class="cls-2" x1="375.7" y1="379.22" x2="375.7" y2="372.96"/><line class="cls-2" x1="310.2" y1="764.52" x2="315.97" y2="746.98"/><line class="cls-2" x1="315.97" y1="746.98" x2="376.71" y2="766.72"/><line class="cls-2" x1="293.55" y1="735.98" x2="381.13" y2="764.8"/><line class="cls-2" x1="412.96" y1="331.47" x2="412.96" y2="138.92"/><line class="cls-2" x1="409.2" y1="138.92" x2="412.96" y2="138.92"/><polyline class="cls-2" points="258.58 860.25 292.05 758.55 310.2 764.52"/><line class="cls-2" x1="416.25" y1="372.96" x2="416.25" y2="381.85"/><polyline class="cls-2" points="253.67 864.59 287.78 753.52 307.71 760.08"/><polyline class="cls-2" points="312.4 745.81 292.53 739.27 293.55 735.98"/><line class="cls-2" x1="540.39" y1="379.22" x2="546.33" y2="379.22"/><line class="cls-2" x1="546.33" y1="379.22" x2="546.33" y2="91.18"/><line class="cls-2" x1="540.39" y1="379.22" x2="540.39" y2="91.18"/><line class="cls-2" x1="328.04" y1="889.05" x2="329.8" y2="883.7"/><polyline class="cls-2" points="381.72 856.14 488.79 891.38 489.86 888.1 382.8 852.87 401.94 794.72 428.7 803.53 422.83 821.38 473.39 838.02 480.34 816.9 477.07 815.83 471.19 833.67 427.18 819.18 433.05 801.34 399.74 790.38 373.22 870.97"/><polyline class="cls-2" points="407.77 765.99 435.87 680.63 546.2 716.95 521.82 791 516.47 789.24 539.08 720.54 437.37 687.06"/><rect class="cls-2" x="492.81" y="833.55" width="22.24" height="5.64" transform="translate(-448.07 1053.55) rotate(-71.78)"/><line class="cls-2" x1="416.25" y1="372.96" x2="410.14" y2="372.96"/><path class="cls-2" d="M310.83,500.54c16.29,1.92,32.58,3.83,48.87,5.75,1.41-8.5,2.71-17.01,3.89-25.55,1.14,.13,2.28,.27,3.42,.4-2.25,16.27-4.92,32.48-8.02,48.62-2.17-.45-4.34-.9-6.51-1.35-.38-1.48-.88-2.92-1.5-4.32-.64-1.46-1.41-2.87-2.29-4.2-1.83-2.77-4.14-5.2-6.82-7.17-2.68-1.97-5.69-3.45-8.88-4.37-1.53-.44-3.1-.75-4.69-.93-1.52-.17-3.05-.21-4.57-.13-1.53,.08-3.04,.28-4.53,.61-1.56,.34-3.09,.81-4.57,1.41-3.08,1.25-5.92,3.03-8.38,5.26-2.46,2.23-4.51,4.89-6.05,7.84-.74,1.42-1.35,2.89-1.84,4.41-.47,1.45-.81,2.94-1.04,4.45-.23,1.51-.33,3.04-.31,4.56,.02,1.6,.18,3.19,.47,4.76,.61,3.27,1.79,6.4,3.49,9.26,1.7,2.86,3.89,5.39,6.48,7.48,1.24,1,2.56,1.9,3.96,2.68,1.33,.75,2.72,1.38,4.16,1.9,1.44,.52,2.91,.92,4.41,1.21,1.57,.3,3.16,.46,4.76,.48,3.32,.05,6.63-.48,9.77-1.58,3.14-1.1,6.06-2.75,8.62-4.86,1.23-1.02,2.37-2.14,3.42-3.34,1-1.16,1.9-2.39,2.69-3.7,1.79,.37,3.58,.75,5.37,1.12-.54,2.5-1.09,5-1.65,7.49-1.78-.41-3.56-.81-5.34-1.22-1.63,1.71-3.45,3.23-5.42,4.54-2.02,1.34-4.18,2.46-6.44,3.32-2.26,.86-4.62,1.46-7.02,1.8-2.34,.33-4.71,.39-7.06,.2-2.36-.19-4.68-.64-6.94-1.34-2.31-.72-4.54-1.69-6.64-2.9-2.1-1.21-4.05-2.66-5.82-4.31-1.73-1.61-3.28-3.4-4.61-5.35-1.34-1.95-2.46-4.04-3.34-6.23-.9-2.25-1.55-4.59-1.93-6.98s-.49-4.82-.33-7.24c.16-2.36,.58-4.69,1.24-6.96,.67-2.27,1.58-4.45,2.73-6.52,1.17-2.12,2.58-4.1,4.2-5.9,1.62-1.8,3.43-3.42,5.41-4.82,1.93-1.36,4-2.51,6.18-3.42l-1.55-.18c-3.54-.42-7.01-1.36-10.27-2.79,1.11-1.25,2.21-2.5,3.32-3.75,2.37,1.02,4.94,1.65,7.5,1.88Z"/><path class="cls-2" d="M367.92,444.21c-16.59-1.95-33.18-3.9-49.78-5.86-5.65-.66-11.38,.23-16.56,2.58-5.18,2.35-9.63,6.06-12.87,10.75-3.23,4.68-5.13,10.16-5.49,15.84-.36,5.68,.84,11.35,3.46,16.4-1.09,1.23-2.19,2.47-3.28,3.7-3.38-5.78-5.08-12.39-4.91-19.08,.17-6.69,2.2-13.21,5.86-18.81,3.67-5.6,8.82-10.07,14.89-12.91,6.07-2.83,12.8-3.92,19.45-3.14,17.7,2.08,35.4,4.16,53.1,6.25-.61,6.5-1.29,12.98-2.03,19.46-1.14-.13-2.28-.27-3.42-.4,.57-4.93,1.09-9.85,1.58-14.79Z"/><line class="cls-2" x1="437.37" y1="687.06" x2="411.04" y2="767.07"/><line class="cls-2" x1="399.74" y1="790.38" x2="403.01" y2="791.45"/><line class="cls-2" x1="376.71" y1="766.76" x2="370.92" y2="784.34"/><line class="cls-2" x1="370.92" y1="784.54" x2="374.28" y2="785.62"/><line class="cls-2" x1="375.7" y1="379.22" x2="253.59" y2="379.22"/><line class="cls-2" x1="375.7" y1="372.96" x2="259.54" y2="372.96"/><line class="cls-2" x1="374.31" y1="785.6" x2="381.11" y2="764.79"/><line class="cls-2" x1="253.59" y1="91.18" x2="253.59" y2="379.22"/><line class="cls-2" x1="259.54" y1="91.18" x2="259.54" y2="372.96"/><line class="cls-2" x1="409.2" y1="205.45" x2="409.2" y2="138.92"/><line class="cls-2" x1="376.64" y1="210.15" x2="409.2" y2="210.15"/><line class="cls-2" x1="376.64" y1="210.15" x2="376.64" y2="331.47"/><line class="cls-2" x1="376.64" y1="331.47" x2="371.94" y2="331.47"/><line class="cls-2" x1="376.14" y1="145.65" x2="376.16" y2="138.92"/><line class="cls-2" x1="376.16" y1="138.92" x2="371.94" y2="138.92"/><line class="cls-2" x1="371.94" y1="138.92" x2="371.94" y2="331.47"/><line class="cls-2" x1="409.2" y1="210.15" x2="409.2" y2="331.47"/><line class="cls-2" x1="502.81" y1="97.12" x2="502.81" y2="91.18"/><line class="cls-2" x1="502.81" y1="91.18" x2="418.65" y2="91.18"/><line class="cls-2" x1="502.81" y1="97.12" x2="418.65" y2="97.12"/><line class="cls-2" x1="411.04" y1="767.07" x2="407.77" y2="765.99"/><g><path class="cls-2" d="M250.15,187.67c-.2,0-.39,.04-.58,.11-.2,.08-.38,.2-.53,.35-.15,.15-.27,.33-.35,.53-.07,.18-.11,.38-.11,.58s.04,.39,.11,.58c.08,.2,.2,.38,.35,.53,.15,.15,.33,.27,.53,.35,.18,.07,.38,.11,.58,.11s.39-.04,.58-.11c.2-.08,.38-.2,.53-.35,.15-.15,.27-.33,.35-.53,.07-.18,.11-.38,.11-.58s-.04-.39-.11-.58c-.08-.2-.2-.38-.35-.53-.15-.15-.33-.27-.53-.35-.18-.07-.38-.11-.58-.11Z"/><path class="cls-2" d="M250.15,280.1c-.2,0-.39,.04-.58,.11-.2,.08-.38,.2-.53,.35s-.27,.33-.35,.53c-.07,.18-.11,.38-.11,.58s.04,.39,.11,.58c.08,.2,.2,.38,.35,.53s.33,.27,.53,.35c.18,.07,.38,.11,.58,.11s.39-.04,.58-.11c.2-.08,.38-.2,.53-.35s.27-.33,.35-.53c.07-.18,.11-.38,.11-.58s-.04-.39-.11-.58c-.08-.2-.2-.38-.35-.53s-.33-.27-.53-.35c-.18-.07-.38-.11-.58-.11Z"/><path class="cls-2" d="M250.15,326.31c-.2,0-.39,.04-.58,.11-.2,.08-.38,.2-.53,.35s-.27,.33-.35,.53c-.07,.18-.11,.38-.11,.58s.04,.39,.11,.58c.08,.2,.2,.38,.35,.53s.33,.27,.53,.35c.18,.07,.38,.11,.58,.11s.39-.04,.58-.11c.2-.08,.38-.2,.53-.35s.27-.33,.35-.53c.07-.18,.11-.38,.11-.58s-.04-.39-.11-.58c-.08-.2-.2-.38-.35-.53s-.33-.27-.53-.35c-.18-.07-.38-.11-.58-.11Z"/><path class="cls-2" d="M250.15,372.52c-.2,0-.39,.04-.58,.11-.2,.08-.38,.2-.53,.35-.15,.15-.27,.33-.35,.53-.07,.18-.11,.38-.11,.58s.04,.39,.11,.58c.08,.2,.2,.38,.35,.53,.15,.15,.33,.27,.53,.35,.18,.07,.38,.11,.58,.11s.39-.04,.58-.11c.2-.08,.38-.2,.53-.35,.15-.15,.27-.33,.35-.53,.07-.18,.11-.38,.11-.58s-.04-.39-.11-.58c-.08-.2-.2-.38-.35-.53-.15-.15-.33-.27-.53-.35-.18-.07-.38-.11-.58-.11Z"/><path class="cls-2" d="M250.15,416.04c-.2,0-.39,.04-.58,.11-.2,.08-.38,.2-.53,.35-.15,.15-.27,.33-.35,.53-.07,.18-.11,.38-.11,.58s.04,.39,.11,.58c.08,.2,.2,.38,.35,.53,.15,.15,.33,.27,.53,.35,.18,.07,.38,.11,.58,.11s.39-.04,.58-.11c.2-.08,.38-.2,.53-.35,.15-.15,.27-.33,.35-.53,.07-.18,.11-.38,.11-.58s-.04-.39-.11-.58c-.08-.2-.2-.38-.35-.53-.15-.15-.33-.27-.53-.35-.18-.07-.38-.11-.58-.11Z"/><path class="cls-2" d="M250.21,459.56c-.2,0-.39,.04-.58,.11-.2,.08-.38,.2-.53,.35s-.27,.33-.35,.53c-.07,.18-.11,.38-.11,.58s.04,.39,.11,.58c.08,.2,.2,.38,.35,.53s.33,.27,.53,.35c.18,.07,.38,.11,.58,.11s.39-.04,.58-.11c.2-.08,.38-.2,.53-.35s.27-.33,.35-.53c.07-.18,.11-.38,.11-.58s-.04-.39-.11-.58c-.08-.2-.2-.38-.35-.53s-.33-.27-.53-.35c-.18-.07-.38-.11-.58-.11Z"/><path class="cls-2" d="M251.6,503.08c-.2,0-.39,.04-.58,.11-.2,.08-.38,.2-.53,.35-.15,.15-.27,.33-.35,.53-.07,.18-.11,.38-.11,.58s.04,.39,.11,.58c.08,.2,.2,.38,.35,.53s.33,.27,.53,.35c.18,.07,.38,.11,.58,.11s.39-.04,.58-.11c.2-.08,.38-.2,.53-.35,.15-.15,.27-.33,.35-.53,.07-.18,.11-.38,.11-.58s-.04-.39-.11-.58c-.08-.2-.2-.38-.35-.53s-.33-.27-.53-.35c-.18-.07-.38-.11-.58-.11Z"/><path class="cls-2" d="M260.83,546.6c-.2,0-.39,.04-.58,.11-.2,.08-.38,.2-.53,.35-.15,.15-.27,.33-.35,.53-.07,.18-.11,.38-.11,.58s.04,.39,.11,.58c.08,.2,.2,.38,.35,.53s.33,.27,.53,.35c.18,.07,.38,.11,.58,.11s.39-.04,.58-.11c.2-.08,.38-.2,.53-.35s.27-.33,.35-.53c.07-.18,.11-.38,.11-.58s-.04-.39-.11-.58c-.08-.2-.2-.38-.35-.53-.15-.15-.33-.27-.53-.35-.18-.07-.38-.11-.58-.11Z"/><path class="cls-2" d="M277.48,590.12c-.2,0-.39,.04-.58,.11-.2,.08-.38,.2-.53,.35-.15,.15-.27,.33-.35,.53-.07,.18-.11,.38-.11,.58s.04,.39,.11,.58c.08,.2,.2,.38,.35,.53s.33,.27,.53,.35c.18,.07,.38,.11,.58,.11s.39-.04,.58-.11c.2-.08,.38-.2,.53-.35,.15-.15,.27-.33,.35-.53,.07-.18,.11-.38,.11-.58s-.04-.39-.11-.58c-.08-.2-.2-.38-.35-.53s-.33-.27-.53-.35c-.18-.07-.38-.11-.58-.11Z"/><path class="cls-2" d="M281.81,633.64c-.2,0-.39,.04-.58,.11-.2,.08-.38,.2-.53,.35-.15,.15-.27,.33-.35,.53-.07,.18-.11,.38-.11,.58s.04,.39,.11,.58c.08,.2,.2,.38,.35,.53,.15,.15,.33,.27,.53,.35,.18,.07,.38,.11,.58,.11s.39-.04,.58-.11c.2-.08,.38-.2,.53-.35,.15-.15,.27-.33,.35-.53,.07-.18,.11-.38,.11-.58s-.04-.39-.11-.58c-.08-.2-.2-.38-.35-.53-.15-.15-.33-.27-.53-.35-.18-.07-.38-.11-.58-.11Z"/><path class="cls-2" d="M267.38,677.16c-.2,0-.39,.04-.58,.11-.2,.08-.38,.2-.53,.35s-.27,.33-.35,.53c-.07,.18-.11,.38-.11,.58s.04,.39,.11,.58c.08,.2,.2,.38,.35,.53,.15,.15,.33,.27,.53,.35,.18,.07,.38,.11,.58,.11s.39-.04,.58-.11c.2-.08,.38-.2,.53-.35s.27-.33,.35-.53c.07-.18,.11-.38,.11-.58s-.04-.39-.11-.58c-.08-.2-.2-.38-.35-.53-.15-.15-.33-.27-.53-.35-.18-.07-.38-.11-.58-.11Z"/><path class="cls-2" d="M250.22,902.28c-.2,0-.39,.04-.58,.11-.2,.08-.38,.2-.53,.35-.15,.15-.27,.33-.35,.53-.07,.18-.11,.38-.11,.58s.04,.39,.11,.58c.08,.2,.2,.38,.35,.53,.15,.15,.33,.27,.53,.35,.18,.07,.38,.11,.58,.11s.39-.04,.58-.11c.2-.08,.38-.2,.53-.35,.15-.15,.27-.33,.35-.53,.07-.18,.11-.38,.11-.58s-.04-.39-.11-.58c-.08-.2-.2-.38-.35-.53-.15-.15-.33-.27-.53-.35-.18-.07-.38-.11-.58-.11Z"/><path class="cls-2" d="M250.22,856.88c-.2,0-.39,.04-.58,.11-.2,.08-.38,.2-.53,.35s-.27,.33-.35,.53c-.07,.18-.11,.38-.11,.58s.04,.39,.11,.58c.08,.2,.2,.38,.35,.53,.15,.15,.33,.27,.53,.35,.18,.07,.38,.11,.58,.11s.39-.04,.58-.11c.2-.08,.38-.2,.53-.35s.27-.33,.35-.53c.07-.18,.11-.38,.11-.58s-.04-.39-.11-.58c-.08-.2-.2-.38-.35-.53-.15-.15-.33-.27-.53-.35-.18-.07-.38-.11-.58-.11Z"/><path class="cls-2" d="M250.22,811.48c-.2,0-.39,.04-.58,.11-.2,.08-.38,.2-.53,.35-.15,.15-.27,.33-.35,.53-.07,.18-.11,.38-.11,.58s.04,.39,.11,.58c.08,.2,.2,.38,.35,.53s.33,.27,.53,.35c.18,.07,.38,.11,.58,.11s.39-.04,.58-.11c.2-.08,.38-.2,.53-.35,.15-.15,.27-.33,.35-.53,.07-.18,.11-.38,.11-.58s-.04-.39-.11-.58c-.08-.2-.2-.38-.35-.53s-.33-.27-.53-.35c-.18-.07-.38-.11-.58-.11Z"/><path class="cls-2" d="M250.22,766.08c-.2,0-.39,.04-.58,.11-.2,.08-.38,.2-.53,.35s-.27,.33-.35,.53c-.07,.18-.11,.38-.11,.58s.04,.39,.11,.58c.08,.2,.2,.38,.35,.53,.15,.15,.33,.27,.53,.35,.18,.07,.38,.11,.58,.11s.39-.04,.58-.11c.2-.08,.38-.2,.53-.35s.27-.33,.35-.53c.07-.18,.11-.38,.11-.58s-.04-.39-.11-.58c-.08-.2-.2-.38-.35-.53-.15-.15-.33-.27-.53-.35-.18-.07-.38-.11-.58-.11Z"/><path class="cls-2" d="M253.84,720.68c-.2,0-.39,.04-.58,.11-.2,.08-.38,.2-.53,.35s-.27,.33-.35,.53c-.07,.18-.11,.38-.11,.58s.04,.39,.11,.58c.08,.2,.2,.38,.35,.53,.15,.15,.33,.27,.53,.35,.18,.07,.38,.11,.58,.11s.39-.04,.58-.11c.2-.08,.38-.2,.53-.35s.27-.33,.35-.53c.07-.18,.11-.38,.11-.58s-.04-.39-.11-.58c-.08-.2-.2-.38-.35-.53-.15-.15-.33-.27-.53-.35-.18-.07-.38-.11-.58-.11Z"/><path class="cls-2" d="M549.78,95.25c-.2,0-.39,.04-.58,.11-.2,.08-.38,.2-.53,.35-.15,.15-.27,.33-.35,.53-.07,.18-.11,.38-.11,.58s.04,.39,.11,.58c.08,.2,.2,.38,.35,.53,.15,.15,.33,.27,.53,.35,.18,.07,.38,.11,.58,.11s.39-.04,.58-.11c.2-.08,.38-.2,.53-.35,.15-.15,.27-.33,.35-.53,.07-.18,.11-.38,.11-.58s-.04-.39-.11-.58c-.08-.2-.2-.38-.35-.53-.15-.15-.33-.27-.53-.35-.18-.07-.38-.11-.58-.11Z"/><path class="cls-2" d="M549.78,141.46c-.2,0-.39,.04-.58,.11-.2,.08-.38,.2-.53,.35s-.27,.33-.35,.53c-.07,.18-.11,.38-.11,.58s.04,.39,.11,.58c.08,.2,.2,.38,.35,.53s.33,.27,.53,.35c.18,.07,.38,.11,.58,.11s.39-.04,.58-.11c.2-.08,.38-.2,.53-.35s.27-.33,.35-.53c.07-.18,.11-.38,.11-.58s-.04-.39-.11-.58c-.08-.2-.2-.38-.35-.53s-.33-.27-.53-.35c-.18-.07-.38-.11-.58-.11Z"/><path class="cls-2" d="M549.78,187.67c-.2,0-.39,.04-.58,.11-.2,.08-.38,.2-.53,.35-.15,.15-.27,.33-.35,.53-.07,.18-.11,.38-.11,.58s.04,.39,.11,.58c.08,.2,.2,.38,.35,.53,.15,.15,.33,.27,.53,.35,.18,.07,.38,.11,.58,.11s.39-.04,.58-.11c.2-.08,.38-.2,.53-.35,.15-.15,.27-.33,.35-.53,.07-.18,.11-.38,.11-.58s-.04-.39-.11-.58c-.08-.2-.2-.38-.35-.53-.15-.15-.33-.27-.53-.35-.18-.07-.38-.11-.58-.11Z"/><path class="cls-2" d="M549.78,233.88c-.2,0-.39,.04-.58,.11-.2,.08-.38,.2-.53,.35-.15,.15-.27,.33-.35,.53-.07,.18-.11,.38-.11,.58s.04,.39,.11,.58c.08,.2,.2,.38,.35,.53,.15,.15,.33,.27,.53,.35,.18,.07,.38,.11,.58,.11s.39-.04,.58-.11c.2-.08,.38-.2,.53-.35,.15-.15,.27-.33,.35-.53,.07-.18,.11-.38,.11-.58s-.04-.39-.11-.58c-.08-.2-.2-.38-.35-.53-.15-.15-.33-.27-.53-.35-.18-.07-.38-.11-.58-.11Z"/><path class="cls-2" d="M549.78,280.1c-.2,0-.39,.04-.58,.11-.2,.08-.38,.2-.53,.35s-.27,.33-.35,.53c-.07,.18-.11,.38-.11,.58s.04,.39,.11,.58c.08,.2,.2,.38,.35,.53s.33,.27,.53,.35c.18,.07,.38,.11,.58,.11s.39-.04,.58-.11c.2-.08,.38-.2,.53-.35s.27-.33,.35-.53c.07-.18,.11-.38,.11-.58s-.04-.39-.11-.58c-.08-.2-.2-.38-.35-.53s-.33-.27-.53-.35c-.18-.07-.38-.11-.58-.11Z"/><path class="cls-2" d="M549.78,326.31c-.2,0-.39,.04-.58,.11-.2,.08-.38,.2-.53,.35s-.27,.33-.35,.53c-.07,.18-.11,.38-.11,.58s.04,.39,.11,.58c.08,.2,.2,.38,.35,.53s.33,.27,.53,.35c.18,.07,.38,.11,.58,.11s.39-.04,.58-.11c.2-.08,.38-.2,.53-.35s.27-.33,.35-.53c.07-.18,.11-.38,.11-.58s-.04-.39-.11-.58c-.08-.2-.2-.38-.35-.53s-.33-.27-.53-.35c-.18-.07-.38-.11-.58-.11Z"/><path class="cls-2" d="M549.78,372.52c-.2,0-.39,.04-.58,.11-.2,.08-.38,.2-.53,.35-.15,.15-.27,.33-.35,.53-.07,.18-.11,.38-.11,.58s.04,.39,.11,.58c.08,.2,.2,.38,.35,.53,.15,.15,.33,.27,.53,.35,.18,.07,.38,.11,.58,.11s.39-.04,.58-.11c.2-.08,.38-.2,.53-.35,.15-.15,.27-.33,.35-.53,.07-.18,.11-.38,.11-.58s-.04-.39-.11-.58c-.08-.2-.2-.38-.35-.53-.15-.15-.33-.27-.53-.35-.18-.07-.38-.11-.58-.11Z"/><path class="cls-2" d="M549.78,416.04c-.2,0-.39,.04-.58,.11-.2,.08-.38,.2-.53,.35-.15,.15-.27,.33-.35,.53-.07,.18-.11,.38-.11,.58s.04,.39,.11,.58c.08,.2,.2,.38,.35,.53,.15,.15,.33,.27,.53,.35,.18,.07,.38,.11,.58,.11s.39-.04,.58-.11c.2-.08,.38-.2,.53-.35,.15-.15,.27-.33,.35-.53,.07-.18,.11-.38,.11-.58s-.04-.39-.11-.58c-.08-.2-.2-.38-.35-.53-.15-.15-.33-.27-.53-.35-.18-.07-.38-.11-.58-.11Z"/><path class="cls-2" d="M549.78,459.56c-.2,0-.39,.04-.58,.11-.2,.08-.38,.2-.53,.35s-.27,.33-.35,.53c-.07,.18-.11,.38-.11,.58s.04,.39,.11,.58c.08,.2,.2,.38,.35,.53s.33,.27,.53,.35c.18,.07,.38,.11,.58,.11s.39-.04,.58-.11c.2-.08,.38-.2,.53-.35s.27-.33,.35-.53c.07-.18,.11-.38,.11-.58s-.04-.39-.11-.58c-.08-.2-.2-.38-.35-.53s-.33-.27-.53-.35c-.18-.07-.38-.11-.58-.11Z"/><path class="cls-2" d="M549.78,503.08c-.2,0-.39,.04-.58,.11-.2,.08-.38,.2-.53,.35-.15,.15-.27,.33-.35,.53-.07,.18-.11,.38-.11,.58s.04,.39,.11,.58c.08,.2,.2,.38,.35,.53s.33,.27,.53,.35c.18,.07,.38,.11,.58,.11s.39-.04,.58-.11c.2-.08,.38-.2,.53-.35,.15-.15,.27-.33,.35-.53,.07-.18,.11-.38,.11-.58s-.04-.39-.11-.58c-.08-.2-.2-.38-.35-.53s-.33-.27-.53-.35c-.18-.07-.38-.11-.58-.11Z"/><path class="cls-2" d="M549.78,546.6c-.2,0-.39,.04-.58,.11-.2,.08-.38,.2-.53,.35-.15,.15-.27,.33-.35,.53-.07,.18-.11,.38-.11,.58s.04,.39,.11,.58c.08,.2,.2,.38,.35,.53,.15,.15,.33,.27,.53,.35,.18,.07,.38,.11,.58,.11s.39-.04,.58-.11c.2-.08,.38-.2,.53-.35,.15-.15,.27-.33,.35-.53,.07-.18,.11-.38,.11-.58s-.04-.39-.11-.58c-.08-.2-.2-.38-.35-.53-.15-.15-.33-.27-.53-.35-.18-.07-.38-.11-.58-.11Z"/><path class="cls-2" d="M549.78,590.12c-.2,0-.39,.04-.58,.11-.2,.08-.38,.2-.53,.35-.15,.15-.27,.33-.35,.53-.07,.18-.11,.38-.11,.58s.04,.39,.11,.58c.08,.2,.2,.38,.35,.53,.15,.15,.33,.27,.53,.35,.18,.07,.38,.11,.58,.11s.39-.04,.58-.11c.2-.08,.38-.2,.53-.35,.15-.15,.27-.33,.35-.53,.07-.18,.11-.38,.11-.58s-.04-.39-.11-.58c-.08-.2-.2-.38-.35-.53-.15-.15-.33-.27-.53-.35-.18-.07-.38-.11-.58-.11Z"/><path class="cls-2" d="M549.78,633.64c-.2,0-.39,.04-.58,.11-.2,.08-.38,.2-.53,.35s-.27,.33-.35,.53c-.07,.18-.11,.38-.11,.58s.04,.39,.11,.58c.08,.2,.2,.38,.35,.53s.33,.27,.53,.35c.18,.07,.38,.11,.58,.11s.39-.04,.58-.11c.2-.08,.38-.2,.53-.35s.27-.33,.35-.53c.07-.18,.11-.38,.11-.58s-.04-.39-.11-.58c-.08-.2-.2-.38-.35-.53s-.33-.27-.53-.35c-.18-.07-.38-.11-.58-.11Z"/><path class="cls-2" d="M549.78,677.16c-.2,0-.39,.04-.58,.11-.2,.08-.38,.2-.53,.35-.15,.15-.27,.33-.35,.53-.07,.18-.11,.38-.11,.58s.04,.39,.11,.58c.08,.2,.2,.38,.35,.53s.33,.27,.53,.35c.18,.07,.38,.11,.58,.11s.39-.04,.58-.11c.2-.08,.38-.2,.53-.35,.15-.15,.27-.33,.35-.53,.07-.18,.11-.38,.11-.58s-.04-.39-.11-.58c-.08-.2-.2-.38-.35-.53s-.33-.27-.53-.35c-.18-.07-.38-.11-.58-.11Z"/><path class="cls-2" d="M549.78,902.28c-.2,0-.39,.04-.58,.11-.2,.08-.38,.2-.53,.35s-.27,.33-.35,.53c-.07,.18-.11,.38-.11,.58s.04,.39,.11,.58c.08,.2,.2,.38,.35,.53s.33,.27,.53,.35c.18,.07,.38,.11,.58,.11s.39-.04,.58-.11c.2-.08,.38-.2,.53-.35s.27-.33,.35-.53c.07-.18,.11-.38,.11-.58s-.04-.39-.11-.58c-.08-.2-.2-.38-.35-.53s-.33-.27-.53-.35c-.18-.07-.38-.11-.58-.11Z"/><path class="cls-2" d="M549.78,856.88c-.2,0-.39,.04-.58,.11-.2,.08-.38,.2-.53,.35-.15,.15-.27,.33-.35,.53-.07,.18-.11,.38-.11,.58s.04,.39,.11,.58c.08,.2,.2,.38,.35,.53,.15,.15,.33,.27,.53,.35,.18,.07,.38,.11,.58,.11s.39-.04,.58-.11c.2-.08,.38-.2,.53-.35,.15-.15,.27-.33,.35-.53,.07-.18,.11-.38,.11-.58s-.04-.39-.11-.58c-.08-.2-.2-.38-.35-.53-.15-.15-.33-.27-.53-.35-.18-.07-.38-.11-.58-.11Z"/><path class="cls-2" d="M549.78,811.48c-.2,0-.39,.04-.58,.11-.2,.08-.38,.2-.53,.35-.15,.15-.27,.33-.35,.53-.07,.18-.11,.38-.11,.58s.04,.39,.11,.58c.08,.2,.2,.38,.35,.53,.15,.15,.33,.27,.53,.35,.18,.07,.38,.11,.58,.11s.39-.04,.58-.11c.2-.08,.38-.2,.53-.35,.15-.15,.27-.33,.35-.53,.07-.18,.11-.38,.11-.58s-.04-.39-.11-.58c-.08-.2-.2-.38-.35-.53-.15-.15-.33-.27-.53-.35-.18-.07-.38-.11-.58-.11Z"/><path class="cls-2" d="M549.78,766.08c-.2,0-.39,.04-.58,.11-.2,.08-.38,.2-.53,.35-.15,.15-.27,.33-.35,.53-.07,.18-.11,.38-.11,.58s.04,.39,.11,.58c.08,.2,.2,.38,.35,.53s.33,.27,.53,.35c.18,.07,.38,.11,.58,.11s.39-.04,.58-.11c.2-.08,.38-.2,.53-.35,.15-.15,.27-.33,.35-.53,.07-.18,.11-.38,.11-.58s-.04-.39-.11-.58c-.08-.2-.2-.38-.35-.53s-.33-.27-.53-.35c-.18-.07-.38-.11-.58-.11Z"/><path class="cls-2" d="M549.78,720.68c-.2,0-.39,.04-.58,.11-.2,.08-.38,.2-.53,.35-.15,.15-.27,.33-.35,.53-.07,.18-.11,.38-.11,.58s.04,.39,.11,.58c.08,.2,.2,.38,.35,.53,.15,.15,.33,.27,.53,.35,.18,.07,.38,.11,.58,.11s.39-.04,.58-.11c.2-.08,.38-.2,.53-.35,.15-.15,.27-.33,.35-.53,.07-.18,.11-.38,.11-.58s-.04-.39-.11-.58c-.08-.2-.2-.38-.35-.53-.15-.15-.33-.27-.53-.35-.18-.07-.38-.11-.58-.11Z"/><path class="cls-2" d="M468.55,938.91c-.18,0-.36,.03-.53,.1-.18,.07-.35,.18-.49,.32-.14,.14-.25,.31-.32,.49-.07,.17-.1,.35-.1,.53s.03,.36,.1,.53c.07,.18,.18,.35,.32,.49s.31,.25,.49,.32c.17,.07,.35,.1,.53,.1s.36-.03,.53-.1c.18-.07,.35-.18,.49-.32,.14-.14,.25-.31,.32-.49,.07-.17,.1-.35,.1-.53s-.03-.36-.1-.53c-.07-.18-.18-.35-.32-.49s-.31-.25-.49-.32c-.17-.07-.35-.1-.53-.1Z"/><path class="cls-2" d="M259.23,86.13c-.2,0-.39,.04-.58,.11-.2,.08-.38,.2-.53,.35-.15,.15-.27,.33-.35,.53-.07,.18-.11,.38-.11,.58s.04,.39,.11,.58c.08,.2,.2,.38,.35,.53,.15,.15,.33,.27,.53,.35,.18,.07,.38,.11,.58,.11s.39-.04,.58-.11c.2-.08,.38-.2,.53-.35,.15-.15,.27-.33,.35-.53,.07-.18,.11-.38,.11-.58s-.04-.39-.11-.58c-.08-.2-.2-.38-.35-.53-.15-.15-.33-.27-.53-.35-.18-.07-.38-.11-.58-.11Z"/><path class="cls-2" d="M298.68,86.13c-.2,0-.39,.04-.58,.11-.2,.08-.38,.2-.53,.35s-.27,.33-.35,.53c-.07,.18-.11,.38-.11,.58s.04,.39,.11,.58c.08,.2,.2,.38,.35,.53s.33,.27,.53,.35c.18,.07,.38,.11,.58,.11s.39-.04,.58-.11c.2-.08,.38-.2,.53-.35s.27-.33,.35-.53c.07-.18,.11-.38,.11-.58s-.04-.39-.11-.58c-.08-.2-.2-.38-.35-.53s-.33-.27-.53-.35c-.18-.07-.38-.11-.58-.11Z"/><path class="cls-2" d="M339.19,86.13c-.2,0-.39,.04-.58,.11-.2,.08-.38,.2-.53,.35-.15,.15-.27,.33-.35,.53-.07,.18-.11,.38-.11,.58s.04,.39,.11,.58c.08,.2,.2,.38,.35,.53,.15,.15,.33,.27,.53,.35,.18,.07,.38,.11,.58,.11s.39-.04,.58-.11c.2-.08,.38-.2,.53-.35,.15-.15,.27-.33,.35-.53,.07-.18,.11-.38,.11-.58s-.04-.39-.11-.58c-.08-.2-.2-.38-.35-.53-.15-.15-.33-.27-.53-.35-.18-.07-.38-.11-.58-.11Z"/><path class="cls-2" d="M379.71,86.13c-.2,0-.39,.04-.58,.11-.2,.08-.38,.2-.53,.35-.15,.15-.27,.33-.35,.53-.07,.18-.11,.38-.11,.58s.04,.39,.11,.58c.08,.2,.2,.38,.35,.53,.15,.15,.33,.27,.53,.35,.18,.07,.38,.11,.58,.11s.39-.04,.58-.11c.2-.08,.38-.2,.53-.35,.15-.15,.27-.33,.35-.53,.07-.18,.11-.38,.11-.58s-.04-.39-.11-.58c-.08-.2-.2-.38-.35-.53-.15-.15-.33-.27-.53-.35-.18-.07-.38-.11-.58-.11Z"/><path class="cls-2" d="M420.22,86.13c-.2,0-.39,.04-.58,.11-.2,.08-.38,.2-.53,.35-.15,.15-.27,.33-.35,.53-.07,.18-.11,.38-.11,.58s.04,.39,.11,.58c.08,.2,.2,.38,.35,.53,.15,.15,.33,.27,.53,.35,.18,.07,.38,.11,.58,.11s.39-.04,.58-.11c.2-.08,.38-.2,.53-.35,.15-.15,.27-.33,.35-.53,.07-.18,.11-.38,.11-.58s-.04-.39-.11-.58c-.08-.2-.2-.38-.35-.53-.15-.15-.33-.27-.53-.35-.18-.07-.38-.11-.58-.11Z"/><path class="cls-2" d="M460.73,86.13c-.2,0-.39,.04-.58,.11-.2,.08-.38,.2-.53,.35-.15,.15-.27,.33-.35,.53-.07,.18-.11,.38-.11,.58s.04,.39,.11,.58c.08,.2,.2,.38,.35,.53,.15,.15,.33,.27,.53,.35,.18,.07,.38,.11,.58,.11s.39-.04,.58-.11c.2-.08,.38-.2,.53-.35,.15-.15,.27-.33,.35-.53,.07-.18,.11-.38,.11-.58s-.04-.39-.11-.58c-.08-.2-.2-.38-.35-.53-.15-.15-.33-.27-.53-.35-.18-.07-.38-.11-.58-.11Z"/><path class="cls-2" d="M501.25,86.13c-.2,0-.39,.04-.58,.11-.2,.08-.38,.2-.53,.35s-.27,.33-.35,.53c-.07,.18-.11,.38-.11,.58s.04,.39,.11,.58c.08,.2,.2,.38,.35,.53s.33,.27,.53,.35c.18,.07,.38,.11,.58,.11s.39-.04,.58-.11c.2-.08,.38-.2,.53-.35s.27-.33,.35-.53c.07-.18,.11-.38,.11-.58s-.04-.39-.11-.58c-.08-.2-.2-.38-.35-.53s-.33-.27-.53-.35c-.18-.07-.38-.11-.58-.11Z"/><path class="cls-2" d="M540.7,86.13c-.2,0-.39,.04-.58,.11-.2,.08-.38,.2-.53,.35-.15,.15-.27,.33-.35,.53-.07,.18-.11,.38-.11,.58s.04,.39,.11,.58c.08,.2,.2,.38,.35,.53,.15,.15,.33,.27,.53,.35,.18,.07,.38,.11,.58,.11s.39-.04,.58-.11c.2-.08,.38-.2,.53-.35,.15-.15,.27-.33,.35-.53,.07-.18,.11-.38,.11-.58s-.04-.39-.11-.58c-.08-.2-.2-.38-.35-.53-.15-.15-.33-.27-.53-.35-.18-.07-.38-.11-.58-.11Z"/><path class="cls-2" d="M334.74,938.91c-.18,0-.36,.03-.53,.1-.18,.07-.35,.18-.49,.32-.14,.14-.25,.31-.32,.49-.07,.17-.1,.35-.1,.53s.03,.36,.1,.53c.07,.18,.18,.35,.32,.49,.14,.14,.31,.25,.49,.32,.17,.07,.35,.1,.53,.1s.36-.03,.53-.1c.18-.07,.35-.18,.49-.32s.25-.31,.32-.49c.07-.17,.1-.35,.1-.53s-.03-.36-.1-.53c-.07-.18-.18-.35-.32-.49s-.31-.25-.49-.32c-.17-.07-.35-.1-.53-.1Z"/><path class="cls-2" d="M423.94,938.91c-.18,0-.36,.03-.53,.1-.18,.07-.35,.18-.49,.32-.14,.14-.25,.31-.32,.49-.07,.17-.1,.35-.1,.53s.03,.36,.1,.53c.07,.18,.18,.35,.32,.49,.14,.14,.31,.25,.49,.32,.17,.07,.35,.1,.53,.1s.36-.03,.53-.1c.18-.07,.35-.18,.49-.32,.14-.14,.25-.31,.32-.49,.07-.17,.1-.35,.1-.53s-.03-.36-.1-.53c-.07-.18-.18-.35-.32-.49s-.31-.25-.49-.32c-.17-.07-.35-.1-.53-.1Z"/><path class="cls-2" d="M513.15,938.91c-.2,0-.39,.04-.58,.11-.2,.08-.38,.2-.53,.35s-.27,.33-.35,.53c-.07,.18-.11,.38-.11,.58s.04,.39,.11,.58c.08,.2,.2,.38,.35,.53s.33,.27,.53,.35c.18,.07,.38,.11,.58,.11s.39-.04,.58-.11c.2-.08,.38-.2,.53-.35s.27-.33,.35-.53c.07-.18,.11-.38,.11-.58s-.04-.39-.11-.58c-.08-.2-.2-.38-.35-.53s-.33-.27-.53-.35c-.18-.07-.38-.11-.58-.11Z"/><path class="cls-2" d="M290.13,938.91c-.18,0-.36,.03-.53,.1-.18,.07-.35,.18-.49,.32-.14,.14-.25,.31-.32,.49-.07,.17-.1,.35-.1,.53s.03,.36,.1,.53c.07,.18,.18,.35,.32,.49,.14,.14,.31,.25,.49,.32,.17,.07,.35,.1,.53,.1s.36-.03,.53-.1c.18-.07,.35-.18,.49-.32s.25-.31,.32-.49c.07-.17,.1-.35,.1-.53s-.03-.36-.1-.53c-.07-.18-.18-.35-.32-.49-.14-.14-.31-.25-.49-.32-.17-.07-.35-.1-.53-.1Z"/><path class="cls-2" d="M379.34,938.91c-.18,0-.36,.03-.53,.1-.18,.07-.35,.18-.49,.32-.14,.14-.25,.31-.32,.49-.07,.17-.1,.35-.1,.53s.03,.36,.1,.53c.07,.18,.18,.35,.32,.49,.14,.14,.31,.25,.49,.32,.17,.07,.35,.1,.53,.1s.36-.03,.53-.1c.18-.07,.35-.18,.49-.32,.14-.14,.25-.31,.32-.49,.07-.17,.1-.35,.1-.53s-.03-.36-.1-.53c-.07-.18-.18-.35-.32-.49s-.31-.25-.49-.32c-.17-.07-.35-.1-.53-.1Z"/><path class="cls-2" d="M250.15,95.25c-.2,0-.39,.04-.58,.11-.2,.08-.38,.2-.53,.35-.15,.15-.27,.33-.35,.53-.07,.18-.11,.38-.11,.58s.04,.39,.11,.58c.08,.2,.2,.38,.35,.53,.15,.15,.33,.27,.53,.35,.18,.07,.38,.11,.58,.11s.39-.04,.58-.11c.2-.08,.38-.2,.53-.35,.15-.15,.27-.33,.35-.53,.07-.18,.11-.38,.11-.58s-.04-.39-.11-.58c-.08-.2-.2-.38-.35-.53-.15-.15-.33-.27-.53-.35-.18-.07-.38-.11-.58-.11Z"/><path class="cls-2" d="M250.15,141.46c-.2,0-.39,.04-.58,.11-.2,.08-.38,.2-.53,.35s-.27,.33-.35,.53c-.07,.18-.11,.38-.11,.58s.04,.39,.11,.58c.08,.2,.2,.38,.35,.53s.33,.27,.53,.35c.18,.07,.38,.11,.58,.11s.39-.04,.58-.11c.2-.08,.38-.2,.53-.35s.27-.33,.35-.53c.07-.18,.11-.38,.11-.58s-.04-.39-.11-.58c-.08-.2-.2-.38-.35-.53s-.33-.27-.53-.35c-.18-.07-.38-.11-.58-.11Z"/><path class="cls-2" d="M250.15,233.88c-.2,0-.39,.04-.58,.11-.2,.08-.38,.2-.53,.35-.15,.15-.27,.33-.35,.53-.07,.18-.11,.38-.11,.58s.04,.39,.11,.58c.08,.2,.2,.38,.35,.53,.15,.15,.33,.27,.53,.35,.18,.07,.38,.11,.58,.11s.39-.04,.58-.11c.2-.08,.38-.2,.53-.35,.15-.15,.27-.33,.35-.53,.07-.18,.11-.38,.11-.58s-.04-.39-.11-.58c-.08-.2-.2-.38-.35-.53-.15-.15-.33-.27-.53-.35-.18-.07-.38-.11-.58-.11Z"/></g></g><g id="Window_Door_Stairs"><path class="cls-3" d="M283.41,487.62c1.92,3.24,4.35,6.17,7.16,8.67,2.81,2.5,6,4.59,9.44,6.11"/><path class="cls-3" d="M286.69,483.92c1.78,3.35,4.15,6.36,6.99,8.88,2.84,2.52,6.11,4.51,9.66,5.87"/><line class="cls-3" x1="294.29" y1="91.18" x2="294.29" y2="54.54"/><line class="cls-3" x1="516.47" y1="789.24" x2="504.72" y2="824.93"/><line class="cls-3" x1="521.82" y1="791" x2="510.08" y2="826.69"/><line class="cls-3" x1="484.51" y1="886.34" x2="497.77" y2="846.05"/><line class="cls-3" x1="470.17" y1="929.91" x2="483.43" y2="889.61"/><line class="cls-3" x1="363.73" y1="900.8" x2="328.04" y2="889.05"/><line class="cls-3" x1="365.49" y1="895.45" x2="329.8" y2="883.7"/><path class="cls-3" d="M490.94,698.75c17.01-51.53,30.14-104.26,39.38-157.74,9.24-53.47,14.56-107.55,16.02-161.8"/><line class="cls-3" x1="540.39" y1="379.22" x2="416.25" y2="379.22"/><polyline class="cls-3" points="298.76 737.69 309.64 704.64 321.35 669.04 328.1 648.53"/><polyline class="cls-3" points="293.55 735.98 304.43 702.92 316.14 667.33 322.9 646.81"/><line class="cls-3" x1="381.08" y1="97.12" x2="418.65" y2="97.12"/><line class="cls-3" x1="540.39" y1="91.18" x2="502.81" y2="91.18"/><line class="cls-3" x1="322.12" y1="649.16" x2="322.52" y2="647.97"/><line class="cls-3" x1="327.33" y1="650.88" x2="327.72" y2="649.69"/><polyline class="cls-3" points="292.95 541.82 285.77 505.56 255.8 511.5"/><line class="cls-3" x1="257.19" y1="520.64" x2="287.57" y2="514.63"/><line class="cls-3" x1="258.98" y1="529.7" x2="289.36" y2="523.69"/><line class="cls-3" x1="261.29" y1="538.66" x2="291.15" y2="532.75"/><line class="cls-3" x1="264.16" y1="547.51" x2="292.95" y2="541.81"/><line class="cls-3" x1="532.85" y1="679.59" x2="500.33" y2="668.89"/><line class="cls-3" x1="523.06" y1="709.33" x2="532.85" y2="679.59"/><line class="cls-3" x1="515.03" y1="706.68" x2="524.82" y2="676.95"/><line class="cls-3" x1="507" y1="704.04" x2="516.79" y2="674.31"/><line class="cls-3" x1="498.97" y1="701.4" x2="508.76" y2="671.66"/><line class="cls-3" x1="253.59" y1="91.18" x2="253.59" y2="54.54"/><line class="cls-3" x1="263.77" y1="91.18" x2="263.77" y2="54.54"/><line class="cls-3" x1="273.94" y1="91.18" x2="273.94" y2="54.54"/><line class="cls-3" x1="284.12" y1="91.18" x2="284.12" y2="54.54"/><polyline class="cls-3" points="253.59 91.18 253.59 54.54 546.33 54.54 546.33 91.18"/><polyline class="cls-3" points="317.14 433.5 276.72 428.75 282.54 379.22"/><line class="cls-3" x1="286.82" y1="429.93" x2="292.79" y2="379.22"/><line class="cls-3" x1="296.93" y1="431.16" x2="303.04" y2="379.22"/><line class="cls-3" x1="307.03" y1="432.35" x2="313.28" y2="379.22"/><line class="cls-3" x1="251.71" y1="96.81" x2="253.59" y2="96.81"/><line class="cls-3" x1="251.71" y1="189.24" x2="253.59" y2="189.24"/><line class="cls-3" x1="251.71" y1="281.66" x2="253.59" y2="281.66"/><line class="cls-3" x1="251.71" y1="374.09" x2="253.59" y2="374.09"/><line class="cls-3" x1="548.21" y1="96.81" x2="546.33" y2="96.81"/><line class="cls-3" x1="548.21" y1="189.24" x2="546.33" y2="189.24"/><line class="cls-3" x1="548.21" y1="281.66" x2="546.33" y2="281.66"/><line class="cls-3" x1="469" y1="938.98" x2="470.05" y2="935.8"/><path class="cls-3" d="M371.8,439.93c1.82-20.2,3.12-40.44,3.9-60.71"/><path class="cls-3" d="M366.35,439.35c1.88-20.02,3.11-40.09,3.7-60.19"/><path class="cls-3" d="M328.1,648.53c9.79-29.51,18.09-59.49,24.87-89.83"/><path class="cls-3" d="M322.9,646.81c9.73-29.34,17.98-59.14,24.73-89.3"/><line class="cls-3" x1="381.27" y1="91.18" x2="418.65" y2="91.18"/><line class="cls-3" x1="489.86" y1="888.11" x2="503.12" y2="847.81"/><line class="cls-3" x1="475.52" y1="931.67" x2="488.79" y2="891.38"/><line class="cls-3" x1="548.21" y1="374.09" x2="546.33" y2="374.09"/><line class="cls-3" x1="548.29" y1="721.76" x2="544.97" y2="720.67"/><line class="cls-3" x1="317.14" y1="433.54" x2="323.53" y2="379.22"/><line class="cls-3" x1="415.37" y1="91.18" x2="416.3" y2="91.18"/><line class="cls-3" x1="259.54" y1="91.18" x2="298.68" y2="91.18"/><line class="cls-3" x1="407.94" y1="680.33" x2="433.22" y2="688.66"/><line class="cls-3" x1="253.59" y1="450.43" x2="253.59" y2="379.22"/><path class="cls-3" d="M256.25,514.83c-.03-.22-.06-.43-.09-.65-.34-2.45-.64-4.91-.89-7.37-.25-2.46-.47-4.93-.65-7.41-.18-2.47-.33-4.95-.45-7.43-.12-2.48-.21-4.96-.28-7.45s-.12-4.97-.15-7.46c-.06-4.25-.07-8.5-.07-12.76,0-1.39,0-2.78-.08-13.88"/><line class="cls-3" x1="298.68" y1="97.12" x2="259.54" y2="97.12"/><line class="cls-3" x1="502.81" y1="97.12" x2="540.39" y2="97.12"/><line class="cls-3" x1="540.39" y1="372.96" x2="416.25" y2="372.96"/><line class="cls-3" x1="410.59" y1="672.3" x2="435.87" y2="680.63"/><path class="cls-3" d="M253.67,864.59v-83.42c0-.14,0-2.85,0-5.56,0-1.13,0-2.26,.02-3.39,0-1.54,.02-3.08,.04-4.61,.02-1.99,.06-3.99,.1-5.98,.04-1.54,.08-3.08,.13-4.61,.03-.92,.07-1.85,.1-2.77,.06-1.57,.14-3.13,.22-4.69,.09-1.56,.18-3.13,.29-4.69,.11-1.57,.24-3.13,.38-4.69,.14-1.57,.3-3.14,.47-4.71,.09-.78,.18-1.56,.27-2.34,.09-.78,.19-1.56,.3-2.34,.1-.78,.21-1.56,.32-2.34,.11-.78,.23-1.56,.35-2.34,.25-1.57,.51-3.13,.8-4.69,.14-.78,.29-1.56,.45-2.34,.15-.78,.31-1.55,.48-2.33,.16-.78,.34-1.55,.51-2.32,.18-.78,.36-1.56,.55-2.33,.19-.78,.39-1.56,.59-2.34,.22-.86,.46-1.73,.7-2.59,.26-.93,.53-1.85,.8-2.78,.08-.28,.17-.56,.25-.84,.11-.35,.21-.69,.32-1.04,.12-.39,.24-.78,.37-1.16,.13-.39,.25-.79,.38-1.18,.08-.24,.16-.48,.24-.72,.13-.39,.26-.78,.39-1.17,.27-.78,.54-1.56,.81-2.34,.28-.78,.56-1.57,.85-2.35,.29-.79,.58-1.57,.87-2.35,.3-.79,.6-1.57,.9-2.36,.3-.79,.61-1.58,.92-2.36,.4-1.01,.8-2.02,1.2-3.03,.3-.76,.61-1.52,.91-2.27,.31-.77,.62-1.53,.93-2.3,.68-1.68,1.36-3.35,2.04-5.03,.39-.97,.78-1.94,1.17-2.91,.28-.7,.56-1.4,.84-2.11,.32-.8,.63-1.6,.95-2.41,.31-.8,.62-1.59,.92-2.39,.3-.8,.61-1.59,.9-2.39,.3-.8,.59-1.6,.88-2.41,.29-.8,.58-1.61,.86-2.41,.28-.8,.56-1.61,.83-2.41,.27-.8,.53-1.61,.79-2.42,.26-.81,.51-1.61,.75-2.42,.26-.85,.51-1.71,.75-2.57,.25-.87,.48-1.75,.71-2.62,.21-.81,.42-1.63,.61-2.45,.19-.81,.38-1.63,.55-2.44,.17-.81,.34-1.63,.49-2.45,.08-.43,.16-.87,.24-1.3,.14-.82,.28-1.63,.4-2.45,.12-.82,.23-1.64,.33-2.46,.1-.83,.18-1.65,.26-2.48,.07-.82,.13-1.65,.18-2.48,.05-.83,.08-1.65,.09-2.48,0-.3,.01-.6,.01-.91,0-.21,0-.41,0-.62,0-.26,0-.52,0-.78,0-.41-.01-.83-.03-1.24-.02-.83-.06-1.65-.11-2.48-.05-.83-.12-1.65-.19-2.48-.08-.83-.17-1.65-.27-2.47-.07-.53-.14-1.05-.21-1.58-.12-.82-.25-1.64-.39-2.46-.14-.82-.29-1.64-.45-2.45-.16-.82-.33-1.63-.51-2.44-.18-.82-.37-1.63-.57-2.44-.17-.68-.34-1.37-.52-2.05-.19-.74-.4-1.47-.6-2.21-.23-.81-.47-1.62-.71-2.43-.24-.81-.49-1.62-.75-2.42-.26-.81-.52-1.62-.79-2.42-.27-.81-.55-1.61-.83-2.42-.28-.8-.57-1.61-.85-2.41-.29-.8-.58-1.6-.88-2.4-.3-.8-.6-1.6-.9-2.39-.3-.8-.61-1.59-.92-2.39-.31-.8-.63-1.6-.94-2.4-.57-1.45-1.15-2.89-1.73-4.34-.95-2.36-1.91-4.72-2.87-7.08-.4-.98-.79-1.96-1.18-2.95-.42-1.05-.84-2.1-1.25-3.16-.31-.79-.62-1.57-.92-2.36-.3-.78-.6-1.57-.9-2.35-.3-.78-.59-1.57-.88-2.35-.29-.78-.57-1.57-.85-2.35-.28-.78-.55-1.56-.82-2.34-.37-1.07-.72-2.13-1.07-3.21-.24-.74-.47-1.47-.69-2.21-.09-.29-.18-.58-.26-.87-.09-.31-.18-.62-.27-.92-.15-.52-.3-1.05-.45-1.57-.25-.89-.49-1.79-.73-2.68-.2-.78-.4-1.56-.93-3.82-.58-2.47-1.55-6.7-2.93-15.74"/></g><g id="Accessory"><line class="cls-4" x1="371.52" y1="784.83" x2="310.2" y2="764.52"/><line class="cls-4" x1="376.64" y1="332.88" x2="376.64" y2="331.47"/><line class="cls-4" x1="409.2" y1="332.88" x2="409.2" y2="331.47"/><line class="cls-4" x1="366.61" y1="456.66" x2="341.36" y2="453.69"/><line class="cls-4" x1="363.27" y1="483.06" x2="283.47" y2="473.68"/><line class="cls-4" x1="341.36" y1="453.69" x2="291.81" y2="447.86"/><line class="cls-4" x1="431.59" y1="331.47" x2="431.74" y2="331.47"/><rect class="cls-4" x="467.12" y="254.3" width="32.87" height="77.18"/><line class="cls-4" x1="375.07" y1="341.65" x2="375.07" y2="331.47"/><line class="cls-4" x1="410.76" y1="341.65" x2="410.76" y2="331.47"/><line class="cls-4" x1="287.73" y1="753.84" x2="292.53" y2="739.27"/><line class="cls-4" x1="376.64" y1="218.92" x2="409.2" y2="218.92"/><line class="cls-4" x1="376.64" y1="227.68" x2="409.2" y2="227.68"/><line class="cls-4" x1="376.64" y1="236.45" x2="409.2" y2="236.45"/><line class="cls-4" x1="376.64" y1="245.22" x2="409.2" y2="245.22"/><line class="cls-4" x1="433.05" y1="801.34" x2="477.07" y2="815.83"/><line class="cls-4" x1="376.64" y1="253.98" x2="409.2" y2="253.98"/><line class="cls-4" x1="376.64" y1="262.75" x2="409.2" y2="262.75"/><line class="cls-4" x1="376.64" y1="271.52" x2="409.2" y2="271.52"/><line class="cls-4" x1="376.64" y1="280.28" x2="409.2" y2="280.28"/><polyline class="cls-4" points="412.96 331.47 431.74 331.47 431.74 138.92 412.96 138.92"/><line class="cls-4" x1="376.64" y1="289.05" x2="409.2" y2="289.05"/><line class="cls-4" x1="376.64" y1="297.82" x2="409.2" y2="297.82"/><line class="cls-4" x1="376.64" y1="306.58" x2="409.2" y2="306.58"/><line class="cls-4" x1="376.64" y1="315.35" x2="409.2" y2="315.35"/><line class="cls-4" x1="376.64" y1="324.12" x2="409.2" y2="324.12"/><line class="cls-4" x1="376.64" y1="332.88" x2="409.2" y2="332.88"/><line class="cls-4" x1="375.07" y1="341.65" x2="410.76" y2="341.65"/></g><g id="TEXT"><g><path d="M31.17,1024.55h-4.68v-.9h1.89v-6.91l-1.78,.89v-1.04l1.92-.99h.89v8.05h1.76v.9Z"/><path d="M64.34,1024.55h-1.31l-3.01-4.37-.94,1.02v3.34h-1.03v-8.9h1.03v4.26l3.95-4.26h1.19l-3.48,3.76,3.59,5.14Z"/><path d="M69.27,1024.55h-.98v-5.72h-1.94v-.85h2.92v6.57Zm-.48-9.06c.18,0,.34,.07,.47,.2s.2,.29,.2,.48-.06,.36-.19,.49c-.13,.13-.29,.2-.48,.2-.17,0-.33-.07-.46-.21s-.2-.29-.2-.48,.07-.34,.2-.47,.28-.2,.46-.2Z"/><path d="M78.72,1024.25c-.66,.3-1.31,.45-1.95,.45-1.17,0-1.76-.62-1.76-1.86v-4.02h-1.26v-.85h1.26v-1.8h.96v1.8h2.23v.85h-2.23v3.76c0,.4,.09,.71,.26,.93,.18,.22,.42,.33,.72,.33,.54,0,1.07-.12,1.6-.36l.17,.76Z"/><path d="M86.39,1024.33c-.57,.26-1.2,.39-1.89,.39-1.03,0-1.86-.31-2.48-.94s-.92-1.46-.92-2.51,.31-1.88,.93-2.51c.62-.63,1.44-.94,2.44-.94,.66,0,1.29,.12,1.89,.35l-.26,.81c-.6-.21-1.14-.31-1.61-.31-.72,0-1.3,.23-1.72,.7-.42,.47-.63,1.1-.63,1.9,0,.73,.22,1.35,.66,1.85,.44,.5,1.01,.75,1.71,.75,.56,0,1.13-.11,1.72-.32l.17,.79Z"/><path d="M94.16,1024.55h-.98v-4.21c0-.58-.09-1.01-.28-1.27s-.48-.39-.88-.39c-.6,0-1.25,.37-1.94,1.12v4.76h-.98v-8.9h.98v3.29c.71-.75,1.45-1.12,2.23-1.12,1.23,0,1.85,.74,1.85,2.23v4.5Z"/><path d="M102.11,1021.3h-4.51c0,.74,.22,1.36,.65,1.84s.96,.73,1.59,.73,1.21-.11,1.85-.32l.17,.79c-.58,.26-1.26,.39-2.03,.39-.98,0-1.76-.31-2.36-.94-.6-.63-.9-1.47-.9-2.54s.27-1.87,.8-2.49,1.23-.93,2.08-.93c.76,0,1.39,.29,1.9,.86s.76,1.34,.76,2.3v.31Zm-1.07-.8c0-.51-.16-.95-.48-1.3-.32-.35-.68-.53-1.07-.53-.51,0-.93,.17-1.26,.5-.33,.34-.52,.78-.56,1.32h3.37Z"/><path d="M109.67,1024.55h-.98v-4.21c0-.58-.09-1.01-.28-1.27s-.48-.39-.88-.39c-.6,0-1.25,.37-1.94,1.12v4.76h-.98v-6.57h.98v.97c.71-.75,1.45-1.12,2.23-1.12,1.23,0,1.85,.74,1.85,2.23v4.5Z"/><path d="M30.93,1043.62h-4.9v-.75c1.24-1.38,2.05-2.31,2.42-2.78s.67-.96,.9-1.48c.23-.52,.35-1.03,.35-1.55s-.15-.89-.45-1.17c-.3-.29-.72-.43-1.26-.43-.42,0-.98,.13-1.68,.38l-.15-.89c.63-.27,1.3-.4,1.99-.4,.79,0,1.44,.22,1.92,.67,.49,.45,.73,1.05,.73,1.79,0,.53-.13,1.06-.38,1.59s-.57,1.03-.96,1.51-1.15,1.35-2.28,2.6h3.75v.9Z"/><path d="M63.19,1043.62h-4.84v-8.9h1.03v8h3.81v.9Z"/><path d="M69.27,1043.62h-.98v-5.72h-1.94v-.85h2.92v6.57Zm-.48-9.06c.18,0,.34,.07,.47,.2s.2,.29,.2,.48-.06,.36-.19,.49c-.13,.13-.29,.2-.48,.2-.17,0-.33-.07-.46-.21s-.2-.29-.2-.48,.07-.34,.2-.47,.28-.2,.46-.2Z"/><path d="M78.96,1037.05l-2.49,6.57h-.9l-2.48-6.57h1.07l1.86,5.23,1.86-5.23h1.07Z"/><path d="M84.77,1043.62h-.98v-5.72h-1.94v-.85h2.92v6.57Zm-.48-9.06c.18,0,.34,.07,.47,.2s.2,.29,.2,.48-.06,.36-.19,.49c-.13,.13-.29,.2-.48,.2-.17,0-.33-.07-.46-.21s-.2-.29-.2-.48,.07-.34,.2-.47,.28-.2,.46-.2Z"/><path d="M94.16,1043.62h-.98v-4.21c0-.58-.09-1.01-.28-1.27s-.48-.39-.88-.39c-.6,0-1.25,.37-1.94,1.12v4.76h-.98v-6.57h.98v.97c.71-.75,1.45-1.12,2.23-1.12,1.23,0,1.85,.74,1.85,2.23v4.5Z"/><path d="M98.67,1041.14c-.61,.3-.92,.56-.92,.79,0,.12,.07,.22,.21,.31,.14,.08,.33,.13,.58,.13l2.21-.06c.53,0,.93,.13,1.23,.38,.29,.26,.44,.62,.44,1.09,0,.75-.33,1.34-1,1.78-.66,.44-1.44,.66-2.33,.66-.73,0-1.32-.15-1.79-.46-.46-.3-.69-.7-.69-1.18,0-.53,.36-.97,1.07-1.33-.59-.28-.89-.62-.89-1.02,0-.46,.38-.89,1.15-1.29-.35-.21-.62-.49-.81-.83-.19-.34-.28-.7-.28-1.08,0-.62,.21-1.13,.63-1.52s.95-.6,1.58-.6c.45,0,.86,.09,1.23,.28l1.95-.3v.96h-1.26c.19,.33,.28,.72,.28,1.17,0,.6-.21,1.1-.62,1.51-.42,.41-.94,.62-1.58,.62-.13,0-.26,0-.38-.01Zm.42,4.32c.65,0,1.2-.14,1.66-.43,.46-.29,.68-.64,.68-1.07s-.32-.66-.97-.66c-.21,0-.58,.01-1.11,.04-.33,.02-.59,.03-.78,.03-.09,0-.24,.08-.43,.23-.2,.15-.34,.3-.45,.46s-.15,.31-.15,.48c0,.26,.14,.48,.43,.66,.29,.18,.66,.27,1.13,.27Zm-.04-5.07c.36,0,.66-.12,.89-.38,.23-.25,.34-.58,.34-.98,0-.42-.11-.76-.33-1-.22-.24-.52-.36-.9-.36-.35,0-.64,.13-.88,.38-.24,.25-.36,.58-.36,.98s.12,.72,.36,.97c.24,.25,.53,.38,.88,.38Z"/><path d="M29.17,1057.91c.54,.15,.98,.43,1.31,.83,.33,.4,.49,.85,.49,1.35,0,.78-.31,1.44-.92,1.97-.61,.53-1.33,.8-2.16,.8-.71,0-1.34-.16-1.9-.47l.2-.85c.58,.27,1.16,.41,1.73,.41,.54,0,1-.17,1.38-.5,.38-.33,.57-.76,.57-1.29s-.2-.94-.61-1.26c-.41-.32-.95-.49-1.62-.49h-.27v-.85h.08c.65,0,1.18-.15,1.6-.46,.42-.3,.63-.72,.63-1.23,0-.42-.15-.75-.45-.99-.3-.24-.72-.36-1.25-.36-.46,0-.97,.12-1.54,.37l-.14-.89c.57-.26,1.15-.39,1.73-.39,.79,0,1.45,.21,1.96,.63,.52,.42,.77,.96,.77,1.61,0,.45-.16,.88-.47,1.27-.31,.39-.69,.64-1.13,.74v.04Z"/><path d="M58.05,1053.79h1.75c1.17,0,2.1,.4,2.8,1.19,.7,.79,1.05,1.88,1.05,3.26s-.36,2.51-1.07,3.28c-.71,.78-1.63,1.16-2.74,1.16h-1.8v-8.9Zm1.03,8h.73c.85,0,1.51-.31,2.01-.94,.49-.63,.74-1.5,.74-2.61s-.25-1.97-.74-2.6-1.16-.95-2-.95h-.73v7.1Z"/><path d="M69.27,1062.69h-.98v-5.72h-1.94v-.85h2.92v6.57Zm-.48-9.06c.18,0,.34,.07,.47,.2s.2,.29,.2,.48-.06,.36-.19,.49c-.13,.13-.29,.2-.48,.2-.17,0-.33-.07-.46-.21s-.2-.29-.2-.48,.07-.34,.2-.47,.28-.2,.46-.2Z"/><path d="M78.66,1062.69h-.98v-4.21c0-.58-.09-1.01-.28-1.27s-.48-.39-.88-.39c-.6,0-1.25,.37-1.94,1.12v4.76h-.98v-6.57h.98v.97c.71-.75,1.45-1.12,2.23-1.12,1.23,0,1.85,.74,1.85,2.23v4.5Z"/><path d="M84.77,1062.69h-.98v-5.72h-1.94v-.85h2.92v6.57Zm-.48-9.06c.18,0,.34,.07,.47,.2s.2,.29,.2,.48-.06,.36-.19,.49c-.13,.13-.29,.2-.48,.2-.17,0-.33-.07-.46-.21s-.2-.29-.2-.48,.07-.34,.2-.47,.28-.2,.46-.2Z"/><path d="M94.16,1062.69h-.98v-4.21c0-.58-.09-1.01-.28-1.27s-.48-.39-.88-.39c-.6,0-1.25,.37-1.94,1.12v4.76h-.98v-6.57h.98v.97c.71-.75,1.45-1.12,2.23-1.12,1.23,0,1.85,.74,1.85,2.23v4.5Z"/><path d="M98.67,1060.21c-.61,.3-.92,.56-.92,.79,0,.12,.07,.22,.21,.31,.14,.08,.33,.13,.58,.13l2.21-.06c.53,0,.93,.13,1.23,.38,.29,.26,.44,.62,.44,1.09,0,.75-.33,1.34-1,1.78-.66,.44-1.44,.66-2.33,.66-.73,0-1.32-.15-1.79-.46-.46-.3-.69-.7-.69-1.18,0-.53,.36-.97,1.07-1.33-.59-.28-.89-.62-.89-1.02,0-.46,.38-.89,1.15-1.29-.35-.21-.62-.49-.81-.83-.19-.34-.28-.7-.28-1.08,0-.62,.21-1.13,.63-1.52s.95-.6,1.58-.6c.45,0,.86,.09,1.23,.28l1.95-.3v.96h-1.26c.19,.33,.28,.72,.28,1.17,0,.6-.21,1.1-.62,1.51-.42,.41-.94,.62-1.58,.62-.13,0-.26,0-.38-.01Zm.42,4.32c.65,0,1.2-.14,1.66-.43,.46-.29,.68-.64,.68-1.07s-.32-.66-.97-.66c-.21,0-.58,.01-1.11,.04-.33,.02-.59,.03-.78,.03-.09,0-.24,.08-.43,.23-.2,.15-.34,.3-.45,.46s-.15,.31-.15,.48c0,.26,.14,.48,.43,.66,.29,.18,.66,.27,1.13,.27Zm-.04-5.07c.36,0,.66-.12,.89-.38,.23-.25,.34-.58,.34-.98,0-.42-.11-.76-.33-1-.22-.24-.52-.36-.9-.36-.35,0-.64,.13-.88,.38-.24,.25-.36,.58-.36,.98s.12,.72,.36,.97c.24,.25,.53,.38,.88,.38Z"/><path d="M31.51,1079.7h-1.1v2.06h-1.03v-2.06h-3.87v-.79l3.51-6.06h1.39v5.94h1.1v.9Zm-2.13-.9v-4.92l-2.83,4.92h2.83Z"/><path d="M63.19,1081.76h-4.84v-8.9h1.03v8h3.81v.9Z"/><path d="M71.07,1081.76h-.98c-.08-.26-.12-.62-.12-1.06-.56,.82-1.32,1.23-2.28,1.23-.49,0-.92-.17-1.29-.52-.37-.35-.56-.79-.56-1.34,0-.32,.06-.61,.2-.86,.13-.25,.32-.46,.57-.63,.25-.17,.56-.3,.92-.4,.36-.1,.79-.17,1.29-.21l1.1-.09v-.32c0-1.13-.53-1.69-1.58-1.69-.25,0-.56,.05-.94,.16-.38,.11-.71,.23-.98,.38l-.26-.71c.9-.46,1.73-.69,2.5-.69,1.5,0,2.25,.79,2.25,2.38v2.83c0,.57,.05,1.08,.16,1.53Zm-1.15-1.95v-1.19c-.89,.08-1.5,.16-1.83,.22s-.62,.2-.86,.39-.36,.45-.36,.77c0,.29,.1,.53,.31,.71s.47,.27,.79,.27c.35,0,.7-.1,1.04-.31,.34-.21,.65-.5,.91-.86Z"/><path d="M78.65,1081.76h-.98v-.97c-.71,.75-1.45,1.13-2.23,1.13-1.23,0-1.85-.75-1.85-2.24v-4.49h.98v4.21c0,.56,.09,.98,.27,1.25,.18,.28,.48,.41,.9,.41,.6,0,1.25-.37,1.94-1.12v-4.75h.98v6.57Z"/><path d="M86.41,1081.76h-.98v-4.21c0-.58-.09-1.01-.28-1.27s-.48-.39-.88-.39c-.6,0-1.25,.37-1.94,1.12v4.76h-.98v-6.57h.98v.97c.71-.75,1.45-1.12,2.23-1.12,1.23,0,1.85,.74,1.85,2.23v4.5Z"/><path d="M94.14,1081.76h-.98v-.95c-.2,.32-.49,.59-.87,.8-.38,.21-.77,.32-1.19,.32-.75,0-1.35-.33-1.79-1.01-.44-.67-.66-1.52-.66-2.55,0-.96,.23-1.76,.68-2.39,.46-.63,1.06-.95,1.81-.95,.83,0,1.5,.34,2,1.01v-3.18h.98v8.9Zm-.98-2.01v-2.73c-.47-.76-1.04-1.14-1.7-1.14-.54,0-.97,.24-1.29,.72-.32,.48-.47,1.09-.47,1.83s.15,1.38,.44,1.88c.3,.49,.7,.74,1.22,.74,.25,0,.5-.07,.75-.2,.25-.13,.49-.34,.71-.61,.22-.27,.33-.43,.33-.49Z"/><path d="M102.02,1075.37l-.4,.95c-.43-.19-.81-.28-1.12-.28-.29,0-.57,.08-.85,.25-.28,.17-.53,.4-.77,.71-.23,.31-.35,.48-.35,.52v4.25h-.98v-6.57h.98v1.33c.53-.99,1.21-1.49,2.04-1.49,.5,0,.98,.11,1.44,.33Z"/><path d="M109.97,1075.19l-2.49,6.57c-.36,.97-.72,1.64-1.08,2.02-.36,.38-.76,.57-1.21,.57-.4,0-.8-.07-1.2-.22l.16-.79c.32,.1,.61,.15,.86,.15,.35,0,.64-.14,.87-.41s.46-.72,.69-1.34l-2.47-6.56h1.07l1.86,5.24,1.86-5.24h1.07Z"/><path d="M27.48,1095.52c.29-.08,.57-.11,.84-.11,.84,0,1.51,.26,1.99,.77,.49,.52,.73,1.16,.73,1.93s-.28,1.49-.85,2.05c-.57,.56-1.26,.84-2.08,.84s-1.43-.13-1.96-.39l.21-.88c.57,.24,1.16,.36,1.77,.36,.54,0,.98-.17,1.32-.52,.33-.35,.5-.84,.5-1.46,0-.59-.16-1.05-.47-1.37s-.72-.48-1.22-.48c-.36,0-.72,.07-1.07,.21l-.62-.28v-4.25h4.07v.9h-3.17v2.69Z"/><path d="M64.21,1091.93l-1.14,8.9h-.96l-1.51-5.01-1.51,5.01h-.98l-1.11-8.9h1.02l.75,7.24,1.31-4.38h1.03l1.32,4.39,.76-7.25h1.01Z"/><path d="M71.24,1100.28c-.7,.48-1.51,.72-2.43,.72-1.15,0-2.03-.39-2.63-1.19-.6-.79-.9-1.93-.9-3.43s.29-2.58,.87-3.4c.58-.82,1.47-1.23,2.66-1.23,.43,0,.85,.05,1.27,.16,.42,.11,.76,.25,1.02,.44l-.34,.81c-.59-.34-1.24-.5-1.95-.5-.82,0-1.43,.3-1.83,.89-.4,.59-.6,1.54-.6,2.82,0,2.47,.81,3.71,2.43,3.71,.69,0,1.39-.21,2.11-.63l.32,.81Z"/></g><g><path d="M198.71,1019.91c.55-.45,1.16-.67,1.81-.67,.75,0,1.38,.24,1.88,.72s.75,1.1,.75,1.86c0,.84-.22,1.53-.67,2.08s-1.04,.82-1.79,.82c-.95,0-1.7-.44-2.26-1.31-.56-.87-.83-1.94-.83-3.2,0-1.35,.29-2.47,.87-3.38s1.37-1.36,2.38-1.36c.69,0,1.29,.1,1.8,.31l-.16,.92c-.58-.21-1.12-.32-1.6-.32-.69,0-1.22,.33-1.6,.98-.38,.66-.57,1.5-.57,2.54Zm.03,.89c0,.76,.18,1.45,.54,2.08,.36,.62,.81,.93,1.35,.93,.46,0,.81-.17,1.06-.5,.25-.34,.37-.8,.37-1.39,0-.55-.14-.98-.41-1.29-.27-.32-.66-.47-1.15-.47-.64,0-1.23,.22-1.75,.66Z"/><path d="M233.36,1019.67c.59,.14,1.06,.41,1.39,.81s.5,.88,.5,1.43c0,.81-.29,1.45-.88,1.93-.59,.48-1.29,.72-2.12,.72h-2.53v-8.9h2.47c.86,0,1.53,.19,2.01,.56,.48,.38,.73,.91,.73,1.59,0,.42-.14,.79-.42,1.12-.28,.33-.67,.57-1.16,.71v.02Zm-2.59-.48h1.21c1.27,0,1.9-.45,1.9-1.36,0-.41-.16-.73-.47-.95-.31-.22-.77-.33-1.37-.33h-1.27v2.64Zm0,4.46h1.17c.69,0,1.23-.16,1.63-.47,.4-.31,.6-.74,.6-1.28,0-.58-.2-1.02-.59-1.34-.4-.32-.97-.47-1.72-.47h-1.1v3.56Z"/><path d="M242.79,1021.3h-4.51c0,.74,.22,1.36,.65,1.84s.96,.73,1.59,.73,1.21-.11,1.85-.32l.17,.79c-.58,.26-1.26,.39-2.03,.39-.98,0-1.76-.31-2.36-.94-.6-.63-.9-1.47-.9-2.54s.27-1.87,.8-2.49,1.23-.93,2.08-.93c.76,0,1.39,.29,1.9,.86s.76,1.34,.76,2.3v.31Zm-1.07-.8c0-.51-.16-.95-.48-1.3-.32-.35-.68-.53-1.07-.53-.51,0-.93,.17-1.26,.5-.33,.34-.52,.78-.56,1.32h3.37Z"/><path d="M250.32,1024.55h-.98v-.95c-.2,.32-.49,.59-.87,.8-.38,.21-.77,.32-1.19,.32-.75,0-1.35-.33-1.79-1.01-.44-.67-.66-1.52-.66-2.55,0-.96,.23-1.76,.68-2.39,.46-.63,1.06-.95,1.81-.95,.83,0,1.5,.34,2,1.01v-3.18h.98v8.9Zm-.98-2.01v-2.73c-.47-.76-1.04-1.14-1.7-1.14-.54,0-.97,.24-1.29,.72-.32,.48-.47,1.09-.47,1.83s.15,1.38,.44,1.88c.3,.49,.7,.74,1.22,.74,.25,0,.5-.07,.75-.2,.25-.13,.49-.34,.71-.61,.22-.27,.33-.43,.33-.49Z"/><path d="M202.96,1035.46l-3.53,8.16h-1.06l3.48-8h-4.17v-.9h5.28v.74Z"/><path d="M233.36,1038.74c.59,.14,1.06,.41,1.39,.81s.5,.88,.5,1.43c0,.81-.29,1.45-.88,1.93-.59,.48-1.29,.72-2.12,.72h-2.53v-8.9h2.47c.86,0,1.53,.19,2.01,.56,.48,.38,.73,.91,.73,1.59,0,.42-.14,.79-.42,1.12-.28,.33-.67,.57-1.16,.71v.02Zm-2.59-.48h1.21c1.27,0,1.9-.45,1.9-1.36,0-.41-.16-.73-.47-.95-.31-.22-.77-.33-1.37-.33h-1.27v2.64Zm0,4.46h1.17c.69,0,1.23-.16,1.63-.47,.4-.31,.6-.74,.6-1.28,0-.58-.2-1.02-.59-1.34-.4-.32-.97-.47-1.72-.47h-1.1v3.56Z"/><path d="M242.75,1043.62h-.98c-.08-.26-.12-.62-.12-1.06-.56,.82-1.32,1.23-2.28,1.23-.49,0-.92-.17-1.29-.52-.37-.35-.56-.79-.56-1.34,0-.32,.06-.61,.2-.86,.13-.25,.32-.46,.57-.63,.25-.17,.56-.3,.92-.4,.36-.1,.79-.17,1.29-.21l1.1-.09v-.32c0-1.13-.53-1.69-1.58-1.69-.25,0-.56,.05-.94,.16-.38,.11-.71,.23-.98,.38l-.26-.71c.9-.46,1.73-.69,2.5-.69,1.5,0,2.25,.79,2.25,2.38v2.83c0,.57,.05,1.08,.16,1.53Zm-1.15-1.95v-1.19c-.89,.08-1.5,.16-1.83,.22s-.62,.2-.86,.39-.36,.45-.36,.77c0,.29,.1,.53,.31,.71s.47,.27,.79,.27c.35,0,.7-.1,1.04-.31,.34-.21,.65-.5,.91-.86Z"/><path d="M250.41,1043.32c-.66,.3-1.31,.45-1.95,.45-1.17,0-1.76-.62-1.76-1.86v-4.02h-1.26v-.85h1.26v-1.8h.96v1.8h2.23v.85h-2.23v3.76c0,.4,.09,.71,.26,.93,.18,.22,.42,.33,.72,.33,.54,0,1.07-.12,1.6-.36l.17,.76Z"/><path d="M258.09,1043.62h-.98v-4.21c0-.58-.09-1.01-.28-1.27s-.48-.39-.88-.39c-.6,0-1.25,.37-1.94,1.12v4.76h-.98v-8.9h.98v3.29c.71-.75,1.45-1.12,2.23-1.12,1.23,0,1.85,.74,1.85,2.23v4.5Z"/><path d="M265.95,1037.22l-.4,.95c-.43-.19-.81-.28-1.12-.28-.29,0-.57,.08-.85,.25-.28,.17-.53,.4-.77,.71-.23,.31-.35,.48-.35,.52v4.25h-.98v-6.57h.98v1.33c.53-.99,1.21-1.49,2.04-1.49,.5,0,.98,.11,1.44,.33Z"/><path d="M271.05,1036.89c.9,0,1.62,.32,2.16,.95s.8,1.46,.8,2.49-.27,1.88-.8,2.51-1.25,.95-2.16,.95-1.63-.32-2.16-.95c-.53-.63-.8-1.47-.8-2.51s.27-1.87,.8-2.49c.53-.63,1.25-.94,2.16-.94Zm0,6.04c.6,0,1.07-.25,1.41-.76s.52-1.12,.52-1.84c0-.76-.17-1.38-.51-1.87-.34-.49-.81-.73-1.42-.73s-1.08,.24-1.42,.72c-.34,.48-.5,1.11-.5,1.88s.17,1.35,.51,1.85c.34,.5,.81,.75,1.41,.75Z"/><path d="M278.8,1036.89c.9,0,1.62,.32,2.16,.95s.8,1.46,.8,2.49-.27,1.88-.8,2.51-1.25,.95-2.16,.95-1.63-.32-2.16-.95c-.53-.63-.8-1.47-.8-2.51s.27-1.87,.8-2.49c.53-.63,1.25-.94,2.16-.94Zm0,6.04c.6,0,1.07-.25,1.41-.76s.52-1.12,.52-1.84c0-.76-.17-1.38-.51-1.87-.34-.49-.81-.73-1.42-.73s-1.08,.24-1.42,.72c-.34,.48-.5,1.11-.5,1.88s.17,1.35,.51,1.85c.34,.5,.81,.75,1.41,.75Z"/><path d="M289.62,1043.62h-.98v-4.31c0-1.04-.19-1.56-.58-1.56-.2,0-.42,.18-.65,.54-.24,.36-.36,.56-.36,.6v4.74h-.98v-4.31c0-1.04-.2-1.56-.59-1.56-.19,0-.41,.18-.65,.54-.24,.36-.36,.56-.36,.6v4.74h-.98v-6.57h.95v.99c.19-.35,.4-.63,.66-.84,.25-.21,.51-.31,.76-.31,.27,0,.5,.1,.71,.31,.21,.21,.35,.49,.44,.84,.19-.35,.41-.63,.66-.84,.26-.21,.51-.31,.76-.31,.79,0,1.19,.71,1.19,2.13v4.6Z"/><path d="M201.2,1057.81c.61,.18,1.08,.48,1.41,.9,.33,.42,.5,.92,.5,1.49,0,.82-.27,1.46-.81,1.94-.54,.48-1.21,.72-2,.72s-1.51-.24-2.04-.72c-.53-.48-.8-1.12-.8-1.92,0-.56,.17-1.06,.52-1.49s.83-.73,1.44-.92c-.49-.13-.89-.37-1.18-.73-.3-.36-.44-.76-.44-1.21,0-.57,.23-1.09,.68-1.55,.45-.46,1.05-.7,1.8-.7s1.34,.23,1.83,.69,.72,.98,.72,1.56c0,.43-.15,.83-.45,1.2-.3,.36-.69,.61-1.17,.74Zm-.92,.46c-1.15,.34-1.73,.97-1.73,1.9,0,.54,.17,.98,.52,1.3,.35,.33,.76,.49,1.23,.49s.9-.16,1.23-.48c.33-.32,.5-.76,.5-1.31,0-.42-.12-.79-.35-1.12s-.7-.59-1.41-.78Zm0-.88s.12-.03,.3-.08c.18-.05,.34-.11,.46-.19,.13-.07,.25-.17,.36-.28,.11-.11,.2-.25,.26-.4,.07-.15,.1-.33,.1-.51,0-.4-.15-.74-.44-1.01-.29-.27-.64-.4-1.05-.4s-.74,.14-1.03,.41c-.29,.27-.43,.61-.43,1,0,.25,.05,.46,.15,.65,.1,.19,.23,.33,.38,.45,.15,.11,.33,.2,.53,.26,.2,.06,.33,.09,.39,.09Z"/><path d="M234.19,1054.78c-.53-.18-1.03-.27-1.51-.27-.54,0-.98,.12-1.32,.37-.34,.25-.51,.6-.51,1.05,0,.54,.44,1.01,1.33,1.42,.66,.3,1.09,.51,1.3,.63,.21,.12,.43,.28,.65,.49s.39,.45,.53,.73,.2,.59,.2,.94c0,.87-.29,1.54-.87,2.01-.58,.48-1.27,.72-2.06,.72s-1.44-.15-2.01-.45l.21-.89c.68,.31,1.27,.46,1.77,.46,.59,0,1.06-.15,1.42-.46s.53-.72,.53-1.26c0-.4-.12-.73-.35-1.01-.23-.28-.66-.56-1.28-.84-.64-.29-1.05-.5-1.24-.6s-.37-.26-.56-.45c-.19-.19-.33-.4-.43-.64-.1-.24-.15-.49-.15-.77,0-.74,.26-1.31,.79-1.72s1.2-.62,2.01-.62c.59,0,1.18,.09,1.77,.27l-.23,.88Z"/><path d="M240.95,1062.69h-.98v-5.72h-1.94v-.85h2.92v6.57Zm-.48-9.06c.18,0,.34,.07,.47,.2s.2,.29,.2,.48-.06,.36-.19,.49c-.13,.13-.29,.2-.48,.2-.17,0-.33-.07-.46-.21s-.2-.29-.2-.48,.07-.34,.2-.47,.28-.2,.46-.2Z"/><path d="M250.41,1062.39c-.66,.3-1.31,.45-1.95,.45-1.17,0-1.76-.62-1.76-1.86v-4.02h-1.26v-.85h1.26v-1.8h.96v1.8h2.23v.85h-2.23v3.76c0,.4,.09,.71,.26,.93,.18,.22,.42,.33,.72,.33,.54,0,1.07-.12,1.6-.36l.17,.76Z"/><path d="M258.16,1062.39c-.66,.3-1.31,.45-1.95,.45-1.17,0-1.76-.62-1.76-1.86v-4.02h-1.26v-.85h1.26v-1.8h.96v1.8h2.23v.85h-2.23v3.76c0,.4,.09,.71,.26,.93,.18,.22,.42,.33,.72,.33,.54,0,1.07-.12,1.6-.36l.17,.76Z"/><path d="M264.21,1062.69h-.98v-5.72h-1.94v-.85h2.92v6.57Zm-.48-9.06c.18,0,.34,.07,.47,.2s.2,.29,.2,.48-.06,.36-.19,.49c-.13,.13-.29,.2-.48,.2-.17,0-.33-.07-.46-.21s-.2-.29-.2-.48,.07-.34,.2-.47,.28-.2,.46-.2Z"/><path d="M273.6,1062.69h-.98v-4.21c0-.58-.09-1.01-.28-1.27s-.48-.39-.88-.39c-.6,0-1.25,.37-1.94,1.12v4.76h-.98v-6.57h.98v.97c.71-.75,1.45-1.12,2.23-1.12,1.23,0,1.85,.74,1.85,2.23v4.5Z"/><path d="M278.11,1060.21c-.61,.3-.92,.56-.92,.79,0,.12,.07,.22,.21,.31,.14,.08,.33,.13,.58,.13l2.21-.06c.53,0,.93,.13,1.23,.38,.29,.26,.44,.62,.44,1.09,0,.75-.33,1.34-1,1.78-.66,.44-1.44,.66-2.33,.66-.73,0-1.32-.15-1.79-.46-.46-.3-.69-.7-.69-1.18,0-.53,.36-.97,1.07-1.33-.59-.28-.89-.62-.89-1.02,0-.46,.38-.89,1.15-1.29-.35-.21-.62-.49-.81-.83-.19-.34-.28-.7-.28-1.08,0-.62,.21-1.13,.63-1.52s.95-.6,1.58-.6c.45,0,.86,.09,1.23,.28l1.95-.3v.96h-1.26c.19,.33,.28,.72,.28,1.17,0,.6-.21,1.1-.62,1.51-.42,.41-.94,.62-1.58,.62-.13,0-.26,0-.38-.01Zm.42,4.32c.65,0,1.2-.14,1.66-.43,.46-.29,.68-.64,.68-1.07s-.32-.66-.97-.66c-.21,0-.58,.01-1.11,.04-.33,.02-.59,.03-.78,.03-.09,0-.24,.08-.43,.23-.2,.15-.34,.3-.45,.46s-.15,.31-.15,.48c0,.26,.14,.48,.43,.66,.29,.18,.66,.27,1.13,.27Zm-.04-5.07c.36,0,.66-.12,.89-.38,.23-.25,.34-.58,.34-.98,0-.42-.11-.76-.33-1-.22-.24-.52-.36-.9-.36-.35,0-.64,.13-.88,.38-.24,.25-.36,.58-.36,.98s.12,.72,.36,.97c.24,.25,.53,.38,.88,.38Z"/><path d="M202,1077.49c-.51,.45-1.12,.67-1.81,.67-.75,0-1.38-.24-1.88-.72s-.75-1.1-.75-1.86c0-.82,.24-1.5,.72-2.06,.48-.56,1.1-.83,1.86-.83,.93,0,1.65,.42,2.18,1.27,.52,.85,.78,1.93,.78,3.24s-.31,2.42-.92,3.35c-.61,.92-1.43,1.38-2.46,1.38-.69,0-1.29-.1-1.79-.31l.16-.92c.58,.21,1.11,.32,1.6,.32,.7,0,1.26-.34,1.67-1.02,.42-.68,.63-1.51,.63-2.51Zm-.03-.89c0-.8-.16-1.5-.49-2.1-.32-.6-.75-.91-1.27-.91-.48,0-.85,.18-1.14,.53-.28,.35-.43,.81-.43,1.37,0,.52,.14,.94,.43,1.27s.67,.5,1.13,.5c.64,0,1.2-.2,1.68-.59l.08-.06Z"/><path d="M234.68,1081.76h-4.65v-8.9h4.61v.9h-3.58v2.76h3.44v.9h-3.44v3.44h3.61v.9Z"/><path d="M242.59,1081.76h-.98v-4.21c0-.58-.09-1.01-.28-1.27s-.48-.39-.88-.39c-.6,0-1.25,.37-1.94,1.12v4.76h-.98v-6.57h.98v.97c.71-.75,1.45-1.12,2.23-1.12,1.23,0,1.85,.74,1.85,2.23v4.5Z"/><path d="M250.41,1081.46c-.66,.3-1.31,.45-1.95,.45-1.17,0-1.76-.62-1.76-1.86v-4.02h-1.26v-.85h1.26v-1.8h.96v1.8h2.23v.85h-2.23v3.76c0,.4,.09,.71,.26,.93,.18,.22,.42,.33,.72,.33,.54,0,1.07-.12,1.6-.36l.17,.76Z"/><path d="M258.2,1075.37l-.4,.95c-.43-.19-.81-.28-1.12-.28-.29,0-.57,.08-.85,.25-.28,.17-.53,.4-.77,.71-.23,.31-.35,.48-.35,.52v4.25h-.98v-6.57h.98v1.33c.53-.99,1.21-1.49,2.04-1.49,.5,0,.98,.11,1.44,.33Z"/><path d="M266.14,1075.19l-2.49,6.57c-.36,.97-.72,1.64-1.08,2.02-.36,.38-.76,.57-1.21,.57-.4,0-.8-.07-1.2-.22l.16-.79c.32,.1,.61,.15,.86,.15,.35,0,.64-.14,.87-.41s.46-.72,.69-1.34l-2.47-6.56h1.07l1.86,5.24,1.86-5.24h1.07Z"/><path d="M202.85,1100.83h-4.68v-.9h1.89v-6.91l-1.78,.89v-1.04l1.92-.99h.89v8.05h1.76v.9Z"/><path d="M208.04,1091.76c.94,0,1.67,.4,2.17,1.21,.51,.81,.76,1.95,.76,3.41s-.25,2.54-.74,3.37c-.49,.83-1.22,1.25-2.2,1.25s-1.66-.4-2.17-1.21-.76-1.94-.76-3.41,.25-2.55,.74-3.38c.49-.83,1.22-1.25,2.19-1.25Zm0,8.33c.62,0,1.08-.29,1.38-.89,.3-.59,.45-1.53,.45-2.82s-.15-2.24-.45-2.82c-.3-.59-.76-.88-1.38-.88s-1.07,.3-1.38,.9-.45,1.54-.45,2.8,.15,2.22,.45,2.82c.3,.6,.76,.89,1.38,.89Zm-.02-4.66c.26,0,.49,.09,.67,.27,.18,.18,.27,.41,.27,.67s-.09,.51-.28,.7c-.19,.2-.41,.29-.67,.29s-.48-.1-.66-.29c-.18-.2-.27-.43-.27-.7s.09-.49,.27-.67c.18-.18,.4-.27,.67-.27Z"/><path d="M229.74,1091.93h1.75c1.17,0,2.1,.4,2.8,1.19,.7,.79,1.05,1.88,1.05,3.26s-.36,2.51-1.07,3.28c-.71,.78-1.63,1.16-2.74,1.16h-1.8v-8.9Zm1.03,8h.73c.85,0,1.51-.31,2.01-.94,.49-.63,.74-1.5,.74-2.61s-.25-1.97-.74-2.6-1.16-.95-2-.95h-.73v7.1Z"/><path d="M242.79,1097.58h-4.51c0,.74,.22,1.36,.65,1.84s.96,.73,1.59,.73,1.21-.11,1.85-.32l.17,.79c-.58,.26-1.26,.39-2.03,.39-.98,0-1.76-.31-2.36-.94-.6-.63-.9-1.47-.9-2.54s.27-1.87,.8-2.49,1.23-.93,2.08-.93c.76,0,1.39,.29,1.9,.86s.76,1.34,.76,2.3v.31Zm-1.07-.8c0-.51-.16-.95-.48-1.3-.32-.35-.68-.53-1.07-.53-.51,0-.93,.17-1.26,.5-.33,.34-.52,.78-.56,1.32h3.37Z"/><path d="M250.32,1100.61c-.57,.26-1.2,.39-1.89,.39-1.03,0-1.86-.31-2.48-.94s-.92-1.46-.92-2.51,.31-1.88,.93-2.51c.62-.63,1.44-.94,2.44-.94,.66,0,1.29,.12,1.89,.35l-.26,.81c-.6-.21-1.14-.31-1.61-.31-.72,0-1.3,.23-1.72,.7-.42,.47-.63,1.1-.63,1.9,0,.73,.22,1.35,.66,1.85,.44,.5,1.01,.75,1.71,.75,.56,0,1.13-.11,1.72-.32l.17,.79Z"/><path d="M258.74,1100.83h-1.29l-2.79-3.27-.64,.55v2.71h-.98v-8.9h.98v5.1l3.08-2.78h1.26l-3,2.69,3.38,3.89Z"/></g><circle class="cls-1" cx="765.53" cy="1024.02" r="11.44"/><line class="cls-1" x1="765.53" y1="1024.02" x2="765.53" y2="1035.46"/><path d="M486.1,303.18h-4.68v-.9h1.89v-6.91l-1.78,.89v-1.04l1.92-.99h.89v8.05h1.76v.9Z"/><path d="M484.11,184.54c.54,.15,.98,.43,1.31,.83,.33,.4,.49,.85,.49,1.35,0,.78-.31,1.44-.92,1.97-.61,.53-1.33,.8-2.16,.8-.71,0-1.34-.16-1.9-.47l.2-.85c.58,.27,1.16,.41,1.73,.41,.54,0,1-.17,1.38-.5,.38-.33,.57-.76,.57-1.29s-.2-.94-.61-1.26c-.41-.32-.95-.49-1.62-.49h-.27v-.85h.08c.65,0,1.18-.15,1.6-.46,.42-.3,.63-.72,.63-1.23,0-.42-.15-.75-.45-.99-.3-.24-.72-.36-1.25-.36-.46,0-.97,.12-1.54,.37l-.14-.89c.57-.26,1.15-.39,1.73-.39,.79,0,1.45,.21,1.96,.63,.52,.42,.77,.96,.77,1.61,0,.45-.16,.88-.47,1.27-.31,.39-.69,.64-1.13,.74v.04Z"/><path d="M320.4,241.81h-4.9v-.75c1.24-1.38,2.05-2.31,2.42-2.78s.67-.96,.9-1.48c.23-.52,.35-1.03,.35-1.55s-.15-.89-.45-1.17c-.3-.29-.72-.43-1.26-.43-.42,0-.98,.13-1.68,.38l-.15-.89c.63-.27,1.3-.4,1.99-.4,.79,0,1.44,.22,1.92,.67,.49,.45,.73,1.05,.73,1.79,0,.53-.13,1.06-.38,1.59s-.57,1.03-.96,1.51-1.15,1.35-2.28,2.6h3.75v.9Z"/><path d="M401.56,118.94c-.51,.45-1.12,.67-1.81,.67-.75,0-1.38-.24-1.88-.72s-.75-1.1-.75-1.86c0-.82,.24-1.5,.72-2.06,.48-.56,1.1-.83,1.86-.83,.93,0,1.65,.42,2.18,1.27,.52,.85,.78,1.93,.78,3.24s-.31,2.42-.92,3.35c-.61,.92-1.43,1.38-2.46,1.38-.69,0-1.29-.1-1.79-.31l.16-.92c.58,.21,1.11,.32,1.6,.32,.7,0,1.26-.34,1.67-1.02,.42-.68,.63-1.51,.63-2.51Zm-.03-.89c0-.8-.16-1.5-.49-2.1-.32-.6-.75-.91-1.27-.91-.48,0-.85,.18-1.14,.53-.28,.35-.43,.81-.43,1.37,0,.52,.14,.94,.43,1.27s.67,.5,1.13,.5c.64,0,1.2-.2,1.68-.59l.08-.06Z"/><path d="M330.22,468.21h-1.1v2.06h-1.03v-2.06h-3.87v-.79l3.51-6.06h1.39v5.94h1.1v.9Zm-2.13-.9v-4.92l-2.83,4.92h2.83Z"/><path d="M323.82,535.94c.29-.08,.57-.11,.84-.11,.84,0,1.51,.26,1.99,.77,.49,.52,.73,1.16,.73,1.93s-.28,1.49-.85,2.05c-.57,.56-1.26,.84-2.08,.84s-1.43-.13-1.96-.39l.21-.88c.57,.24,1.16,.36,1.77,.36,.54,0,.98-.17,1.32-.52,.33-.35,.5-.84,.5-1.46,0-.59-.16-1.05-.47-1.37s-.72-.48-1.22-.48c-.36,0-.72,.07-1.07,.21l-.62-.28v-4.25h4.07v.9h-3.17v2.69Z"/><g><path d="M398.54,75.47h-4.68v-.9h1.89v-6.91l-1.78,.89v-1.04l1.92-.99h.89v8.05h1.76v.9Z"/><path d="M403.73,66.4c.94,0,1.67,.4,2.17,1.21,.51,.81,.76,1.95,.76,3.41s-.25,2.54-.74,3.37c-.49,.83-1.22,1.25-2.2,1.25s-1.66-.4-2.17-1.21-.76-1.94-.76-3.41,.25-2.55,.74-3.38c.49-.83,1.22-1.25,2.19-1.25Zm0,8.33c.62,0,1.08-.29,1.38-.89,.3-.59,.45-1.53,.45-2.82s-.15-2.24-.45-2.82c-.3-.59-.76-.88-1.38-.88s-1.07,.3-1.38,.9-.45,1.54-.45,2.8,.15,2.22,.45,2.82c.3,.6,.76,.89,1.38,.89Zm-.02-4.66c.26,0,.49,.09,.67,.27,.18,.18,.27,.41,.27,.67s-.09,.51-.28,.7c-.19,.2-.41,.29-.67,.29s-.48-.1-.66-.29c-.18-.2-.27-.43-.27-.7s.09-.49,.27-.67c.18-.18,.4-.27,.67-.27Z"/></g><g><path d="M459.4,526.3h-4.68v-.9h1.89v-6.91l-1.78,.89v-1.04l1.92-.99h.89v8.05h1.76v.9Z"/><path d="M464.59,517.23c.94,0,1.67,.4,2.17,1.21,.51,.81,.76,1.95,.76,3.41s-.25,2.54-.74,3.37c-.49,.83-1.22,1.25-2.2,1.25s-1.66-.4-2.17-1.21-.76-1.94-.76-3.41,.25-2.55,.74-3.38c.49-.83,1.22-1.25,2.19-1.25Zm0,8.33c.62,0,1.08-.29,1.38-.89,.3-.59,.45-1.53,.45-2.82s-.15-2.24-.45-2.82c-.3-.59-.76-.88-1.38-.88s-1.07,.3-1.38,.9-.45,1.54-.45,2.8,.15,2.22,.45,2.82c.3,.6,.76,.89,1.38,.89Zm-.02-4.66c.26,0,.49,.09,.67,.27,.18,.18,.27,.41,.27,.67s-.09,.51-.28,.7c-.19,.2-.41,.29-.67,.29s-.48-.1-.66-.29c-.18-.2-.27-.43-.27-.7s.09-.49,.27-.67c.18-.18,.4-.27,.67-.27Z"/></g><path d="M469.37,754.84c.55-.45,1.16-.67,1.81-.67,.75,0,1.38,.24,1.88,.72s.75,1.1,.75,1.86c0,.84-.22,1.53-.67,2.08s-1.04,.82-1.79,.82c-.95,0-1.7-.44-2.26-1.31-.56-.87-.83-1.94-.83-3.2,0-1.35,.29-2.47,.87-3.38s1.37-1.36,2.38-1.36c.69,0,1.29,.1,1.8,.31l-.16,.92c-.58-.21-1.12-.32-1.6-.32-.69,0-1.22,.33-1.6,.98-.38,.66-.57,1.5-.57,2.54Zm.03,.89c0,.76,.18,1.45,.54,2.08,.36,.62,.81,.93,1.35,.93,.46,0,.81-.17,1.06-.5,.25-.34,.37-.8,.37-1.39,0-.55-.14-.98-.41-1.29-.27-.32-.66-.47-1.15-.47-.64,0-1.23,.22-1.75,.66Z"/><path d="M353.86,715.53c.61,.18,1.08,.48,1.41,.9,.33,.42,.5,.92,.5,1.49,0,.82-.27,1.46-.81,1.94-.54,.48-1.21,.72-2,.72s-1.51-.24-2.04-.72c-.53-.48-.8-1.12-.8-1.92,0-.56,.17-1.06,.52-1.49s.83-.73,1.44-.92c-.49-.13-.89-.37-1.18-.73-.3-.36-.44-.76-.44-1.21,0-.57,.23-1.09,.68-1.55,.45-.46,1.05-.7,1.8-.7s1.34,.23,1.83,.69,.72,.98,.72,1.56c0,.43-.15,.83-.45,1.2-.3,.36-.69,.61-1.17,.74Zm-.92,.46c-1.15,.34-1.73,.97-1.73,1.9,0,.54,.17,.98,.52,1.3,.35,.33,.76,.49,1.23,.49s.9-.16,1.23-.48c.33-.32,.5-.76,.5-1.31,0-.42-.12-.79-.35-1.12s-.7-.59-1.41-.78Zm0-.88s.12-.03,.3-.08c.18-.05,.34-.11,.46-.19,.13-.07,.25-.17,.36-.28,.11-.11,.2-.25,.26-.4,.07-.15,.1-.33,.1-.51,0-.4-.15-.74-.44-1.01-.29-.27-.64-.4-1.05-.4s-.74,.14-1.03,.41c-.29,.27-.43,.61-.43,1,0,.25,.05,.46,.15,.65,.1,.19,.23,.33,.38,.45,.15,.11,.33,.2,.53,.26,.2,.06,.33,.09,.39,.09Z"/><path d="M442.41,845.31l-3.53,8.16h-1.06l3.48-8h-4.17v-.9h5.28v.74Z"/><path d="M426.6,890.71l-3.53,8.16h-1.06l3.48-8h-4.17v-.9h5.28v.74Z"/><path d="M323.16,824.15c.55-.45,1.16-.67,1.81-.67,.75,0,1.38,.24,1.88,.72s.75,1.1,.75,1.86c0,.84-.22,1.53-.67,2.08s-1.04,.82-1.79,.82c-.95,0-1.7-.44-2.26-1.31-.56-.87-.83-1.94-.83-3.2,0-1.35,.29-2.47,.87-3.38s1.37-1.36,2.38-1.36c.69,0,1.29,.1,1.8,.31l-.16,.92c-.58-.21-1.12-.32-1.6-.32-.69,0-1.22,.33-1.6,.98-.38,.66-.57,1.5-.57,2.54Zm.03,.89c0,.76,.18,1.45,.54,2.08,.36,.62,.81,.93,1.35,.93,.46,0,.81-.17,1.06-.5,.25-.34,.37-.8,.37-1.39,0-.55-.14-.98-.41-1.29-.27-.32-.66-.47-1.15-.47-.64,0-1.23,.22-1.75,.66Z"/><g><path d="M305.94,603.74h-4.68v-.9h1.89v-6.91l-1.78,.89v-1.04l1.92-.99h.89v8.05h1.76v.9Z"/><path d="M311.13,594.67c.94,0,1.67,.4,2.17,1.21,.51,.81,.76,1.95,.76,3.41s-.25,2.54-.74,3.37c-.49,.83-1.22,1.25-2.2,1.25s-1.66-.4-2.17-1.21-.76-1.94-.76-3.41,.25-2.55,.74-3.38c.49-.83,1.22-1.25,2.19-1.25Zm0,8.33c.62,0,1.08-.29,1.38-.89,.3-.59,.45-1.53,.45-2.82s-.15-2.24-.45-2.82c-.3-.59-.76-.88-1.38-.88s-1.07,.3-1.38,.9-.45,1.54-.45,2.8,.15,2.22,.45,2.82c.3,.6,.76,.89,1.38,.89Zm-.02-4.66c.26,0,.49,.09,.67,.27,.18,.18,.27,.41,.27,.67s-.09,.51-.28,.7c-.19,.2-.41,.29-.67,.29s-.48-.1-.66-.29c-.18-.2-.27-.43-.27-.7s.09-.49,.27-.67c.18-.18,.4-.27,.67-.27Z"/></g></g></svg>