<?xml version="1.0" encoding="UTF-8"?><svg xmlns="http://www.w3.org/2000/svg" viewBox="0 0 800 1120"><defs><style>.cls-1{stroke-width:.75px;}.cls-1,.cls-2,.cls-3,.cls-4{fill:none;stroke:#231f20;stroke-linecap:round;stroke-linejoin:round;}.cls-2{stroke-width:1.2px;}.cls-3{stroke-width:.24px;}.cls-4{stroke-width:.36px;}</style></defs><g id="Wall"><line class="cls-2" x1="412.96" y1="331.47" x2="409.2" y2="331.47"/><path class="cls-2" d="M304.97,504.17c1.74,.47,3.52,.82,5.31,1.03"/><polyline class="cls-2" points="376.14 145.65 388.85 145.65 388.85 149.41 376.14 149.41 376.14 205.45 390.73 205.45 409.2 205.45"/><line class="cls-2" x1="259.54" y1="91.18" x2="253.59" y2="91.18"/><line class="cls-2" x1="546.33" y1="91.18" x2="540.39" y2="91.18"/><line class="cls-2" x1="359.15" y1="664.27" x2="407.94" y2="680.33"/><line class="cls-2" x1="381.72" y1="856.14" x2="376.49" y2="872.05"/><line class="cls-2" x1="407.94" y1="680.33" x2="410.59" y2="672.3"/><line class="cls-2" x1="410.59" y1="672.3" x2="367.76" y2="658.21"/><line class="cls-2" x1="329.8" y1="883.7" x2="258.58" y2="860.25"/><line class="cls-2" x1="253.67" y1="864.59" x2="328.04" y2="889.05"/><line class="cls-2" x1="307.71" y1="760.08" x2="312.4" y2="745.81"/><rect class="cls-2" x="416.81" y="858.31" width="5.63" height="115.84" transform="translate(-581.87 1028.36) rotate(-71.78)"/><rect class="cls-2" x="298.68" y="91.18" width="82.59" height="5.95"/><line class="cls-2" x1="418.65" y1="97.12" x2="418.65" y2="91.18"/><path class="cls-2" d="M359.15,664.27c31.63-93.97,48.82-192.19,50.99-291.31"/><line class="cls-2" x1="376.49" y1="872.05" x2="373.22" y2="870.97"/><path class="cls-2" d="M367.76,658.21c29.35-89.31,45.68-182.39,48.49-276.35"/><line class="cls-2" x1="375.7" y1="379.22" x2="375.7" y2="372.96"/><line class="cls-2" x1="310.2" y1="764.52" x2="315.97" y2="746.98"/><line class="cls-2" x1="315.97" y1="746.98" x2="376.71" y2="766.72"/><line class="cls-2" x1="293.55" y1="735.98" x2="381.13" y2="764.8"/><line class="cls-2" x1="412.96" y1="331.47" x2="412.96" y2="138.92"/><line class="cls-2" x1="409.2" y1="138.92" x2="412.96" y2="138.92"/><polyline class="cls-2" points="258.58 860.25 292.05 758.55 310.2 764.52"/><line class="cls-2" x1="416.25" y1="372.96" x2="416.25" y2="381.85"/><polyline class="cls-2" points="253.67 864.59 287.78 753.52 307.71 760.08"/><polyline class="cls-2" points="312.4 745.81 292.53 739.27 293.55 735.98"/><line class="cls-2" x1="540.39" y1="379.22" x2="546.33" y2="379.22"/><line class="cls-2" x1="546.33" y1="379.22" x2="546.33" y2="91.18"/><line class="cls-2" x1="540.39" y1="379.22" x2="540.39" y2="91.18"/><line class="cls-2" x1="328.04" y1="889.05" x2="329.8" y2="883.7"/><polyline class="cls-2" points="381.72 856.14 488.79 891.38 489.86 888.1 382.8 852.87 401.94 794.72 428.7 803.53 422.83 821.38 473.39 838.02 480.34 816.9 477.07 815.83 471.19 833.67 427.18 819.18 433.05 801.34 399.74 790.38 373.22 870.97"/><polyline class="cls-2" points="407.77 765.99 435.87 680.63 546.2 716.95 521.82 791 516.47 789.24 539.08 720.54 437.37 687.06"/><rect class="cls-2" x="492.81" y="833.55" width="22.24" height="5.64" transform="translate(-448.07 1053.55) rotate(-71.78)"/><line class="cls-2" x1="416.25" y1="372.96" x2="410.14" y2="372.96"/><path class="cls-2" d="M310.83,500.54c16.29,1.92,32.58,3.83,48.87,5.75,1.41-8.5,2.71-17.01,3.89-25.55,1.14,.13,2.28,.27,3.42,.4-2.25,16.27-4.92,32.48-8.02,48.62-2.17-.45-4.34-.9-6.51-1.35-.38-1.48-.88-2.92-1.5-4.32-.64-1.46-1.41-2.87-2.29-4.2-1.83-2.77-4.14-5.2-6.82-7.17-2.68-1.97-5.69-3.45-8.88-4.37-1.53-.44-3.1-.75-4.69-.93-1.52-.17-3.05-.21-4.57-.13-1.53,.08-3.04,.28-4.53,.61-1.56,.34-3.09,.81-4.57,1.41-3.08,1.25-5.92,3.03-8.38,5.26-2.46,2.23-4.51,4.89-6.05,7.84-.74,1.42-1.35,2.89-1.84,4.41-.47,1.45-.81,2.94-1.04,4.45-.23,1.51-.33,3.04-.31,4.56,.02,1.6,.18,3.19,.47,4.76,.61,3.27,1.79,6.4,3.49,9.26,1.7,2.86,3.89,5.39,6.48,7.48,1.24,1,2.56,1.9,3.96,2.68,1.33,.75,2.72,1.38,4.16,1.9,1.44,.52,2.91,.92,4.41,1.21,1.57,.3,3.16,.46,4.76,.48,3.32,.05,6.63-.48,9.77-1.58,3.14-1.1,6.06-2.75,8.62-4.86,1.23-1.02,2.37-2.14,3.42-3.34,1-1.16,1.9-2.39,2.69-3.7,1.79,.37,3.58,.75,5.37,1.12-.54,2.5-1.09,5-1.65,7.49-1.78-.41-3.56-.81-5.34-1.22-1.63,1.71-3.45,3.23-5.42,4.54-2.02,1.34-4.18,2.46-6.44,3.32-2.26,.86-4.62,1.46-7.02,1.8-2.34,.33-4.71,.39-7.06,.2-2.36-.19-4.68-.64-6.94-1.34-2.31-.72-4.54-1.69-6.64-2.9-2.1-1.21-4.05-2.66-5.82-4.31-1.73-1.61-3.28-3.4-4.61-5.35-1.34-1.95-2.46-4.04-3.34-6.23-.9-2.25-1.55-4.59-1.93-6.98s-.49-4.82-.33-7.24c.16-2.36,.58-4.69,1.24-6.96,.67-2.27,1.58-4.45,2.73-6.52,1.17-2.12,2.58-4.1,4.2-5.9,1.62-1.8,3.43-3.42,5.41-4.82,1.93-1.36,4-2.51,6.18-3.42l-1.55-.18c-3.54-.42-7.01-1.36-10.27-2.79,1.11-1.25,2.21-2.5,3.32-3.75,2.37,1.02,4.94,1.65,7.5,1.88Z"/><path class="cls-2" d="M367.92,444.21c-16.59-1.95-33.18-3.9-49.78-5.86-5.65-.66-11.38,.23-16.56,2.58-5.18,2.35-9.63,6.06-12.87,10.75-3.23,4.68-5.13,10.16-5.49,15.84-.36,5.68,.84,11.35,3.46,16.4-1.09,1.23-2.19,2.47-3.28,3.7-3.38-5.78-5.08-12.39-4.91-19.08,.17-6.69,2.2-13.21,5.86-18.81,3.67-5.6,8.82-10.07,14.89-12.91,6.07-2.83,12.8-3.92,19.45-3.14,17.7,2.08,35.4,4.16,53.1,6.25-.61,6.5-1.29,12.98-2.03,19.46-1.14-.13-2.28-.27-3.42-.4,.57-4.93,1.09-9.85,1.58-14.79Z"/><line class="cls-2" x1="437.37" y1="687.06" x2="411.04" y2="767.07"/><line class="cls-2" x1="399.74" y1="790.38" x2="403.01" y2="791.45"/><line class="cls-2" x1="376.71" y1="766.76" x2="370.92" y2="784.34"/><line class="cls-2" x1="370.92" y1="784.54" x2="374.28" y2="785.62"/><line class="cls-2" x1="375.7" y1="379.22" x2="253.59" y2="379.22"/><line class="cls-2" x1="375.7" y1="372.96" x2="259.54" y2="372.96"/><line class="cls-2" x1="374.31" y1="785.6" x2="381.11" y2="764.79"/><line class="cls-2" x1="253.59" y1="91.18" x2="253.59" y2="379.22"/><line class="cls-2" x1="259.54" y1="91.18" x2="259.54" y2="372.96"/><line class="cls-2" x1="409.2" y1="205.45" x2="409.2" y2="138.92"/><line class="cls-2" x1="376.64" y1="210.15" x2="409.2" y2="210.15"/><line class="cls-2" x1="376.64" y1="210.15" x2="376.64" y2="331.47"/><line class="cls-2" x1="376.64" y1="331.47" x2="371.94" y2="331.47"/><line class="cls-2" x1="376.14" y1="145.65" x2="376.16" y2="138.92"/><line class="cls-2" x1="376.16" y1="138.92" x2="371.94" y2="138.92"/><line class="cls-2" x1="371.94" y1="138.92" x2="371.94" y2="331.47"/><line class="cls-2" x1="409.2" y1="210.15" x2="409.2" y2="331.47"/><line class="cls-2" x1="502.81" y1="97.12" x2="502.81" y2="91.18"/><line class="cls-2" x1="502.81" y1="91.18" x2="418.65" y2="91.18"/><line class="cls-2" x1="502.81" y1="97.12" x2="418.65" y2="97.12"/><line class="cls-2" x1="411.04" y1="767.07" x2="407.77" y2="765.99"/><g><path class="cls-2" d="M250.15,187.67c-.2,0-.39,.04-.58,.11-.2,.08-.38,.2-.53,.35-.15,.15-.27,.33-.35,.53-.07,.18-.11,.38-.11,.58s.04,.39,.11,.58c.08,.2,.2,.38,.35,.53,.15,.15,.33,.27,.53,.35,.18,.07,.38,.11,.58,.11s.39-.04,.58-.11c.2-.08,.38-.2,.53-.35,.15-.15,.27-.33,.35-.53,.07-.18,.11-.38,.11-.58s-.04-.39-.11-.58c-.08-.2-.2-.38-.35-.53-.15-.15-.33-.27-.53-.35-.18-.07-.38-.11-.58-.11Z"/><path class="cls-2" d="M250.15,280.1c-.2,0-.39,.04-.58,.11-.2,.08-.38,.2-.53,.35s-.27,.33-.35,.53c-.07,.18-.11,.38-.11,.58s.04,.39,.11,.58c.08,.2,.2,.38,.35,.53s.33,.27,.53,.35c.18,.07,.38,.11,.58,.11s.39-.04,.58-.11c.2-.08,.38-.2,.53-.35s.27-.33,.35-.53c.07-.18,.11-.38,.11-.58s-.04-.39-.11-.58c-.08-.2-.2-.38-.35-.53s-.33-.27-.53-.35c-.18-.07-.38-.11-.58-.11Z"/><path class="cls-2" d="M250.15,326.31c-.2,0-.39,.04-.58,.11-.2,.08-.38,.2-.53,.35s-.27,.33-.35,.53c-.07,.18-.11,.38-.11,.58s.04,.39,.11,.58c.08,.2,.2,.38,.35,.53s.33,.27,.53,.35c.18,.07,.38,.11,.58,.11s.39-.04,.58-.11c.2-.08,.38-.2,.53-.35s.27-.33,.35-.53c.07-.18,.11-.38,.11-.58s-.04-.39-.11-.58c-.08-.2-.2-.38-.35-.53s-.33-.27-.53-.35c-.18-.07-.38-.11-.58-.11Z"/><path class="cls-2" d="M250.15,372.52c-.2,0-.39,.04-.58,.11-.2,.08-.38,.2-.53,.35-.15,.15-.27,.33-.35,.53-.07,.18-.11,.38-.11,.58s.04,.39,.11,.58c.08,.2,.2,.38,.35,.53,.15,.15,.33,.27,.53,.35,.18,.07,.38,.11,.58,.11s.39-.04,.58-.11c.2-.08,.38-.2,.53-.35,.15-.15,.27-.33,.35-.53,.07-.18,.11-.38,.11-.58s-.04-.39-.11-.58c-.08-.2-.2-.38-.35-.53-.15-.15-.33-.27-.53-.35-.18-.07-.38-.11-.58-.11Z"/><path class="cls-2" d="M250.15,416.04c-.2,0-.39,.04-.58,.11-.2,.08-.38,.2-.53,.35-.15,.15-.27,.33-.35,.53-.07,.18-.11,.38-.11,.58s.04,.39,.11,.58c.08,.2,.2,.38,.35,.53,.15,.15,.33,.27,.53,.35,.18,.07,.38,.11,.58,.11s.39-.04,.58-.11c.2-.08,.38-.2,.53-.35,.15-.15,.27-.33,.35-.53,.07-.18,.11-.38,.11-.58s-.04-.39-.11-.58c-.08-.2-.2-.38-.35-.53-.15-.15-.33-.27-.53-.35-.18-.07-.38-.11-.58-.11Z"/><path class="cls-2" d="M250.21,459.56c-.2,0-.39,.04-.58,.11-.2,.08-.38,.2-.53,.35s-.27,.33-.35,.53c-.07,.18-.11,.38-.11,.58s.04,.39,.11,.58c.08,.2,.2,.38,.35,.53s.33,.27,.53,.35c.18,.07,.38,.11,.58,.11s.39-.04,.58-.11c.2-.08,.38-.2,.53-.35s.27-.33,.35-.53c.07-.18,.11-.38,.11-.58s-.04-.39-.11-.58c-.08-.2-.2-.38-.35-.53s-.33-.27-.53-.35c-.18-.07-.38-.11-.58-.11Z"/><path class="cls-2" d="M251.6,503.08c-.2,0-.39,.04-.58,.11-.2,.08-.38,.2-.53,.35-.15,.15-.27,.33-.35,.53-.07,.18-.11,.38-.11,.58s.04,.39,.11,.58c.08,.2,.2,.38,.35,.53s.33,.27,.53,.35c.18,.07,.38,.11,.58,.11s.39-.04,.58-.11c.2-.08,.38-.2,.53-.35,.15-.15,.27-.33,.35-.53,.07-.18,.11-.38,.11-.58s-.04-.39-.11-.58c-.08-.2-.2-.38-.35-.53s-.33-.27-.53-.35c-.18-.07-.38-.11-.58-.11Z"/><path class="cls-2" d="M260.83,546.6c-.2,0-.39,.04-.58,.11-.2,.08-.38,.2-.53,.35-.15,.15-.27,.33-.35,.53-.07,.18-.11,.38-.11,.58s.04,.39,.11,.58c.08,.2,.2,.38,.35,.53s.33,.27,.53,.35c.18,.07,.38,.11,.58,.11s.39-.04,.58-.11c.2-.08,.38-.2,.53-.35s.27-.33,.35-.53c.07-.18,.11-.38,.11-.58s-.04-.39-.11-.58c-.08-.2-.2-.38-.35-.53-.15-.15-.33-.27-.53-.35-.18-.07-.38-.11-.58-.11Z"/><path class="cls-2" d="M277.48,590.12c-.2,0-.39,.04-.58,.11-.2,.08-.38,.2-.53,.35-.15,.15-.27,.33-.35,.53-.07,.18-.11,.38-.11,.58s.04,.39,.11,.58c.08,.2,.2,.38,.35,.53s.33,.27,.53,.35c.18,.07,.38,.11,.58,.11s.39-.04,.58-.11c.2-.08,.38-.2,.53-.35,.15-.15,.27-.33,.35-.53,.07-.18,.11-.38,.11-.58s-.04-.39-.11-.58c-.08-.2-.2-.38-.35-.53s-.33-.27-.53-.35c-.18-.07-.38-.11-.58-.11Z"/><path class="cls-2" d="M281.81,633.64c-.2,0-.39,.04-.58,.11-.2,.08-.38,.2-.53,.35-.15,.15-.27,.33-.35,.53-.07,.18-.11,.38-.11,.58s.04,.39,.11,.58c.08,.2,.2,.38,.35,.53,.15,.15,.33,.27,.53,.35,.18,.07,.38,.11,.58,.11s.39-.04,.58-.11c.2-.08,.38-.2,.53-.35,.15-.15,.27-.33,.35-.53,.07-.18,.11-.38,.11-.58s-.04-.39-.11-.58c-.08-.2-.2-.38-.35-.53-.15-.15-.33-.27-.53-.35-.18-.07-.38-.11-.58-.11Z"/><path class="cls-2" d="M267.38,677.16c-.2,0-.39,.04-.58,.11-.2,.08-.38,.2-.53,.35s-.27,.33-.35,.53c-.07,.18-.11,.38-.11,.58s.04,.39,.11,.58c.08,.2,.2,.38,.35,.53,.15,.15,.33,.27,.53,.35,.18,.07,.38,.11,.58,.11s.39-.04,.58-.11c.2-.08,.38-.2,.53-.35s.27-.33,.35-.53c.07-.18,.11-.38,.11-.58s-.04-.39-.11-.58c-.08-.2-.2-.38-.35-.53-.15-.15-.33-.27-.53-.35-.18-.07-.38-.11-.58-.11Z"/><path class="cls-2" d="M250.22,902.28c-.2,0-.39,.04-.58,.11-.2,.08-.38,.2-.53,.35-.15,.15-.27,.33-.35,.53-.07,.18-.11,.38-.11,.58s.04,.39,.11,.58c.08,.2,.2,.38,.35,.53,.15,.15,.33,.27,.53,.35,.18,.07,.38,.11,.58,.11s.39-.04,.58-.11c.2-.08,.38-.2,.53-.35,.15-.15,.27-.33,.35-.53,.07-.18,.11-.38,.11-.58s-.04-.39-.11-.58c-.08-.2-.2-.38-.35-.53-.15-.15-.33-.27-.53-.35-.18-.07-.38-.11-.58-.11Z"/><path class="cls-2" d="M250.22,856.88c-.2,0-.39,.04-.58,.11-.2,.08-.38,.2-.53,.35s-.27,.33-.35,.53c-.07,.18-.11,.38-.11,.58s.04,.39,.11,.58c.08,.2,.2,.38,.35,.53,.15,.15,.33,.27,.53,.35,.18,.07,.38,.11,.58,.11s.39-.04,.58-.11c.2-.08,.38-.2,.53-.35s.27-.33,.35-.53c.07-.18,.11-.38,.11-.58s-.04-.39-.11-.58c-.08-.2-.2-.38-.35-.53-.15-.15-.33-.27-.53-.35-.18-.07-.38-.11-.58-.11Z"/><path class="cls-2" d="M250.22,811.48c-.2,0-.39,.04-.58,.11-.2,.08-.38,.2-.53,.35-.15,.15-.27,.33-.35,.53-.07,.18-.11,.38-.11,.58s.04,.39,.11,.58c.08,.2,.2,.38,.35,.53s.33,.27,.53,.35c.18,.07,.38,.11,.58,.11s.39-.04,.58-.11c.2-.08,.38-.2,.53-.35,.15-.15,.27-.33,.35-.53,.07-.18,.11-.38,.11-.58s-.04-.39-.11-.58c-.08-.2-.2-.38-.35-.53s-.33-.27-.53-.35c-.18-.07-.38-.11-.58-.11Z"/><path class="cls-2" d="M250.22,766.08c-.2,0-.39,.04-.58,.11-.2,.08-.38,.2-.53,.35s-.27,.33-.35,.53c-.07,.18-.11,.38-.11,.58s.04,.39,.11,.58c.08,.2,.2,.38,.35,.53,.15,.15,.33,.27,.53,.35,.18,.07,.38,.11,.58,.11s.39-.04,.58-.11c.2-.08,.38-.2,.53-.35s.27-.33,.35-.53c.07-.18,.11-.38,.11-.58s-.04-.39-.11-.58c-.08-.2-.2-.38-.35-.53-.15-.15-.33-.27-.53-.35-.18-.07-.38-.11-.58-.11Z"/><path class="cls-2" d="M253.84,720.68c-.2,0-.39,.04-.58,.11-.2,.08-.38,.2-.53,.35s-.27,.33-.35,.53c-.07,.18-.11,.38-.11,.58s.04,.39,.11,.58c.08,.2,.2,.38,.35,.53,.15,.15,.33,.27,.53,.35,.18,.07,.38,.11,.58,.11s.39-.04,.58-.11c.2-.08,.38-.2,.53-.35s.27-.33,.35-.53c.07-.18,.11-.38,.11-.58s-.04-.39-.11-.58c-.08-.2-.2-.38-.35-.53-.15-.15-.33-.27-.53-.35-.18-.07-.38-.11-.58-.11Z"/><path class="cls-2" d="M549.78,95.25c-.2,0-.39,.04-.58,.11-.2,.08-.38,.2-.53,.35-.15,.15-.27,.33-.35,.53-.07,.18-.11,.38-.11,.58s.04,.39,.11,.58c.08,.2,.2,.38,.35,.53,.15,.15,.33,.27,.53,.35,.18,.07,.38,.11,.58,.11s.39-.04,.58-.11c.2-.08,.38-.2,.53-.35,.15-.15,.27-.33,.35-.53,.07-.18,.11-.38,.11-.58s-.04-.39-.11-.58c-.08-.2-.2-.38-.35-.53-.15-.15-.33-.27-.53-.35-.18-.07-.38-.11-.58-.11Z"/><path class="cls-2" d="M549.78,141.46c-.2,0-.39,.04-.58,.11-.2,.08-.38,.2-.53,.35s-.27,.33-.35,.53c-.07,.18-.11,.38-.11,.58s.04,.39,.11,.58c.08,.2,.2,.38,.35,.53s.33,.27,.53,.35c.18,.07,.38,.11,.58,.11s.39-.04,.58-.11c.2-.08,.38-.2,.53-.35s.27-.33,.35-.53c.07-.18,.11-.38,.11-.58s-.04-.39-.11-.58c-.08-.2-.2-.38-.35-.53s-.33-.27-.53-.35c-.18-.07-.38-.11-.58-.11Z"/><path class="cls-2" d="M549.78,187.67c-.2,0-.39,.04-.58,.11-.2,.08-.38,.2-.53,.35-.15,.15-.27,.33-.35,.53-.07,.18-.11,.38-.11,.58s.04,.39,.11,.58c.08,.2,.2,.38,.35,.53,.15,.15,.33,.27,.53,.35,.18,.07,.38,.11,.58,.11s.39-.04,.58-.11c.2-.08,.38-.2,.53-.35,.15-.15,.27-.33,.35-.53,.07-.18,.11-.38,.11-.58s-.04-.39-.11-.58c-.08-.2-.2-.38-.35-.53-.15-.15-.33-.27-.53-.35-.18-.07-.38-.11-.58-.11Z"/><path class="cls-2" d="M549.78,233.88c-.2,0-.39,.04-.58,.11-.2,.08-.38,.2-.53,.35-.15,.15-.27,.33-.35,.53-.07,.18-.11,.38-.11,.58s.04,.39,.11,.58c.08,.2,.2,.38,.35,.53,.15,.15,.33,.27,.53,.35,.18,.07,.38,.11,.58,.11s.39-.04,.58-.11c.2-.08,.38-.2,.53-.35,.15-.15,.27-.33,.35-.53,.07-.18,.11-.38,.11-.58s-.04-.39-.11-.58c-.08-.2-.2-.38-.35-.53-.15-.15-.33-.27-.53-.35-.18-.07-.38-.11-.58-.11Z"/><path class="cls-2" d="M549.78,280.1c-.2,0-.39,.04-.58,.11-.2,.08-.38,.2-.53,.35s-.27,.33-.35,.53c-.07,.18-.11,.38-.11,.58s.04,.39,.11,.58c.08,.2,.2,.38,.35,.53s.33,.27,.53,.35c.18,.07,.38,.11,.58,.11s.39-.04,.58-.11c.2-.08,.38-.2,.53-.35s.27-.33,.35-.53c.07-.18,.11-.38,.11-.58s-.04-.39-.11-.58c-.08-.2-.2-.38-.35-.53s-.33-.27-.53-.35c-.18-.07-.38-.11-.58-.11Z"/><path class="cls-2" d="M549.78,326.31c-.2,0-.39,.04-.58,.11-.2,.08-.38,.2-.53,.35s-.27,.33-.35,.53c-.07,.18-.11,.38-.11,.58s.04,.39,.11,.58c.08,.2,.2,.38,.35,.53s.33,.27,.53,.35c.18,.07,.38,.11,.58,.11s.39-.04,.58-.11c.2-.08,.38-.2,.53-.35s.27-.33,.35-.53c.07-.18,.11-.38,.11-.58s-.04-.39-.11-.58c-.08-.2-.2-.38-.35-.53s-.33-.27-.53-.35c-.18-.07-.38-.11-.58-.11Z"/><path class="cls-2" d="M549.78,372.52c-.2,0-.39,.04-.58,.11-.2,.08-.38,.2-.53,.35-.15,.15-.27,.33-.35,.53-.07,.18-.11,.38-.11,.58s.04,.39,.11,.58c.08,.2,.2,.38,.35,.53,.15,.15,.33,.27,.53,.35,.18,.07,.38,.11,.58,.11s.39-.04,.58-.11c.2-.08,.38-.2,.53-.35,.15-.15,.27-.33,.35-.53,.07-.18,.11-.38,.11-.58s-.04-.39-.11-.58c-.08-.2-.2-.38-.35-.53-.15-.15-.33-.27-.53-.35-.18-.07-.38-.11-.58-.11Z"/><path class="cls-2" d="M549.78,416.04c-.2,0-.39,.04-.58,.11-.2,.08-.38,.2-.53,.35-.15,.15-.27,.33-.35,.53-.07,.18-.11,.38-.11,.58s.04,.39,.11,.58c.08,.2,.2,.38,.35,.53,.15,.15,.33,.27,.53,.35,.18,.07,.38,.11,.58,.11s.39-.04,.58-.11c.2-.08,.38-.2,.53-.35,.15-.15,.27-.33,.35-.53,.07-.18,.11-.38,.11-.58s-.04-.39-.11-.58c-.08-.2-.2-.38-.35-.53-.15-.15-.33-.27-.53-.35-.18-.07-.38-.11-.58-.11Z"/><path class="cls-2" d="M549.78,459.56c-.2,0-.39,.04-.58,.11-.2,.08-.38,.2-.53,.35s-.27,.33-.35,.53c-.07,.18-.11,.38-.11,.58s.04,.39,.11,.58c.08,.2,.2,.38,.35,.53s.33,.27,.53,.35c.18,.07,.38,.11,.58,.11s.39-.04,.58-.11c.2-.08,.38-.2,.53-.35s.27-.33,.35-.53c.07-.18,.11-.38,.11-.58s-.04-.39-.11-.58c-.08-.2-.2-.38-.35-.53s-.33-.27-.53-.35c-.18-.07-.38-.11-.58-.11Z"/><path class="cls-2" d="M549.78,503.08c-.2,0-.39,.04-.58,.11-.2,.08-.38,.2-.53,.35-.15,.15-.27,.33-.35,.53-.07,.18-.11,.38-.11,.58s.04,.39,.11,.58c.08,.2,.2,.38,.35,.53s.33,.27,.53,.35c.18,.07,.38,.11,.58,.11s.39-.04,.58-.11c.2-.08,.38-.2,.53-.35,.15-.15,.27-.33,.35-.53,.07-.18,.11-.38,.11-.58s-.04-.39-.11-.58c-.08-.2-.2-.38-.35-.53s-.33-.27-.53-.35c-.18-.07-.38-.11-.58-.11Z"/><path class="cls-2" d="M549.78,546.6c-.2,0-.39,.04-.58,.11-.2,.08-.38,.2-.53,.35-.15,.15-.27,.33-.35,.53-.07,.18-.11,.38-.11,.58s.04,.39,.11,.58c.08,.2,.2,.38,.35,.53,.15,.15,.33,.27,.53,.35,.18,.07,.38,.11,.58,.11s.39-.04,.58-.11c.2-.08,.38-.2,.53-.35,.15-.15,.27-.33,.35-.53,.07-.18,.11-.38,.11-.58s-.04-.39-.11-.58c-.08-.2-.2-.38-.35-.53-.15-.15-.33-.27-.53-.35-.18-.07-.38-.11-.58-.11Z"/><path class="cls-2" d="M549.78,590.12c-.2,0-.39,.04-.58,.11-.2,.08-.38,.2-.53,.35-.15,.15-.27,.33-.35,.53-.07,.18-.11,.38-.11,.58s.04,.39,.11,.58c.08,.2,.2,.38,.35,.53,.15,.15,.33,.27,.53,.35,.18,.07,.38,.11,.58,.11s.39-.04,.58-.11c.2-.08,.38-.2,.53-.35,.15-.15,.27-.33,.35-.53,.07-.18,.11-.38,.11-.58s-.04-.39-.11-.58c-.08-.2-.2-.38-.35-.53-.15-.15-.33-.27-.53-.35-.18-.07-.38-.11-.58-.11Z"/><path class="cls-2" d="M549.78,633.64c-.2,0-.39,.04-.58,.11-.2,.08-.38,.2-.53,.35s-.27,.33-.35,.53c-.07,.18-.11,.38-.11,.58s.04,.39,.11,.58c.08,.2,.2,.38,.35,.53s.33,.27,.53,.35c.18,.07,.38,.11,.58,.11s.39-.04,.58-.11c.2-.08,.38-.2,.53-.35s.27-.33,.35-.53c.07-.18,.11-.38,.11-.58s-.04-.39-.11-.58c-.08-.2-.2-.38-.35-.53s-.33-.27-.53-.35c-.18-.07-.38-.11-.58-.11Z"/><path class="cls-2" d="M549.78,677.16c-.2,0-.39,.04-.58,.11-.2,.08-.38,.2-.53,.35-.15,.15-.27,.33-.35,.53-.07,.18-.11,.38-.11,.58s.04,.39,.11,.58c.08,.2,.2,.38,.35,.53s.33,.27,.53,.35c.18,.07,.38,.11,.58,.11s.39-.04,.58-.11c.2-.08,.38-.2,.53-.35,.15-.15,.27-.33,.35-.53,.07-.18,.11-.38,.11-.58s-.04-.39-.11-.58c-.08-.2-.2-.38-.35-.53s-.33-.27-.53-.35c-.18-.07-.38-.11-.58-.11Z"/><path class="cls-2" d="M549.78,902.28c-.2,0-.39,.04-.58,.11-.2,.08-.38,.2-.53,.35s-.27,.33-.35,.53c-.07,.18-.11,.38-.11,.58s.04,.39,.11,.58c.08,.2,.2,.38,.35,.53s.33,.27,.53,.35c.18,.07,.38,.11,.58,.11s.39-.04,.58-.11c.2-.08,.38-.2,.53-.35s.27-.33,.35-.53c.07-.18,.11-.38,.11-.58s-.04-.39-.11-.58c-.08-.2-.2-.38-.35-.53s-.33-.27-.53-.35c-.18-.07-.38-.11-.58-.11Z"/><path class="cls-2" d="M549.78,856.88c-.2,0-.39,.04-.58,.11-.2,.08-.38,.2-.53,.35-.15,.15-.27,.33-.35,.53-.07,.18-.11,.38-.11,.58s.04,.39,.11,.58c.08,.2,.2,.38,.35,.53,.15,.15,.33,.27,.53,.35,.18,.07,.38,.11,.58,.11s.39-.04,.58-.11c.2-.08,.38-.2,.53-.35,.15-.15,.27-.33,.35-.53,.07-.18,.11-.38,.11-.58s-.04-.39-.11-.58c-.08-.2-.2-.38-.35-.53-.15-.15-.33-.27-.53-.35-.18-.07-.38-.11-.58-.11Z"/><path class="cls-2" d="M549.78,811.48c-.2,0-.39,.04-.58,.11-.2,.08-.38,.2-.53,.35-.15,.15-.27,.33-.35,.53-.07,.18-.11,.38-.11,.58s.04,.39,.11,.58c.08,.2,.2,.38,.35,.53,.15,.15,.33,.27,.53,.35,.18,.07,.38,.11,.58,.11s.39-.04,.58-.11c.2-.08,.38-.2,.53-.35,.15-.15,.27-.33,.35-.53,.07-.18,.11-.38,.11-.58s-.04-.39-.11-.58c-.08-.2-.2-.38-.35-.53-.15-.15-.33-.27-.53-.35-.18-.07-.38-.11-.58-.11Z"/><path class="cls-2" d="M549.78,766.08c-.2,0-.39,.04-.58,.11-.2,.08-.38,.2-.53,.35-.15,.15-.27,.33-.35,.53-.07,.18-.11,.38-.11,.58s.04,.39,.11,.58c.08,.2,.2,.38,.35,.53s.33,.27,.53,.35c.18,.07,.38,.11,.58,.11s.39-.04,.58-.11c.2-.08,.38-.2,.53-.35,.15-.15,.27-.33,.35-.53,.07-.18,.11-.38,.11-.58s-.04-.39-.11-.58c-.08-.2-.2-.38-.35-.53s-.33-.27-.53-.35c-.18-.07-.38-.11-.58-.11Z"/><path class="cls-2" d="M549.78,720.68c-.2,0-.39,.04-.58,.11-.2,.08-.38,.2-.53,.35-.15,.15-.27,.33-.35,.53-.07,.18-.11,.38-.11,.58s.04,.39,.11,.58c.08,.2,.2,.38,.35,.53,.15,.15,.33,.27,.53,.35,.18,.07,.38,.11,.58,.11s.39-.04,.58-.11c.2-.08,.38-.2,.53-.35,.15-.15,.27-.33,.35-.53,.07-.18,.11-.38,.11-.58s-.04-.39-.11-.58c-.08-.2-.2-.38-.35-.53-.15-.15-.33-.27-.53-.35-.18-.07-.38-.11-.58-.11Z"/><path class="cls-2" d="M468.55,938.91c-.18,0-.36,.03-.53,.1-.18,.07-.35,.18-.49,.32-.14,.14-.25,.31-.32,.49-.07,.17-.1,.35-.1,.53s.03,.36,.1,.53c.07,.18,.18,.35,.32,.49s.31,.25,.49,.32c.17,.07,.35,.1,.53,.1s.36-.03,.53-.1c.18-.07,.35-.18,.49-.32,.14-.14,.25-.31,.32-.49,.07-.17,.1-.35,.1-.53s-.03-.36-.1-.53c-.07-.18-.18-.35-.32-.49s-.31-.25-.49-.32c-.17-.07-.35-.1-.53-.1Z"/><path class="cls-2" d="M259.23,86.13c-.2,0-.39,.04-.58,.11-.2,.08-.38,.2-.53,.35-.15,.15-.27,.33-.35,.53-.07,.18-.11,.38-.11,.58s.04,.39,.11,.58c.08,.2,.2,.38,.35,.53,.15,.15,.33,.27,.53,.35,.18,.07,.38,.11,.58,.11s.39-.04,.58-.11c.2-.08,.38-.2,.53-.35,.15-.15,.27-.33,.35-.53,.07-.18,.11-.38,.11-.58s-.04-.39-.11-.58c-.08-.2-.2-.38-.35-.53-.15-.15-.33-.27-.53-.35-.18-.07-.38-.11-.58-.11Z"/><path class="cls-2" d="M298.68,86.13c-.2,0-.39,.04-.58,.11-.2,.08-.38,.2-.53,.35s-.27,.33-.35,.53c-.07,.18-.11,.38-.11,.58s.04,.39,.11,.58c.08,.2,.2,.38,.35,.53s.33,.27,.53,.35c.18,.07,.38,.11,.58,.11s.39-.04,.58-.11c.2-.08,.38-.2,.53-.35s.27-.33,.35-.53c.07-.18,.11-.38,.11-.58s-.04-.39-.11-.58c-.08-.2-.2-.38-.35-.53s-.33-.27-.53-.35c-.18-.07-.38-.11-.58-.11Z"/><path class="cls-2" d="M339.19,86.13c-.2,0-.39,.04-.58,.11-.2,.08-.38,.2-.53,.35-.15,.15-.27,.33-.35,.53-.07,.18-.11,.38-.11,.58s.04,.39,.11,.58c.08,.2,.2,.38,.35,.53,.15,.15,.33,.27,.53,.35,.18,.07,.38,.11,.58,.11s.39-.04,.58-.11c.2-.08,.38-.2,.53-.35,.15-.15,.27-.33,.35-.53,.07-.18,.11-.38,.11-.58s-.04-.39-.11-.58c-.08-.2-.2-.38-.35-.53-.15-.15-.33-.27-.53-.35-.18-.07-.38-.11-.58-.11Z"/><path class="cls-2" d="M379.71,86.13c-.2,0-.39,.04-.58,.11-.2,.08-.38,.2-.53,.35-.15,.15-.27,.33-.35,.53-.07,.18-.11,.38-.11,.58s.04,.39,.11,.58c.08,.2,.2,.38,.35,.53,.15,.15,.33,.27,.53,.35,.18,.07,.38,.11,.58,.11s.39-.04,.58-.11c.2-.08,.38-.2,.53-.35,.15-.15,.27-.33,.35-.53,.07-.18,.11-.38,.11-.58s-.04-.39-.11-.58c-.08-.2-.2-.38-.35-.53-.15-.15-.33-.27-.53-.35-.18-.07-.38-.11-.58-.11Z"/><path class="cls-2" d="M420.22,86.13c-.2,0-.39,.04-.58,.11-.2,.08-.38,.2-.53,.35-.15,.15-.27,.33-.35,.53-.07,.18-.11,.38-.11,.58s.04,.39,.11,.58c.08,.2,.2,.38,.35,.53,.15,.15,.33,.27,.53,.35,.18,.07,.38,.11,.58,.11s.39-.04,.58-.11c.2-.08,.38-.2,.53-.35,.15-.15,.27-.33,.35-.53,.07-.18,.11-.38,.11-.58s-.04-.39-.11-.58c-.08-.2-.2-.38-.35-.53-.15-.15-.33-.27-.53-.35-.18-.07-.38-.11-.58-.11Z"/><path class="cls-2" d="M460.73,86.13c-.2,0-.39,.04-.58,.11-.2,.08-.38,.2-.53,.35-.15,.15-.27,.33-.35,.53-.07,.18-.11,.38-.11,.58s.04,.39,.11,.58c.08,.2,.2,.38,.35,.53,.15,.15,.33,.27,.53,.35,.18,.07,.38,.11,.58,.11s.39-.04,.58-.11c.2-.08,.38-.2,.53-.35,.15-.15,.27-.33,.35-.53,.07-.18,.11-.38,.11-.58s-.04-.39-.11-.58c-.08-.2-.2-.38-.35-.53-.15-.15-.33-.27-.53-.35-.18-.07-.38-.11-.58-.11Z"/><path class="cls-2" d="M501.25,86.13c-.2,0-.39,.04-.58,.11-.2,.08-.38,.2-.53,.35s-.27,.33-.35,.53c-.07,.18-.11,.38-.11,.58s.04,.39,.11,.58c.08,.2,.2,.38,.35,.53s.33,.27,.53,.35c.18,.07,.38,.11,.58,.11s.39-.04,.58-.11c.2-.08,.38-.2,.53-.35s.27-.33,.35-.53c.07-.18,.11-.38,.11-.58s-.04-.39-.11-.58c-.08-.2-.2-.38-.35-.53s-.33-.27-.53-.35c-.18-.07-.38-.11-.58-.11Z"/><path class="cls-2" d="M540.7,86.13c-.2,0-.39,.04-.58,.11-.2,.08-.38,.2-.53,.35-.15,.15-.27,.33-.35,.53-.07,.18-.11,.38-.11,.58s.04,.39,.11,.58c.08,.2,.2,.38,.35,.53,.15,.15,.33,.27,.53,.35,.18,.07,.38,.11,.58,.11s.39-.04,.58-.11c.2-.08,.38-.2,.53-.35,.15-.15,.27-.33,.35-.53,.07-.18,.11-.38,.11-.58s-.04-.39-.11-.58c-.08-.2-.2-.38-.35-.53-.15-.15-.33-.27-.53-.35-.18-.07-.38-.11-.58-.11Z"/><path class="cls-2" d="M334.74,938.91c-.18,0-.36,.03-.53,.1-.18,.07-.35,.18-.49,.32-.14,.14-.25,.31-.32,.49-.07,.17-.1,.35-.1,.53s.03,.36,.1,.53c.07,.18,.18,.35,.32,.49,.14,.14,.31,.25,.49,.32,.17,.07,.35,.1,.53,.1s.36-.03,.53-.1c.18-.07,.35-.18,.49-.32s.25-.31,.32-.49c.07-.17,.1-.35,.1-.53s-.03-.36-.1-.53c-.07-.18-.18-.35-.32-.49s-.31-.25-.49-.32c-.17-.07-.35-.1-.53-.1Z"/><path class="cls-2" d="M423.94,938.91c-.18,0-.36,.03-.53,.1-.18,.07-.35,.18-.49,.32-.14,.14-.25,.31-.32,.49-.07,.17-.1,.35-.1,.53s.03,.36,.1,.53c.07,.18,.18,.35,.32,.49,.14,.14,.31,.25,.49,.32,.17,.07,.35,.1,.53,.1s.36-.03,.53-.1c.18-.07,.35-.18,.49-.32,.14-.14,.25-.31,.32-.49,.07-.17,.1-.35,.1-.53s-.03-.36-.1-.53c-.07-.18-.18-.35-.32-.49s-.31-.25-.49-.32c-.17-.07-.35-.1-.53-.1Z"/><path class="cls-2" d="M513.15,938.91c-.2,0-.39,.04-.58,.11-.2,.08-.38,.2-.53,.35s-.27,.33-.35,.53c-.07,.18-.11,.38-.11,.58s.04,.39,.11,.58c.08,.2,.2,.38,.35,.53s.33,.27,.53,.35c.18,.07,.38,.11,.58,.11s.39-.04,.58-.11c.2-.08,.38-.2,.53-.35s.27-.33,.35-.53c.07-.18,.11-.38,.11-.58s-.04-.39-.11-.58c-.08-.2-.2-.38-.35-.53s-.33-.27-.53-.35c-.18-.07-.38-.11-.58-.11Z"/><path class="cls-2" d="M290.13,938.91c-.18,0-.36,.03-.53,.1-.18,.07-.35,.18-.49,.32-.14,.14-.25,.31-.32,.49-.07,.17-.1,.35-.1,.53s.03,.36,.1,.53c.07,.18,.18,.35,.32,.49,.14,.14,.31,.25,.49,.32,.17,.07,.35,.1,.53,.1s.36-.03,.53-.1c.18-.07,.35-.18,.49-.32s.25-.31,.32-.49c.07-.17,.1-.35,.1-.53s-.03-.36-.1-.53c-.07-.18-.18-.35-.32-.49-.14-.14-.31-.25-.49-.32-.17-.07-.35-.1-.53-.1Z"/><path class="cls-2" d="M379.34,938.91c-.18,0-.36,.03-.53,.1-.18,.07-.35,.18-.49,.32-.14,.14-.25,.31-.32,.49-.07,.17-.1,.35-.1,.53s.03,.36,.1,.53c.07,.18,.18,.35,.32,.49,.14,.14,.31,.25,.49,.32,.17,.07,.35,.1,.53,.1s.36-.03,.53-.1c.18-.07,.35-.18,.49-.32,.14-.14,.25-.31,.32-.49,.07-.17,.1-.35,.1-.53s-.03-.36-.1-.53c-.07-.18-.18-.35-.32-.49s-.31-.25-.49-.32c-.17-.07-.35-.1-.53-.1Z"/><path class="cls-2" d="M250.15,95.25c-.2,0-.39,.04-.58,.11-.2,.08-.38,.2-.53,.35-.15,.15-.27,.33-.35,.53-.07,.18-.11,.38-.11,.58s.04,.39,.11,.58c.08,.2,.2,.38,.35,.53,.15,.15,.33,.27,.53,.35,.18,.07,.38,.11,.58,.11s.39-.04,.58-.11c.2-.08,.38-.2,.53-.35,.15-.15,.27-.33,.35-.53,.07-.18,.11-.38,.11-.58s-.04-.39-.11-.58c-.08-.2-.2-.38-.35-.53-.15-.15-.33-.27-.53-.35-.18-.07-.38-.11-.58-.11Z"/><path class="cls-2" d="M250.15,141.46c-.2,0-.39,.04-.58,.11-.2,.08-.38,.2-.53,.35s-.27,.33-.35,.53c-.07,.18-.11,.38-.11,.58s.04,.39,.11,.58c.08,.2,.2,.38,.35,.53s.33,.27,.53,.35c.18,.07,.38,.11,.58,.11s.39-.04,.58-.11c.2-.08,.38-.2,.53-.35s.27-.33,.35-.53c.07-.18,.11-.38,.11-.58s-.04-.39-.11-.58c-.08-.2-.2-.38-.35-.53s-.33-.27-.53-.35c-.18-.07-.38-.11-.58-.11Z"/><path class="cls-2" d="M250.15,233.88c-.2,0-.39,.04-.58,.11-.2,.08-.38,.2-.53,.35-.15,.15-.27,.33-.35,.53-.07,.18-.11,.38-.11,.58s.04,.39,.11,.58c.08,.2,.2,.38,.35,.53,.15,.15,.33,.27,.53,.35,.18,.07,.38,.11,.58,.11s.39-.04,.58-.11c.2-.08,.38-.2,.53-.35,.15-.15,.27-.33,.35-.53,.07-.18,.11-.38,.11-.58s-.04-.39-.11-.58c-.08-.2-.2-.38-.35-.53-.15-.15-.33-.27-.53-.35-.18-.07-.38-.11-.58-.11Z"/></g></g><g id="Window_Door_Stairs"><path class="cls-3" d="M283.41,487.62c1.92,3.24,4.35,6.17,7.16,8.67,2.81,2.5,6,4.59,9.44,6.11"/><path class="cls-3" d="M286.69,483.92c1.78,3.35,4.15,6.36,6.99,8.88,2.84,2.52,6.11,4.51,9.66,5.87"/><line class="cls-3" x1="294.29" y1="91.18" x2="294.29" y2="54.54"/><line class="cls-3" x1="516.47" y1="789.24" x2="504.72" y2="824.93"/><line class="cls-3" x1="521.82" y1="791" x2="510.08" y2="826.69"/><line class="cls-3" x1="484.51" y1="886.34" x2="497.77" y2="846.05"/><line class="cls-3" x1="470.17" y1="929.91" x2="483.43" y2="889.61"/><line class="cls-3" x1="363.73" y1="900.8" x2="328.04" y2="889.05"/><line class="cls-3" x1="365.49" y1="895.45" x2="329.8" y2="883.7"/><path class="cls-3" d="M490.94,698.75c17.01-51.53,30.14-104.26,39.38-157.74,9.24-53.47,14.56-107.55,16.02-161.8"/><line class="cls-3" x1="540.39" y1="379.22" x2="416.25" y2="379.22"/><polyline class="cls-3" points="298.76 737.69 309.64 704.64 321.35 669.04 328.1 648.53"/><polyline class="cls-3" points="293.55 735.98 304.43 702.92 316.14 667.33 322.9 646.81"/><line class="cls-3" x1="381.08" y1="97.12" x2="418.65" y2="97.12"/><line class="cls-3" x1="540.39" y1="91.18" x2="502.81" y2="91.18"/><line class="cls-3" x1="322.12" y1="649.16" x2="322.52" y2="647.97"/><line class="cls-3" x1="327.33" y1="650.88" x2="327.72" y2="649.69"/><polyline class="cls-3" points="292.95 541.82 285.77 505.56 255.8 511.5"/><line class="cls-3" x1="257.19" y1="520.64" x2="287.57" y2="514.63"/><line class="cls-3" x1="258.98" y1="529.7" x2="289.36" y2="523.69"/><line class="cls-3" x1="261.29" y1="538.66" x2="291.15" y2="532.75"/><line class="cls-3" x1="264.16" y1="547.51" x2="292.95" y2="541.81"/><line class="cls-3" x1="532.85" y1="679.59" x2="500.33" y2="668.89"/><line class="cls-3" x1="523.06" y1="709.33" x2="532.85" y2="679.59"/><line class="cls-3" x1="515.03" y1="706.68" x2="524.82" y2="676.95"/><line class="cls-3" x1="507" y1="704.04" x2="516.79" y2="674.31"/><line class="cls-3" x1="498.97" y1="701.4" x2="508.76" y2="671.66"/><line class="cls-3" x1="253.59" y1="91.18" x2="253.59" y2="54.54"/><line class="cls-3" x1="263.77" y1="91.18" x2="263.77" y2="54.54"/><line class="cls-3" x1="273.94" y1="91.18" x2="273.94" y2="54.54"/><line class="cls-3" x1="284.12" y1="91.18" x2="284.12" y2="54.54"/><polyline class="cls-3" points="253.59 91.18 253.59 54.54 546.33 54.54 546.33 91.18"/><polyline class="cls-3" points="317.14 433.5 276.72 428.75 282.54 379.22"/><line class="cls-3" x1="286.82" y1="429.93" x2="292.79" y2="379.22"/><line class="cls-3" x1="296.93" y1="431.16" x2="303.04" y2="379.22"/><line class="cls-3" x1="307.03" y1="432.35" x2="313.28" y2="379.22"/><line class="cls-3" x1="251.71" y1="96.81" x2="253.59" y2="96.81"/><line class="cls-3" x1="251.71" y1="189.24" x2="253.59" y2="189.24"/><line class="cls-3" x1="251.71" y1="281.66" x2="253.59" y2="281.66"/><line class="cls-3" x1="251.71" y1="374.09" x2="253.59" y2="374.09"/><line class="cls-3" x1="548.21" y1="96.81" x2="546.33" y2="96.81"/><line class="cls-3" x1="548.21" y1="189.24" x2="546.33" y2="189.24"/><line class="cls-3" x1="548.21" y1="281.66" x2="546.33" y2="281.66"/><line class="cls-3" x1="469" y1="938.98" x2="470.05" y2="935.8"/><path class="cls-3" d="M371.8,439.93c1.82-20.2,3.12-40.44,3.9-60.71"/><path class="cls-3" d="M366.35,439.35c1.88-20.02,3.11-40.09,3.7-60.19"/><path class="cls-3" d="M328.1,648.53c9.79-29.51,18.09-59.49,24.87-89.83"/><path class="cls-3" d="M322.9,646.81c9.73-29.34,17.98-59.14,24.73-89.3"/><line class="cls-3" x1="381.27" y1="91.18" x2="418.65" y2="91.18"/><line class="cls-3" x1="489.86" y1="888.11" x2="503.12" y2="847.81"/><line class="cls-3" x1="475.52" y1="931.67" x2="488.79" y2="891.38"/><line class="cls-3" x1="548.21" y1="374.09" x2="546.33" y2="374.09"/><line class="cls-3" x1="548.29" y1="721.76" x2="544.97" y2="720.67"/><line class="cls-3" x1="317.14" y1="433.54" x2="323.53" y2="379.22"/><line class="cls-3" x1="415.37" y1="91.18" x2="416.3" y2="91.18"/><line class="cls-3" x1="259.54" y1="91.18" x2="298.68" y2="91.18"/><line class="cls-3" x1="407.94" y1="680.33" x2="433.22" y2="688.66"/><line class="cls-3" x1="253.59" y1="450.43" x2="253.59" y2="379.22"/><path class="cls-3" d="M256.25,514.83c-.03-.22-.06-.43-.09-.65-.34-2.45-.64-4.91-.89-7.37-.25-2.46-.47-4.93-.65-7.41-.18-2.47-.33-4.95-.45-7.43-.12-2.48-.21-4.96-.28-7.45s-.12-4.97-.15-7.46c-.06-4.25-.07-8.5-.07-12.76,0-1.39,0-2.78-.08-13.88"/><line class="cls-3" x1="298.68" y1="97.12" x2="259.54" y2="97.12"/><line class="cls-3" x1="502.81" y1="97.12" x2="540.39" y2="97.12"/><line class="cls-3" x1="540.39" y1="372.96" x2="416.25" y2="372.96"/><line class="cls-3" x1="410.59" y1="672.3" x2="435.87" y2="680.63"/><path class="cls-3" d="M253.67,864.59v-83.42c0-.14,0-2.85,0-5.56,0-1.13,0-2.26,.02-3.39,0-1.54,.02-3.08,.04-4.61,.02-1.99,.06-3.99,.1-5.98,.04-1.54,.08-3.08,.13-4.61,.03-.92,.07-1.85,.1-2.77,.06-1.57,.14-3.13,.22-4.69,.09-1.56,.18-3.13,.29-4.69,.11-1.57,.24-3.13,.38-4.69,.14-1.57,.3-3.14,.47-4.71,.09-.78,.18-1.56,.27-2.34,.09-.78,.19-1.56,.3-2.34,.1-.78,.21-1.56,.32-2.34,.11-.78,.23-1.56,.35-2.34,.25-1.57,.51-3.13,.8-4.69,.14-.78,.29-1.56,.45-2.34,.15-.78,.31-1.55,.48-2.33,.16-.78,.34-1.55,.51-2.32,.18-.78,.36-1.56,.55-2.33,.19-.78,.39-1.56,.59-2.34,.22-.86,.46-1.73,.7-2.59,.26-.93,.53-1.85,.8-2.78,.08-.28,.17-.56,.25-.84,.11-.35,.21-.69,.32-1.04,.12-.39,.24-.78,.37-1.16,.13-.39,.25-.79,.38-1.18,.08-.24,.16-.48,.24-.72,.13-.39,.26-.78,.39-1.17,.27-.78,.54-1.56,.81-2.34,.28-.78,.56-1.57,.85-2.35,.29-.79,.58-1.57,.87-2.35,.3-.79,.6-1.57,.9-2.36,.3-.79,.61-1.58,.92-2.36,.4-1.01,.8-2.02,1.2-3.03,.3-.76,.61-1.52,.91-2.27,.31-.77,.62-1.53,.93-2.3,.68-1.68,1.36-3.35,2.04-5.03,.39-.97,.78-1.94,1.17-2.91,.28-.7,.56-1.4,.84-2.11,.32-.8,.63-1.6,.95-2.41,.31-.8,.62-1.59,.92-2.39,.3-.8,.61-1.59,.9-2.39,.3-.8,.59-1.6,.88-2.41,.29-.8,.58-1.61,.86-2.41,.28-.8,.56-1.61,.83-2.41,.27-.8,.53-1.61,.79-2.42,.26-.81,.51-1.61,.75-2.42,.26-.85,.51-1.71,.75-2.57,.25-.87,.48-1.75,.71-2.62,.21-.81,.42-1.63,.61-2.45,.19-.81,.38-1.63,.55-2.44,.17-.81,.34-1.63,.49-2.45,.08-.43,.16-.87,.24-1.3,.14-.82,.28-1.63,.4-2.45,.12-.82,.23-1.64,.33-2.46,.1-.83,.18-1.65,.26-2.48,.07-.82,.13-1.65,.18-2.48,.05-.83,.08-1.65,.09-2.48,0-.3,.01-.6,.01-.91,0-.21,0-.41,0-.62,0-.26,0-.52,0-.78,0-.41-.01-.83-.03-1.24-.02-.83-.06-1.65-.11-2.48-.05-.83-.12-1.65-.19-2.48-.08-.83-.17-1.65-.27-2.47-.07-.53-.14-1.05-.21-1.58-.12-.82-.25-1.64-.39-2.46-.14-.82-.29-1.64-.45-2.45-.16-.82-.33-1.63-.51-2.44-.18-.82-.37-1.63-.57-2.44-.17-.68-.34-1.37-.52-2.05-.19-.74-.4-1.47-.6-2.21-.23-.81-.47-1.62-.71-2.43-.24-.81-.49-1.62-.75-2.42-.26-.81-.52-1.62-.79-2.42-.27-.81-.55-1.61-.83-2.42-.28-.8-.57-1.61-.85-2.41-.29-.8-.58-1.6-.88-2.4-.3-.8-.6-1.6-.9-2.39-.3-.8-.61-1.59-.92-2.39-.31-.8-.63-1.6-.94-2.4-.57-1.45-1.15-2.89-1.73-4.34-.95-2.36-1.91-4.72-2.87-7.08-.4-.98-.79-1.96-1.18-2.95-.42-1.05-.84-2.1-1.25-3.16-.31-.79-.62-1.57-.92-2.36-.3-.78-.6-1.57-.9-2.35-.3-.78-.59-1.57-.88-2.35-.29-.78-.57-1.57-.85-2.35-.28-.78-.55-1.56-.82-2.34-.37-1.07-.72-2.13-1.07-3.21-.24-.74-.47-1.47-.69-2.21-.09-.29-.18-.58-.26-.87-.09-.31-.18-.62-.27-.92-.15-.52-.3-1.05-.45-1.57-.25-.89-.49-1.79-.73-2.68-.2-.78-.4-1.56-.93-3.82-.58-2.47-1.55-6.7-2.93-15.74"/></g><g id="Accessory"><line class="cls-4" x1="371.52" y1="784.83" x2="310.2" y2="764.52"/><line class="cls-4" x1="376.64" y1="332.88" x2="376.64" y2="331.47"/><line class="cls-4" x1="409.2" y1="332.88" x2="409.2" y2="331.47"/><line class="cls-4" x1="366.61" y1="456.66" x2="341.36" y2="453.69"/><line class="cls-4" x1="363.27" y1="483.06" x2="283.47" y2="473.68"/><line class="cls-4" x1="341.36" y1="453.69" x2="291.81" y2="447.86"/><line class="cls-4" x1="431.59" y1="331.47" x2="431.74" y2="331.47"/><rect class="cls-4" x="467.12" y="254.3" width="32.87" height="77.18"/><line class="cls-4" x1="375.07" y1="341.65" x2="375.07" y2="331.47"/><line class="cls-4" x1="410.76" y1="341.65" x2="410.76" y2="331.47"/><line class="cls-4" x1="287.73" y1="753.84" x2="292.53" y2="739.27"/><line class="cls-4" x1="376.64" y1="218.92" x2="409.2" y2="218.92"/><line class="cls-4" x1="376.64" y1="227.68" x2="409.2" y2="227.68"/><line class="cls-4" x1="376.64" y1="236.45" x2="409.2" y2="236.45"/><line class="cls-4" x1="376.64" y1="245.22" x2="409.2" y2="245.22"/><line class="cls-4" x1="433.05" y1="801.34" x2="477.07" y2="815.83"/><line class="cls-4" x1="376.64" y1="253.98" x2="409.2" y2="253.98"/><line class="cls-4" x1="376.64" y1="262.75" x2="409.2" y2="262.75"/><line class="cls-4" x1="376.64" y1="271.52" x2="409.2" y2="271.52"/><line class="cls-4" x1="376.64" y1="280.28" x2="409.2" y2="280.28"/><polyline class="cls-4" points="412.96 331.47 431.74 331.47 431.74 138.92 412.96 138.92"/><line class="cls-4" x1="376.64" y1="289.05" x2="409.2" y2="289.05"/><line class="cls-4" x1="376.64" y1="297.82" x2="409.2" y2="297.82"/><line class="cls-4" x1="376.64" y1="306.58" x2="409.2" y2="306.58"/><line class="cls-4" x1="376.64" y1="315.35" x2="409.2" y2="315.35"/><line class="cls-4" x1="376.64" y1="324.12" x2="409.2" y2="324.12"/><line class="cls-4" x1="376.64" y1="332.88" x2="409.2" y2="332.88"/><line class="cls-4" x1="375.07" y1="341.65" x2="410.76" y2="341.65"/></g><g id="TEXT"><g><path d="M32.7,1029.6h-5.8v-1.12h2.34v-8.56l-2.2,1.1v-1.28l2.38-1.23h1.1v9.97h2.18v1.12Z"/><path d="M66.15,1029.6h-1.62l-3.73-5.41-1.16,1.27v4.14h-1.28v-11.02h1.28v5.28l4.89-5.28h1.48l-4.3,4.66,4.45,6.37Z"/><path d="M72.26,1029.6h-1.22v-7.09h-2.4v-1.05h3.62v8.14Zm-.59-11.22c.23,0,.42,.08,.59,.25,.16,.16,.24,.36,.24,.59s-.08,.44-.24,.6c-.16,.16-.36,.24-.59,.24-.21,0-.4-.08-.57-.25s-.25-.37-.25-.59,.08-.42,.25-.59,.35-.25,.57-.25Z"/><path d="M83.97,1029.24c-.82,.38-1.62,.56-2.41,.56-1.45,0-2.18-.77-2.18-2.3v-4.98h-1.56v-1.05h1.56v-2.23h1.19v2.23h2.77v1.05h-2.77v4.66c0,.5,.11,.88,.33,1.15s.52,.41,.89,.41c.67,0,1.33-.15,1.98-.45l.21,.95Z"/><path d="M93.46,1029.33c-.71,.32-1.49,.48-2.34,.48-1.28,0-2.3-.39-3.07-1.17-.76-.78-1.14-1.81-1.14-3.11s.38-2.33,1.15-3.11c.77-.78,1.78-1.17,3.03-1.17,.82,0,1.6,.14,2.34,.43l-.32,1.01c-.74-.25-1.41-.38-2-.38-.9,0-1.61,.29-2.13,.87s-.79,1.36-.79,2.35c0,.91,.27,1.67,.81,2.29,.54,.62,1.25,.93,2.12,.93,.69,0,1.4-.13,2.12-.4l.21,.98Z"/><path d="M103.09,1029.6h-1.22v-5.22c0-.72-.12-1.25-.35-1.57-.23-.33-.6-.49-1.09-.49-.75,0-1.54,.46-2.4,1.39v5.89h-1.22v-11.02h1.22v4.08c.88-.93,1.8-1.39,2.77-1.39,1.53,0,2.29,.92,2.29,2.77v5.57Z"/><path d="M112.94,1025.57h-5.59c0,.92,.27,1.68,.8,2.28,.53,.6,1.19,.9,1.96,.9s1.5-.13,2.29-.4l.21,.98c-.72,.32-1.56,.48-2.52,.48-1.21,0-2.18-.39-2.92-1.16-.74-.78-1.11-1.82-1.11-3.14s.33-2.32,1-3.09,1.52-1.15,2.57-1.15c.94,0,1.72,.36,2.35,1.07,.63,.71,.95,1.66,.95,2.85v.38Zm-1.33-.99c0-.64-.2-1.17-.59-1.61-.4-.43-.84-.65-1.33-.65-.63,0-1.15,.21-1.57,.62s-.64,.96-.69,1.63h4.18Z"/><path d="M122.3,1029.6h-1.22v-5.22c0-.72-.12-1.25-.35-1.57-.23-.33-.6-.49-1.09-.49-.75,0-1.54,.46-2.4,1.39v5.89h-1.22v-8.14h1.22v1.2c.88-.93,1.8-1.39,2.77-1.39,1.53,0,2.29,.92,2.29,2.77v5.57Z"/><path d="M32.41,1051.6h-6.06v-.93c1.54-1.71,2.53-2.86,2.99-3.45,.46-.58,.83-1.2,1.12-1.84,.29-.64,.43-1.28,.43-1.91s-.19-1.1-.56-1.45c-.37-.35-.89-.53-1.57-.53-.52,0-1.21,.16-2.08,.48l-.18-1.1c.79-.33,1.61-.5,2.47-.5,.98,0,1.78,.28,2.38,.83s.9,1.3,.9,2.22c0,.66-.16,1.32-.46,1.97-.31,.65-.71,1.28-1.19,1.88s-1.43,1.67-2.83,3.22h4.64v1.12Z"/><path d="M64.73,1051.6h-6v-11.02h1.28v9.91h4.72v1.12Z"/><path d="M72.26,1051.6h-1.22v-7.09h-2.4v-1.05h3.62v8.14Zm-.59-11.22c.23,0,.42,.08,.59,.25,.16,.16,.24,.36,.24,.59s-.08,.44-.24,.6c-.16,.16-.36,.24-.59,.24-.21,0-.4-.08-.57-.25s-.25-.37-.25-.59,.08-.42,.25-.59,.35-.25,.57-.25Z"/><path d="M84.26,1043.46l-3.09,8.14h-1.11l-3.07-8.14h1.33l2.3,6.48,2.3-6.48h1.33Z"/><path d="M91.46,1051.6h-1.22v-7.09h-2.4v-1.05h3.62v8.14Zm-.59-11.22c.23,0,.42,.08,.59,.25,.16,.16,.24,.36,.24,.59s-.08,.44-.24,.6c-.16,.16-.36,.24-.59,.24-.21,0-.4-.08-.57-.25s-.25-.37-.25-.59,.08-.42,.25-.59,.35-.25,.57-.25Z"/><path d="M103.09,1051.6h-1.22v-5.22c0-.72-.12-1.25-.35-1.57-.23-.33-.6-.49-1.09-.49-.75,0-1.54,.46-2.4,1.39v5.89h-1.22v-8.14h1.22v1.2c.88-.93,1.8-1.39,2.77-1.39,1.53,0,2.29,.92,2.29,2.77v5.57Z"/><path d="M108.68,1048.53c-.76,.37-1.14,.7-1.14,.98,0,.15,.09,.28,.26,.38,.17,.1,.41,.16,.71,.16l2.74-.08c.65,0,1.16,.16,1.52,.48,.36,.32,.54,.77,.54,1.35,0,.92-.41,1.66-1.23,2.2-.82,.55-1.78,.82-2.88,.82-.9,0-1.64-.19-2.21-.57-.57-.38-.86-.87-.86-1.46,0-.65,.44-1.2,1.33-1.65-.73-.34-1.1-.77-1.1-1.27,0-.57,.47-1.11,1.42-1.6-.44-.27-.77-.61-1.01-1.03s-.35-.87-.35-1.34c0-.77,.26-1.39,.78-1.89,.52-.49,1.17-.74,1.95-.74,.56,0,1.07,.12,1.52,.35l2.41-.37v1.19h-1.55c.23,.41,.35,.9,.35,1.45,0,.74-.26,1.36-.77,1.88s-1.17,.77-1.96,.77c-.17,0-.33,0-.48-.02Zm.52,5.34c.8,0,1.49-.18,2.05-.54,.56-.36,.85-.8,.85-1.32s-.4-.81-1.2-.81c-.27,0-.72,.02-1.38,.05-.41,.02-.73,.03-.97,.03-.11,0-.29,.09-.54,.28s-.43,.38-.55,.57c-.13,.19-.19,.39-.19,.59,0,.32,.18,.59,.53,.82,.35,.23,.82,.34,1.4,.34Zm-.05-6.27c.45,0,.81-.16,1.1-.46,.28-.31,.43-.71,.43-1.21,0-.53-.14-.94-.41-1.23-.28-.3-.65-.45-1.11-.45-.43,0-.8,.16-1.09,.46-.29,.31-.44,.71-.44,1.21s.15,.89,.44,1.21c.29,.32,.66,.47,1.09,.47Z"/><path d="M30.23,1067.68c.67,.19,1.21,.53,1.62,1.03s.61,1.06,.61,1.68c0,.97-.38,1.78-1.13,2.44-.76,.66-1.65,.99-2.67,.99-.88,0-1.66-.19-2.35-.58l.25-1.05c.72,.34,1.44,.51,2.15,.51,.67,0,1.24-.21,1.71-.62,.47-.41,.71-.95,.71-1.6s-.25-1.16-.76-1.56c-.51-.4-1.17-.6-2.01-.6h-.34v-1.05h.09c.8,0,1.46-.19,1.98-.57,.52-.38,.78-.89,.78-1.53,0-.52-.19-.93-.56-1.22s-.89-.44-1.55-.44c-.57,0-1.2,.15-1.91,.46l-.17-1.1c.71-.32,1.42-.48,2.14-.48,.98,0,1.8,.26,2.43,.78,.64,.52,.96,1.18,.96,2,0,.56-.19,1.09-.58,1.57-.39,.49-.86,.79-1.4,.92v.05Z"/><path d="M58.37,1062.58h2.17c1.44,0,2.6,.49,3.47,1.47,.87,.98,1.3,2.33,1.3,4.04s-.44,3.11-1.32,4.07-2.01,1.44-3.39,1.44h-2.23v-11.02Zm1.28,9.91h.91c1.05,0,1.88-.39,2.48-1.16s.91-1.85,.91-3.23-.31-2.44-.92-3.22c-.61-.78-1.44-1.18-2.48-1.18h-.91v8.79Z"/><path d="M72.26,1073.6h-1.22v-7.09h-2.4v-1.05h3.62v8.14Zm-.59-11.22c.23,0,.42,.08,.59,.25,.16,.16,.24,.36,.24,.59s-.08,.44-.24,.6c-.16,.16-.36,.24-.59,.24-.21,0-.4-.08-.57-.25s-.25-.37-.25-.59,.08-.42,.25-.59,.35-.25,.57-.25Z"/><path d="M83.89,1073.6h-1.22v-5.22c0-.72-.12-1.25-.35-1.57-.23-.33-.6-.49-1.09-.49-.75,0-1.54,.46-2.4,1.39v5.89h-1.22v-8.14h1.22v1.2c.88-.93,1.8-1.39,2.77-1.39,1.53,0,2.29,.92,2.29,2.77v5.57Z"/><path d="M91.46,1073.6h-1.22v-7.09h-2.4v-1.05h3.62v8.14Zm-.59-11.22c.23,0,.42,.08,.59,.25,.16,.16,.24,.36,.24,.59s-.08,.44-.24,.6c-.16,.16-.36,.24-.59,.24-.21,0-.4-.08-.57-.25s-.25-.37-.25-.59,.08-.42,.25-.59,.35-.25,.57-.25Z"/><path d="M103.09,1073.6h-1.22v-5.22c0-.72-.12-1.25-.35-1.57-.23-.33-.6-.49-1.09-.49-.75,0-1.54,.46-2.4,1.39v5.89h-1.22v-8.14h1.22v1.2c.88-.93,1.8-1.39,2.77-1.39,1.53,0,2.29,.92,2.29,2.77v5.57Z"/><path d="M108.68,1070.53c-.76,.37-1.14,.7-1.14,.98,0,.15,.09,.28,.26,.38,.17,.1,.41,.16,.71,.16l2.74-.08c.65,0,1.16,.16,1.52,.48,.36,.32,.54,.77,.54,1.35,0,.92-.41,1.66-1.23,2.2-.82,.55-1.78,.82-2.88,.82-.9,0-1.64-.19-2.21-.57-.57-.38-.86-.87-.86-1.46,0-.65,.44-1.2,1.33-1.65-.73-.34-1.1-.77-1.1-1.27,0-.57,.47-1.11,1.42-1.6-.44-.27-.77-.61-1.01-1.03s-.35-.87-.35-1.34c0-.77,.26-1.39,.78-1.89,.52-.49,1.17-.74,1.95-.74,.56,0,1.07,.12,1.52,.35l2.41-.37v1.19h-1.55c.23,.41,.35,.9,.35,1.45,0,.74-.26,1.36-.77,1.88s-1.17,.77-1.96,.77c-.17,0-.33,0-.48-.02Zm.52,5.34c.8,0,1.49-.18,2.05-.54,.56-.36,.85-.8,.85-1.32s-.4-.81-1.2-.81c-.27,0-.72,.02-1.38,.05-.41,.02-.73,.03-.97,.03-.11,0-.29,.09-.54,.28s-.43,.38-.55,.57c-.13,.19-.19,.39-.19,.59,0,.32,.18,.59,.53,.82,.35,.23,.82,.34,1.4,.34Zm-.05-6.27c.45,0,.81-.16,1.1-.46,.28-.31,.43-.71,.43-1.21,0-.53-.14-.94-.41-1.23-.28-.3-.65-.45-1.11-.45-.43,0-.8,.16-1.09,.46-.29,.31-.44,.71-.44,1.21s.15,.89,.44,1.21c.29,.32,.66,.47,1.09,.47Z"/><path d="M33.13,1093.06h-1.36v2.55h-1.28v-2.55h-4.8v-.98l4.35-7.5h1.73v7.36h1.36v1.12Zm-2.64-1.12v-6.09l-3.5,6.09h3.5Z"/><path d="M64.73,1095.6h-6v-11.02h1.28v9.91h4.72v1.12Z"/><path d="M74.49,1095.6h-1.21c-.1-.33-.15-.77-.15-1.31-.69,1.02-1.64,1.52-2.83,1.52-.6,0-1.14-.21-1.6-.64s-.69-.98-.69-1.66c0-.4,.08-.75,.24-1.06,.16-.31,.4-.57,.71-.78s.69-.38,1.14-.5c.45-.12,.98-.21,1.59-.25l1.37-.11v-.39c0-1.4-.65-2.09-1.95-2.09-.31,0-.7,.07-1.17,.2-.47,.13-.88,.29-1.21,.47l-.32-.88c1.11-.57,2.14-.85,3.09-.85,1.85,0,2.78,.98,2.78,2.95v3.5c0,.71,.07,1.34,.2,1.89Zm-1.42-2.41v-1.48c-1.1,.1-1.85,.19-2.26,.28-.41,.09-.76,.25-1.06,.48-.3,.23-.45,.55-.45,.95,0,.36,.13,.66,.38,.88,.25,.22,.58,.34,.98,.34,.43,0,.86-.13,1.29-.39,.43-.26,.8-.61,1.12-1.07Z"/><path d="M83.87,1095.6h-1.22v-1.2c-.88,.93-1.8,1.4-2.77,1.4-1.53,0-2.29-.92-2.29-2.77v-5.56h1.22v5.21c0,.69,.11,1.21,.33,1.55s.59,.51,1.11,.51c.74,0,1.54-.46,2.4-1.39v-5.88h1.22v8.14Z"/><path d="M93.49,1095.6h-1.22v-5.22c0-.72-.12-1.25-.35-1.57-.23-.33-.6-.49-1.09-.49-.75,0-1.54,.46-2.4,1.39v5.89h-1.22v-8.14h1.22v1.2c.88-.93,1.8-1.39,2.77-1.39,1.53,0,2.29,.92,2.29,2.77v5.57Z"/><path d="M103.06,1095.6h-1.22v-1.17c-.25,.4-.61,.73-1.07,.99-.47,.26-.96,.39-1.47,.39-.93,0-1.67-.42-2.21-1.25-.54-.83-.81-1.88-.81-3.16,0-1.19,.28-2.18,.85-2.96,.56-.78,1.31-1.18,2.25-1.18,1.03,0,1.85,.42,2.48,1.25v-3.94h1.22v11.02Zm-1.22-2.49v-3.38c-.58-.94-1.29-1.41-2.11-1.41-.67,0-1.2,.3-1.59,.89s-.59,1.35-.59,2.26,.18,1.71,.55,2.32,.87,.92,1.51,.92c.31,0,.62-.08,.93-.25s.61-.42,.88-.75c.28-.33,.41-.54,.41-.61Z"/><path d="M112.82,1087.68l-.49,1.17c-.54-.23-1-.35-1.39-.35-.36,0-.71,.1-1.05,.31s-.66,.5-.95,.88-.43,.6-.43,.64v5.27h-1.21v-8.14h1.21v1.65c.65-1.23,1.49-1.84,2.53-1.84,.61,0,1.21,.14,1.79,.41Z"/><path d="M122.66,1087.46l-3.09,8.14c-.45,1.2-.89,2.03-1.33,2.51-.44,.47-.94,.71-1.5,.71-.5,0-1-.09-1.48-.27l.2-.98c.4,.12,.75,.19,1.06,.19,.44,0,.8-.17,1.08-.51s.56-.89,.85-1.66l-3.05-8.12h1.33l2.3,6.49,2.3-6.49h1.33Z"/></g><g><path d="M200.69,1023.03c.35-.09,.7-.14,1.04-.14,1.04,0,1.86,.32,2.47,.96,.6,.64,.91,1.43,.91,2.39,0,1-.35,1.85-1.05,2.54s-1.56,1.04-2.57,1.04-1.77-.16-2.42-.48l.26-1.09c.71,.3,1.44,.45,2.2,.45,.67,0,1.21-.22,1.63-.65s.62-1.04,.62-1.81c0-.73-.2-1.3-.59-1.7s-.89-.59-1.51-.59c-.45,0-.89,.09-1.33,.26l-.77-.35v-5.27h5.04v1.12h-3.92v3.33Z"/><path d="M238.56,1018.58l-1.41,11.02h-1.19l-1.88-6.21-1.87,6.21h-1.22l-1.38-11.02h1.27l.93,8.96,1.62-5.42h1.28l1.63,5.44,.95-8.98h1.25Z"/><path d="M247.26,1028.92c-.86,.6-1.87,.9-3.01,.9-1.43,0-2.51-.49-3.25-1.47s-1.11-2.4-1.11-4.25,.36-3.19,1.08-4.21,1.81-1.52,3.29-1.52c.53,0,1.06,.07,1.58,.2,.52,.14,.94,.32,1.26,.54l-.42,1.01c-.73-.42-1.54-.62-2.41-.62-1.02,0-1.77,.37-2.27,1.11-.5,.74-.74,1.9-.74,3.5,0,3.06,1,4.59,3.01,4.59,.85,0,1.72-.26,2.61-.78l.4,1.01Z"/><path d="M200.13,1045.86c.69-.56,1.43-.84,2.24-.84,.93,0,1.71,.3,2.33,.89,.62,.6,.93,1.37,.93,2.31,0,1.04-.28,1.89-.83,2.57-.55,.68-1.29,1.02-2.21,1.02-1.18,0-2.11-.54-2.8-1.62s-1.03-2.4-1.03-3.96c0-1.67,.36-3.06,1.07-4.18,.72-1.12,1.7-1.68,2.94-1.68,.86,0,1.6,.13,2.23,.38l-.2,1.14c-.72-.27-1.39-.4-1.98-.4-.85,0-1.51,.41-1.98,1.22-.47,.81-.71,1.86-.71,3.15Zm.04,1.1c0,.94,.22,1.8,.66,2.57,.44,.77,1,1.16,1.67,1.16,.57,0,1-.21,1.31-.62,.31-.42,.46-.99,.46-1.73,0-.68-.17-1.21-.51-1.6-.34-.39-.82-.59-1.43-.59-.8,0-1.52,.27-2.17,.81Z"/><path d="M235.42,1045.56c.73,.17,1.31,.5,1.73,1,.42,.5,.62,1.08,.62,1.77,0,1-.36,1.8-1.09,2.39s-1.6,.89-2.62,.89h-3.13v-11.02h3.05c1.06,0,1.89,.23,2.49,.7,.6,.47,.9,1.12,.9,1.97,0,.52-.17,.98-.52,1.39-.35,.41-.82,.7-1.43,.88v.03Zm-3.21-.59h1.5c1.57,0,2.35-.56,2.35-1.68,0-.51-.19-.9-.58-1.18-.39-.27-.95-.41-1.7-.41h-1.58v3.27Zm0,5.52h1.45c.85,0,1.52-.19,2.02-.58,.5-.39,.75-.91,.75-1.59,0-.71-.25-1.27-.73-1.66-.49-.39-1.2-.59-2.12-.59h-1.36v4.41Z"/><path d="M247.09,1047.57h-5.59c0,.92,.27,1.68,.8,2.28,.53,.6,1.19,.9,1.96,.9s1.5-.13,2.29-.4l.21,.98c-.72,.32-1.56,.48-2.52,.48-1.21,0-2.18-.39-2.92-1.16-.74-.78-1.11-1.82-1.11-3.14s.33-2.32,1-3.09,1.52-1.15,2.57-1.15c.94,0,1.72,.36,2.35,1.07,.63,.71,.95,1.66,.95,2.85v.38Zm-1.33-.99c0-.64-.2-1.17-.59-1.61-.4-.43-.84-.65-1.33-.65-.63,0-1.15,.21-1.57,.62s-.64,.96-.69,1.63h4.18Z"/><path d="M256.42,1051.6h-1.22v-1.17c-.25,.4-.61,.73-1.07,.99-.47,.26-.96,.39-1.47,.39-.93,0-1.67-.42-2.21-1.25-.54-.83-.81-1.88-.81-3.16,0-1.19,.28-2.18,.85-2.96,.56-.78,1.31-1.18,2.25-1.18,1.03,0,1.85,.42,2.48,1.25v-3.94h1.22v11.02Zm-1.22-2.49v-3.38c-.58-.94-1.29-1.41-2.11-1.41-.67,0-1.2,.3-1.59,.89s-.59,1.35-.59,2.26,.18,1.71,.55,2.32,.87,.92,1.51,.92c.31,0,.62-.08,.93-.25s.61-.42,.88-.75c.28-.33,.41-.54,.41-.61Z"/><path d="M205.4,1063.49l-4.37,10.11h-1.31l4.3-9.91h-5.16v-1.12h6.54v.91Z"/><path d="M235.42,1067.56c.73,.17,1.31,.5,1.73,1,.42,.5,.62,1.08,.62,1.77,0,1-.36,1.8-1.09,2.39s-1.6,.89-2.62,.89h-3.13v-11.02h3.05c1.06,0,1.89,.23,2.49,.7,.6,.47,.9,1.12,.9,1.97,0,.52-.17,.98-.52,1.39-.35,.41-.82,.7-1.43,.88v.03Zm-3.21-.59h1.5c1.57,0,2.35-.56,2.35-1.68,0-.51-.19-.9-.58-1.18-.39-.27-.95-.41-1.7-.41h-1.58v3.27Zm0,5.52h1.45c.85,0,1.52-.19,2.02-.58,.5-.39,.75-.91,.75-1.59,0-.71-.25-1.27-.73-1.66-.49-.39-1.2-.59-2.12-.59h-1.36v4.41Z"/><path d="M247.05,1073.6h-1.21c-.1-.33-.15-.77-.15-1.31-.69,1.02-1.64,1.52-2.83,1.52-.6,0-1.14-.21-1.6-.64s-.69-.98-.69-1.66c0-.4,.08-.75,.24-1.06,.16-.31,.4-.57,.71-.78s.69-.38,1.14-.5c.45-.12,.98-.21,1.59-.25l1.37-.11v-.39c0-1.4-.65-2.09-1.95-2.09-.31,0-.7,.07-1.17,.2-.47,.13-.88,.29-1.21,.47l-.32-.88c1.11-.57,2.14-.85,3.09-.85,1.85,0,2.78,.98,2.78,2.95v3.5c0,.71,.07,1.34,.2,1.89Zm-1.42-2.41v-1.48c-1.1,.1-1.85,.19-2.26,.28-.41,.09-.76,.25-1.06,.48-.3,.23-.45,.55-.45,.95,0,.36,.13,.66,.38,.88,.25,.22,.58,.34,.98,.34,.43,0,.86-.13,1.29-.39,.43-.26,.8-.61,1.12-1.07Z"/><path d="M256.53,1073.24c-.82,.38-1.62,.56-2.41,.56-1.45,0-2.18-.77-2.18-2.3v-4.98h-1.56v-1.05h1.56v-2.23h1.19v2.23h2.77v1.05h-2.77v4.66c0,.5,.11,.88,.33,1.15s.52,.41,.89,.41c.67,0,1.33-.15,1.98-.45l.21,.95Z"/><path d="M266.05,1073.6h-1.22v-5.22c0-.72-.12-1.25-.35-1.57-.23-.33-.6-.49-1.09-.49-.75,0-1.54,.46-2.4,1.39v5.89h-1.22v-11.02h1.22v4.08c.88-.93,1.8-1.39,2.77-1.39,1.53,0,2.29,.92,2.29,2.77v5.57Z"/><path d="M275.78,1065.68l-.49,1.17c-.54-.23-1-.35-1.39-.35-.36,0-.71,.1-1.05,.31s-.66,.5-.95,.88-.43,.6-.43,.64v5.27h-1.21v-8.14h1.21v1.65c.65-1.23,1.49-1.84,2.53-1.84,.61,0,1.21,.14,1.79,.41Z"/><path d="M282.1,1065.27c1.12,0,2.01,.39,2.67,1.17,.66,.78,.99,1.81,.99,3.09s-.33,2.32-.99,3.11c-.66,.79-1.55,1.18-2.67,1.18s-2.02-.39-2.68-1.18c-.66-.78-.99-1.82-.99-3.11s.33-2.31,.99-3.09c.66-.78,1.55-1.17,2.67-1.17Zm0,7.48c.74,0,1.32-.31,1.75-.94,.43-.62,.64-1.38,.64-2.27,0-.94-.21-1.71-.63-2.31s-1.01-.91-1.76-.91-1.34,.3-1.76,.89c-.42,.6-.62,1.37-.62,2.32s.21,1.67,.63,2.29,1,.93,1.75,.93Z"/><path d="M291.7,1065.27c1.12,0,2.01,.39,2.67,1.17,.66,.78,.99,1.81,.99,3.09s-.33,2.32-.99,3.11c-.66,.79-1.55,1.18-2.67,1.18s-2.02-.39-2.68-1.18c-.66-.78-.99-1.82-.99-3.11s.33-2.31,.99-3.09c.66-.78,1.55-1.17,2.67-1.17Zm0,7.48c.74,0,1.32-.31,1.75-.94,.43-.62,.64-1.38,.64-2.27,0-.94-.21-1.71-.63-2.31s-1.01-.91-1.76-.91-1.34,.3-1.76,.89c-.42,.6-.62,1.37-.62,2.32s.21,1.67,.63,2.29,1,.93,1.75,.93Z"/><path d="M305.1,1073.6h-1.22v-5.34c0-1.29-.24-1.94-.72-1.94-.25,0-.51,.22-.81,.67-.29,.45-.44,.69-.44,.74v5.88h-1.21v-5.34c0-1.29-.24-1.94-.73-1.94-.24,0-.51,.22-.8,.67-.29,.45-.44,.69-.44,.74v5.88h-1.22v-8.14h1.17v1.23c.23-.43,.5-.78,.82-1.04,.31-.26,.63-.39,.94-.39,.33,0,.62,.13,.88,.39,.26,.26,.44,.6,.54,1.04,.23-.43,.5-.78,.82-1.04,.32-.26,.63-.39,.94-.39,.98,0,1.48,.88,1.48,2.64v5.7Z"/><path d="M203.21,1089.56c.75,.22,1.33,.59,1.75,1.12s.62,1.14,.62,1.84c0,1.01-.33,1.81-1,2.41-.67,.59-1.49,.89-2.47,.89s-1.87-.3-2.53-.9c-.66-.6-.99-1.39-.99-2.38,0-.7,.21-1.31,.64-1.84,.43-.53,1.02-.91,1.79-1.13-.61-.16-1.1-.46-1.46-.9s-.55-.94-.55-1.5c0-.71,.28-1.35,.84-1.93s1.3-.86,2.23-.86,1.67,.29,2.26,.86c.6,.57,.89,1.22,.89,1.93,0,.54-.19,1.03-.56,1.48s-.86,.76-1.45,.92Zm-1.14,.56c-1.43,.42-2.14,1.2-2.14,2.35,0,.67,.22,1.21,.65,1.61,.43,.4,.94,.61,1.52,.61s1.11-.2,1.53-.6,.62-.94,.62-1.62c0-.52-.14-.98-.43-1.39-.29-.41-.87-.73-1.75-.96Zm0-1.09s.15-.03,.38-.09c.22-.06,.42-.14,.57-.23,.16-.09,.31-.21,.44-.35,.14-.14,.24-.31,.33-.5,.08-.19,.12-.4,.12-.64,0-.5-.18-.92-.54-1.25s-.79-.5-1.3-.5-.92,.17-1.27,.51c-.35,.34-.53,.75-.53,1.23,0,.31,.06,.58,.19,.8,.13,.23,.29,.41,.48,.55,.19,.14,.41,.25,.66,.33,.25,.08,.41,.12,.48,.12Z"/><path d="M236.44,1085.8c-.66-.22-1.28-.34-1.87-.34-.67,0-1.21,.15-1.63,.46-.42,.3-.63,.74-.63,1.3,0,.67,.55,1.25,1.65,1.76,.81,.38,1.35,.64,1.61,.78,.26,.15,.53,.35,.8,.6,.27,.25,.49,.56,.65,.9s.25,.74,.25,1.17c0,1.07-.36,1.91-1.08,2.5-.72,.59-1.57,.89-2.55,.89s-1.78-.19-2.49-.56l.27-1.1c.84,.38,1.57,.57,2.2,.57,.73,0,1.31-.19,1.75-.57,.44-.38,.66-.9,.66-1.56,0-.49-.14-.91-.43-1.25-.29-.34-.82-.69-1.59-1.04-.79-.36-1.3-.61-1.54-.75-.23-.13-.46-.32-.69-.55-.23-.23-.41-.5-.53-.79s-.19-.61-.19-.95c0-.91,.33-1.62,.98-2.13s1.49-.77,2.49-.77c.73,0,1.46,.11,2.19,.34l-.29,1.09Z"/><path d="M244.82,1095.6h-1.22v-7.09h-2.4v-1.05h3.62v8.14Zm-.59-11.22c.23,0,.42,.08,.59,.25,.16,.16,.24,.36,.24,.59s-.08,.44-.24,.6c-.16,.16-.36,.24-.59,.24-.21,0-.4-.08-.57-.25s-.25-.37-.25-.59,.08-.42,.25-.59,.35-.25,.57-.25Z"/><path d="M256.53,1095.24c-.82,.38-1.62,.56-2.41,.56-1.45,0-2.18-.77-2.18-2.3v-4.98h-1.56v-1.05h1.56v-2.23h1.19v2.23h2.77v1.05h-2.77v4.66c0,.5,.11,.88,.33,1.15s.52,.41,.89,.41c.67,0,1.33-.15,1.98-.45l.21,.95Z"/><path d="M266.13,1095.24c-.82,.38-1.62,.56-2.41,.56-1.45,0-2.18-.77-2.18-2.3v-4.98h-1.56v-1.05h1.56v-2.23h1.19v2.23h2.77v1.05h-2.77v4.66c0,.5,.11,.88,.33,1.15s.52,.41,.89,.41c.67,0,1.33-.15,1.98-.45l.21,.95Z"/><path d="M273.62,1095.6h-1.22v-7.09h-2.4v-1.05h3.62v8.14Zm-.59-11.22c.23,0,.42,.08,.59,.25,.16,.16,.24,.36,.24,.59s-.08,.44-.24,.6c-.16,.16-.36,.24-.59,.24-.21,0-.4-.08-.57-.25s-.25-.37-.25-.59,.08-.42,.25-.59,.35-.25,.57-.25Z"/><path d="M285.25,1095.6h-1.22v-5.22c0-.72-.12-1.25-.35-1.57-.23-.33-.6-.49-1.09-.49-.75,0-1.54,.46-2.4,1.39v5.89h-1.22v-8.14h1.22v1.2c.88-.93,1.8-1.39,2.77-1.39,1.53,0,2.29,.92,2.29,2.77v5.57Z"/><path d="M290.84,1092.53c-.76,.37-1.14,.7-1.14,.98,0,.15,.09,.28,.26,.38,.17,.1,.41,.16,.71,.16l2.74-.08c.65,0,1.16,.16,1.52,.48,.36,.32,.54,.77,.54,1.35,0,.92-.41,1.66-1.23,2.2-.82,.55-1.78,.82-2.88,.82-.9,0-1.64-.19-2.21-.57-.57-.38-.86-.87-.86-1.46,0-.65,.44-1.2,1.33-1.65-.73-.34-1.1-.77-1.1-1.27,0-.57,.47-1.11,1.42-1.6-.44-.27-.77-.61-1.01-1.03s-.35-.87-.35-1.34c0-.77,.26-1.39,.78-1.89,.52-.49,1.17-.74,1.95-.74,.56,0,1.07,.12,1.52,.35l2.41-.37v1.19h-1.55c.23,.41,.35,.9,.35,1.45,0,.74-.26,1.36-.77,1.88s-1.17,.77-1.96,.77c-.17,0-.33,0-.48-.02Zm.52,5.34c.8,0,1.49-.18,2.05-.54,.56-.36,.85-.8,.85-1.32s-.4-.81-1.2-.81c-.27,0-.72,.02-1.38,.05-.41,.02-.73,.03-.97,.03-.11,0-.29,.09-.54,.28s-.43,.38-.55,.57c-.13,.19-.19,.39-.19,.59,0,.32,.18,.59,.53,.82,.35,.23,.82,.34,1.4,.34Zm-.05-6.27c.45,0,.81-.16,1.1-.46,.28-.31,.43-.71,.43-1.21,0-.53-.14-.94-.41-1.23-.28-.3-.65-.45-1.11-.45-.43,0-.8,.16-1.09,.46-.29,.31-.44,.71-.44,1.21s.15,.89,.44,1.21c.29,.32,.66,.47,1.09,.47Z"/></g><g><path d="M374.2,1024.31c-.64,.56-1.38,.84-2.24,.84-.93,0-1.71-.3-2.33-.89-.62-.6-.93-1.37-.93-2.31,0-1.01,.3-1.86,.89-2.55,.6-.69,1.37-1.04,2.31-1.04,1.15,0,2.05,.53,2.7,1.58,.65,1.05,.97,2.39,.97,4.01s-.38,3-1.14,4.14-1.77,1.71-3.04,1.71c-.85,0-1.59-.13-2.22-.39l.2-1.13c.72,.27,1.38,.4,1.98,.4,.86,0,1.56-.42,2.07-1.26,.52-.84,.78-1.88,.78-3.11Zm-.03-1.1c0-.99-.2-1.86-.6-2.61-.4-.75-.93-1.12-1.58-1.12-.59,0-1.06,.22-1.41,.65s-.53,1-.53,1.7c0,.64,.18,1.17,.54,1.57,.36,.41,.82,.61,1.4,.61,.8,0,1.49-.25,2.08-.73l.1-.08Z"/><path d="M407.05,1029.6h-5.76v-11.02h5.71v1.12h-4.43v3.41h4.26v1.12h-4.26v4.26h4.48v1.12Z"/><path d="M416.85,1029.6h-1.22v-5.22c0-.72-.12-1.25-.35-1.57-.23-.33-.6-.49-1.09-.49-.75,0-1.54,.46-2.4,1.39v5.89h-1.22v-8.14h1.22v1.2c.88-.93,1.8-1.39,2.77-1.39,1.53,0,2.29,.92,2.29,2.77v5.57Z"/><path d="M426.53,1029.24c-.82,.38-1.62,.56-2.41,.56-1.45,0-2.18-.77-2.18-2.3v-4.98h-1.56v-1.05h1.56v-2.23h1.19v2.23h2.77v1.05h-2.77v4.66c0,.5,.11,.88,.33,1.15s.52,.41,.89,.41c.67,0,1.33-.15,1.98-.45l.21,.95Z"/><path d="M436.17,1021.68l-.49,1.17c-.54-.23-1-.35-1.39-.35-.36,0-.71,.1-1.05,.31s-.66,.5-.95,.88-.43,.6-.43,.64v5.27h-1.21v-8.14h1.21v1.65c.65-1.23,1.49-1.84,2.53-1.84,.61,0,1.21,.14,1.79,.41Z"/><path d="M446.02,1021.46l-3.09,8.14c-.45,1.2-.89,2.03-1.33,2.51-.44,.47-.94,.71-1.5,.71-.5,0-1-.09-1.48-.27l.2-.98c.4,.12,.75,.19,1.06,.19,.44,0,.8-.17,1.08-.51s.56-.89,.85-1.66l-3.05-8.12h1.33l2.3,6.49,2.3-6.49h1.33Z"/><path d="M375.26,1051.6h-5.8v-1.12h2.34v-8.56l-2.2,1.1v-1.28l2.38-1.23h1.1v9.97h2.18v1.12Z"/><path d="M381.69,1040.37c1.17,0,2.06,.5,2.69,1.5,.63,1,.94,2.41,.94,4.22s-.3,3.15-.91,4.18-1.52,1.54-2.72,1.54-2.06-.5-2.69-1.5c-.63-1-.95-2.41-.95-4.22s.31-3.16,.92-4.18c.61-1.03,1.52-1.54,2.71-1.54Zm0,10.32c.77,0,1.34-.37,1.71-1.1,.37-.73,.56-1.9,.56-3.5s-.19-2.77-.56-3.5c-.37-.73-.94-1.09-1.71-1.09s-1.33,.37-1.7,1.12-.56,1.9-.56,3.47,.19,2.75,.56,3.49c.37,.74,.94,1.11,1.71,1.11Zm-.03-5.77c.33,0,.61,.11,.83,.34s.34,.5,.34,.83-.11,.63-.34,.87c-.23,.24-.51,.36-.83,.36s-.59-.12-.82-.36-.34-.53-.34-.87,.11-.61,.33-.84c.22-.22,.5-.34,.82-.34Z"/><path d="M400.92,1040.58h2.17c1.44,0,2.6,.49,3.47,1.47,.87,.98,1.3,2.33,1.3,4.04s-.44,3.11-1.32,4.07-2.01,1.44-3.39,1.44h-2.23v-11.02Zm1.28,9.91h.91c1.05,0,1.88-.39,2.48-1.16s.91-1.85,.91-3.23-.31-2.44-.92-3.22c-.61-.78-1.44-1.18-2.48-1.18h-.91v8.79Z"/><path d="M417.09,1047.57h-5.59c0,.92,.27,1.68,.8,2.28,.53,.6,1.19,.9,1.96,.9s1.5-.13,2.29-.4l.21,.98c-.72,.32-1.56,.48-2.52,.48-1.21,0-2.18-.39-2.92-1.16-.74-.78-1.11-1.82-1.11-3.14s.33-2.32,1-3.09,1.52-1.15,2.57-1.15c.94,0,1.72,.36,2.35,1.07,.63,.71,.95,1.66,.95,2.85v.38Zm-1.33-.99c0-.64-.2-1.17-.59-1.61-.4-.43-.84-.65-1.33-.65-.63,0-1.15,.21-1.57,.62s-.64,.96-.69,1.63h4.18Z"/><path d="M426.42,1051.33c-.71,.32-1.49,.48-2.34,.48-1.28,0-2.3-.39-3.07-1.17-.76-.78-1.14-1.81-1.14-3.11s.38-2.33,1.15-3.11c.77-.78,1.78-1.17,3.03-1.17,.82,0,1.6,.14,2.34,.43l-.32,1.01c-.74-.25-1.41-.38-2-.38-.9,0-1.61,.29-2.13,.87s-.79,1.36-.79,2.35c0,.91,.27,1.67,.81,2.29,.54,.62,1.25,.93,2.12,.93,.69,0,1.4-.13,2.12-.4l.21,.98Z"/><path d="M436.85,1051.6h-1.6l-3.45-4.05-.8,.69v3.36h-1.22v-11.02h1.22v6.32l3.82-3.44h1.55l-3.71,3.33,4.19,4.81Z"/></g><circle class="cls-1" cx="765.53" cy="1024.02" r="11.44"/><line class="cls-1" x1="765.53" y1="1024.02" x2="765.53" y2="1035.46"/><path d="M486.1,303.18h-4.68v-.9h1.89v-6.91l-1.78,.89v-1.04l1.92-.99h.89v8.05h1.76v.9Z"/><path d="M484.11,184.54c.54,.15,.98,.43,1.31,.83,.33,.4,.49,.85,.49,1.35,0,.78-.31,1.44-.92,1.97-.61,.53-1.33,.8-2.16,.8-.71,0-1.34-.16-1.9-.47l.2-.85c.58,.27,1.16,.41,1.73,.41,.54,0,1-.17,1.38-.5,.38-.33,.57-.76,.57-1.29s-.2-.94-.61-1.26c-.41-.32-.95-.49-1.62-.49h-.27v-.85h.08c.65,0,1.18-.15,1.6-.46,.42-.3,.63-.72,.63-1.23,0-.42-.15-.75-.45-.99-.3-.24-.72-.36-1.25-.36-.46,0-.97,.12-1.54,.37l-.14-.89c.57-.26,1.15-.39,1.73-.39,.79,0,1.45,.21,1.96,.63,.52,.42,.77,.96,.77,1.61,0,.45-.16,.88-.47,1.27-.31,.39-.69,.64-1.13,.74v.04Z"/><path d="M320.4,241.81h-4.9v-.75c1.24-1.38,2.05-2.31,2.42-2.78s.67-.96,.9-1.48c.23-.52,.35-1.03,.35-1.55s-.15-.89-.45-1.17c-.3-.29-.72-.43-1.26-.43-.42,0-.98,.13-1.68,.38l-.15-.89c.63-.27,1.3-.4,1.99-.4,.79,0,1.44,.22,1.92,.67,.49,.45,.73,1.05,.73,1.79,0,.53-.13,1.06-.38,1.59s-.57,1.03-.96,1.51-1.15,1.35-2.28,2.6h3.75v.9Z"/><path d="M401.56,118.94c-.51,.45-1.12,.67-1.81,.67-.75,0-1.38-.24-1.88-.72s-.75-1.1-.75-1.86c0-.82,.24-1.5,.72-2.06,.48-.56,1.1-.83,1.86-.83,.93,0,1.65,.42,2.18,1.27,.52,.85,.78,1.93,.78,3.24s-.31,2.42-.92,3.35c-.61,.92-1.43,1.38-2.46,1.38-.69,0-1.29-.1-1.79-.31l.16-.92c.58,.21,1.11,.32,1.6,.32,.7,0,1.26-.34,1.67-1.02,.42-.68,.63-1.51,.63-2.51Zm-.03-.89c0-.8-.16-1.5-.49-2.1-.32-.6-.75-.91-1.27-.91-.48,0-.85,.18-1.14,.53-.28,.35-.43,.81-.43,1.37,0,.52,.14,.94,.43,1.27s.67,.5,1.13,.5c.64,0,1.2-.2,1.68-.59l.08-.06Z"/><path d="M330.22,468.21h-1.1v2.06h-1.03v-2.06h-3.87v-.79l3.51-6.06h1.39v5.94h1.1v.9Zm-2.13-.9v-4.92l-2.83,4.92h2.83Z"/><path d="M323.82,535.94c.29-.08,.57-.11,.84-.11,.84,0,1.51,.26,1.99,.77,.49,.52,.73,1.16,.73,1.93s-.28,1.49-.85,2.05c-.57,.56-1.26,.84-2.08,.84s-1.43-.13-1.96-.39l.21-.88c.57,.24,1.16,.36,1.77,.36,.54,0,.98-.17,1.32-.52,.33-.35,.5-.84,.5-1.46,0-.59-.16-1.05-.47-1.37s-.72-.48-1.22-.48c-.36,0-.72,.07-1.07,.21l-.62-.28v-4.25h4.07v.9h-3.17v2.69Z"/><g><path d="M398.54,75.47h-4.68v-.9h1.89v-6.91l-1.78,.89v-1.04l1.92-.99h.89v8.05h1.76v.9Z"/><path d="M403.73,66.4c.94,0,1.67,.4,2.17,1.21,.51,.81,.76,1.95,.76,3.41s-.25,2.54-.74,3.37c-.49,.83-1.22,1.25-2.2,1.25s-1.66-.4-2.17-1.21-.76-1.94-.76-3.41,.25-2.55,.74-3.38c.49-.83,1.22-1.25,2.19-1.25Zm0,8.33c.62,0,1.08-.29,1.38-.89,.3-.59,.45-1.53,.45-2.82s-.15-2.24-.45-2.82c-.3-.59-.76-.88-1.38-.88s-1.07,.3-1.38,.9-.45,1.54-.45,2.8,.15,2.22,.45,2.82c.3,.6,.76,.89,1.38,.89Zm-.02-4.66c.26,0,.49,.09,.67,.27,.18,.18,.27,.41,.27,.67s-.09,.51-.28,.7c-.19,.2-.41,.29-.67,.29s-.48-.1-.66-.29c-.18-.2-.27-.43-.27-.7s.09-.49,.27-.67c.18-.18,.4-.27,.67-.27Z"/></g><g><path d="M459.4,526.3h-4.68v-.9h1.89v-6.91l-1.78,.89v-1.04l1.92-.99h.89v8.05h1.76v.9Z"/><path d="M464.59,517.23c.94,0,1.67,.4,2.17,1.21,.51,.81,.76,1.95,.76,3.41s-.25,2.54-.74,3.37c-.49,.83-1.22,1.25-2.2,1.25s-1.66-.4-2.17-1.21-.76-1.94-.76-3.41,.25-2.55,.74-3.38c.49-.83,1.22-1.25,2.19-1.25Zm0,8.33c.62,0,1.08-.29,1.38-.89,.3-.59,.45-1.53,.45-2.82s-.15-2.24-.45-2.82c-.3-.59-.76-.88-1.38-.88s-1.07,.3-1.38,.9-.45,1.54-.45,2.8,.15,2.22,.45,2.82c.3,.6,.76,.89,1.38,.89Zm-.02-4.66c.26,0,.49,.09,.67,.27,.18,.18,.27,.41,.27,.67s-.09,.51-.28,.7c-.19,.2-.41,.29-.67,.29s-.48-.1-.66-.29c-.18-.2-.27-.43-.27-.7s.09-.49,.27-.67c.18-.18,.4-.27,.67-.27Z"/></g><path d="M469.37,754.84c.55-.45,1.16-.67,1.81-.67,.75,0,1.38,.24,1.88,.72s.75,1.1,.75,1.86c0,.84-.22,1.53-.67,2.08s-1.04,.82-1.79,.82c-.95,0-1.7-.44-2.26-1.31-.56-.87-.83-1.94-.83-3.2,0-1.35,.29-2.47,.87-3.38s1.37-1.36,2.38-1.36c.69,0,1.29,.1,1.8,.31l-.16,.92c-.58-.21-1.12-.32-1.6-.32-.69,0-1.22,.33-1.6,.98-.38,.66-.57,1.5-.57,2.54Zm.03,.89c0,.76,.18,1.45,.54,2.08,.36,.62,.81,.93,1.35,.93,.46,0,.81-.17,1.06-.5,.25-.34,.37-.8,.37-1.39,0-.55-.14-.98-.41-1.29-.27-.32-.66-.47-1.15-.47-.64,0-1.23,.22-1.75,.66Z"/><path d="M353.86,715.53c.61,.18,1.08,.48,1.41,.9,.33,.42,.5,.92,.5,1.49,0,.82-.27,1.46-.81,1.94-.54,.48-1.21,.72-2,.72s-1.51-.24-2.04-.72c-.53-.48-.8-1.12-.8-1.92,0-.56,.17-1.06,.52-1.49s.83-.73,1.44-.92c-.49-.13-.89-.37-1.18-.73-.3-.36-.44-.76-.44-1.21,0-.57,.23-1.09,.68-1.55,.45-.46,1.05-.7,1.8-.7s1.34,.23,1.83,.69,.72,.98,.72,1.56c0,.43-.15,.83-.45,1.2-.3,.36-.69,.61-1.17,.74Zm-.92,.46c-1.15,.34-1.73,.97-1.73,1.9,0,.54,.17,.98,.52,1.3,.35,.33,.76,.49,1.23,.49s.9-.16,1.23-.48c.33-.32,.5-.76,.5-1.31,0-.42-.12-.79-.35-1.12s-.7-.59-1.41-.78Zm0-.88s.12-.03,.3-.08c.18-.05,.34-.11,.46-.19,.13-.07,.25-.17,.36-.28,.11-.11,.2-.25,.26-.4,.07-.15,.1-.33,.1-.51,0-.4-.15-.74-.44-1.01-.29-.27-.64-.4-1.05-.4s-.74,.14-1.03,.41c-.29,.27-.43,.61-.43,1,0,.25,.05,.46,.15,.65,.1,.19,.23,.33,.38,.45,.15,.11,.33,.2,.53,.26,.2,.06,.33,.09,.39,.09Z"/><path d="M442.41,845.31l-3.53,8.16h-1.06l3.48-8h-4.17v-.9h5.28v.74Z"/><path d="M426.6,890.71l-3.53,8.16h-1.06l3.48-8h-4.17v-.9h5.28v.74Z"/><path d="M323.16,824.15c.55-.45,1.16-.67,1.81-.67,.75,0,1.38,.24,1.88,.72s.75,1.1,.75,1.86c0,.84-.22,1.53-.67,2.08s-1.04,.82-1.79,.82c-.95,0-1.7-.44-2.26-1.31-.56-.87-.83-1.94-.83-3.2,0-1.35,.29-2.47,.87-3.38s1.37-1.36,2.38-1.36c.69,0,1.29,.1,1.8,.31l-.16,.92c-.58-.21-1.12-.32-1.6-.32-.69,0-1.22,.33-1.6,.98-.38,.66-.57,1.5-.57,2.54Zm.03,.89c0,.76,.18,1.45,.54,2.08,.36,.62,.81,.93,1.35,.93,.46,0,.81-.17,1.06-.5,.25-.34,.37-.8,.37-1.39,0-.55-.14-.98-.41-1.29-.27-.32-.66-.47-1.15-.47-.64,0-1.23,.22-1.75,.66Z"/><g><path d="M305.94,603.74h-4.68v-.9h1.89v-6.91l-1.78,.89v-1.04l1.92-.99h.89v8.05h1.76v.9Z"/><path d="M311.13,594.67c.94,0,1.67,.4,2.17,1.21,.51,.81,.76,1.95,.76,3.41s-.25,2.54-.74,3.37c-.49,.83-1.22,1.25-2.2,1.25s-1.66-.4-2.17-1.21-.76-1.94-.76-3.41,.25-2.55,.74-3.38c.49-.83,1.22-1.25,2.19-1.25Zm0,8.33c.62,0,1.08-.29,1.38-.89,.3-.59,.45-1.53,.45-2.82s-.15-2.24-.45-2.82c-.3-.59-.76-.88-1.38-.88s-1.07,.3-1.38,.9-.45,1.54-.45,2.8,.15,2.22,.45,2.82c.3,.6,.76,.89,1.38,.89Zm-.02-4.66c.26,0,.49,.09,.67,.27,.18,.18,.27,.41,.27,.67s-.09,.51-.28,.7c-.19,.2-.41,.29-.67,.29s-.48-.1-.66-.29c-.18-.2-.27-.43-.27-.7s.09-.49,.27-.67c.18-.18,.4-.27,.67-.27Z"/></g></g></svg>