<?xml version="1.0" encoding="UTF-8"?><svg xmlns="http://www.w3.org/2000/svg" xmlns:xlink="http://www.w3.org/1999/xlink" viewBox="0 0 800 1120"><defs><style>.cls-1,.cls-2,.cls-3,.cls-4,.cls-5,.cls-6,.cls-7,.cls-8{fill:none;}.cls-2{stroke-width:.75px;}.cls-2,.cls-3,.cls-4,.cls-5,.cls-7{stroke:#231f20;}.cls-2,.cls-4,.cls-5,.cls-6,.cls-7,.cls-8{stroke-linecap:round;stroke-linejoin:round;}.cls-9{fill:url(#_10_lpi_10_);}.cls-3{stroke-width:.1px;}.cls-4{stroke-width:1.2px;}.cls-5{stroke-width:.24px;}.cls-6{stroke-width:.2px;}.cls-6,.cls-8{stroke:#5b5b5b;}.cls-7{stroke-width:.36px;}.cls-8{stroke-width:.1px;}</style><pattern id="_10_lpi_10_" x="0" y="0" width="72" height="72" patternTransform="translate(3435.49 -3444.75)" patternUnits="userSpaceOnUse" viewBox="0 0 72 72"><g><rect class="cls-1" width="72" height="72"/><g><line class="cls-3" x1="71.75" y1="68.4" x2="144.25" y2="68.4"/><line class="cls-3" x1="71.75" y1="54" x2="144.25" y2="54"/><line class="cls-3" x1="71.75" y1="39.6" x2="144.25" y2="39.6"/><line class="cls-3" x1="71.75" y1="25.2" x2="144.25" y2="25.2"/><line class="cls-3" x1="71.75" y1="10.8" x2="144.25" y2="10.8"/><line class="cls-3" x1="71.75" y1="61.2" x2="144.25" y2="61.2"/><line class="cls-3" x1="71.75" y1="46.8" x2="144.25" y2="46.8"/><line class="cls-3" x1="71.75" y1="32.4" x2="144.25" y2="32.4"/><line class="cls-3" x1="71.75" y1="18" x2="144.25" y2="18"/><line class="cls-3" x1="71.75" y1="3.6" x2="144.25" y2="3.6"/></g><g><line class="cls-3" x1="-.25" y1="68.4" x2="72.25" y2="68.4"/><line class="cls-3" x1="-.25" y1="54" x2="72.25" y2="54"/><line class="cls-3" x1="-.25" y1="39.6" x2="72.25" y2="39.6"/><line class="cls-3" x1="-.25" y1="25.2" x2="72.25" y2="25.2"/><line class="cls-3" x1="-.25" y1="10.8" x2="72.25" y2="10.8"/><line class="cls-3" x1="-.25" y1="61.2" x2="72.25" y2="61.2"/><line class="cls-3" x1="-.25" y1="46.8" x2="72.25" y2="46.8"/><line class="cls-3" x1="-.25" y1="32.4" x2="72.25" y2="32.4"/><line class="cls-3" x1="-.25" y1="18" x2="72.25" y2="18"/><line class="cls-3" x1="-.25" y1="3.6" x2="72.25" y2="3.6"/></g><g><line class="cls-3" x1="-72.25" y1="68.4" x2=".25" y2="68.4"/><line class="cls-3" x1="-72.25" y1="54" x2=".25" y2="54"/><line class="cls-3" x1="-72.25" y1="39.6" x2=".25" y2="39.6"/><line class="cls-3" x1="-72.25" y1="25.2" x2=".25" y2="25.2"/><line class="cls-3" x1="-72.25" y1="10.8" x2=".25" y2="10.8"/><line class="cls-3" x1="-72.25" y1="61.2" x2=".25" y2="61.2"/><line class="cls-3" x1="-72.25" y1="46.8" x2=".25" y2="46.8"/><line class="cls-3" x1="-72.25" y1="32.4" x2=".25" y2="32.4"/><line class="cls-3" x1="-72.25" y1="18" x2=".25" y2="18"/><line class="cls-3" x1="-72.25" y1="3.6" x2=".25" y2="3.6"/></g></g></pattern></defs><g id="Below"><path class="cls-6" d="M250.18,326.31c-.2,0-.39,.04-.58,.11-.2,.08-.38,.2-.53,.35-.15,.15-.27,.33-.35,.53-.07,.18-.11,.38-.11,.58s.04,.39,.11,.58c.08,.2,.2,.38,.35,.53,.15,.15,.33,.27,.53,.35,.18,.07,.38,.11,.58,.11s.39-.04,.58-.11c.2-.08,.38-.2,.53-.35s.27-.33,.35-.53c.07-.18,.11-.38,.11-.58s-.04-.39-.11-.58c-.08-.2-.2-.38-.35-.53s-.33-.27-.53-.35c-.18-.07-.38-.11-.58-.11Z"/><path class="cls-6" d="M250.18,280.1c-.2,0-.39,.04-.58,.11-.2,.08-.38,.2-.53,.35-.15,.15-.27,.33-.35,.53-.07,.18-.11,.38-.11,.58s.04,.39,.11,.58c.08,.2,.2,.38,.35,.53,.15,.15,.33,.27,.53,.35,.18,.07,.38,.11,.58,.11s.39-.04,.58-.11c.2-.08,.38-.2,.53-.35,.15-.15,.27-.33,.35-.53,.07-.18,.11-.38,.11-.58s-.04-.39-.11-.58c-.08-.2-.2-.38-.35-.53-.15-.15-.33-.27-.53-.35-.18-.07-.38-.11-.58-.11Z"/><line class="cls-6" x1="251.75" y1="281.66" x2="253.63" y2="281.66"/><path class="cls-6" d="M250.18,233.88c-.2,0-.39,.04-.58,.11-.2,.08-.38,.2-.53,.35-.15,.15-.27,.33-.35,.53-.07,.18-.11,.38-.11,.58s.04,.39,.11,.58c.08,.2,.2,.38,.35,.53,.15,.15,.33,.27,.53,.35,.18,.07,.38,.11,.58,.11s.39-.04,.58-.11c.2-.08,.38-.2,.53-.35,.15-.15,.27-.33,.35-.53,.07-.18,.11-.38,.11-.58s-.04-.39-.11-.58c-.08-.2-.2-.38-.35-.53-.15-.15-.33-.27-.53-.35-.18-.07-.38-.11-.58-.11Z"/><path class="cls-6" d="M250.18,187.67c-.2,0-.39,.04-.58,.11-.2,.08-.38,.2-.53,.35s-.27,.33-.35,.53c-.07,.18-.11,.38-.11,.58s.04,.39,.11,.58c.08,.2,.2,.38,.35,.53,.15,.15,.33,.27,.53,.35,.18,.07,.38,.11,.58,.11s.39-.04,.58-.11c.2-.08,.38-.2,.53-.35s.27-.33,.35-.53c.07-.18,.11-.38,.11-.58s-.04-.39-.11-.58c-.08-.2-.2-.38-.35-.53-.15-.15-.33-.27-.53-.35-.18-.07-.38-.11-.58-.11Z"/><line class="cls-6" x1="251.75" y1="189.24" x2="253.63" y2="189.24"/><path class="cls-6" d="M250.18,141.46c-.2,0-.39,.04-.58,.11-.2,.08-.38,.2-.53,.35-.15,.15-.27,.33-.35,.53-.07,.18-.11,.38-.11,.58s.04,.39,.11,.58c.08,.2,.2,.38,.35,.53s.33,.27,.53,.35c.18,.07,.38,.11,.58,.11s.39-.04,.58-.11c.2-.08,.38-.2,.53-.35,.15-.15,.27-.33,.35-.53,.07-.18,.11-.38,.11-.58s-.04-.39-.11-.58c-.08-.2-.2-.38-.35-.53s-.33-.27-.53-.35c-.18-.07-.38-.11-.58-.11Z"/><path class="cls-6" d="M250.18,95.25c-.2,0-.39,.04-.58,.11-.2,.08-.38,.2-.53,.35-.15,.15-.27,.33-.35,.53-.07,.18-.11,.38-.11,.58s.04,.39,.11,.58c.08,.2,.2,.38,.35,.53,.15,.15,.33,.27,.53,.35,.18,.07,.38,.11,.58,.11s.39-.04,.58-.11c.2-.08,.38-.2,.53-.35,.15-.15,.27-.33,.35-.53,.07-.18,.11-.38,.11-.58s-.04-.39-.11-.58c-.08-.2-.2-.38-.35-.53-.15-.15-.33-.27-.53-.35-.18-.07-.38-.11-.58-.11Z"/><line class="cls-6" x1="251.75" y1="96.81" x2="253.63" y2="96.81"/><line class="cls-6" x1="257.47" y1="89.22" x2="257.47" y2="91.18"/><line class="cls-6" x1="298.71" y1="89.22" x2="298.71" y2="91.18"/><line class="cls-6" x1="339.23" y1="89.22" x2="339.23" y2="91.18"/><line class="cls-6" x1="379.74" y1="89.22" x2="379.74" y2="91.18"/><line class="cls-6" x1="420.26" y1="89.22" x2="420.26" y2="91.18"/><line class="cls-6" x1="460.77" y1="89.22" x2="460.77" y2="91.18"/><line class="cls-6" x1="501.29" y1="89.22" x2="501.29" y2="91.18"/><line class="cls-6" x1="540.74" y1="89.22" x2="540.74" y2="91.18"/><line class="cls-6" x1="540.74" y1="86.16" x2="540.74" y2="58.64"/><line class="cls-6" x1="501.29" y1="86.16" x2="501.29" y2="58.64"/><line class="cls-6" x1="460.77" y1="86.16" x2="460.77" y2="58.64"/><line class="cls-6" x1="420.26" y1="86.16" x2="420.26" y2="58.64"/><line class="cls-6" x1="379.74" y1="86.16" x2="379.74" y2="58.64"/><line class="cls-6" x1="339.23" y1="86.16" x2="339.23" y2="58.64"/><line class="cls-6" x1="298.71" y1="86.16" x2="298.71" y2="58.64"/><line class="cls-6" x1="257.47" y1="86.16" x2="257.47" y2="58.64"/><polyline class="cls-6" points="253.63 91.18 253.63 52.04 546.37 52.04 546.37 91.18"/><path class="cls-6" d="M381.35,87.69c0,.19-.04,.39-.11,.57-.08,.2-.2,.37-.35,.52-.15,.15-.33,.26-.53,.34-.18,.07-.38,.11-.57,.11s-.39-.04-.57-.11c-.2-.08-.38-.19-.53-.34-.15-.15-.27-.32-.35-.52-.07-.18-.11-.37-.11-.57s.04-.39,.11-.57c.08-.2,.2-.37,.35-.52,.15-.15,.33-.26,.53-.34,.18-.07,.38-.11,.57-.11s.39,.04,.57,.11c.2,.08,.38,.19,.53,.34,.15,.15,.27,.32,.35,.52,.07,.18,.11,.37,.11,.57Z"/><path class="cls-6" d="M499.72,87.69c0,.19,.04,.39,.11,.57,.08,.2,.2,.37,.35,.52,.15,.15,.33,.26,.53,.34,.18,.07,.38,.11,.57,.11s.39-.04,.57-.11c.2-.08,.38-.19,.53-.34,.15-.15,.27-.32,.35-.52,.07-.18,.11-.37,.11-.57s-.04-.39-.11-.57c-.08-.2-.2-.37-.35-.52-.15-.15-.33-.26-.53-.34-.18-.07-.38-.11-.57-.11s-.39,.04-.57,.11c-.2,.08-.38,.19-.53,.34-.15,.15-.27,.32-.35,.52-.07,.18-.11,.37-.11,.57Z"/><path class="cls-6" d="M542.3,87.69c0,.19-.04,.39-.11,.57-.08,.2-.2,.37-.35,.52-.15,.15-.33,.26-.53,.34-.18,.07-.38,.11-.57,.11s-.39-.04-.57-.11c-.2-.08-.38-.19-.53-.34-.15-.15-.27-.32-.35-.52-.07-.18-.11-.37-.11-.57s.04-.39,.11-.57c.08-.2,.2-.37,.35-.52,.15-.15,.33-.26,.53-.34,.18-.07,.38-.11,.57-.11s.39,.04,.57,.11c.2,.08,.38,.19,.53,.34,.15,.15,.27,.32,.35,.52,.07,.18,.11,.37,.11,.57Z"/><path class="cls-6" d="M255.9,87.69c0,.19,.04,.39,.11,.57,.08,.2,.2,.37,.35,.52,.15,.15,.33,.26,.53,.34,.18,.07,.38,.11,.57,.11s.39-.04,.57-.11c.2-.08,.38-.19,.53-.34,.15-.15,.27-.32,.35-.52,.07-.18,.11-.37,.11-.57s-.04-.39-.11-.57c-.08-.2-.2-.37-.35-.52-.15-.15-.33-.26-.53-.34-.18-.07-.38-.11-.57-.11s-.39,.04-.57,.11c-.2,.08-.38,.19-.53,.34-.15,.15-.27,.32-.35,.52-.07,.18-.11,.37-.11,.57Z"/><path class="cls-6" d="M340.79,87.69c0,.19-.04,.39-.11,.57-.08,.2-.2,.37-.35,.52-.15,.15-.33,.26-.53,.34-.18,.07-.38,.11-.57,.11s-.39-.04-.57-.11c-.2-.08-.38-.19-.53-.34-.15-.15-.27-.32-.35-.52-.07-.18-.11-.37-.11-.57s.04-.39,.11-.57c.08-.2,.2-.37,.35-.52,.15-.15,.33-.26,.53-.34,.18-.07,.38-.11,.57-.11s.39,.04,.57,.11c.2,.08,.38,.19,.53,.34,.15,.15,.27,.32,.35,.52,.07,.18,.11,.37,.11,.57Z"/><path class="cls-6" d="M459.18,87.69c0,.19,.04,.39,.11,.57,.08,.2,.2,.37,.35,.52,.15,.15,.33,.26,.53,.34,.18,.07,.38,.11,.57,.11s.39-.04,.57-.11c.2-.08,.38-.19,.53-.34,.15-.15,.27-.32,.35-.52,.07-.18,.11-.37,.11-.57s-.04-.39-.11-.57c-.08-.2-.2-.37-.35-.52-.15-.15-.33-.26-.53-.34-.18-.07-.38-.11-.57-.11s-.39,.04-.57,.11c-.2,.08-.38,.19-.53,.34-.15,.15-.27,.32-.35,.52-.07,.18-.11,.37-.11,.57Z"/><path class="cls-6" d="M418.55,87.69c0,.19,.04,.39,.11,.57,.08,.2,.2,.37,.35,.52,.15,.15,.33,.26,.53,.34,.18,.07,.38,.11,.57,.11s.39-.04,.57-.11c.2-.08,.38-.19,.53-.34,.15-.15,.27-.32,.35-.52,.07-.18,.11-.37,.11-.57s-.04-.39-.11-.57c-.08-.2-.2-.37-.35-.52-.15-.15-.33-.26-.53-.34-.18-.07-.38-.11-.57-.11s-.39,.04-.57,.11c-.2,.08-.38,.19-.53,.34-.15,.15-.27,.32-.35,.52-.07,.18-.11,.37-.11,.57Z"/><path class="cls-6" d="M297.05,87.69c0,.2,.04,.39,.12,.57,.09,.2,.22,.38,.38,.52,.16,.14,.34,.25,.54,.33,.19,.07,.39,.11,.59,.11,.05,0,.1,0,.14,0,.05,0,.1,0,.14-.02,.1-.02,.2-.04,.29-.08,.2-.07,.39-.19,.54-.33,.16-.15,.28-.33,.36-.53,.08-.18,.11-.38,.11-.58s-.04-.39-.11-.58c-.08-.2-.21-.38-.36-.53-.16-.15-.34-.26-.54-.33-.1-.03-.19-.06-.29-.08-.05,0-.1-.01-.14-.02-.05,0-.1,0-.14,0-.2,0-.4,.04-.59,.11-.2,.07-.38,.18-.54,.33-.16,.15-.29,.32-.38,.52-.08,.18-.12,.37-.12,.57Z"/><line class="cls-6" x1="546.37" y1="91.18" x2="253.63" y2="91.18"/><line class="cls-6" x1="548.25" y1="143.02" x2="546.37" y2="143.02"/><line class="cls-6" x1="548.25" y1="235.45" x2="546.37" y2="235.45"/><line class="cls-6" x1="548.25" y1="327.87" x2="546.37" y2="327.87"/><line class="cls-6" x1="251.75" y1="327.87" x2="253.63" y2="327.87"/><line class="cls-6" x1="251.75" y1="235.45" x2="253.63" y2="235.45"/><line class="cls-6" x1="251.75" y1="143.02" x2="253.63" y2="143.02"/><path class="cls-6" d="M549.82,326.31c-.2,0-.39,.04-.58,.11-.2,.08-.38,.2-.53,.35-.15,.15-.27,.33-.35,.53-.07,.18-.11,.38-.11,.58s.04,.39,.11,.58c.08,.2,.2,.38,.35,.53,.15,.15,.33,.27,.53,.35,.18,.07,.38,.11,.58,.11s.39-.04,.58-.11c.2-.08,.38-.2,.53-.35s.27-.33,.35-.53c.07-.18,.11-.38,.11-.58s-.04-.39-.11-.58c-.08-.2-.2-.38-.35-.53s-.33-.27-.53-.35c-.18-.07-.38-.11-.58-.11Z"/><path class="cls-6" d="M549.82,280.1c-.2,0-.39,.04-.58,.11-.2,.08-.38,.2-.53,.35-.15,.15-.27,.33-.35,.53-.07,.18-.11,.38-.11,.58s.04,.39,.11,.58c.08,.2,.2,.38,.35,.53,.15,.15,.33,.27,.53,.35,.18,.07,.38,.11,.58,.11s.39-.04,.58-.11c.2-.08,.38-.2,.53-.35,.15-.15,.27-.33,.35-.53,.07-.18,.11-.38,.11-.58s-.04-.39-.11-.58c-.08-.2-.2-.38-.35-.53-.15-.15-.33-.27-.53-.35-.18-.07-.38-.11-.58-.11Z"/><line class="cls-6" x1="548.25" y1="281.66" x2="546.37" y2="281.66"/><path class="cls-6" d="M549.82,233.88c-.2,0-.39,.04-.58,.11-.2,.08-.38,.2-.53,.35-.15,.15-.27,.33-.35,.53-.07,.18-.11,.38-.11,.58s.04,.39,.11,.58c.08,.2,.2,.38,.35,.53,.15,.15,.33,.27,.53,.35,.18,.07,.38,.11,.58,.11s.39-.04,.58-.11c.2-.08,.38-.2,.53-.35,.15-.15,.27-.33,.35-.53,.07-.18,.11-.38,.11-.58s-.04-.39-.11-.58c-.08-.2-.2-.38-.35-.53-.15-.15-.33-.27-.53-.35-.18-.07-.38-.11-.58-.11Z"/><path class="cls-6" d="M549.82,187.67c-.2,0-.39,.04-.58,.11-.2,.08-.38,.2-.53,.35s-.27,.33-.35,.53c-.07,.18-.11,.38-.11,.58s.04,.39,.11,.58c.08,.2,.2,.38,.35,.53,.15,.15,.33,.27,.53,.35,.18,.07,.38,.11,.58,.11s.39-.04,.58-.11c.2-.08,.38-.2,.53-.35s.27-.33,.35-.53c.07-.18,.11-.38,.11-.58s-.04-.39-.11-.58c-.08-.2-.2-.38-.35-.53-.15-.15-.33-.27-.53-.35-.18-.07-.38-.11-.58-.11Z"/><line class="cls-6" x1="548.25" y1="189.24" x2="546.37" y2="189.24"/><path class="cls-6" d="M549.82,141.46c-.2,0-.39,.04-.58,.11-.2,.08-.38,.2-.53,.35-.15,.15-.27,.33-.35,.53-.07,.18-.11,.38-.11,.58s.04,.39,.11,.58c.08,.2,.2,.38,.35,.53s.33,.27,.53,.35c.18,.07,.38,.11,.58,.11s.39-.04,.58-.11c.2-.08,.38-.2,.53-.35,.15-.15,.27-.33,.35-.53,.07-.18,.11-.38,.11-.58s-.04-.39-.11-.58c-.08-.2-.2-.38-.35-.53s-.33-.27-.53-.35c-.18-.07-.38-.11-.58-.11Z"/><path class="cls-6" d="M549.82,95.25c-.2,0-.39,.04-.58,.11-.2,.08-.38,.2-.53,.35-.15,.15-.27,.33-.35,.53-.07,.18-.11,.38-.11,.58s.04,.39,.11,.58c.08,.2,.2,.38,.35,.53,.15,.15,.33,.27,.53,.35,.18,.07,.38,.11,.58,.11s.39-.04,.58-.11c.2-.08,.38-.2,.53-.35,.15-.15,.27-.33,.35-.53,.07-.18,.11-.38,.11-.58s-.04-.39-.11-.58c-.08-.2-.2-.38-.35-.53-.15-.15-.33-.27-.53-.35-.18-.07-.38-.11-.58-.11Z"/><line class="cls-6" x1="548.25" y1="96.81" x2="546.37" y2="96.81"/><line class="cls-6" x1="531.34" y1="104.33" x2="531.34" y2="97.66"/><line class="cls-6" x1="295.42" y1="97.67" x2="295.43" y2="104.33"/><line class="cls-6" x1="295.42" y1="363.57" x2="295.42" y2="373.23"/><line class="cls-6" x1="531.34" y1="363.57" x2="531.34" y2="373.23"/><line class="cls-6" x1="255.19" y1="142.24" x2="295.42" y2="142.24"/><line class="cls-6" x1="255.19" y1="143.94" x2="295.42" y2="143.94"/><line class="cls-6" x1="255.19" y1="97.67" x2="295.42" y2="97.67"/><line class="cls-6" x1="255.19" y1="188.38" x2="295.42" y2="188.38"/><line class="cls-6" x1="255.19" y1="190.09" x2="295.42" y2="190.09"/><line class="cls-6" x1="255.19" y1="234.6" x2="295.42" y2="234.6"/><line class="cls-6" x1="255.19" y1="236.3" x2="295.42" y2="236.3"/><line class="cls-6" x1="255.19" y1="280.81" x2="295.42" y2="280.81"/><line class="cls-6" x1="255.19" y1="282.52" x2="295.42" y2="282.52"/><line class="cls-6" x1="255.19" y1="327.02" x2="295.42" y2="327.02"/><line class="cls-6" x1="255.19" y1="328.73" x2="295.42" y2="328.73"/><line class="cls-6" x1="255.19" y1="373.23" x2="295.42" y2="373.23"/><line class="cls-6" x1="531.27" y1="142.24" x2="544.73" y2="142.24"/><line class="cls-6" x1="531.27" y1="143.94" x2="544.73" y2="143.94"/><line class="cls-6" x1="531.27" y1="97.66" x2="544.73" y2="97.66"/><line class="cls-6" x1="531.27" y1="188.38" x2="544.73" y2="188.38"/><line class="cls-6" x1="531.27" y1="190.09" x2="544.73" y2="190.09"/><line class="cls-6" x1="531.27" y1="234.59" x2="544.73" y2="234.59"/><line class="cls-6" x1="531.27" y1="236.3" x2="544.73" y2="236.3"/><line class="cls-6" x1="531.27" y1="280.81" x2="544.73" y2="280.81"/><line class="cls-6" x1="531.27" y1="282.52" x2="544.73" y2="282.52"/><line class="cls-6" x1="531.27" y1="327.02" x2="544.73" y2="327.02"/><line class="cls-6" x1="531.27" y1="328.73" x2="544.73" y2="328.73"/><line class="cls-6" x1="531.27" y1="373.23" x2="544.73" y2="373.23"/><g><g><path class="cls-9" d="M544.73,718.18v217.36h-181.94v-276.29h2.94c59.67,19.64,119.33,39.28,179,58.93Z"/><path class="cls-9" d="M362.79,379.22h51.93c-2.59,95.23-19.1,189.57-48.99,280.03h-2.94V379.22Z"/><path class="cls-9" d="M353.4,763.62v171.92h-98.13v-151.79c0-2.9,0-5.79,.01-8.67,0-3.54,.04-7.07,.1-10.59,.05-3.14,.14-6.28,.26-9.41,.11-2.85,.25-5.68,.44-8.51,.18-2.84,.41-5.66,.69-8.48,.23-2.27,.49-4.55,.79-6.81,.3-2.27,.63-4.52,1.01-6.77s.81-4.49,1.27-6.72c.47-2.22,.99-4.44,1.55-6.64,.28-1.08,.57-2.16,.87-3.24,.25-.9,.51-1.8,.78-2.69,.26-.89,.54-1.78,.83-2.67,.28-.89,.58-1.78,.88-2.67s.6-1.77,.92-2.66c.6-1.71,1.23-3.41,1.87-5.12,.65-1.7,1.31-3.4,1.98-5.1,1.34-3.4,2.73-6.8,4.11-10.22,1.13-2.78,2.25-5.58,3.36-8.39,1.1-2.82,2.18-5.65,3.2-8.52,.65-1.8,1.28-3.62,1.88-5.45s1.18-3.68,1.72-5.54c.49-1.7,.95-3.42,1.38-5.15,.39-1.6,.76-3.21,1.08-4.84,.33-1.63,.62-3.27,.87-4.92,.21-1.39,.38-2.79,.52-4.19,.15-1.4,.25-2.81,.32-4.22,.03-.65,.05-1.3,.07-1.95,0-.44,.02-.88,.02-1.33s0-.89-.01-1.34c0-.44,0-.89-.03-1.34-.03-1.05-.09-2.1-.16-3.14-.08-1.05-.17-2.09-.29-3.13-.11-1.04-.24-2.08-.39-3.11-.24-1.64-.52-3.27-.84-4.89s-.68-3.22-1.07-4.82c-.39-1.59-.81-3.17-1.25-4.75-.45-1.57-.92-3.13-1.41-4.68-.5-1.55-1.01-3.09-1.54-4.63-.53-1.53-1.08-3.05-1.63-4.57-.56-1.51-1.13-3.02-1.71-4.52s-1.17-3-1.76-4.49c-1.19-2.97-2.39-5.92-3.58-8.86-.82-2.04-1.64-4.07-2.45-6.1-.8-2.02-1.59-4.05-2.36-6.08-.77-2.04-1.52-4.07-2.23-6.11-.49-1.42-.97-2.84-1.43-4.26-.28-.89-.56-1.78-.83-2.68-.27-.89-.53-1.79-.78-2.69-.26-.9-.5-1.8-.74-2.7-.56-2.16-1.07-4.33-1.54-6.51s-.9-4.37-1.28-6.58c-.39-2.2-.73-4.41-1.04-6.63-.36-2.64-.67-5.29-.93-7.96-.27-2.66-.49-5.33-.67-8.01-.18-2.67-.32-5.35-.43-8.04s-.19-5.38-.25-8.08c-.06-2.69-.09-5.39-.12-8.1-.02-2.7-.03-5.41-.03-8.12v-5.24l-.08-80.9h98.21v384.4Zm-.23-228.16c0-1.72-.16-3.43-.47-5.12-.33-1.8-.83-3.55-1.51-5.25-.7-1.76-1.57-3.46-2.61-5.05-1.06-1.62-2.29-3.13-3.66-4.5s-2.88-2.6-4.51-3.66c-1.59-1.04-3.28-1.92-5.04-2.62-1.7-.67-3.46-1.17-5.25-1.5-1.69-.32-3.41-.47-5.13-.47s-3.43,.15-5.12,.47c-1.8,.33-3.55,.83-5.25,1.5-1.76,.7-3.46,1.58-5.05,2.62-1.62,1.06-3.13,2.29-4.5,3.66s-2.6,2.88-3.66,4.5c-1.04,1.59-1.92,3.28-2.62,5.05-.67,1.7-1.17,3.45-1.5,5.25-.32,1.69-.47,3.4-.47,5.12s.15,3.44,.47,5.13c.33,1.79,.83,3.55,1.5,5.25,.7,1.76,1.58,3.45,2.62,5.04,1.06,1.63,2.29,3.14,3.66,4.51s2.88,2.6,4.5,3.66c1.59,1.04,3.28,1.91,5.05,2.61,1.7,.67,3.45,1.18,5.25,1.51,1.69,.31,3.4,.47,5.12,.47s3.44-.16,5.13-.47c1.79-.33,3.55-.83,5.25-1.51,1.76-.7,3.45-1.57,5.04-2.61,1.63-1.06,3.14-2.29,4.51-3.66s2.6-2.88,3.66-4.51c1.04-1.59,1.91-3.28,2.61-5.04,.67-1.7,1.18-3.46,1.51-5.25,.31-1.69,.47-3.41,.47-5.13Z"/></g><g><path class="cls-7" d="M324.99,507.29c-1.72,0-3.43,.15-5.12,.47-1.8,.33-3.55,.83-5.25,1.5-1.76,.7-3.46,1.58-5.05,2.62-1.62,1.06-3.13,2.29-4.5,3.66s-2.6,2.88-3.66,4.5c-1.04,1.59-1.92,3.28-2.62,5.05-.67,1.7-1.17,3.45-1.5,5.25-.32,1.69-.47,3.4-.47,5.12s.15,3.44,.47,5.13c.33,1.79,.83,3.55,1.5,5.25,.7,1.76,1.58,3.45,2.62,5.04,1.06,1.63,2.29,3.14,3.66,4.51s2.88,2.6,4.5,3.66c1.59,1.04,3.28,1.91,5.05,2.61,1.7,.67,3.45,1.18,5.25,1.51,1.69,.31,3.4,.47,5.12,.47s3.44-.16,5.13-.47c1.79-.33,3.55-.83,5.25-1.51,1.76-.7,3.45-1.57,5.04-2.61,1.63-1.06,3.14-2.29,4.51-3.66s2.6-2.88,3.66-4.51c1.04-1.59,1.91-3.28,2.61-5.04,.67-1.7,1.18-3.46,1.51-5.25,.31-1.69,.47-3.41,.47-5.13s-.16-3.43-.47-5.12c-.33-1.8-.83-3.55-1.51-5.25-.7-1.76-1.57-3.46-2.61-5.05-1.06-1.62-2.29-3.13-3.66-4.5s-2.88-2.6-4.51-3.66c-1.59-1.04-3.28-1.92-5.04-2.62-1.7-.67-3.46-1.17-5.25-1.5-1.69-.32-3.41-.47-5.13-.47Z"/><path class="cls-7" d="M324.99,515.11c-1.24,0-2.48,.12-3.7,.34-1.29,.24-2.56,.61-3.79,1.09-1.27,.51-2.49,1.14-3.64,1.89-1.18,.77-2.27,1.65-3.26,2.64s-1.87,2.08-2.64,3.26c-.75,1.15-1.38,2.37-1.89,3.64-.48,1.23-.85,2.5-1.09,3.79-.22,1.22-.34,2.46-.34,3.7s.12,2.49,.34,3.71c.24,1.29,.61,2.56,1.09,3.78,.51,1.28,1.14,2.5,1.89,3.65,.77,1.17,1.65,2.26,2.64,3.25s2.08,1.88,3.26,2.65c1.15,.75,2.37,1.38,3.64,1.89,1.23,.48,2.5,.85,3.79,1.09,1.22,.22,2.46,.33,3.7,.33s2.49-.11,3.71-.33c1.29-.24,2.56-.61,3.78-1.09,1.28-.51,2.5-1.14,3.65-1.89,1.17-.77,2.26-1.65,3.25-2.65,.99-.99,1.88-2.08,2.65-3.25,.75-1.15,1.38-2.37,1.89-3.64,.48-1.23,.85-2.5,1.09-3.79,.22-1.22,.33-2.46,.33-3.71s-.11-2.48-.33-3.7c-.24-1.29-.61-2.56-1.09-3.79-.51-1.27-1.14-2.49-1.89-3.64-.77-1.18-1.65-2.27-2.65-3.26-.99-.99-2.08-1.87-3.25-2.64-1.15-.75-2.37-1.38-3.64-1.89-1.23-.48-2.5-.85-3.79-1.09-1.22-.22-2.46-.34-3.71-.34Z"/><path class="cls-6" d="M281.84,633.64c-.19,0-.39,.04-.57,.11-.2,.08-.38,.2-.53,.35s-.27,.33-.35,.53c-.07,.18-.11,.38-.11,.57,0,.2,.04,.4,.11,.58,.08,.2,.2,.38,.35,.53s.33,.27,.53,.35c.18,.07,.38,.11,.57,.11,.2,0,.4-.04,.58-.11,.2-.08,.38-.2,.53-.35s.27-.33,.35-.53c.07-.18,.11-.38,.11-.58s-.04-.39-.11-.57c-.08-.2-.2-.38-.35-.53s-.33-.27-.53-.35c-.18-.07-.38-.11-.58-.11Z"/><path class="cls-6" d="M277.51,590.12c-.19,0-.39,.04-.57,.11-.2,.08-.38,.2-.53,.35s-.27,.33-.35,.53c-.07,.18-.11,.38-.11,.57,0,.2,.04,.4,.11,.58,.08,.2,.2,.38,.35,.53s.33,.27,.53,.35c.18,.07,.38,.11,.57,.11,.2,0,.4-.04,.58-.11,.2-.08,.38-.2,.53-.35s.27-.33,.35-.53c.07-.18,.11-.38,.11-.58,0-.16-.03-.33-.08-.48l-.03-.09c-.08-.2-.2-.38-.35-.53s-.33-.27-.53-.35c-.18-.07-.38-.11-.58-.11Z"/><path class="cls-6" d="M260.87,546.6c-.2,0-.39,.04-.58,.11-.19,.08-.37,.2-.53,.35-.15,.15-.27,.33-.34,.53-.08,.18-.11,.38-.11,.57,0,.2,.03,.4,.11,.58,.07,.2,.19,.38,.34,.53,.16,.15,.34,.27,.53,.35,.19,.07,.38,.11,.58,.11s.39-.04,.58-.11c.2-.08,.38-.2,.53-.35s.27-.33,.35-.53c.07-.18,.11-.38,.11-.58,0-.17-.03-.35-.09-.52-.01-.02-.01-.03-.02-.05-.08-.2-.2-.38-.35-.53s-.33-.27-.53-.35c-.19-.07-.38-.11-.58-.11Z"/><path class="cls-6" d="M251.64,503.08c-.2,0-.4,.04-.58,.11-.2,.08-.38,.2-.53,.35s-.27,.33-.35,.53c-.07,.18-.11,.38-.11,.57,0,.2,.04,.4,.11,.58,.08,.2,.2,.38,.35,.53s.33,.27,.53,.35c.18,.07,.38,.11,.58,.11s.39-.04,.57-.11c.2-.08,.38-.2,.53-.35,.16-.15,.27-.33,.35-.53,.08-.18,.11-.38,.11-.58s-.03-.39-.11-.57c-.08-.2-.19-.38-.35-.53-.15-.15-.33-.27-.53-.35-.18-.07-.38-.11-.57-.11Z"/><path class="cls-6" d="M250.25,459.56c-.2,0-.39,.04-.58,.11-.2,.08-.38,.2-.53,.35s-.27,.33-.35,.53c-.07,.18-.11,.38-.11,.57,0,.2,.04,.4,.11,.58,.08,.2,.2,.38,.35,.53s.33,.27,.53,.35c.19,.07,.38,.11,.58,.11s.39-.04,.58-.11c.19-.08,.38-.2,.53-.35s.27-.33,.35-.53c.07-.18,.11-.38,.11-.58s-.04-.39-.11-.57c-.08-.2-.2-.38-.35-.53s-.34-.27-.53-.35c-.19-.07-.38-.11-.58-.11Z"/><path class="cls-6" d="M250.18,416.04c-.19,0-.39,.04-.57,.11-.2,.08-.38,.2-.53,.35s-.27,.33-.35,.53c-.07,.18-.11,.38-.11,.57,0,.2,.04,.4,.11,.58,.08,.2,.2,.38,.35,.53s.33,.27,.53,.35c.18,.07,.38,.11,.57,.11,.2,0,.4-.04,.58-.11,.2-.08,.38-.2,.53-.35s.27-.33,.35-.53c.07-.18,.11-.38,.11-.58s-.04-.39-.11-.57c-.08-.2-.2-.38-.35-.53s-.33-.27-.53-.35c-.18-.07-.38-.11-.58-.11Z"/><path class="cls-6" d="M250.18,372.52c-.19,0-.39,.04-.57,.11-.2,.08-.38,.2-.53,.35s-.27,.33-.35,.53c-.07,.18-.11,.38-.11,.57,0,.2,.04,.4,.11,.58,.08,.2,.2,.38,.35,.53s.33,.27,.53,.35c.18,.07,.38,.11,.57,.11,.2,0,.4-.04,.58-.11,.2-.08,.38-.2,.53-.35s.27-.33,.35-.53c.07-.18,.11-.38,.11-.58s-.04-.39-.11-.57c-.08-.2-.2-.38-.35-.53s-.33-.27-.53-.35c-.18-.07-.38-.11-.58-.11Z"/><polyline class="cls-6" points="544.73 716.24 544.73 416.04 544.73 379.22"/><path class="cls-6" d="M290.17,938.9c-.18,0-.37,.04-.54,.1-.18,.08-.35,.19-.49,.33s-.25,.3-.32,.49c-.07,.17-.1,.35-.1,.53,0,.19,.03,.37,.1,.54,.07,.18,.18,.35,.32,.49s.31,.25,.49,.32c.17,.07,.36,.1,.54,.1s.36-.03,.53-.1c.19-.07,.36-.18,.5-.32s.25-.31,.32-.49c.07-.17,.1-.35,.1-.54,0-.18-.03-.36-.1-.53-.07-.19-.18-.35-.32-.49s-.31-.25-.5-.33c-.17-.06-.35-.1-.53-.1Z"/><path class="cls-6" d="M513.18,938.9c-.19,0-.39,.04-.57,.11-.2,.08-.38,.2-.53,.35s-.27,.33-.35,.53c-.07,.18-.11,.38-.11,.58s.04,.39,.11,.57c.08,.2,.2,.38,.35,.53,.15,.16,.33,.27,.53,.35,.18,.08,.38,.11,.57,.11,.2,0,.4-.03,.58-.11,.2-.08,.38-.19,.53-.35,.15-.15,.27-.33,.35-.53,.07-.18,.11-.38,.11-.57,0-.2-.04-.4-.11-.58-.08-.2-.2-.38-.35-.53s-.33-.27-.53-.35c-.18-.07-.38-.11-.58-.11Z"/><path class="cls-6" d="M423.98,938.9c-.18,0-.37,.04-.54,.1-.18,.08-.35,.19-.49,.33s-.25,.3-.32,.49c-.07,.17-.1,.35-.1,.53,0,.19,.03,.37,.1,.54,.07,.18,.18,.35,.32,.49s.31,.25,.49,.32c.17,.07,.36,.1,.54,.1s.36-.03,.53-.1c.19-.07,.35-.18,.49-.32s.25-.31,.33-.49c.07-.17,.1-.35,.1-.54,0-.18-.03-.36-.1-.53-.08-.19-.18-.35-.33-.49-.14-.14-.3-.25-.49-.33-.17-.06-.35-.1-.53-.1Z"/><path class="cls-6" d="M334.77,938.9c-.18,0-.36,.04-.53,.1-.19,.08-.35,.19-.49,.33s-.25,.3-.33,.49c-.06,.17-.1,.35-.1,.53,0,.19,.04,.37,.1,.54,.08,.18,.19,.35,.33,.49s.3,.25,.49,.32c.17,.07,.35,.1,.53,.1,.19,0,.37-.03,.54-.1,.18-.07,.35-.18,.49-.32s.25-.31,.32-.49c.07-.17,.1-.35,.1-.54,0-.18-.03-.36-.1-.53-.07-.19-.18-.35-.32-.49s-.31-.25-.49-.33c-.17-.06-.35-.1-.54-.1Z"/><polyline class="cls-6" points="541.44 379.22 541.44 404.27 420.13 404.27 420.13 379.22"/><line class="cls-6" x1="439.3" y1="398" x2="439.3" y2="379.22"/><line class="cls-6" x1="522.27" y1="398" x2="522.27" y2="379.22"/><line class="cls-6" x1="480.79" y1="398" x2="480.79" y2="379.22"/><line class="cls-6" x1="255.19" y1="97.66" x2="255.19" y2="373.23"/><polyline class="cls-6" points="356.53 937.11 356.53 938 359.66 938 359.66 937.11"/><polyline class="cls-8" points="538.75 681.55 529.24 678.42 519.72 675.29 510.2 672.15 500.22 668.87"/><polyline class="cls-8" points="538.75 681.55 528.97 711.26 528.96 711.29"/><polyline class="cls-8" points="510.2 672.15 500.42 701.86 500.41 701.89"/><polyline class="cls-8" points="519.72 675.28 519.72 675.29 509.94 705 509.93 705.02"/><polyline class="cls-8" points="529.24 678.42 519.46 708.13 519.45 708.16"/><path class="cls-8" d="M490.9,698.75s0-.01,.01-.02c3.24-9.91,6.34-19.87,9.3-29.86,24.42-82.28,39.35-167.12,44.49-252.83"/><line class="cls-6" x1="362.79" y1="643.12" x2="353.4" y2="643.12"/><path class="cls-6" d="M356.78,771.99c-.03-.2-.03-.4,0-.59,.05-.21,.13-.41,.26-.58,.12-.18,.28-.32,.46-.43,.17-.11,.36-.18,.55-.21,.2-.03,.39-.03,.59,.01,.21,.05,.41,.13,.58,.26,.17,.12,.32,.28,.43,.46,.1,.17,.17,.36,.21,.55,.03,.2,.03,.4-.02,.59-.04,.21-.13,.41-.25,.58-.12,.18-.28,.32-.47,.43-.16,.11-.35,.18-.55,.21-.19,.03-.39,.03-.58-.01-.21-.05-.41-.14-.58-.26-.18-.12-.32-.28-.44-.46-.1-.17-.17-.36-.2-.55Z"/><line class="cls-6" x1="362.79" y1="775.59" x2="353.4" y2="775.59"/><line class="cls-6" x1="353.4" y1="763.62" x2="362.79" y2="763.62"/><path class="cls-6" d="M356.78,767.22c-.03,.2-.03,.39,0,.59,.05,.21,.13,.4,.26,.58,.12,.17,.28,.32,.46,.43,.17,.1,.36,.17,.55,.21,.2,.03,.39,.02,.59-.02,.21-.04,.41-.13,.58-.25s.32-.28,.43-.47c.1-.16,.17-.35,.21-.55,.03-.19,.03-.39-.02-.58-.04-.21-.13-.41-.25-.58-.12-.18-.28-.33-.47-.44-.16-.1-.35-.17-.55-.2-.19-.03-.39-.03-.58,.01-.21,.05-.41,.13-.58,.26-.18,.12-.32,.28-.44,.46-.1,.17-.17,.36-.2,.55Z"/><path class="cls-6" d="M356.78,519.01c-.03-.2-.03-.39,0-.59,.05-.21,.13-.4,.26-.58,.12-.17,.28-.32,.46-.43,.17-.1,.36-.17,.55-.21,.2-.03,.39-.02,.59,.02,.21,.04,.41,.13,.58,.25,.17,.13,.32,.28,.43,.47,.1,.17,.17,.35,.21,.55,.03,.19,.03,.39-.02,.58-.04,.21-.13,.41-.25,.58-.12,.18-.28,.33-.47,.44-.16,.1-.35,.17-.55,.2-.19,.03-.39,.03-.58-.01-.21-.04-.41-.13-.58-.26-.18-.12-.32-.28-.44-.46-.1-.17-.17-.36-.2-.55Z"/><line class="cls-6" x1="362.79" y1="522.61" x2="353.4" y2="522.61"/><line class="cls-6" x1="353.4" y1="510.64" x2="362.79" y2="510.64"/><line class="cls-6" x1="255.27" y1="460.12" x2="255.19" y2="379.22"/><line class="cls-6" x1="253.7" y1="460.12" x2="253.63" y2="379.22"/><path class="cls-6" d="M255.27,783.75c0-2.9,0-5.79,.01-8.67,0-3.54,.04-7.07,.1-10.59,.05-3.14,.14-6.28,.26-9.41,.11-2.85,.25-5.68,.44-8.51,.18-2.84,.41-5.66,.69-8.48,.23-2.27,.49-4.55,.79-6.81,.3-2.27,.63-4.52,1.01-6.77s.81-4.49,1.27-6.72c.47-2.22,.99-4.44,1.55-6.64,.28-1.08,.57-2.16,.87-3.24,.25-.9,.51-1.8,.78-2.69,.26-.89,.54-1.78,.83-2.67,.28-.89,.58-1.78,.88-2.67s.6-1.77,.92-2.66c.6-1.71,1.23-3.41,1.87-5.12,.65-1.7,1.31-3.4,1.98-5.1,1.34-3.4,2.73-6.8,4.11-10.22,1.13-2.78,2.25-5.58,3.36-8.39,1.1-2.82,2.18-5.65,3.2-8.52,.65-1.8,1.28-3.62,1.88-5.45s1.18-3.68,1.72-5.54c.49-1.7,.95-3.42,1.38-5.15,.39-1.6,.76-3.21,1.08-4.84,.33-1.63,.62-3.27,.87-4.92,.21-1.39,.38-2.79,.52-4.19,.15-1.4,.25-2.81,.32-4.22,.03-.65,.05-1.3,.07-1.95,0-.44,.02-.88,.02-1.33s0-.89-.01-1.34c0-.44,0-.89-.03-1.34-.03-1.05-.09-2.1-.16-3.14-.08-1.05-.17-2.09-.29-3.13-.11-1.04-.24-2.08-.39-3.11-.24-1.64-.52-3.27-.84-4.89s-.68-3.22-1.07-4.82c-.39-1.59-.81-3.17-1.25-4.75-.45-1.57-.92-3.13-1.41-4.68-.5-1.55-1.01-3.09-1.54-4.63-.53-1.53-1.08-3.05-1.63-4.57-.56-1.51-1.13-3.02-1.71-4.52s-1.17-3-1.76-4.49c-1.19-2.97-2.39-5.92-3.58-8.86-.82-2.04-1.64-4.07-2.45-6.1-.8-2.02-1.59-4.05-2.36-6.08-.77-2.04-1.52-4.07-2.23-6.11-.49-1.42-.97-2.84-1.43-4.26-.28-.89-.56-1.78-.83-2.68-.27-.89-.53-1.79-.78-2.69-.26-.9-.5-1.8-.74-2.7-.56-2.16-1.07-4.33-1.54-6.51s-.9-4.37-1.28-6.58c-.39-2.2-.73-4.41-1.04-6.63-.36-2.64-.67-5.29-.93-7.96-.27-2.66-.49-5.33-.67-8.01-.18-2.67-.32-5.35-.43-8.04s-.19-5.38-.25-8.08c-.06-2.69-.09-5.39-.12-8.1-.02-2.7-.03-5.41-.03-8.12v-5.24"/><path class="cls-6" d="M253.7,783.75c0-2.9,0-5.79,0-8.68,.01-3.5,.04-7,.1-10.5s.16-6.99,.3-10.48,.34-6.98,.6-10.45c.22-2.79,.47-5.57,.78-8.35,.31-2.77,.67-5.54,1.1-8.3,.21-1.39,.44-2.77,.68-4.15,.25-1.36,.51-2.72,.78-4.08,.55-2.73,1.17-5.44,1.86-8.14,.26-1.01,.53-2.02,.81-3.03,.26-.92,.52-1.83,.79-2.74,.21-.7,.43-1.39,.64-2.08,.22-.69,.44-1.38,.67-2.07s.46-1.38,.7-2.07c.72-2.09,1.47-4.17,2.25-6.25s1.58-4.15,2.4-6.22,1.65-4.14,2.49-6.21c.83-2.07,1.68-4.14,2.51-6.22,.87-2.16,1.74-4.33,2.59-6.51s1.68-4.37,2.49-6.57c.8-2.2,1.58-4.42,2.31-6.66,.6-1.8,1.16-3.62,1.69-5.44,.53-1.83,1.03-3.67,1.48-5.53,.45-1.85,.86-3.72,1.22-5.6,.1-.54,.2-1.08,.29-1.63,.23-1.35,.44-2.7,.61-4.06,.2-1.57,.35-3.16,.46-4.75s.17-3.18,.17-4.78c0-.51,0-1.01-.01-1.52-.01-.5-.02-1.01-.04-1.51-.05-1.44-.15-2.87-.28-4.3-.14-1.43-.31-2.86-.51-4.28-.21-1.42-.44-2.83-.71-4.23-.27-1.41-.56-2.81-.89-4.2-.32-1.39-.67-2.77-1.03-4.14-.37-1.38-.77-2.75-1.17-4.11-.41-1.36-.84-2.71-1.28-4.06-.45-1.35-.91-2.69-1.38-4.02-.73-2.09-1.49-4.15-2.28-6.21-.78-2.06-1.58-4.11-2.39-6.15s-1.64-4.08-2.46-6.11c-1-2.46-1.99-4.92-2.98-7.37-.98-2.46-1.95-4.92-2.88-7.39-.7-1.83-1.37-3.66-2.02-5.5s-1.28-3.68-1.87-5.53c-.27-.85-.53-1.69-.78-2.54-.26-.84-.5-1.69-.74-2.55-.24-.85-.47-1.7-.69-2.56-.45-1.71-.87-3.43-1.26-5.16-.54-2.4-1.03-4.82-1.47-7.26-.44-2.43-.83-4.87-1.17-7.32s-.63-4.91-.89-7.37c-.08-.82-.16-1.65-.23-2.48-.16-1.64-.3-3.28-.42-4.92-.18-2.48-.32-4.96-.44-7.44s-.21-4.96-.28-7.44c-.07-2.49-.12-4.98-.15-7.47-.06-4.24-.07-8.5-.08-12.76v-4.18"/><polyline class="cls-6" points="546.37 379.22 544.73 379.22 541.44 379.22 522.27 379.22 480.79 379.22 439.3 379.22 420.13 379.22 416.36 379.22"/><polyline class="cls-6" points="353.4 935.54 353.4 775.59 353.4 763.62 353.4 643.12 353.4 522.61 353.4 510.64 353.4 379.22"/><polyline class="cls-6" points="354.96 379.22 353.4 379.22 255.19 379.22 253.63 379.22"/><polyline class="cls-6" points="253.63 91.17 253.63 374.08 253.63 379.22"/><polyline class="cls-6" points="544.73 935.54 544.73 718.18 544.73 718.1"/><polyline class="cls-6" points="546.37 937.11 546.37 903.84 546.37 858.44 546.37 813.04 546.37 767.64 546.37 722.24 546.37 716.99 546.37 678.72 546.37 635.2 546.37 591.68 546.37 548.16 546.37 504.64 546.37 461.12 546.37 417.6 546.37 379.22 546.37 374.08 546.37 91.17"/><polyline class="cls-6" points="255.27 935.54 353.4 935.54 362.79 935.54 544.73 935.54"/><polyline class="cls-6" points="253.7 937.11 290.17 937.11 334.77 937.11 356.53 937.11 359.66 937.11 379.38 937.11 423.98 937.11 468.58 937.11 513.18 937.11 546.37 937.11"/><polyline class="cls-6" points="255.27 769.65 255.27 783.75 255.27 935.54"/><polyline class="cls-6" points="253.7 769.65 253.7 783.75 253.7 813.04 253.7 858.44 253.7 903.84 253.7 937.11"/><polyline class="cls-6" points="362.79 533.25 362.79 643.12 362.79 659.25 362.79 763.62 362.79 775.59 362.79 935.54"/><line class="cls-6" x1="361.22" y1="379.22" x2="354.96" y2="379.22"/><polyline class="cls-6" points="362.79 533.25 362.79 522.61 362.79 510.64 362.79 379.22"/><path class="cls-6" d="M356.78,514.24c-.03,.2-.03,.4,0,.59,.05,.21,.13,.41,.26,.58,.12,.18,.28,.32,.46,.43,.17,.11,.36,.18,.55,.21,.2,.03,.39,.03,.59,0,.21-.05,.41-.13,.58-.26,.17-.12,.32-.28,.43-.46,.1-.17,.17-.36,.21-.55,.03-.2,.03-.4-.02-.59-.04-.21-.13-.41-.25-.58s-.28-.32-.47-.43c-.16-.11-.35-.17-.55-.21-.19-.03-.39-.03-.58,.01-.21,.05-.41,.14-.58,.26-.18,.12-.32,.28-.44,.46-.1,.17-.17,.36-.2,.55Z"/><line class="cls-6" x1="544.73" y1="97.66" x2="544.73" y2="373.23"/><path class="cls-6" d="M379.38,938.9c-.19,0-.37,.04-.54,.1-.18,.08-.35,.19-.49,.33s-.25,.3-.32,.49c-.07,.17-.11,.35-.11,.53,0,.19,.04,.37,.11,.54,.07,.18,.18,.35,.32,.49s.31,.25,.49,.32c.17,.07,.35,.1,.54,.1,.18,0,.36-.03,.53-.1,.18-.07,.35-.18,.49-.32s.25-.31,.32-.49c.07-.17,.11-.35,.11-.54,0-.18-.04-.36-.11-.53-.07-.19-.18-.35-.32-.49s-.31-.25-.49-.33c-.17-.06-.35-.1-.53-.1Z"/><path class="cls-6" d="M544.73,718.18c-59.67-19.65-119.33-39.29-179-58.93,29.89-90.46,46.4-184.8,48.99-280.03"/><line class="cls-6" x1="548.25" y1="417.6" x2="546.37" y2="417.6"/><line class="cls-6" x1="548.25" y1="461.12" x2="546.37" y2="461.12"/><line class="cls-6" x1="548.25" y1="504.64" x2="546.37" y2="504.64"/><line class="cls-6" x1="548.25" y1="548.16" x2="546.37" y2="548.16"/><line class="cls-6" x1="548.25" y1="591.68" x2="546.37" y2="591.68"/><line class="cls-6" x1="548.25" y1="635.2" x2="546.37" y2="635.2"/><line class="cls-6" x1="548.25" y1="678.72" x2="546.37" y2="678.72"/><line class="cls-6" x1="548.25" y1="722.24" x2="546.37" y2="722.24"/><line class="cls-6" x1="548.25" y1="767.64" x2="546.37" y2="767.64"/><line class="cls-6" x1="548.25" y1="813.04" x2="546.37" y2="813.04"/><line class="cls-6" x1="548.25" y1="858.44" x2="546.37" y2="858.44"/><line class="cls-6" x1="548.25" y1="903.84" x2="546.37" y2="903.84"/><line class="cls-6" x1="513.18" y1="938.9" x2="513.18" y2="937.11"/><line class="cls-6" x1="468.58" y1="938.9" x2="468.58" y2="937.11"/><line class="cls-6" x1="423.98" y1="938.9" x2="423.98" y2="937.11"/><polyline class="cls-6" points="379.38 938.89 379.38 937.11 379.38 937.1"/><line class="cls-6" x1="334.77" y1="938.9" x2="334.77" y2="937.11"/><line class="cls-6" x1="290.17" y1="938.9" x2="290.17" y2="937.11"/><line class="cls-6" x1="253.2" y1="504.5" x2="255.07" y2="504.33"/><line class="cls-6" x1="262.35" y1="547.64" x2="264.12" y2="547.02"/><line class="cls-6" x1="279" y1="591.2" x2="280.79" y2="590.62"/><line class="cls-6" x1="283.39" y1="635.47" x2="285.24" y2="635.79"/><line class="cls-6" x1="268.86" y1="679.31" x2="270.61" y2="680.01"/><line class="cls-6" x1="255.42" y1="722.52" x2="257.27" y2="722.84"/><line class="cls-6" x1="251.82" y1="903.84" x2="253.7" y2="903.84"/><line class="cls-6" x1="251.82" y1="858.44" x2="253.7" y2="858.44"/><line class="cls-6" x1="251.82" y1="813.04" x2="253.7" y2="813.04"/><line class="cls-6" x1="251.82" y1="767.64" x2="253.7" y2="767.64"/><line class="cls-6" x1="251.82" y1="461.12" x2="253.69" y2="461.12"/><line class="cls-6" x1="251.75" y1="417.6" x2="253.63" y2="417.6"/><polyline class="cls-6" points="416.36 379.22 416.34 379.22 414.72 379.22 362.79 379.22 361.22 379.22"/><path class="cls-6" d="M367.8,658.2c29.62-90.15,45.98-184.13,48.56-278.98"/><polyline class="cls-6" points="546.37 716.99 544.67 716.43 528.97 711.26 519.46 708.13 509.94 705 500.42 701.86 490.91 698.73 367.8 658.2"/><line class="cls-6" x1="548.25" y1="374.08" x2="546.37" y2="374.08"/><path class="cls-6" d="M468.58,938.9c-.18,0-.36,.04-.53,.1-.19,.08-.35,.19-.49,.33-.15,.14-.25,.3-.33,.49-.07,.17-.1,.35-.1,.53,0,.19,.03,.37,.1,.54,.07,.18,.18,.35,.33,.49,.14,.14,.3,.25,.49,.32,.17,.07,.35,.1,.53,.1s.37-.03,.54-.1c.18-.07,.35-.18,.49-.32s.25-.31,.32-.49c.07-.17,.1-.35,.1-.54,0-.18-.03-.36-.1-.53-.07-.19-.18-.35-.32-.49s-.31-.25-.49-.33c-.17-.06-.36-.1-.54-.1Z"/><path class="cls-6" d="M549.81,720.68c-.19,0-.39,.04-.57,.11-.2,.08-.38,.2-.53,.35s-.27,.33-.35,.53c-.07,.18-.11,.38-.11,.57,0,.2,.04,.4,.11,.58,.08,.2,.2,.38,.35,.53s.33,.27,.53,.35c.18,.07,.38,.11,.57,.11,.2,0,.4-.04,.58-.11,.2-.08,.38-.2,.53-.35s.27-.33,.35-.53c.07-.18,.11-.38,.11-.58s-.04-.39-.11-.57c-.08-.2-.2-.38-.35-.53s-.33-.27-.53-.35c-.18-.07-.38-.11-.58-.11Z"/><path class="cls-6" d="M549.81,766.08c-.19,0-.39,.03-.57,.11-.2,.08-.38,.19-.53,.35-.15,.15-.27,.33-.35,.53-.07,.18-.11,.37-.11,.57s.04,.39,.11,.58c.08,.2,.2,.38,.35,.53s.33,.27,.53,.35c.18,.07,.38,.11,.57,.11,.2,0,.4-.04,.58-.11,.2-.08,.38-.2,.53-.35s.27-.33,.35-.53c.07-.19,.11-.38,.11-.58s-.04-.39-.11-.57c-.08-.2-.2-.38-.35-.53-.15-.16-.33-.27-.53-.35-.18-.08-.38-.11-.58-.11Z"/><path class="cls-6" d="M549.81,811.48c-.19,0-.39,.03-.57,.11-.2,.07-.38,.19-.53,.34s-.27,.34-.35,.53c-.07,.19-.11,.38-.11,.58s.04,.39,.11,.58c.08,.2,.2,.38,.35,.53s.33,.27,.53,.35c.18,.07,.38,.11,.57,.11,.2,0,.4-.04,.58-.11,.2-.08,.38-.2,.53-.35s.27-.33,.35-.53c.07-.19,.11-.38,.11-.58s-.04-.39-.11-.58c-.08-.19-.2-.38-.35-.53s-.33-.27-.53-.34c-.18-.08-.38-.11-.58-.11Z"/><path class="cls-6" d="M549.81,856.87c-.19,0-.39,.04-.57,.11-.2,.08-.38,.2-.53,.35s-.27,.33-.35,.53c-.07,.19-.11,.38-.11,.58s.04,.39,.11,.58c.08,.19,.2,.37,.35,.53,.15,.15,.33,.27,.53,.34,.18,.08,.38,.11,.57,.11,.2,0,.4-.03,.58-.11,.2-.07,.38-.19,.53-.34,.15-.16,.27-.34,.35-.53,.07-.19,.11-.38,.11-.58s-.04-.39-.11-.58c-.08-.2-.2-.38-.35-.53s-.33-.27-.53-.35c-.18-.07-.38-.11-.58-.11Z"/><path class="cls-6" d="M549.81,902.27c-.19,0-.39,.04-.57,.11-.2,.08-.38,.2-.53,.35s-.27,.33-.35,.53c-.07,.19-.11,.38-.11,.58s.04,.39,.11,.57c.08,.2,.2,.38,.35,.53,.15,.16,.33,.27,.53,.35,.18,.08,.38,.11,.57,.11,.2,0,.4-.03,.58-.11,.2-.08,.38-.19,.53-.35,.15-.15,.27-.33,.35-.53,.07-.18,.11-.37,.11-.57s-.04-.39-.11-.58c-.08-.2-.2-.38-.35-.53s-.33-.27-.53-.35c-.18-.07-.38-.11-.58-.11Z"/><path class="cls-6" d="M549.81,677.16c-.19,0-.39,.04-.57,.11-.2,.08-.38,.2-.53,.35s-.27,.33-.35,.53c-.07,.18-.11,.38-.11,.57,0,.2,.04,.4,.11,.58,.08,.2,.2,.38,.35,.53s.33,.27,.53,.35c.18,.07,.38,.11,.57,.11,.2,0,.4-.04,.58-.11,.2-.08,.38-.2,.53-.35s.27-.33,.35-.53c.07-.18,.11-.38,.11-.58s-.04-.39-.11-.57c-.08-.2-.2-.38-.35-.53s-.33-.27-.53-.35c-.18-.07-.38-.11-.58-.11Z"/><path class="cls-6" d="M549.81,633.64c-.19,0-.39,.04-.57,.11-.2,.08-.38,.2-.53,.35s-.27,.33-.35,.53c-.07,.18-.11,.38-.11,.57,0,.2,.04,.4,.11,.58,.08,.2,.2,.38,.35,.53s.33,.27,.53,.35c.18,.07,.38,.11,.57,.11,.2,0,.4-.04,.58-.11,.2-.08,.38-.2,.53-.35s.27-.33,.35-.53c.07-.18,.11-.38,.11-.58s-.04-.39-.11-.57c-.08-.2-.2-.38-.35-.53s-.33-.27-.53-.35c-.18-.07-.38-.11-.58-.11Z"/><path class="cls-6" d="M549.81,590.12c-.19,0-.39,.04-.57,.11-.2,.08-.38,.2-.53,.35s-.27,.33-.35,.53c-.07,.18-.11,.38-.11,.57,0,.2,.04,.4,.11,.58,.08,.2,.2,.38,.35,.53s.33,.27,.53,.35c.18,.07,.38,.11,.57,.11,.2,0,.4-.04,.58-.11,.2-.08,.38-.2,.53-.35s.27-.33,.35-.53c.07-.18,.11-.38,.11-.58s-.04-.39-.11-.57c-.08-.2-.2-.38-.35-.53s-.33-.27-.53-.35c-.18-.07-.38-.11-.58-.11Z"/><path class="cls-6" d="M549.81,546.6c-.19,0-.39,.04-.57,.11-.2,.08-.38,.2-.53,.35s-.27,.33-.35,.53c-.07,.18-.11,.38-.11,.57,0,.2,.04,.4,.11,.58,.08,.2,.2,.38,.35,.53s.33,.27,.53,.35c.18,.07,.38,.11,.57,.11,.2,0,.4-.04,.58-.11,.2-.08,.38-.2,.53-.35s.27-.33,.35-.53c.07-.18,.11-.38,.11-.58s-.04-.39-.11-.57c-.08-.2-.2-.38-.35-.53s-.33-.27-.53-.35c-.18-.07-.38-.11-.58-.11Z"/><path class="cls-6" d="M549.81,503.08c-.19,0-.39,.04-.57,.11-.2,.08-.38,.2-.53,.35s-.27,.33-.35,.53c-.07,.18-.11,.38-.11,.57,0,.2,.04,.4,.11,.58,.08,.2,.2,.38,.35,.53s.33,.27,.53,.35c.18,.07,.38,.11,.57,.11,.2,0,.4-.04,.58-.11,.2-.08,.38-.2,.53-.35s.27-.33,.35-.53c.07-.18,.11-.38,.11-.58s-.04-.39-.11-.57c-.08-.2-.2-.38-.35-.53s-.33-.27-.53-.35c-.18-.07-.38-.11-.58-.11Z"/><path class="cls-6" d="M549.81,459.56c-.19,0-.39,.04-.57,.11-.2,.08-.38,.2-.53,.35s-.27,.33-.35,.53c-.07,.18-.11,.38-.11,.57,0,.2,.04,.4,.11,.58,.08,.2,.2,.38,.35,.53s.33,.27,.53,.35c.18,.07,.38,.11,.57,.11,.2,0,.4-.04,.58-.11,.2-.08,.38-.2,.53-.35s.27-.33,.35-.53c.07-.18,.11-.38,.11-.58s-.04-.39-.11-.57c-.08-.2-.2-.38-.35-.53s-.33-.27-.53-.35c-.18-.07-.38-.11-.58-.11Z"/><path class="cls-6" d="M549.81,416.04c-.19,0-.39,.04-.57,.11-.2,.08-.38,.2-.53,.35s-.27,.33-.35,.53c-.07,.18-.11,.38-.11,.57,0,.2,.04,.4,.11,.58,.08,.2,.2,.38,.35,.53s.33,.27,.53,.35c.18,.07,.38,.11,.57,.11,.2,0,.4-.04,.58-.11,.2-.08,.38-.2,.53-.35s.27-.33,.35-.53c.07-.18,.11-.38,.11-.58s-.04-.39-.11-.57c-.08-.2-.2-.38-.35-.53s-.33-.27-.53-.35c-.18-.07-.38-.11-.58-.11Z"/><path class="cls-6" d="M549.81,372.52c-.19,0-.39,.04-.57,.11-.2,.08-.38,.2-.53,.35s-.27,.33-.35,.53c-.07,.18-.11,.38-.11,.57,0,.2,.04,.4,.11,.58,.08,.2,.2,.38,.35,.53s.33,.27,.53,.35c.18,.07,.38,.11,.57,.11,.2,0,.4-.04,.58-.11,.2-.08,.38-.2,.53-.35s.27-.33,.35-.53c.07-.18,.11-.38,.11-.58s-.04-.39-.11-.57c-.08-.2-.2-.38-.35-.53s-.33-.27-.53-.35c-.18-.07-.38-.11-.58-.11Z"/><line class="cls-6" x1="251.75" y1="374.08" x2="253.63" y2="374.08"/><path class="cls-6" d="M253.88,720.68c-.2,0-.4,.04-.58,.11-.2,.08-.38,.2-.53,.35s-.27,.33-.35,.53c-.07,.18-.11,.38-.11,.57,0,.2,.04,.4,.11,.58,.08,.2,.2,.38,.35,.53s.33,.27,.53,.35c.18,.07,.38,.11,.58,.11s.39-.04,.57-.11c.2-.08,.38-.2,.53-.35,.16-.15,.27-.33,.35-.53,.08-.18,.11-.38,.11-.58s-.03-.39-.11-.57c-.08-.2-.19-.38-.35-.53-.15-.15-.33-.27-.53-.35-.18-.07-.38-.11-.57-.11Z"/><path class="cls-6" d="M250.26,766.08c-.2,0-.39,.03-.58,.11-.2,.08-.38,.19-.53,.35-.15,.15-.27,.33-.35,.53-.07,.18-.11,.37-.11,.57s.04,.39,.11,.58c.08,.2,.2,.38,.35,.53s.33,.27,.53,.35c.19,.07,.38,.11,.58,.11s.39-.04,.57-.11c.2-.08,.38-.2,.54-.35,.15-.15,.26-.33,.34-.53,.08-.19,.11-.38,.11-.58s-.03-.39-.11-.57c-.08-.2-.19-.38-.34-.53-.16-.16-.34-.27-.54-.35-.18-.08-.37-.11-.57-.11Z"/><path class="cls-6" d="M250.26,811.48c-.2,0-.39,.03-.58,.11-.2,.07-.38,.19-.53,.34s-.27,.34-.35,.53c-.07,.19-.11,.38-.11,.58s.04,.39,.11,.58c.08,.2,.2,.38,.35,.53s.33,.27,.53,.35c.19,.07,.38,.11,.58,.11s.39-.04,.57-.11c.2-.08,.38-.2,.54-.35,.15-.15,.26-.33,.34-.53,.08-.19,.11-.38,.11-.58s-.03-.39-.11-.58-.19-.38-.34-.53c-.16-.15-.34-.27-.54-.34-.18-.08-.37-.11-.57-.11Z"/><path class="cls-6" d="M250.26,856.87c-.2,0-.39,.04-.58,.11-.2,.08-.38,.2-.53,.35s-.27,.33-.35,.53c-.07,.19-.11,.38-.11,.58s.04,.39,.11,.58c.08,.19,.2,.37,.35,.53,.15,.15,.33,.27,.53,.34,.19,.08,.38,.11,.58,.11s.39-.03,.57-.11c.2-.07,.38-.19,.54-.34,.15-.16,.26-.34,.34-.53s.11-.38,.11-.58-.03-.39-.11-.58c-.08-.2-.19-.38-.34-.53-.16-.15-.34-.27-.54-.35-.18-.07-.37-.11-.57-.11Z"/><path class="cls-6" d="M250.26,902.27c-.2,0-.39,.04-.58,.11-.2,.08-.38,.2-.53,.35s-.27,.33-.35,.53c-.07,.19-.11,.38-.11,.58s.04,.39,.11,.57c.08,.2,.2,.38,.35,.53,.15,.16,.33,.27,.53,.35,.19,.08,.38,.11,.58,.11s.39-.03,.57-.11c.2-.08,.38-.19,.54-.35,.15-.15,.26-.33,.34-.53,.08-.18,.11-.37,.11-.57s-.03-.39-.11-.58c-.08-.2-.19-.38-.34-.53-.16-.15-.34-.27-.54-.35-.18-.07-.37-.11-.57-.11Z"/><path class="cls-6" d="M267.41,677.16c-.19,0-.39,.04-.57,.11-.2,.08-.38,.2-.53,.35s-.27,.33-.35,.53c-.07,.18-.11,.38-.11,.57,0,.2,.04,.4,.11,.58,.08,.2,.2,.38,.35,.53s.33,.27,.53,.35c.18,.07,.38,.11,.57,.11,.2,0,.4-.04,.58-.11,.2-.08,.38-.2,.53-.35s.27-.32,.34-.52h.01c.07-.19,.11-.39,.11-.59s-.04-.39-.11-.57c-.08-.2-.2-.38-.35-.53s-.33-.27-.53-.35c-.18-.07-.38-.11-.58-.11Z"/></g></g></g><g id="Wall"><line class="cls-4" x1="413.93" y1="197" x2="413.93" y2="330.69"/><line class="cls-4" x1="375.74" y1="149.41" x2="375.74" y2="109.02"/><line class="cls-4" x1="410.18" y1="109.02" x2="410.18" y2="128.12"/><rect class="cls-4" x="375.74" y="152.65" width="34.44" height="9.91"/><polygon class="cls-4" points="498.47 232.07 498.47 228.62 468.41 228.62 468.41 166 498.47 166 498.47 162.56 448.69 162.56 448.69 166 464.97 166 464.97 228.62 448.69 228.62 448.69 232.07 498.47 232.07"/><line class="cls-4" x1="375.74" y1="149.41" x2="413.93" y2="149.41"/><line class="cls-4" x1="531.34" y1="104.33" x2="371.98" y2="104.33"/><line class="cls-4" x1="371.98" y1="104.33" x2="371.98" y2="109.02"/><line class="cls-4" x1="413.93" y1="149.41" x2="413.93" y2="166"/><line class="cls-4" x1="413.93" y1="166" x2="371.98" y2="166"/><polyline class="cls-4" points="531.34 104.33 531.34 358.87 526.65 358.87 526.65 109.02"/><line class="cls-4" x1="410.18" y1="128.12" x2="413.93" y2="128.12"/><line class="cls-4" x1="413.93" y1="128.12" x2="413.93" y2="109.02"/><line class="cls-4" x1="410.18" y1="109.02" x2="375.74" y2="109.02"/><line class="cls-4" x1="526.65" y1="109.02" x2="413.93" y2="109.02"/><line class="cls-4" x1="413.93" y1="358.87" x2="339.25" y2="358.87"/><line class="cls-4" x1="410.18" y1="197" x2="413.93" y2="197"/><line class="cls-4" x1="413.93" y1="330.69" x2="410.18" y2="330.69"/><line class="cls-4" x1="371.98" y1="109.02" x2="371.98" y2="166"/><line class="cls-4" x1="300.12" y1="358.87" x2="300.12" y2="109.02"/><line class="cls-4" x1="295.43" y1="358.87" x2="295.43" y2="109.02"/><line class="cls-4" x1="300.12" y1="358.87" x2="295.43" y2="358.87"/><line class="cls-4" x1="410.18" y1="330.69" x2="410.18" y2="197"/><line class="cls-4" x1="339.25" y1="363.57" x2="339.25" y2="358.87"/><line class="cls-4" x1="413.93" y1="363.57" x2="339.25" y2="363.57"/><line class="cls-4" x1="413.93" y1="358.87" x2="413.93" y2="363.57"/><line class="cls-4" x1="300.12" y1="109.02" x2="295.43" y2="109.02"/></g><g id="Window_Door_Stairs"><line class="cls-5" x1="295.43" y1="104.33" x2="295.43" y2="109.02"/><line class="cls-5" x1="413.93" y1="330.69" x2="413.93" y2="358.87"/><line class="cls-5" x1="410.18" y1="330.69" x2="410.18" y2="358.88"/><polyline class="cls-5" points="413.93 363.57 531.34 363.57 531.34 358.87"/><line class="cls-5" x1="413.93" y1="358.87" x2="526.65" y2="358.87"/><line class="cls-5" x1="339.25" y1="358.87" x2="300.12" y2="358.87"/><polyline class="cls-5" points="339.25 363.57 295.43 363.57 295.43 358.87"/><line class="cls-5" x1="371.98" y1="109.02" x2="295.43" y2="109.02"/><line class="cls-5" x1="371.98" y1="104.33" x2="295.43" y2="104.33"/><line class="cls-5" x1="410.18" y1="340.71" x2="375.74" y2="340.71"/><line class="cls-5" x1="410.18" y1="247.72" x2="375.74" y2="247.72"/><line class="cls-5" x1="410.18" y1="256.18" x2="375.74" y2="256.18"/><line class="cls-5" x1="410.18" y1="264.63" x2="375.74" y2="264.63"/><line class="cls-5" x1="410.18" y1="273.08" x2="375.74" y2="273.08"/><line class="cls-5" x1="410.18" y1="281.54" x2="375.74" y2="281.54"/><line class="cls-5" x1="410.18" y1="289.99" x2="375.74" y2="289.99"/><line class="cls-5" x1="410.18" y1="298.44" x2="375.74" y2="298.44"/><line class="cls-5" x1="410.18" y1="306.9" x2="375.74" y2="306.9"/><line class="cls-5" x1="410.18" y1="315.35" x2="375.74" y2="315.35"/><line class="cls-5" x1="410.18" y1="323.8" x2="375.74" y2="323.8"/><line class="cls-5" x1="410.18" y1="332.26" x2="375.74" y2="332.26"/><line class="cls-5" x1="410.18" y1="239.27" x2="375.74" y2="239.27"/><line class="cls-5" x1="375.74" y1="197" x2="410.18" y2="197"/><line class="cls-5" x1="410.18" y1="205.45" x2="375.74" y2="205.45"/><line class="cls-5" x1="410.18" y1="213.91" x2="375.74" y2="213.91"/><line class="cls-5" x1="410.18" y1="222.36" x2="375.74" y2="222.36"/><line class="cls-5" x1="410.18" y1="230.82" x2="375.74" y2="230.82"/><line class="cls-5" x1="375.74" y1="340.71" x2="375.74" y2="330.69"/></g><g id="Accessory"><line class="cls-7" x1="371.98" y1="224.62" x2="300.12" y2="224.62"/><line class="cls-7" x1="414.04" y1="128.12" x2="526.65" y2="128.12"/><line class="cls-7" x1="371.98" y1="330.69" x2="375.74" y2="330.69"/><line class="cls-7" x1="300.12" y1="123.11" x2="371.98" y2="123.11"/><line class="cls-7" x1="498.47" y1="228.62" x2="498.48" y2="166"/><line class="cls-7" x1="371.98" y1="330.69" x2="371.98" y2="214.37"/><polyline class="cls-7" points="448.69 162.56 448.69 157.86 498.47 157.86 498.47 162.56"/><polyline class="cls-7" points="448.69 232.07 448.69 236.76 498.47 236.76 498.47 232.07"/><line class="cls-7" x1="375.74" y1="197" x2="375.74" y2="214.37"/><line class="cls-7" x1="371.98" y1="197" x2="375.74" y2="197"/><line class="cls-7" x1="371.98" y1="214.37" x2="371.98" y2="197"/><line class="cls-7" x1="375.74" y1="214.37" x2="375.74" y2="330.69"/><line class="cls-7" x1="448.69" y1="228.62" x2="448.69" y2="166"/><line class="cls-7" x1="300.12" y1="234.89" x2="371.98" y2="234.89"/><line class="cls-7" x1="300.12" y1="235.82" x2="371.98" y2="235.82"/></g><g id="TEXT"><g><path d="M31.17,1024.55h-4.68v-.9h1.89v-6.91l-1.78,.89v-1.04l1.92-.99h.89v8.05h1.76v.9Z"/><path d="M61.68,1019.67c.59,.14,1.06,.41,1.39,.81s.5,.88,.5,1.43c0,.81-.29,1.45-.88,1.93-.59,.48-1.29,.72-2.12,.72h-2.53v-8.9h2.47c.86,0,1.53,.19,2.01,.56,.48,.38,.73,.91,.73,1.59,0,.42-.14,.79-.42,1.12-.28,.33-.67,.57-1.16,.71v.02Zm-2.59-.48h1.21c1.27,0,1.9-.45,1.9-1.36,0-.41-.16-.73-.47-.95-.31-.22-.77-.33-1.37-.33h-1.27v2.64Zm0,4.46h1.17c.69,0,1.23-.16,1.63-.47,.4-.31,.6-.74,.6-1.28,0-.58-.2-1.02-.59-1.34-.4-.32-.97-.47-1.72-.47h-1.1v3.56Z"/><path d="M71.1,1021.29h-4.51c0,.74,.22,1.36,.65,1.84s.96,.73,1.59,.73,1.21-.11,1.85-.32l.17,.79c-.58,.26-1.26,.39-2.03,.39-.98,0-1.76-.31-2.36-.94-.6-.63-.9-1.47-.9-2.54s.27-1.87,.8-2.49,1.23-.93,2.08-.93c.76,0,1.39,.29,1.9,.86s.76,1.34,.76,2.3v.31Zm-1.07-.8c0-.51-.16-.95-.48-1.3-.32-.35-.68-.53-1.07-.53-.51,0-.93,.17-1.26,.5-.33,.34-.52,.78-.56,1.32h3.37Z"/><path d="M78.63,1024.55h-.98v-.95c-.2,.32-.49,.59-.87,.8-.38,.21-.77,.32-1.19,.32-.75,0-1.35-.33-1.79-1.01-.44-.67-.66-1.52-.66-2.55,0-.96,.23-1.76,.68-2.39,.46-.63,1.06-.95,1.81-.95,.83,0,1.5,.34,2,1.01v-3.18h.98v8.9Zm-.98-2.01v-2.73c-.47-.76-1.04-1.14-1.7-1.14-.54,0-.97,.24-1.29,.72-.32,.48-.47,1.09-.47,1.83s.15,1.38,.44,1.88c.3,.49,.7,.74,1.22,.74,.25,0,.5-.07,.75-.2,.25-.13,.49-.34,.71-.61,.22-.27,.33-.43,.33-.49Z"/><path d="M30.93,1043.62h-4.9v-.75c1.24-1.38,2.05-2.31,2.42-2.78s.67-.96,.9-1.48c.23-.52,.35-1.03,.35-1.55s-.15-.89-.45-1.17c-.3-.29-.72-.43-1.26-.43-.42,0-.98,.13-1.68,.38l-.15-.89c.63-.27,1.3-.4,1.99-.4,.79,0,1.44,.22,1.92,.67,.49,.45,.73,1.05,.73,1.79,0,.53-.13,1.06-.38,1.59s-.57,1.03-.96,1.51-1.15,1.35-2.28,2.6h3.75v.9Z"/><path d="M61.68,1038.74c.59,.14,1.06,.41,1.39,.81s.5,.88,.5,1.43c0,.81-.29,1.45-.88,1.93-.59,.48-1.29,.72-2.12,.72h-2.53v-8.9h2.47c.86,0,1.53,.19,2.01,.56,.48,.38,.73,.91,.73,1.59,0,.42-.14,.79-.42,1.12-.28,.33-.67,.57-1.16,.71v.02Zm-2.59-.48h1.21c1.27,0,1.9-.45,1.9-1.36,0-.41-.16-.73-.47-.95-.31-.22-.77-.33-1.37-.33h-1.27v2.64Zm0,4.46h1.17c.69,0,1.23-.16,1.63-.47,.4-.31,.6-.74,.6-1.28,0-.58-.2-1.02-.59-1.34-.4-.32-.97-.47-1.72-.47h-1.1v3.56Z"/><path d="M71.07,1043.62h-.98c-.08-.26-.12-.62-.12-1.06-.56,.82-1.32,1.23-2.28,1.23-.49,0-.92-.17-1.29-.52-.37-.35-.56-.79-.56-1.34,0-.32,.06-.61,.2-.86,.13-.25,.32-.46,.57-.63,.25-.17,.56-.3,.92-.4,.36-.1,.79-.17,1.29-.21l1.1-.09v-.32c0-1.13-.53-1.69-1.58-1.69-.25,0-.56,.05-.94,.16-.38,.11-.71,.23-.98,.38l-.26-.71c.9-.46,1.73-.69,2.5-.69,1.5,0,2.25,.79,2.25,2.38v2.83c0,.57,.05,1.08,.16,1.53Zm-1.15-1.95v-1.19c-.89,.08-1.5,.16-1.83,.22s-.62,.2-.86,.39-.36,.45-.36,.77c0,.29,.1,.53,.31,.71s.47,.27,.79,.27c.35,0,.7-.1,1.04-.31,.34-.21,.65-.5,.91-.86Z"/><path d="M78.72,1043.32c-.66,.3-1.31,.45-1.95,.45-1.17,0-1.76-.62-1.76-1.86v-4.02h-1.26v-.85h1.26v-1.8h.96v1.8h2.23v.85h-2.23v3.76c0,.4,.09,.71,.26,.93,.18,.22,.42,.33,.72,.33,.54,0,1.07-.12,1.6-.36l.17,.76Z"/><path d="M86.41,1043.62h-.98v-4.21c0-.58-.09-1.01-.28-1.27s-.48-.39-.88-.39c-.6,0-1.25,.37-1.94,1.12v4.76h-.98v-8.9h.98v3.29c.71-.75,1.45-1.12,2.23-1.12,1.23,0,1.85,.74,1.85,2.23v4.5Z"/><path d="M94.27,1037.22l-.4,.95c-.43-.19-.81-.28-1.12-.28-.29,0-.57,.08-.85,.25-.28,.17-.53,.4-.77,.71-.23,.31-.35,.48-.35,.52v4.25h-.98v-6.57h.98v1.33c.53-.99,1.21-1.49,2.04-1.49,.5,0,.98,.11,1.44,.33Z"/><path d="M99.37,1036.89c.9,0,1.62,.32,2.16,.95s.8,1.46,.8,2.49-.27,1.88-.8,2.51-1.25,.95-2.16,.95-1.63-.32-2.16-.95c-.53-.63-.8-1.47-.8-2.51s.27-1.87,.8-2.49c.53-.63,1.25-.94,2.16-.94Zm0,6.04c.6,0,1.07-.25,1.41-.76s.52-1.12,.52-1.84c0-.76-.17-1.38-.51-1.87-.34-.49-.81-.73-1.42-.73s-1.08,.24-1.42,.72c-.34,.48-.5,1.11-.5,1.88s.17,1.35,.51,1.85c.34,.5,.81,.75,1.41,.75Z"/><path d="M107.12,1036.89c.9,0,1.62,.32,2.16,.95s.8,1.46,.8,2.49-.27,1.88-.8,2.51-1.25,.95-2.16,.95-1.63-.32-2.16-.95c-.53-.63-.8-1.47-.8-2.51s.27-1.87,.8-2.49c.53-.63,1.25-.94,2.16-.94Zm0,6.04c.6,0,1.07-.25,1.41-.76s.52-1.12,.52-1.84c0-.76-.17-1.38-.51-1.87-.34-.49-.81-.73-1.42-.73s-1.08,.24-1.42,.72c-.34,.48-.5,1.11-.5,1.88s.17,1.35,.51,1.85c.34,.5,.81,.75,1.41,.75Z"/><path d="M117.94,1043.62h-.98v-4.31c0-1.04-.19-1.56-.58-1.56-.2,0-.42,.18-.65,.54-.24,.36-.36,.56-.36,.6v4.74h-.98v-4.31c0-1.04-.2-1.56-.59-1.56-.19,0-.41,.18-.65,.54-.24,.36-.36,.56-.36,.6v4.74h-.98v-6.57h.95v.99c.19-.35,.4-.63,.66-.84,.25-.21,.51-.31,.76-.31,.27,0,.5,.1,.71,.31,.21,.21,.35,.49,.44,.84,.19-.35,.41-.63,.66-.84,.26-.21,.51-.31,.76-.31,.79,0,1.19,.71,1.19,2.13v4.6Z"/><path d="M29.17,1057.91c.54,.15,.98,.43,1.31,.83,.33,.4,.49,.85,.49,1.35,0,.78-.31,1.44-.92,1.97-.61,.53-1.33,.8-2.16,.8-.71,0-1.34-.16-1.9-.47l.2-.85c.58,.27,1.16,.41,1.73,.41,.54,0,1-.17,1.38-.5,.38-.33,.57-.76,.57-1.29s-.2-.94-.61-1.26c-.41-.32-.95-.49-1.62-.49h-.27v-.85h.08c.65,0,1.18-.15,1.6-.46,.42-.3,.63-.72,.63-1.23,0-.42-.15-.75-.45-.99-.3-.24-.72-.36-1.25-.36-.46,0-.97,.12-1.54,.37l-.14-.89c.57-.26,1.15-.39,1.73-.39,.79,0,1.45,.21,1.96,.63,.52,.42,.77,.96,.77,1.61,0,.45-.16,.88-.47,1.27-.31,.39-.69,.64-1.13,.74v.04Z"/><path d="M64.21,1053.79l-1.14,8.9h-.96l-1.51-5.01-1.51,5.01h-.98l-1.11-8.9h1.02l.75,7.24,1.31-4.38h1.03l1.32,4.39,.76-7.25h1.01Z"/><path d="M71.24,1062.14c-.7,.48-1.51,.72-2.43,.72-1.15,0-2.03-.39-2.63-1.19-.6-.79-.9-1.93-.9-3.43s.29-2.58,.87-3.4c.58-.82,1.47-1.23,2.66-1.23,.43,0,.85,.05,1.27,.16,.42,.11,.76,.25,1.02,.44l-.34,.81c-.59-.34-1.24-.5-1.95-.5-.82,0-1.43,.3-1.83,.89-.4,.59-.6,1.54-.6,2.82,0,2.47,.81,3.71,2.43,3.71,.69,0,1.39-.21,2.11-.63l.32,.81Z"/><path d="M31.51,1079.7h-1.1v2.06h-1.03v-2.06h-3.87v-.79l3.51-6.06h1.39v5.94h1.1v.9Zm-2.13-.9v-4.92l-2.83,4.92h2.83Z"/><path d="M62.51,1073.84c-.53-.18-1.03-.27-1.51-.27-.54,0-.98,.12-1.32,.37-.34,.25-.51,.6-.51,1.05,0,.54,.44,1.01,1.33,1.42,.66,.3,1.09,.51,1.3,.63,.21,.12,.43,.28,.65,.49s.39,.45,.53,.73,.2,.59,.2,.94c0,.87-.29,1.54-.87,2.01-.58,.48-1.27,.72-2.06,.72s-1.44-.15-2.01-.45l.21-.89c.68,.31,1.27,.46,1.77,.46,.59,0,1.06-.15,1.42-.46s.53-.72,.53-1.26c0-.4-.12-.73-.35-1.01-.23-.28-.66-.56-1.28-.84-.64-.29-1.05-.5-1.24-.6s-.37-.26-.56-.45c-.19-.19-.33-.4-.43-.64-.1-.24-.15-.49-.15-.77,0-.74,.26-1.31,.79-1.72s1.2-.62,2.01-.62c.59,0,1.18,.09,1.77,.27l-.23,.88Z"/><path d="M70.97,1081.46c-.66,.3-1.31,.45-1.95,.45-1.17,0-1.76-.62-1.76-1.86v-4.02h-1.26v-.85h1.26v-1.8h.96v1.8h2.23v.85h-2.23v3.76c0,.4,.09,.71,.26,.93,.18,.22,.42,.33,.72,.33,.54,0,1.07-.12,1.6-.36l.17,.76Z"/><path d="M78.65,1081.76h-.98v-.97c-.71,.75-1.45,1.13-2.23,1.13-1.23,0-1.85-.75-1.85-2.24v-4.49h.98v4.21c0,.56,.09,.98,.27,1.25,.18,.28,.48,.41,.9,.41,.6,0,1.25-.37,1.94-1.12v-4.75h.98v6.57Z"/><path d="M86.39,1081.76h-.98v-.95c-.2,.32-.49,.59-.87,.8-.38,.21-.77,.32-1.19,.32-.75,0-1.35-.33-1.79-1.01-.44-.67-.66-1.52-.66-2.55,0-.96,.23-1.76,.68-2.39,.46-.63,1.06-.95,1.81-.95,.83,0,1.5,.34,2,1.01v-3.18h.98v8.9Zm-.98-2.01v-2.73c-.47-.76-1.04-1.14-1.7-1.14-.54,0-.97,.24-1.29,.72-.32,.48-.47,1.09-.47,1.83s.15,1.38,.44,1.88c.3,.49,.7,.74,1.22,.74,.25,0,.5-.07,.75-.2,.25-.13,.49-.34,.71-.61,.22-.27,.33-.43,.33-.49Z"/><path d="M94.46,1075.19l-2.49,6.57c-.36,.97-.72,1.64-1.08,2.02-.36,.38-.76,.57-1.21,.57-.4,0-.8-.07-1.2-.22l.16-.79c.32,.1,.61,.15,.86,.15,.35,0,.64-.14,.87-.41s.46-.72,.69-1.34l-2.47-6.56h1.07l1.86,5.24,1.86-5.24h1.07Z"/><path d="M27.48,1095.52c.29-.08,.57-.11,.84-.11,.84,0,1.51,.26,1.99,.77,.49,.52,.73,1.16,.73,1.93s-.28,1.49-.85,2.05c-.57,.56-1.26,.84-2.08,.84s-1.43-.13-1.96-.39l.21-.88c.57,.24,1.16,.36,1.77,.36,.54,0,.98-.17,1.32-.52,.33-.35,.5-.84,.5-1.46,0-.59-.16-1.05-.47-1.37s-.72-.48-1.22-.48c-.36,0-.72,.07-1.07,.21l-.62-.28v-4.25h4.07v.9h-3.17v2.69Z"/><path d="M64.12,1091.93l-2.9,8.9h-1.24l-2.91-8.9h1.08l2.44,7.7,2.45-7.7h1.07Z"/><path d="M68.36,1094.1c.9,0,1.62,.32,2.16,.95s.8,1.46,.8,2.49-.27,1.88-.8,2.51-1.25,.95-2.16,.95-1.63-.32-2.16-.95c-.53-.63-.8-1.47-.8-2.51s.27-1.87,.8-2.49c.53-.63,1.25-.94,2.16-.94Zm0,6.04c.6,0,1.07-.25,1.41-.76s.52-1.12,.52-1.84c0-.76-.17-1.38-.51-1.87-.34-.49-.81-.73-1.42-.73s-1.08,.24-1.42,.72c-.34,.48-.5,1.11-.5,1.88s.17,1.35,.51,1.85c.34,.5,.81,.75,1.41,.75Z"/><path d="M77.02,1100.83h-.98v-5.72h-1.94v-.85h2.92v6.57Zm-.48-9.06c.18,0,.34,.07,.47,.2s.2,.29,.2,.48-.06,.36-.19,.49c-.13,.13-.29,.2-.48,.2-.17,0-.33-.07-.46-.21s-.2-.29-.2-.48,.07-.34,.2-.47,.28-.2,.46-.2Z"/><path d="M86.39,1100.83h-.98v-.95c-.2,.32-.49,.59-.87,.8-.38,.21-.77,.32-1.19,.32-.75,0-1.35-.33-1.79-1.01-.44-.67-.66-1.52-.66-2.55,0-.96,.23-1.76,.68-2.39,.46-.63,1.06-.95,1.81-.95,.83,0,1.5,.34,2,1.01v-3.18h.98v8.9Zm-.98-2.01v-2.73c-.47-.76-1.04-1.14-1.7-1.14-.54,0-.97,.24-1.29,.72-.32,.48-.47,1.09-.47,1.83s.15,1.38,.44,1.88c.3,.49,.7,.74,1.22,.74,.25,0,.5-.07,.75-.2,.25-.13,.49-.34,.71-.61,.22-.27,.33-.43,.33-.49Z"/></g><circle class="cls-2" cx="765.53" cy="1024.02" r="11.44"/><line class="cls-2" x1="765.53" y1="1024.02" x2="765.53" y2="1035.46"/><path d="M472.07,299.2h-4.68v-.9h1.89v-6.91l-1.78,.89v-1.04l1.92-.99h.89v8.05h1.76v.9Z"/><path d="M334.91,293.89c.29-.08,.57-.11,.84-.11,.84,0,1.51,.26,1.99,.77,.49,.52,.73,1.16,.73,1.93s-.28,1.49-.85,2.05c-.57,.56-1.26,.84-2.08,.84s-1.43-.13-1.96-.39l.21-.88c.57,.24,1.16,.36,1.77,.36,.54,0,.98-.17,1.32-.52,.33-.35,.5-.84,.5-1.46,0-.59-.16-1.05-.47-1.37s-.72-.48-1.22-.48c-.36,0-.72,.07-1.07,.21l-.62-.28v-4.25h4.07v.9h-3.17v2.69Z"/><path d="M338.94,149.93h-1.1v2.06h-1.03v-2.06h-3.87v-.79l3.51-6.06h1.39v5.94h1.1v.9Zm-2.13-.9v-4.92l-2.83,4.92h2.83Z"/><path d="M393.51,129.33c.54,.15,.98,.43,1.31,.83,.33,.4,.49,.85,.49,1.35,0,.78-.31,1.44-.92,1.97-.61,.53-1.33,.8-2.16,.8-.71,0-1.34-.16-1.9-.47l.2-.85c.58,.27,1.16,.41,1.73,.41,.54,0,1-.17,1.38-.5,.38-.33,.57-.76,.57-1.29s-.2-.94-.61-1.26c-.41-.32-.95-.49-1.62-.49h-.27v-.85h.08c.65,0,1.18-.15,1.6-.46,.42-.3,.63-.72,.63-1.23,0-.42-.15-.75-.45-.99-.3-.24-.72-.36-1.25-.36-.46,0-.97,.12-1.54,.37l-.14-.89c.57-.26,1.15-.39,1.73-.39,.79,0,1.45,.21,1.96,.63,.52,.42,.77,.96,.77,1.61,0,.45-.16,.88-.47,1.27-.31,.39-.69,.64-1.13,.74v.04Z"/><path d="M486.67,202.28h-4.9v-.75c1.24-1.38,2.05-2.31,2.42-2.78s.67-.96,.9-1.48c.23-.52,.35-1.03,.35-1.55s-.15-.89-.45-1.17c-.3-.29-.72-.43-1.26-.43-.42,0-.98,.13-1.68,.38l-.15-.89c.63-.27,1.3-.4,1.99-.4,.79,0,1.44,.22,1.92,.67,.49,.45,.73,1.05,.73,1.79,0,.53-.13,1.06-.38,1.59s-.57,1.03-.96,1.51-1.15,1.35-2.28,2.6h3.75v.9Z"/></g></svg>